<svg xmlns="http://www.w3.org/2000/svg" width="420.752" height="426.002" viewBox="0 0 420.752 426.002">
  <path id="Path_25" data-name="Path 25" d="M120.5,54.665c-11.03,15.71-31.7,20.655-47.819,31.072-27.2,17.574-40.731,51.253-41.4,83.629s9.733,63.915,21.583,94.053c7.943,20.2,18.468,42.025,38.642,50.033,20.125,7.988,42.7-.587,64.349-.211,27.726.48,52.773,15.58,79.161,24.1s60.261,8.121,76.2-14.574c8.642-12.308,10.045-28.78,19.472-40.5,10.839-13.474,30.061-17.921,40.985-31.326,11.148-13.681,10.928-33.81,4.729-50.334s-17.434-30.56-27.28-45.206c-18.93-28.158-33.238-59.478-54.838-85.645-13.965-16.916-30.536-27.846-49.1-38.987-14.651-8.79-28.581-21.3-44.726-27.3C184.9-2.307,169.886.852,155.345,8.214,133.659,19.194,133.211,36.564,120.5,54.665Z" transform="matrix(0.259, 0.966, -0.966, 0.259, 322.7, -30.315)" fill="#fcd1d3"/>
</svg>
