<svg xmlns="http://www.w3.org/2000/svg" width="167.947" height="187" viewBox="0 0 167.947 187">
  <g id="Group_6" data-name="Group 6" transform="translate(-287.284 -4455.64)">
    <g id="head_Afro" data-name="head/Afro" transform="translate(298.231 4455.64)">
      <path id="_Skin" data-name="âœ‹ Skin" d="M50.412.123c50.277-2.472,72.965,32.927,74.433,48.738,1.019,10.975-5.466,23.626-5.466,33.434,0,5.006,6.129,15.754,3.276,23.05-6.351,16.24-19.8,34.264-36.935,34.264s-39.438,4.739-58.373-22.372C25.571,114.693,3.1,100.235.916,86.5-4.522,52.276,14.537,1.887,50.412.123Z" transform="translate(14.403 27.3)" fill="#d08b5b"/>
      <path id="_Ink" data-name="ðŸ– Ink" d="M109.8,166.609c-1.578,0-3.261-.094-5.3-.3a80.366,80.366,0,0,1-12.738-2.169l-.669-.178a18.7,18.7,0,0,1-5.036-1.925,5.986,5.986,0,0,1-1.945-1.951,7.909,7.909,0,0,1-.98-2.587,1.956,1.956,0,0,1,.371-1.6,1.593,1.593,0,0,1,1.233-.606h.213c.184,0,.38-.007.617-.022l.191-.013h.01a.106.106,0,0,1,.033,0c.058-.008.116-.022.172-.034s.106-.024.16-.032a6.07,6.07,0,0,1,1-.085,7.943,7.943,0,0,1,2.562.479l.149.05a59.2,59.2,0,0,0,6.06,1.8c2.056.469,4.236.866,6.478,1.181l.216.027.066.01.033,0a.04.04,0,0,1,.02,0l.64.079c.506.06,1.016.114,1.509.166h0c.922.092,1.86.166,2.786.219.537.03,1.082.046,1.618.046,14.323,0,27.757-11.312,31.942-26.9a47.491,47.491,0,0,0,1.134-16.407,3.92,3.92,0,0,1-.219-1.323c0-.259.014-.515.03-.753-.286-2.8-.691-5.647-1.082-8.4-.348-2.452-.708-4.987-.985-7.485a140.44,140.44,0,0,1-.929-18.675A77.7,77.7,0,0,1,140,70.05l.156-1.1a10.643,10.643,0,0,1-5.2-2.642,10.633,10.633,0,0,1-5.31,1.425,9.422,9.422,0,0,1-4.963-1.365,11.813,11.813,0,0,1-6.206,1.738,10.713,10.713,0,0,1-5.583-1.492,9.7,9.7,0,0,1-2.6,1.321,9.156,9.156,0,0,1-2.874.467,8.891,8.891,0,0,1-1.9-.205,8.5,8.5,0,0,1-3.337-1.582,9.7,9.7,0,0,1-1.679.149c-.158,0-.317,0-.474-.012l-.148.083a10.947,10.947,0,0,1-5.088,1.387c-.1,0-.192,0-.288,0a12.747,12.747,0,0,1-4.169-.844,11.839,11.839,0,0,1-4.648,1.656,10.748,10.748,0,0,1-1.34.084,10.27,10.27,0,0,1-5.744-1.7A14.583,14.583,0,0,1,71.389,69.3a15,15,0,0,1-5.029-.861,11.3,11.3,0,0,1-3.274,3.5,7.333,7.333,0,0,1,.231,2.628,10.691,10.691,0,0,1-1.082,3.875,6.934,6.934,0,0,1,.459,4.463,11,11,0,0,1-3.521,5.775,10.844,10.844,0,0,1-5.364,8.894,4.428,4.428,0,0,1-.488.243,2.408,2.408,0,0,1-.508.511A5.933,5.933,0,0,1,48.7,99.782,9.894,9.894,0,0,1,44.938,99l-.055,0h0l-.091,0H44.7a2.13,2.13,0,0,1-1.833-.864,8.6,8.6,0,0,0-1.121.13,15.593,15.593,0,0,0-4.1,1.383c-2.923,1.5-4.653,4.222-5.141,8.08a11.487,11.487,0,0,0,3.579,10.319,9.791,9.791,0,0,0,2.414,1.539,11.48,11.48,0,0,0,2.737.843,7.866,7.866,0,0,0,1.368.1c.214,0,.432,0,.641-.009h.011c.208,0,.423-.009.631-.009a5.848,5.848,0,0,1,1.685.195,3.047,3.047,0,0,1,1.465.96,1.387,1.387,0,0,1,.348,1.317,3.027,3.027,0,0,1-2.7,2.252,75.112,75.112,0,0,0,6.094,6.548c.46.432.931.869,1.386,1.292l.017.016a73.955,73.955,0,0,1,5.549,5.529,45.657,45.657,0,0,1,3.173,4.043,28.153,28.153,0,0,1,2.542,4.459c.62,1.387,1.155,2.832,1.673,4.228v0c.158.427.322.868.486,1.3l.125.323c.086.218.177.438.265.651a11.666,11.666,0,0,1,.847,2.6,4.175,4.175,0,0,1,0,1.32,3.9,3.9,0,0,1-.5,1.351,3.306,3.306,0,0,1-.984,1.02,2.466,2.466,0,0,1-1.35.457,1.714,1.714,0,0,1-.22-.014c-2.859-.365-3.777-2.354-4.6-4.72-.28-.8-.536-1.629-.783-2.428-.327-1.057-.666-2.149-1.064-3.2-.121-.316-.26-.649-.423-1.017a5.372,5.372,0,0,1-1.442.194,6.4,6.4,0,0,1-3.393-1.022,11.7,11.7,0,0,1-4.7,1l-.194,0a11.278,11.278,0,0,1-5.959-1.758l-.081-.021-.019-.005h-.005c-.1-.027-.206-.054-.309-.083a9.358,9.358,0,0,1-3.358.624,8.363,8.363,0,0,1-4.759-1.432,8.742,8.742,0,0,1-1.957-1.833,8.571,8.571,0,0,1-1.248-2.219,8.462,8.462,0,0,1-2.916-.565,7.245,7.245,0,0,1-2.491-1.6,7.9,7.9,0,0,1-1.563-2.2,8.31,8.31,0,0,1-.748-2.529,8.6,8.6,0,0,1-2.47-.889,8.124,8.124,0,0,1-2.128-1.684,7.862,7.862,0,0,1-1.915-4.207A8.228,8.228,0,0,1,10.24,124.9a7.317,7.317,0,0,1-.851-2.736,7.475,7.475,0,0,1,.222-2.718l-.122-.175a8.011,8.011,0,0,1-2.733-2.243,6.177,6.177,0,0,1-1.241-3.377,6.519,6.519,0,0,1,.237-2.216,6.656,6.656,0,0,1,.182-2.361,10.116,10.116,0,0,1-1.818-2.4,10.547,10.547,0,0,1-1.051-2.807,10.206,10.206,0,0,1-.211-2.98,9.4,9.4,0,0,1,.7-2.92,10.248,10.248,0,0,1-2.6-5.536,9.872,9.872,0,0,1,.05-3.068,8.894,8.894,0,0,1,1.041-2.9,8.857,8.857,0,0,1-1.6-2.9A9.248,9.248,0,0,1,.013,80.2,12.031,12.031,0,0,1,1.02,76.055a21.98,21.98,0,0,1,2.1-3.722,6.914,6.914,0,0,1-1.357-2.3,7.36,7.36,0,0,1-.427-2.641A8.35,8.35,0,0,1,2.291,63.8a13.588,13.588,0,0,1,2.194-3.04,10.925,10.925,0,0,1-.014-6.791,11.5,11.5,0,0,1,3.862-5.542,6.334,6.334,0,0,1-.776-4.276,6.878,6.878,0,0,1,1.65-3.443,13.88,13.88,0,0,1,2.961-2.515,6.294,6.294,0,0,1,.388-4.6,7.9,7.9,0,0,1,1.993-2.569,16.243,16.243,0,0,1,2.694-1.86,7.309,7.309,0,0,1,.787-2.568,8.186,8.186,0,0,1,1.611-2.154,7.628,7.628,0,0,1,2.184-1.482A6.151,6.151,0,0,1,24.33,22.4a5.534,5.534,0,0,1,2.7.7,5.152,5.152,0,0,1,.735-4.4A6.914,6.914,0,0,1,29.8,16.7a6.3,6.3,0,0,1,2.69-.979A10.128,10.128,0,0,1,34.1,12.7a11.194,11.194,0,0,1,2.473-2.345A11.368,11.368,0,0,1,43,8.3a10.038,10.038,0,0,1,2.366.28,10.114,10.114,0,0,1,3.725-3.095A10.743,10.743,0,0,1,53.769,4.4a10.316,10.316,0,0,1,3.6.641,16.024,16.024,0,0,1,4.754-2.519,16.5,16.5,0,0,1,5.156-.81,19.366,19.366,0,0,1,6.112,1.023A7.6,7.6,0,0,1,76.5.66,10.838,10.838,0,0,1,80.267,0c.219,0,.439.006.655.019a20.2,20.2,0,0,1,5.566,1.416,19.618,19.618,0,0,0,5.657,1.414c.251.012.512.017.776.017a35.926,35.926,0,0,0,4.518-.382h.009a35.858,35.858,0,0,1,4.5-.38,14.578,14.578,0,0,1,2.329.175,12.294,12.294,0,0,1,3.642,1.182,9.311,9.311,0,0,1,2.965,2.351,13.7,13.7,0,0,1,3.77-.527,14.1,14.1,0,0,1,3.241.38,14.548,14.548,0,0,1,8.161,5.279,8.471,8.471,0,0,1,1.295-.1,9.918,9.918,0,0,1,5.635,1.842,9.283,9.283,0,0,1,3.553,4.7,11.527,11.527,0,0,1,4.046.889,12.612,12.612,0,0,1,3.524,2.2,11.269,11.269,0,0,1,3.863,7.156,8.917,8.917,0,0,1,5.337,4.146,12.488,12.488,0,0,1,1.357,7.689,7.154,7.154,0,0,1,3,2.986,11.556,11.556,0,0,1,1.3,4.262,7.5,7.5,0,0,1,2.551,3.544,9.1,9.1,0,0,1,.391,4.477,5.148,5.148,0,0,1,2.074,2.371,7.664,7.664,0,0,1,.693,3.2c0,.59-.052,1.164-.1,1.719a8.462,8.462,0,0,0,.3,3.983,10.1,10.1,0,0,1,.655,2.446,7.735,7.735,0,0,1-.118,2.507l-.037.176c-.061.277-.116.556-.168.853a5.215,5.215,0,0,1,1.229,1.613,7.993,7.993,0,0,1,.809,3.64,10.717,10.717,0,0,1-.707,3.664,7.3,7.3,0,0,1-.232,4.512,8.321,8.321,0,0,1,1.186,2.516,8,8,0,0,1,.268,2.829,8.722,8.722,0,0,1-2.684,5.566,9.42,9.42,0,0,1-.527,4.469,10.087,10.087,0,0,1-2.467,3.809,7.843,7.843,0,0,1-.931,5.332,7.34,7.34,0,0,1-2.706,2.722,8.756,8.756,0,0,1-.429,3.026,9.691,9.691,0,0,1-2.258,3.76,8.312,8.312,0,0,1-.076,2.948,8.77,8.77,0,0,1-1.071,2.765,7.828,7.828,0,0,1-4.688,3.609,4.2,4.2,0,0,1-.99.141,42.579,42.579,0,0,1-2.681,10.964,45.208,45.208,0,0,1-3.156,6.47,44.656,44.656,0,0,1-4.146,5.878,41.654,41.654,0,0,1-10.912,9.3,37.984,37.984,0,0,1-6.5,3.022,36.862,36.862,0,0,1-6.957,1.731A32.657,32.657,0,0,1,109.8,166.609ZM45.346,112.482A1.791,1.791,0,0,1,43.67,111.4a12.8,12.8,0,0,0-1.6-2.667c-.106.148-.2.3-.309.486l-.1.168-.019.032c-.067.112-.136.228-.193.346a2.394,2.394,0,0,1-.084.3l-.012.038a2.543,2.543,0,0,1-1.675,1.642,1.6,1.6,0,0,1-.53.091,1.777,1.777,0,0,1-1.129-.431,2.36,2.36,0,0,1-.71-1,2.121,2.121,0,0,1,.314-2,4.2,4.2,0,0,1,1.683-1.337,3.792,3.792,0,0,0-3.43,1.2.181.181,0,0,1-.135.061.215.215,0,0,1-.21-.2,3.037,3.037,0,0,1,.349-1.57,3.8,3.8,0,0,1,1.028-1.208,5.533,5.533,0,0,1,3.024-1.129c.1-.006.209-.009.312-.009a5.86,5.86,0,0,1,2.215.444,7.991,7.991,0,0,1,1.934,1.155,16.1,16.1,0,0,1,3.053,3.389,1.786,1.786,0,0,1,.162,1.926A2.672,2.672,0,0,1,45.346,112.482Z" transform="translate(-10.947 2.653)"/>
    </g>
    <g id="face_Driven" data-name="face/Driven" transform="translate(336.313 4524.313)">
      <path id="_Ink-2" data-name="ðŸ– Ink" d="M41.53,55.838a9.806,9.806,0,0,1-3.032-.462,10.028,10.028,0,0,1-3.106-1.686,10.177,10.177,0,0,1-2.355-2.659,8.191,8.191,0,0,1-1.1-2.906,6.913,6.913,0,0,1,.2-3.153.314.314,0,0,1,.227-.192,7.5,7.5,0,0,1,1.17,1.419l.006.008a12.453,12.453,0,0,0,1.848,2.269,8.493,8.493,0,0,0,4.035,2.064,6.424,6.424,0,0,0,4.185-.656,10.535,10.535,0,0,0,2.037-1.535l.074-.067a6.915,6.915,0,0,1,2.214-1.507,1.935,1.935,0,0,1,.669-.118,2.48,2.48,0,0,1,1.477.537,2.958,2.958,0,0,1,.8.924,2.285,2.285,0,0,1,.293,1.161,4.851,4.851,0,0,1-1.391,3.175,11.21,11.21,0,0,1-4.052,2.582A11.6,11.6,0,0,1,41.53,55.838Zm1.658-18.279h0a11.58,11.58,0,0,1-4.129-.832A20.855,20.855,0,0,1,34.2,33.972a1.866,1.866,0,0,1-.678-1.078,2.233,2.233,0,0,1,.1-1.21,2.753,2.753,0,0,1,.817-1.182,1.99,1.99,0,0,1,1.274-.5,1.808,1.808,0,0,1,.985.3l.331.256c1.688,1.305,4.238,3.277,6.684,3.277a3.99,3.99,0,0,0,2.973-1.319,4.4,4.4,0,0,0,.834-3.539c-.565-2.752-3.557-4.759-4.461-5.308a.833.833,0,0,1-.225-.957,1.239,1.239,0,0,1,1.207-.858,1.689,1.689,0,0,1,.285.025A9.008,9.008,0,0,1,47.5,23.027a7.186,7.186,0,0,1,2.13,1.964,7.8,7.8,0,0,1,1.36,5.214,8.326,8.326,0,0,1-2.267,5.088A7.505,7.505,0,0,1,43.189,37.559Zm12.826-12.5a2.277,2.277,0,0,1-1.7-.765,6.383,6.383,0,0,1-1.32-3.008,12.822,12.822,0,0,1-.233-3.077l.017-.254a13.386,13.386,0,0,1,1.015-4.447c.593-1.292,1.363-1.974,2.225-1.974,1.675,0,2.709,1.457,3.281,2.679a11.139,11.139,0,0,1,1,4.266v.075a9.858,9.858,0,0,1-1.1,4.056,5.677,5.677,0,0,1-1.334,1.734A2.845,2.845,0,0,1,56.014,25.055Zm-36.27,0A2.845,2.845,0,0,1,17.9,24.34a5.677,5.677,0,0,1-1.334-1.734,9.858,9.858,0,0,1-1.1-4.056v-.075a11.139,11.139,0,0,1,1-4.266c.572-1.222,1.606-2.679,3.281-2.679.884,0,1.668.715,2.267,2.067A13.793,13.793,0,0,1,23,18.206l.007.138c.06,1.432-.193,4.521-1.578,5.965A2.272,2.272,0,0,1,19.745,25.055ZM30.98,12.328A27.86,27.86,0,0,1,26.814,12a24.509,24.509,0,0,1-5.368-1.665c-1.066-.424-2.167-.862-3.306-1.2A12.719,12.719,0,0,0,14.5,8.674a35.252,35.252,0,0,0-4.575.378l-1.042.14-.025,0c-1.519.2-3.09.416-4.615.717-.447.088-.9.2-1.341.314a13.29,13.29,0,0,1-2.677.486H.214a.221.221,0,0,1-.19-.127.189.189,0,0,1,.009-.2,12.532,12.532,0,0,1,3.2-2.893A30.069,30.069,0,0,1,7.071,5.37l.164-.077a25.8,25.8,0,0,1,9.479-2.716c.168-.008.339-.012.509-.012a20.367,20.367,0,0,1,5.968,1.2c1.039.32,2.114.65,3.2.883a14.911,14.911,0,0,0,3.118.323,21.362,21.362,0,0,0,5.775-.885,4.177,4.177,0,0,1,1.124-.162,3.315,3.315,0,0,1,2.408,1.009,4.169,4.169,0,0,1,1.123,2.311,3.941,3.941,0,0,1-.423,2.494,3.665,3.665,0,0,1-2.206,1.7A21.858,21.858,0,0,1,30.98,12.328Zm16.992-1.695a9.324,9.324,0,0,1-2.783-.413,4.054,4.054,0,0,1-2.3-1.826,3.758,3.758,0,0,1-.384-2.91,4.089,4.089,0,0,1,3.7-2.878,2.894,2.894,0,0,1,.947.157l.087.032a4.017,4.017,0,0,0,1.438.246,11.01,11.01,0,0,0,3.659-.851l1.326-.5.543-.207A16.87,16.87,0,0,1,60.167,0h.082l.218,0a9.859,9.859,0,0,1,5.063,1.6,7.279,7.279,0,0,1,3.106,4.168.177.177,0,0,1-.029.157.2.2,0,0,1-.155.076.184.184,0,0,1-.128-.051,4.252,4.252,0,0,0-3.033-1.2c-1.848,0-3.812.985-5.545,1.855-.424.213-.825.414-1.214.6l-1.076.5-.225.1a47.858,47.858,0,0,1-4.513,1.915A14.543,14.543,0,0,1,47.972,10.634Z" transform="translate(13.6 21.561)"/>
    </g>
  </g>
</svg>
