<svg xmlns="http://www.w3.org/2000/svg" width="374.445" height="439.383" viewBox="0 0 374.445 439.383">
  <g id="Group_2" data-name="Group 2" transform="translate(-878 -2227.5)">
    <g id="body_Macbook" data-name="body/Macbook" transform="translate(878 2398.081)">
      <path id="_Skin" data-name="âœ‹ Skin" d="M356.283,85.659,340.566,87.2c-25.091,1.917-50.172,5.921-75.071,8.323a1.61,1.61,0,0,0-2.57-.142c-2.485-.218-5.269-2.117-7.52-.141-.073-.01-.146-.022-.22-.029-4.007-7.691-6.777-15.895-9.465-24.109-1.716-5.05-4.024-9.939-8.291-13.33-7.281-5.054-23.962-15.3-32.512-14.872a6.346,6.346,0,0,0-2.027-4.128c2.582-4.4-7.743-7.275-8.471-6.764.467-14.708-6.452-27.481-21.707-30.41-13.667-2.848-33.106-3.326-40.456,10.957-.808-.091-9.067-.134-9.866-.044-1.242-1.574-14.887,13.338-9.295,18.529C63.1,53.158,34.669,50.519,20.83,112.7c-1.871,5.841-2.007,12.233-3.983,17.943C9.819,147.051,4.119,164.527,2.7,182.384c-3.427.878-3.821,6.92.148,7.794a9.282,9.282,0,0,1,3.889,1.656c-.864,14.634,2.675,48.063,4.905,47.96,4.547,14.471,24.83,18.556,39.189,13.47-2.475,4.657,0,7.585,0,10.073,51.668,1.955,108.162.829,159.817,3.51,6.607-.094,13.557,1.623,20.074.635,3.975-.953,3.981-7.2-.05-7.975l17.615-3.826c-.394-.149,7.261-5.24,13.047-14.755,5.385-10.644,1.72-23.491,4.16-35.069,19.058-1.559,38.431-2.225,57.281-5.452,2.57,7.69,13.7-1.507,17.232-5.206l-.013-.017a4.3,4.3,0,0,0,3.13-3.971,5.214,5.214,0,0,0,.3-5.789c5.275-30.44,13.318-61.521,16.225-92.247a6.505,6.505,0,0,0,2.816-1.372l-.066-.066c1.39-1.55,1.66-4.225-.657-5.542C359.872,85.13,358.311,85.46,356.283,85.659Z" transform="translate(9.173 -8.805)" fill="#d08b5b"/>
      <path id="_Top" data-name="ðŸ‘• Top" d="M219.785,259.235c-6.939,0-17.122-.679-30.269-2.018-5.785-.589-17.689-1.145-35.38-1.65-14.984-.428-31.2-.743-43.034-.973h-.035c-6.176-.12-11.054-.214-13.948-.29l-.794-.021c-8.195-.236-16.454-.356-24.549-.356s-16.253.12-24.248.356v-9.906L93.39,221.628l41.092-23.114,19.812-9.172,4.036,2.568,33.02,10.64,20.179,2.568,16.51-2.568V230.8l3.3,26.416c-.365.67-1.522,1.179-3.44,1.513A50.313,50.313,0,0,1,219.785,259.235ZM62.592,185.153H54.068L4.47,173.176,0,171.7a123.493,123.493,0,0,1,1.847-13.2c.815-4.2,1.874-8.571,3.148-12.992a214.606,214.606,0,0,1,9.117-25.119,57.843,57.843,0,0,0,2.082-9.229,63.133,63.133,0,0,1,1.9-8.715c2.742-12.32,6.095-22.3,10.249-30.521,1-1.976,2.063-3.882,3.163-5.665,1.079-1.749,2.227-3.437,3.414-5.017a59.461,59.461,0,0,1,7.6-8.371A75.308,75.308,0,0,1,60.978,40.838c6.9-3.337,14.4-6.179,23.078-9.469h0c7.858-2.979,16.764-6.356,26.3-10.574a4.278,4.278,0,0,1-1.335-3.1,9.966,9.966,0,0,1,.808-3.935,28.913,28.913,0,0,1,5.018-7.878,23.985,23.985,0,0,1,2.7-2.7,3.814,3.814,0,0,1,1.828-1.038.328.328,0,0,1,.273.116l.078-.007.169-.009.218-.008c.573-.017,1.612-.026,2.928-.026,2.668,0,5.983.039,6.473.094A21.377,21.377,0,0,1,130.9,0l3.033,2.265-6.621,10.878,32.255,26.09V60.072l10.212,9.658,5.837-9.658,8.225-10.937,5.845-17.73-1.99-11.681,4-.377c.019.8.016,1.608-.01,2.415a.632.632,0,0,1,.329-.059,15.226,15.226,0,0,1,6.5,2.4,5.57,5.57,0,0,1,1.687,1.711,2.545,2.545,0,0,1-.044,2.71,6.333,6.333,0,0,1,2.027,4.128c.175-.009.355-.013.535-.013a24.034,24.034,0,0,1,7.661,1.63,73.238,73.238,0,0,1,8.913,3.956c2.739,1.413,5.639,3.056,8.62,4.885,3.01,1.847,5.35,3.42,6.783,4.414a21.052,21.052,0,0,1,5.1,6.043,39.589,39.589,0,0,1,3.189,7.287l.4,1.232.417,1.265.42,1.264a139.291,139.291,0,0,0,8.224,20.348c.055.005.111.013.161.021h.01l.05.007a3.509,3.509,0,0,1,2.416-.89,10.773,10.773,0,0,1,2.808.531,13.02,13.02,0,0,0,2.3.5,1.984,1.984,0,0,1,1.339-.571,1.384,1.384,0,0,1,1.187.643l.044.069-30.955,6.1-20.421,71.634L193.6,148.573l-9.546,1.42-25.209,9.092L129.524,166.7Z" transform="translate(11.908 1.443)" fill="#ffcf77"/>
      <path id="_Computer" data-name="ðŸ’» Computer" d="M46.909,125.127h0c2.082-7.882,3.69-14.365,5.06-20.4.516-2.273,1.032-4.585,1.531-6.82V97.9c1.194-5.347,2.429-10.875,3.748-16.291,3.688-15.144,7.935-30.651,12.621-46.091.963-3.172,1.965-6.394,2.979-9.577l.712-2.227.548-1.774c.85-2.709,1.888-5.48,4.385-6.978,2.313-1.388,5.244-1.848,8.078-2.292.733-.115,1.425-.224,2.1-.348l2.236-.42c3.329-.621,6.709-1.227,10.047-1.8,15.982-2.749,32.267-4.983,48.4-6.64,8.354-.858,16.877-1.58,25.332-2.147,8.378-.561,16.921-.985,25.391-1.26L201.779,0l-.922,5.138c-.217.071-.442.132-.668.183-.281,2.971-.622,6.066-1.015,9.2L193.458,46.38c-1.017,5.812-1.966,11.553-2.851,16.936l-1.231,6.07-.762,3.772c-1.553,7.706-3.191,16-4.649,24.41a4,4,0,0,1,.5.983l-.108.456-.075.3-.077.3a25.124,25.124,0,0,1-1.012,3.125,14.469,14.469,0,0,1-1.488,2.819,9.7,9.7,0,0,1-2.131,2.256,8.725,8.725,0,0,1-2.943,1.435,43.941,43.941,0,0,1-7.964,1.153c-.909.076-1.848.154-2.754.249l-.392.043-61.88,6.959c-6.512.732-13.428,1.529-22.423,2.582l-6.478.76c-1.56.181-3.149.358-4.685.529l-.018,0c-7.35.819-14.951,1.666-22.3,3.23a2,2,0,0,0-.818.371ZM138.65,43.718a1.351,1.351,0,0,0-1.349,1.636l.043.222a6.974,6.974,0,0,1-.432,3.925,9.963,9.963,0,0,1-2.252,3.307,12.675,12.675,0,0,1-2,1.5c-1.3.85-2.645,1.728-3.153,3.171a3.021,3.021,0,0,0,.952,3.329l-.213.1-.208.106-.2.107-.2.108-.193.109c-1.618.93-3.63,2.471-4.021,4.531a4.561,4.561,0,0,0,1.157,3.746c2.09,2.615,6,3.941,11.625,3.941.943,0,1.932-.035,3.022-.108l.318-.022c3.48-.261,9.731-1.4,12.5-6.116a4.86,4.86,0,0,0-.575-5.951,7.322,7.322,0,0,0-4.237-2.154,5.226,5.226,0,0,0-.347-2.457,4.791,4.791,0,0,0-4.186-2.643c.129-3.05-2.157-6.12-3.994-8.587-.153-.2-.31-.417-.463-.624l-.2-.271-.193-.266a1.475,1.475,0,0,0-1.2-.64Zm-92.613,81h0a2.4,2.4,0,0,0-1.4-.415h-.112a44.2,44.2,0,0,1-11.092-1.538,103.71,103.71,0,0,1-10.682-3.527l-1.071-.408-2.984-1.147c-2.749-1.053-5.954-2.259-9.191-3.242l-1.256-.379-.638-.189A34.339,34.339,0,0,0,.333,112.41L0,112.392l.713-.374a1.683,1.683,0,0,0,.277-.182c.488.036.946.054,1.4.054a15.146,15.146,0,0,0,2.719-.237,25.522,25.522,0,0,0,7.655-2.7l1.065-.577.436-.232.288-.15.287-.145a14.375,14.375,0,0,1,2.3-.945,8.442,8.442,0,0,1,2.452-.371,8.861,8.861,0,0,1,1.842.2,25.868,25.868,0,0,1,6.6,2.727c.512.269,1.04.547,1.562.811l.47.234.316.153.322.152.326.149a15.991,15.991,0,0,0,6.256,1.671,4.116,4.116,0,0,0,4.394-3.189,6.68,6.68,0,0,0-.837-5.392c.065-.006.13-.008.194-.008a10.755,10.755,0,0,1,3.439,1.028,14.716,14.716,0,0,0,3.722,1.168l.158.013-2.311,18.477ZM138.06,70.987c-2.413,0-5.906-.2-8.368-1.885a3.542,3.542,0,0,1-1.707-2.414,2.9,2.9,0,0,1,.9-2.311c.86-.936,1.749-1.9,2.671-2.845a3.674,3.674,0,0,0,1.612.378,5.819,5.819,0,0,0,2.362-.607.158.158,0,0,0,.09-.187.2.2,0,0,0-.185-.166,5.875,5.875,0,0,1-2.1-.828c-.461-.265-1.541-.943-1.627-1.512-.114-.759,1.122-1.4,1.94-1.831h0l.25-.132.11-.06.1-.055a14,14,0,0,0,2.225-1.67,11.834,11.834,0,0,0,3.543-5.789l.048-.2,1.776,6.653-.031.055a1.2,1.2,0,0,0,.049,1.2,1.389,1.389,0,0,0,1.147.689,1.09,1.09,0,0,0,.791-.348l.1-.105a1.271,1.271,0,0,1,.935-.419,1.958,1.958,0,0,1,1.372.691,2.241,2.241,0,0,1,.642,1.407,4.049,4.049,0,0,1-.727,2.368,6.305,6.305,0,0,1-1.79,1.712l-.1.063-.256.159a1.062,1.062,0,0,0-.483,1.23,1.307,1.307,0,0,0,1.249.918,1.38,1.38,0,0,0,.208-.016,5.153,5.153,0,0,0,3.6-3,8.132,8.132,0,0,0,.912.186,5.168,5.168,0,0,1,1.753.516,2.066,2.066,0,0,1,1.185,1.554,2.737,2.737,0,0,1-.444,1.67,6.587,6.587,0,0,1-1.243,1.494l-.059.053-.118.1a12.482,12.482,0,0,1-4.544,2.389,21.478,21.478,0,0,1-5.106.821l-.2.009C139.865,70.954,138.975,70.987,138.06,70.987Z" transform="translate(168.624 79.029)" fill="#fff"/>
      <path id="_Ink" data-name="ðŸ– Ink" d="M236.319,262.177a1.375,1.375,0,0,1-1.02-.452,6.412,6.412,0,0,1-1.428-2.527,19.4,19.4,0,0,1-.591-2.867v-.008c-.049-.318-.1-.647-.155-.97-.387-2.262-.737-4.611-1.072-7.182-.7-5.406-1.09-9.856-1.217-14.007-.147-4.78-.09-9.632.168-14.423.126-2.335.287-4.844.611-7.38.149-1.168.279-2.147.426-3.133.055-.368.116-.739.188-1.136l-3.966.448c-5.809.648-12.007,1.29-18.292,1.387h-.035a1.982,1.982,0,0,1-1.613-.8,2.277,2.277,0,0,1-2.022,1.082h-.012c-8.727-.032-16.836-2.963-24.3-6.125-1.865-.791-3.746-1.625-5.565-2.432l-.008,0c-2.005-.89-4.079-1.81-6.136-2.673-1.512-.634-3.092-1.2-4.621-1.753a67.228,67.228,0,0,1-6.54-2.615l-9.4,4.931a3.864,3.864,0,0,1-1.544,2.159,8.328,8.328,0,0,1-1.758.942,7.308,7.308,0,0,1-2.814.561,7.644,7.644,0,0,1-.787-.041c-8.6,4.5-15.195,7.956-21.395,11.191l-7.137,3.72c-4.127,2.149-8.283,4.326-12.3,6.431-9.935,5.2-20.208,10.584-30.389,15.727l-1.053.53a128.368,128.368,0,0,1-15.734,6.865,27.942,27.942,0,0,0,.081,4.208l.028.32c.013.133.026.266.04.407l0,.015a12.65,12.65,0,0,1,.083,2.557,3.215,3.215,0,0,1-1,2.169,1.825,1.825,0,0,1-1.2.449,1.416,1.416,0,0,1-1.313-.773,4.933,4.933,0,0,1-.4-2.5,21.591,21.591,0,0,1,.385-2.75c.078-.422.151-.819.206-1.189a18.078,18.078,0,0,1,.4-2.055,56.032,56.032,0,0,1-6.76,1.585,41.882,41.882,0,0,1-6.832.588,34.489,34.489,0,0,1-5.572-.445c-5.468-.9-10.357-4.086-14.945-9.748a44.186,44.186,0,0,1-5.246-8.175,44.751,44.751,0,0,1-3.341-9.123,62.793,62.793,0,0,1-1.611-10.942c-.249-3.715-.264-7.517-.244-11.073.025-4.365.124-8.223.3-11.8.212-4.22.535-8.066.987-11.755a12.738,12.738,0,0,0-2.827-.4c-.15,0-.3,0-.438.015a2.27,2.27,0,0,1-.93.828,2.736,2.736,0,0,1-1.2.273,2.782,2.782,0,0,1-.327-.019,1.475,1.475,0,0,0-.414,1.405c.186.73.938,1.494,2.235,2.271a16.683,16.683,0,0,0,2.867,1.34.591.591,0,0,1,.375.663.478.478,0,0,1-.493.419H7.674l-.408-.019c-2.543-.135-5.1-.578-6.556-2.885a4.432,4.432,0,0,1-.679-2.924A4.754,4.754,0,0,1,1.291,175.9c.831-7.858,2.727-15.656,4.561-23.2l.012-.048c.21-.862.426-1.753.638-2.629,1.878-7.789,4.059-15.983,6.667-25.05l1.071-3.716c1.811-6.27,3.779-12.975,5.9-19.519,2.331-7.179,4.612-13.437,6.974-19.131,1.458-3.516,2.853-6.527,4.263-9.207A65.2,65.2,0,0,1,36.733,64.8,60.59,60.59,0,0,1,42.9,57.721a63.229,63.229,0,0,1,7.173-6.05,85.367,85.367,0,0,1,15.315-8.637c5.292-2.374,10.782-4.4,16.409-6.436l.492-.178c5.478-1.982,11.33-4.126,17.016-6.38,2.575-1.021,5.135-2.2,7.61-3.344,2.314-1.067,4.707-2.171,7.1-3.14-.164-.3-.321-.6-.467-.887l-.092.077,0,0h0c-.014.011-.029.023-.045.033a1.1,1.1,0,0,1-.633.187,1.528,1.528,0,0,1-1.011-.4,2.023,2.023,0,0,1-.722-1.707,3.749,3.749,0,0,1,.729-1.738l.1-.145c.722-1.012,1.4-2.085,2.047-3.122.191-.305.408-.651.62-.983l.548-.86a35.736,35.736,0,0,1,4.966-6.509A10.742,10.742,0,0,1,123,5.477a.1.1,0,0,1,.016-.1,1.068,1.068,0,0,1,.724-.337.269.269,0,0,1,.181.054,17.3,17.3,0,0,1,5.981-.905c1.668,0,3.358.144,4.812.278l.692-2.2A3.7,3.7,0,0,1,136.722.544,3.053,3.053,0,0,1,138.467,0a3.2,3.2,0,0,1,3.085,2.35,3.945,3.945,0,0,1,.091,1.638,22.068,22.068,0,0,1-2.91,7.22,17.746,17.746,0,0,1-3.636,4.787c2.715,2.533,5.549,4.986,8.422,7.291a103.92,103.92,0,0,0,9.9,7c.927.579,1.881,1.147,2.8,1.7a66.453,66.453,0,0,1,6.175,3.99A24.053,24.053,0,0,1,166.05,39.3a14.13,14.13,0,0,1,2.6,4.185,11.741,11.741,0,0,1,.736,5.052,23.069,23.069,0,0,1-.958,5.05l-.11.376c-.115.389-.238.777-.367,1.189-.951,3.024-2.029,6.451.043,9.193a16.908,16.908,0,0,0,3.177,2.958c.418.328.851.666,1.258,1.01a34.594,34.594,0,0,1,3.735,3.66,30.253,30.253,0,0,1,5.826,9.673l.115.326a21.3,21.3,0,0,1,1.181,5.116,9.726,9.726,0,0,1-.762,5.073.95.95,0,0,1-.894.545,1.185,1.185,0,0,1-1.149-.812,21.673,21.673,0,0,1-.545-3.266,25.9,25.9,0,0,0-.421-2.773,22.838,22.838,0,0,0-2.282-5.923,32.081,32.081,0,0,0-7.846-9.311l-.951-.773a21.266,21.266,0,0,1-3.367-3.277,9.023,9.023,0,0,1-1.887-4.275c-.43-2.878.415-5.677,1.233-8.384l0-.007c.2-.67.411-1.362.6-2.042a11.605,11.605,0,0,0,.159-6.795,28.534,28.534,0,0,1-2.187,2.954c-.264.326-.513.634-.751.939-1.426,1.827-2.879,3.665-4.284,5.443l-.19.241L156.7,55.984c-2.1,2.656-3.894,5.055-5.5,7.333-.847,1.2-1.658,2.378-2.339,3.368-.318.461-.712.932-1.093,1.387l0,0c-.319.38-.648.774-.937,1.165a1.509,1.509,0,0,1-.137,1.371,2.551,2.551,0,0,1-2.028,1.218c-1.254,0-2.71-1.138-4.328-3.385a40.946,40.946,0,0,1-2.962-5l-.07-.135-.026-.05c-1.267-2.431-2.39-4.979-3.476-7.442-1.1-2.492-2.235-5.068-3.52-7.526a117.694,117.694,0,0,0-9.021-14.622c-.77-1.06-1.587-2.111-2.377-3.127-1.3-1.667-2.636-3.391-3.792-5.185a38.771,38.771,0,0,1-7.376,5.108c-2.737,1.512-5.687,2.857-8.058,3.938h0C95.139,36.47,90.407,38.266,85.832,40l-.009,0c-1.308.5-2.66,1.01-3.986,1.521l-1.762.684c-5.8,2.263-10.624,4.252-15.321,6.6a71.716,71.716,0,0,0-14.02,8.936,52.693,52.693,0,0,0-6.8,6.85,63.966,63.966,0,0,0-5.5,7.816,84.345,84.345,0,0,0-4.451,8.512c-1.251,2.74-2.442,5.663-3.64,8.937-2.381,6.509-4.687,13.409-7.047,21.094-1.946,6.336-3.908,13.126-6.174,21.369-2.025,7.365-3.944,14.766-5.7,22-.539,2.213-1.054,4.471-1.553,6.654l0,.007C8.9,165.2,7.906,169.552,6.7,173.776c.163-.006.327-.008.486-.008a33.438,33.438,0,0,1,6.944,1.022c1.313.287,2.553.558,3.666.7,7.765,1.016,14.775,2.262,21.43,3.807,3.6.837,7.14,1.775,10.508,2.787,3.535,1.063,7.006,2.244,10.318,3.511a2.876,2.876,0,0,1,1.669,1.573,3.251,3.251,0,0,1,.133,2.111l1.16-.329.043-.012c.606-.172,1.152-.327,1.7-.482-.865-1.326-.69-3.5-.549-5.238.032-.4.062-.769.078-1.1l.005-.124c.056-1.581.191-3.187.32-4.74v-.008c.067-.808.137-1.643.195-2.463.341-4.849.766-9.319,1.3-13.665l.142-1.137c.269-2.108.512-4.254.747-6.33v0c.317-2.8.645-5.7,1.041-8.534l.082-.566c-.287-1.1-.633-2.257-1.119-3.755-.753-2.315-1.739-4.574-2.692-6.758-.41-.939-.834-1.91-1.235-2.877a.3.3,0,0,1,.019-.288.431.431,0,0,1,.355-.172.382.382,0,0,1,.257.092,22.644,22.644,0,0,1,3.048,3.4,32.022,32.022,0,0,1,2.437,3.9c.011-.055.021-.111.031-.165s.027-.143.042-.216l.164-.808a13.891,13.891,0,0,1,2.107-5.644.344.344,0,0,1,.269-.141.269.269,0,0,1,.237.141,9.235,9.235,0,0,1,1.062,3.027,30.227,30.227,0,0,1,.37,3.235c.011.136.021.271.032.4.175,2.195.234,4.539.191,7.6-.055,3.953-.293,7.975-.523,11.865-.054.913-.115,1.948-.172,2.959-.249,4.432-.738,9.151-1.5,14.429l-.131.9c-.091.616-.179,1.245-.264,1.854v0c-.23,1.649-.468,3.352-.792,5.006l-.125.617c-.074.349-.138.742-.207,1.159a16.764,16.764,0,0,1-.649,2.87c11.617-3.24,23.909-6.591,36.535-9.96,6.262-1.671,12.63-3.352,18.789-4.977l7.678-2.027a9.932,9.932,0,0,1,1.769-2.323,9.544,9.544,0,0,1,2.535-1.793,6.553,6.553,0,0,1,2.813-.668,5.851,5.851,0,0,1,3.093.9.4.4,0,0,1,.184.347.351.351,0,0,1-.184.307c-.655.358-1.181.656-1.658.939l5.3-1.435c1.167-.316,2.361-.662,3.515-1h0c2.775-.8,5.644-1.636,8.5-2.164,7.32-3.612,15.239-6.266,22.9-8.832l.461-.154.927-.313c.536-.183,1.094-.375,1.586-.545a75.392,75.392,0,0,1,10.765-3.126,10.711,10.711,0,0,1,1.921-.177,7.719,7.719,0,0,1,3.533.777,4.929,4.929,0,0,1,2.391,2.635,49.012,49.012,0,0,1,4.417,3.4c.718.6,1.427,1.242,2.112,1.86l.009.008c.283.255.575.519.864.776l.183.16.18.155.007.006a3.435,3.435,0,0,1,1.466,2.134,1.256,1.256,0,0,1-.257.988.8.8,0,0,1-.625.3.891.891,0,0,1-.1-.005c-1.745-.187-3.214-1.824-4.51-3.268h0c-.324-.361-.631-.7-.928-1.006-1.291-1.319-2.354-2.446-3.341-3.66a1.557,1.557,0,0,1-.741.193,1.182,1.182,0,0,1-1.089-.655,3.543,3.543,0,0,0-1.547-1.56,4.624,4.624,0,0,0-2.087-.437,18.352,18.352,0,0,0-5.449,1.25h0c-.529.179-1.028.349-1.472.481l-4.362,1.291c-1.809.536-4.186,1.243-6.538,1.957-2.194.666-4.415,1.371-6.563,2.053-3.727,1.183-7.581,2.407-11.408,3.464a1.257,1.257,0,0,1,.3,1.13,1.325,1.325,0,0,1-.86.921,80.642,80.642,0,0,1-10.738,3.085h-.005c-1.343.32-2.731.65-4.073,1-3.072.8-6.2,1.613-9.293,2.426a7.563,7.563,0,0,0-1.073,2.966,22.187,22.187,0,0,0,.192,6.55,58.942,58.942,0,0,0,1.467,6.447l.167.6a31.532,31.532,0,0,0,1.819,5.074,10.839,10.839,0,0,0,3.23,4.179,4.921,4.921,0,0,0,2.426.924c5.56-2.862,11-5.661,16.41-8.44a1.527,1.527,0,0,1,.7-.178,1.6,1.6,0,0,1,1.477,1.2,35.767,35.767,0,0,0,5.608-1.411,24.992,24.992,0,0,0,4.839-2.454c1.014-.612,2.063-1.245,3.17-1.774a9.62,9.62,0,0,1,4.238-.951,15.137,15.137,0,0,1,5.3,1.1,51.613,51.613,0,0,1,5.06,2.326c.326.164.662.334.989.5l1.1.542a13.942,13.942,0,0,0,5.291,1.659A2.234,2.234,0,0,0,201,189.431a3.371,3.371,0,0,0,.052-2.072,6.022,6.022,0,0,0-1.009-1.965,11.973,11.973,0,0,0-3.229-2.9,19.64,19.64,0,0,0-3.874-1.771c-1.428-.492-2.88-.861-4.111-1.157-1.6-.385-3.193-.69-4.74-.908-.576-.081-1.168-.133-1.74-.184a15.79,15.79,0,0,1-3.672-.618,1.075,1.075,0,0,1-.7-1.065.855.855,0,0,1,.7-.825,10.538,10.538,0,0,1,2.326-.24,27.782,27.782,0,0,1,6.342.974l1.461.36a35.194,35.194,0,0,1,8.221,2.936,16.872,16.872,0,0,1,2.776,1.871,12.745,12.745,0,0,1,2.342,2.517,3.215,3.215,0,0,1,2.292-.865,6.492,6.492,0,0,1,1.661.248l.786.218a9.648,9.648,0,0,0,2.585.459,5.24,5.24,0,0,0,1.026-.1c.162-.882.338-1.827.523-2.756,1.839-9.235,3.841-18.31,5.948-26.975,1.859-7.641,3.9-15.388,6.07-23.026,2.146-7.556,4.476-15.221,6.927-22.782l.492-1.51c.252-.771.5-1.573.736-2.349l0-.008A39.173,39.173,0,0,1,234.32,96.9a11.153,11.153,0,0,1,3.3-3.606,14.572,14.572,0,0,1,4.464-2.041,87.174,87.174,0,0,1,8.537-1.773l.012,0c.946-.164,1.924-.333,2.878-.51.506-.093,1.033-.188,1.5-.271l1.046-.188a27.96,27.96,0,0,1-1.352-2.969c-.132-.325-.257-.63-.38-.919l-.085-.2c-1.128-2.572-2.122-5.185-2.861-7.174l-.671-1.815a90.753,90.753,0,0,0-5.571-12.755,32.86,32.86,0,0,0-4.185-5.886,34.792,34.792,0,0,0-5.361-4.843,89.589,89.589,0,0,0-12.05-7.046c-2.321-1.2-4.721-2.439-7.016-3.777a52.422,52.422,0,0,1-6.609-4.482.275.275,0,0,1-.1-.317.405.405,0,0,1,.367-.258.329.329,0,0,1,.149.036,112.226,112.226,0,0,0,11.5,4.743h0c1.65.61,3.356,1.24,5.014,1.892l1.087.429a54.516,54.516,0,0,1,12.542,6.4,34.818,34.818,0,0,1,5.641,5.236,35.914,35.914,0,0,1,4.355,6.35,79.846,79.846,0,0,1,4.8,11.756v0c.308.887.627,1.8.946,2.7l.462,1.291c.665,1.845,1.4,3.818,2.243,5.749.264.6.614,1.229.985,1.893a17.628,17.628,0,0,1,1.448,3.018l.3-.053.013,0c1.392-.241,2.831-.491,4.247-.728,8.2-1.369,16.542-2.615,24.793-3.7s16.623-2.046,24.9-2.85,16.684-1.475,24.987-1.995,16.727-.9,25.042-1.139h.056a1.637,1.637,0,0,1,1.29.588,2.188,2.188,0,0,1,.444,1.763c-1.807,10.686-3.526,21.553-5.189,32.062l0,.022c-1.291,8.157-2.625,16.592-3.99,24.879-1.394,8.457-2.8,16.811-4.181,24.829-.309,1.793-.643,3.607-.966,5.362-.434,2.358-.882,4.8-1.274,7.2-.118.724-.231,1.462-.34,2.175l0,.026a63.811,63.811,0,0,1-1.556,7.914,19.11,19.11,0,0,1-4.3,8.1,12.543,12.543,0,0,1-4.036,2.8,19.941,19.941,0,0,1-4.737,1.385c-5.709.982-11.608,1.571-17.313,2.139-2.517.251-5.118.51-7.665.8L267.7,204.163c.313,2.849.494,5.717.552,8.768.053,2.786,0,5.67-.154,8.819l-.169,3.242c-.132,2.493-.293,5.148-.678,7.8a15.662,15.662,0,0,1-4.132,8.4,49.578,49.578,0,0,1-6.8,5.93,34.59,34.59,0,0,1-7.884,4.87l-.375.149a37.3,37.3,0,0,1-4.179,1.357,20.387,20.387,0,0,1-4.967.724,10.126,10.126,0,0,1-1.605-.12c.087.438.193.891.294,1.328.435,1.874.885,3.812.258,5.624a1.707,1.707,0,0,1-.61.816A1.6,1.6,0,0,1,236.319,262.177Zm29.242-57.771-4.63.526c-5.43.618-10.774,1.2-15.286,1.7l-11.07,1.2c-.014.312-.039.614-.064.906v0c-.025.3-.048.574-.055.815-.075,2.552-.131,5.144-.177,7.373-.1,4.9.011,9.871.334,14.775.365,5.53.8,10.062,1.372,14.262l.132.946.076.5a2.177,2.177,0,0,1,1.47.813,1.885,1.885,0,0,0,1.495.488,14.052,14.052,0,0,0,4.156-.928,27.214,27.214,0,0,0,6.12-3.4,38.449,38.449,0,0,0,5.11-4.351l1.308-1.294a16.7,16.7,0,0,0,3.4-4.3,18.6,18.6,0,0,0,1.381-6.027c.05-.426.1-.866.157-1.289.342-2.586.77-5.4,1.347-8.85l3.424-13.871ZM9.435,177.74l-.02,4.809c-.024,6.543-.019,13.51.334,20.428l.066,1.262c.4,7.406,1.01,15.24,3.728,22.462a40.771,40.771,0,0,0,10.225,15.508,22.815,22.815,0,0,0,3.639,2.808,15.908,15.908,0,0,0,4.208,1.82,23.614,23.614,0,0,0,6.178.743c.823,0,1.664-.031,2.572-.094,12.151-.848,23.153-6.683,33.792-12.326h0c1.61-.854,3.274-1.737,4.9-2.579,19.063-9.87,39.384-20.386,59.808-30.91a9.788,9.788,0,0,1-1.509-1.271c-2.245-2.319-3.838-5.562-5.013-10.208a53.874,53.874,0,0,1-1.645-12.1l.447-4.7-.48.126c-4.967,1.32-10.006,2.67-14.878,3.976-12.272,3.29-24.962,6.691-37.487,9.863-4.992,1.264-10.079,2.5-15,3.686-3.618.875-7.359,1.781-11.034,2.692l-1.4.351c-6.723,1.7-13.727,3.775-19,8.771a.2.2,0,0,1-.139.059.221.221,0,0,1-.195-.133.2.2,0,0,1,.042-.218,30.538,30.538,0,0,1,9.918-6.806A83.48,83.48,0,0,1,52.956,191.8c.784-.224,1.583-.45,2.355-.667l.033-.009c.551-.155,1.236-.349,1.889-.534a250.844,250.844,0,0,0-32.03-9.309c-1.391-.3-2.813-.557-4.188-.81h0c-1.4-.257-2.844-.522-4.257-.825-1.259-.269-2.519-.622-3.738-.962-.673-.188-1.369-.383-2.061-.562ZM363.441,80.881c-8.756.265-17.585.688-26.24,1.257-8.741.575-17.549,1.316-26.177,2.2-16.13,1.656-32.415,3.89-48.4,6.64-3.337.574-6.717,1.18-10.047,1.8l-2.006.377c-.748.142-1.518.262-2.332.39-1.393.218-2.833.444-4.216.789a14.075,14.075,0,0,0-3.863,1.5,8.119,8.119,0,0,0-3.02,3.434,27.43,27.43,0,0,0-1.634,4.414c-.123.4-.25.817-.38,1.221-1.221,3.8-2.429,7.661-3.59,11.487-4.685,15.435-8.931,30.943-12.621,46.091-1.317,5.408-2.55,10.929-3.743,16.267v.007c-.5,2.243-1.019,4.561-1.536,6.841-1.371,6.04-2.979,12.524-5.061,20.4a2,2,0,0,1,.819-.372c7.354-1.565,14.956-2.412,22.307-3.231,1.538-.171,3.129-.349,4.7-.531l.874-.1c8.869-1.043,18.4-2.158,28.028-3.24l61.879-6.959c1.034-.116,2.107-.205,3.145-.292a43.959,43.959,0,0,0,7.965-1.153,9.489,9.489,0,0,0,6.118-5.5,33.462,33.462,0,0,0,2.349-8.288l.031-.162c1.827-9.716,3.458-19.646,5.035-29.249v-.007c1.058-6.444,2.153-13.107,3.3-19.657ZM206.288,205.187h.009a2.392,2.392,0,0,1,1.4.416l2.311-18.477a13.776,13.776,0,0,1-3.879-1.181,10.756,10.756,0,0,0-3.44-1.029c-.067,0-.132,0-.194.008a6.681,6.681,0,0,1,.837,5.392,4.117,4.117,0,0,1-4.394,3.189,12.707,12.707,0,0,1-3.965-.763,27.926,27.926,0,0,1-3.459-1.462c-.613-.3-1.23-.63-1.827-.944a25.866,25.866,0,0,0-6.6-2.727,8.982,8.982,0,0,0-1.841-.2c-2.383,0-4.294,1.04-6.507,2.244l-.322.175a25.531,25.531,0,0,1-7.655,2.7,15.162,15.162,0,0,1-2.718.237c-.453,0-.911-.018-1.4-.054a1.667,1.667,0,0,1-.277.182l-.713.374a40.042,40.042,0,0,1,9.5,2.052c3.233.981,6.439,2.188,9.191,3.242l2.984,1.147a112,112,0,0,0,11.2,3.789,44.882,44.882,0,0,0,11.648,1.684ZM124.037,7.426a8.256,8.256,0,0,0-1.875,1.48,30.586,30.586,0,0,0-4.262,6.431l-.073.134c-.306.559-.608,1.122-.9,1.666l0,.008c-.357.666-.726,1.354-1.1,2.026-.322.582-.654,1.155-.906,1.589a6.37,6.37,0,0,1-.431.579l0,0h0c-.124.156-.252.317-.341.443.216.3.451.617.718.963.019.025.294.327.75.829l.019.02c1.866,2.053,6.236,6.862,8.023,9.048,1.747,2.138,3.389,4.327,4.88,6.506,1.548,2.262,2.985,4.59,4.271,6.918,1.526,2.762,2.858,5.669,4.147,8.481.887,1.935,1.8,3.935,2.777,5.875a36.255,36.255,0,0,0,4.229,6.8c.039.048.08.094.119.14l0,0,0,.005.076.088a16.445,16.445,0,0,1,2.592-4.024c.2-.248.383-.482.536-.685l.076-.1c1.66-2.238,3.506-4.558,5.808-7.3,1.775-2.113,3.664-4.264,5.615-6.393l.721-.783c.243-.262.492-.542.756-.838a17.008,17.008,0,0,1,4.232-3.795,9.444,9.444,0,0,0-.731-1.108,24.965,24.965,0,0,0-6.978-5.7l-1.657-1.008c-2.586-1.576-5.971-3.675-9.22-5.941a83.759,83.759,0,0,1-8.6-6.8,72.742,72.742,0,0,1-8.111-8.412l-.853-1.079Zm10.424-1.885c-.686.058-1.4.1-2.086.14a24.775,24.775,0,0,0-6.7,1c1.428,1.35,2.836,2.786,4.2,4.174.927.945,1.885,1.923,2.839,2.862a34.76,34.76,0,0,1,.76-3.653c.079-.32.16-.651.238-.977ZM133.71,244a1.512,1.512,0,0,1-1.238-.759,1.429,1.429,0,0,1-.064-1.43,205.886,205.886,0,0,1,11.657-19.032l.542-.807c1.868-2.78,3.8-5.655,5.719-8.472,1.036-1.52,1.887-2.737,2.676-3.83l.55-.755,2.978-3.259a.269.269,0,0,1,.129-.033.263.263,0,0,1,.26.256,8.443,8.443,0,0,1-1.132,3.806c-.088.186-.188.4-.278.593l-.066.147c-.687,1.528-1.494,3.173-2.467,5.029-1.771,3.378-3.59,6.668-5.4,9.779a115.535,115.535,0,0,1-12.922,18.308A1.241,1.241,0,0,1,133.71,244Zm75.3-65.308c-1.565,0-3.071-.8-4.739-2.521L203.153,175a11.935,11.935,0,0,0-2.45-2.081,6.062,6.062,0,0,0-3.214-.848c-.1,0-.2,0-.3.006a47.5,47.5,0,0,0-5.691.675h0c-1.075.172-2.187.349-3.276.478-3.239.383-6.644.73-10.121,1.031h-.012a.123.123,0,0,1-.12-.117.135.135,0,0,1,.1-.154l3.787-.942,14.721-2.969a12.573,12.573,0,0,1,1.516-.1,7.513,7.513,0,0,1,4.945,1.663,19.438,19.438,0,0,1,1.916,1.89,16.36,16.36,0,0,0,2.275,2.166,5.432,5.432,0,0,0,2.92,1.1.885.885,0,0,1,.835.792.812.812,0,0,1-.607.9A4.787,4.787,0,0,1,209.014,178.688Zm2.927-9.212a.574.574,0,0,1-.133-.016,11.952,11.952,0,0,1-3.323-1.406A36.1,36.1,0,0,1,205.507,166c-.737-.546-1.5-1.11-2.278-1.619a10.561,10.561,0,0,0-6.113-1.637c-1.183,0-2.383.107-3.653.22l-.223.02c-3.642.324-7.138.766-10.39,1.314-1.122.189-2.263.419-3.366.641a56.505,56.505,0,0,1-6.377,1.035v-.007a.426.426,0,0,1-.395-.338.353.353,0,0,1,.189-.413,43.463,43.463,0,0,1,10.523-3.145l.235-.049,10.618-1.649.391-.039c1.229-.119,2.168-.173,3.045-.173a14.682,14.682,0,0,1,3.371.354,11.144,11.144,0,0,1,3.261,1.325l.59.357c2.728,1.658,5.785,3.658,7.531,6.4a.524.524,0,0,1,.017.547A.633.633,0,0,1,211.941,169.476Zm87.927-15.037a23.9,23.9,0,0,1-6.44-.764,12.2,12.2,0,0,1-2.881-1.2,8.4,8.4,0,0,1-2.3-1.973,4.511,4.511,0,0,1-1.13-3.877c.553-2.448,3.375-4.143,5.008-4.935a3.477,3.477,0,0,1-.991-1.5,2.827,2.827,0,0,1,.039-1.827c.508-1.443,1.853-2.321,3.153-3.171a12.663,12.663,0,0,0,2-1.5,8.188,8.188,0,0,0,2.684-7.232l-.029-.149a1.415,1.415,0,0,1,.256-1.206,1.4,1.4,0,0,1,1.08-.5,1.476,1.476,0,0,1,1.2.64l.193.266c.21.288.427.579.656.888l.007.009a34.368,34.368,0,0,1,2.75,4.1,8.75,8.75,0,0,1,1.244,4.49,5.024,5.024,0,0,1,2.488.752,4.226,4.226,0,0,1,1.7,1.891,5.228,5.228,0,0,1,.347,2.457,7.322,7.322,0,0,1,4.237,2.154,4.691,4.691,0,0,1,1.311,2.871,5.211,5.211,0,0,1-.736,3.081c-2.768,4.713-9.019,5.855-12.5,6.116l-.163.012C301.894,154.4,300.855,154.439,299.868,154.439Zm-6.654-12.026c-.917.936-1.809,1.907-2.671,2.845a2.9,2.9,0,0,0-.9,2.311,3.543,3.543,0,0,0,1.707,2.414,10.246,10.246,0,0,0,3.944,1.527,23.627,23.627,0,0,0,4.425.358h0c.914,0,1.8-.033,2.475-.062a21.827,21.827,0,0,0,5.207-.8,12.538,12.538,0,0,0,4.64-2.417l.117-.1a6.673,6.673,0,0,0,1.279-1.508,2.774,2.774,0,0,0,.468-1.7,2.063,2.063,0,0,0-1.186-1.564,5.17,5.17,0,0,0-1.752-.516,8.127,8.127,0,0,1-.913-.187,5.152,5.152,0,0,1-3.6,3,1.38,1.38,0,0,1-.208.016,1.307,1.307,0,0,1-1.249-.917,1.063,1.063,0,0,1,.483-1.23l.255-.159a5.054,5.054,0,0,0,2.614-4.143,2.24,2.24,0,0,0-.642-1.407,1.958,1.958,0,0,0-1.372-.691,1.271,1.271,0,0,0-.935.419l-.053.057a1.1,1.1,0,0,1-.836.4,1.389,1.389,0,0,1-1.147-.689,1.2,1.2,0,0,1-.049-1.2l.031-.055-1.776-6.653a11.018,11.018,0,0,1-1.322,3.228,12.664,12.664,0,0,1-2.27,2.76,14,14,0,0,1-2.224,1.669l-.1.055c-.1.058-.236.127-.364.194-.818.427-2.053,1.072-1.939,1.83.086.569,1.166,1.247,1.627,1.512a5.873,5.873,0,0,0,2.1.828.2.2,0,0,1,.185.166.158.158,0,0,1-.09.187,5.824,5.824,0,0,1-2.362.607A3.673,3.673,0,0,1,293.214,142.413ZM86.091,122.919a1.029,1.029,0,0,1-1.086-.888c-.663-4.268-1.323-8.6-1.961-12.791v-.005c-.754-4.955-1.535-10.078-2.323-15.114-.561-3.583-1.2-7.215-1.824-10.727v-.006c-.188-1.066-.383-2.168-.575-3.266L76.263,66.656a.252.252,0,0,1,.073-.184.3.3,0,0,1,.21-.086.257.257,0,0,1,.23.132c2.005,3.528,3.136,7.7,4.23,11.733.124.458.252.931.38,1.395,1.113,4.052,2.12,8.433,3.168,13.786.922,4.706,1.631,9.44,2.106,14.068.483,4.7.745,9.481.777,14.2a1.113,1.113,0,0,1-.329.808A1.458,1.458,0,0,1,86.091,122.919Zm15.1-13.387a1.589,1.589,0,0,1-1.195-.561,1.408,1.408,0,0,1-.292-1.2L98.463,73.527a.384.384,0,0,1,.046-.356.433.433,0,0,1,.351-.163.454.454,0,0,1,.433.291,63.991,63.991,0,0,1,2.795,8.525,60.7,60.7,0,0,1,1.544,8.858,52.7,52.7,0,0,1-1.2,17.838A1.234,1.234,0,0,1,101.194,109.532Zm68.7-31.457a.684.684,0,0,1-.558-.262,7.757,7.757,0,0,1-.488-.734,3.927,3.927,0,0,0-1.039-1.265,6.233,6.233,0,0,0-2.42-.841c-.375-.075-.762-.153-1.123-.258a8.678,8.678,0,0,1-3.914-2.332l-3.842-8.671a.333.333,0,0,1,.084-.254.374.374,0,0,1,.273-.108.424.424,0,0,1,.348.171,26.22,26.22,0,0,1,1.695,2.888,22.017,22.017,0,0,0,2.01,3.306,7.5,7.5,0,0,0,3.053,2.388,12.869,12.869,0,0,0,2.215.623,7.9,7.9,0,0,1,3.405,1.326,4.111,4.111,0,0,1,1.285,1.623,2.082,2.082,0,0,1-.164,1.961A1.006,1.006,0,0,1,169.9,78.075Zm6.476-6.6a.979.979,0,0,1-.7-.285c-1-1.063-1.219-2.649-.638-4.716a20.8,20.8,0,0,1,2.139-4.657,27.107,27.107,0,0,1,6.184-6.693c.444-.383.9-.78,1.362-1.185,3.091-2.734,5.073-6.478,6.821-9.781.512-.968,1.025-1.962,1.521-2.923l.01-.02.005-.01c.608-1.178,1.236-2.4,1.872-3.584-1.035-.914-1.476-2.621-1.83-3.992-.063-.243-.122-.473-.183-.693L192.9,32.8a53.145,53.145,0,0,1-1.561-7.251,39.755,39.755,0,0,1-.378-7.031l.025-.6,1.156-4.317a.459.459,0,0,1,.209-.053.454.454,0,0,1,.363.2.469.469,0,0,1-.07.72,17.371,17.371,0,0,1,.772,2.6c.215.949.448,1.919.713,2.964.251.988.49,2,.721,2.973l0,.013,0,.009c.232.979.472,1.992.724,2.985.507,2,1.14,4.1,1.882,6.247.042.123.091.256.149.407l.081.208.02-.031a.214.214,0,0,1,.182-.11.23.23,0,0,1,.17.081.247.247,0,0,1,.057.2c-.02.133-.045.268-.068.4v0l0,.009c-.015.08-.03.163-.044.245l.074.2c.466,1.254.78,2.566-.07,3.665a1.731,1.731,0,0,1-1.105.729,63.3,63.3,0,0,1-2.519,6.747l-.275.635a37.86,37.86,0,0,1-5.061,9.008,33.162,33.162,0,0,1-3.441,3.463,25.069,25.069,0,0,0-4.366,4.733,19.782,19.782,0,0,0-2.2,4.782l-.207.645a5.145,5.145,0,0,1-1.968,3.07A.911.911,0,0,1,176.374,71.473ZM195.382,68.2a2.048,2.048,0,0,1-1.314-.452l-2.519-2.092c-.423-.352-.846-.705-1.256-1.05-.383-.322-.731-.62-1.064-.912l-.525-.464c-.06-.054-.171-.168-.311-.312a5.331,5.331,0,0,0-1.25-1.092.427.427,0,0,0-.066-.005c-.67,0-2.011,1.4-2.732,2.15l0,0c-.1.1-.18.187-.248.257l-.075.075a30.772,30.772,0,0,0-3.058,3.514.239.239,0,0,1-.192.1.225.225,0,0,1-.188-.1.229.229,0,0,1-.006-.226,31.393,31.393,0,0,1,2.976-5.13l.234-.321c.131-.176.269-.375.416-.586l.006-.009c.722-1.039,1.619-2.333,2.747-2.587a2.232,2.232,0,0,1,.49-.054c1.237,0,2.463,1,3.448,1.8.209.17.407.331.6.475l.077.058c.627.471,1.245.949,1.712,1.314a22.29,22.29,0,0,1,.349-4.668,13.154,13.154,0,0,1,1.608-4.343,19.266,19.266,0,0,1,2.919-3.487c.466-.475.948-.965,1.4-1.47a19.661,19.661,0,0,0,2.23-3.286,24.127,24.127,0,0,1,1.728-2.681,1.116,1.116,0,0,1,.736-.418c.044-1.189.191-2.4.334-3.57l0-.017c.04-.327.081-.665.119-.995l.051-.452c.025-.237.055-.475.086-.727.183-1.472.39-3.141-.3-4.458a9.409,9.409,0,0,0-2.97-2.86h0c-.288-.208-.561-.4-.82-.6l-1.053-.817-3.042-2.907a.384.384,0,0,1-.037-.417.576.576,0,0,1,.49-.3.448.448,0,0,1,.091.009,20.4,20.4,0,0,1,5.534,2.415c.28.156.6.332.9.5l.214.116a9.07,9.07,0,0,1,4.058,3.6,11.387,11.387,0,0,1,.715,5.911l-.012.186c-.033.509-.06,1.031-.086,1.537v.011a35.844,35.844,0,0,1-.594,5.638,1.663,1.663,0,0,1-.621,1.022,1.7,1.7,0,0,1-1.025.322,2.121,2.121,0,0,1-.62-.094c-.814,2.57-2.721,4.646-4.565,6.653-.639.7-1.3,1.415-1.89,2.132a10.24,10.24,0,0,0-2.176,5.582,33.8,33.8,0,0,0,.085,6.124q.027.369.054.731a1.522,1.522,0,0,1-.387,1.179A1.892,1.892,0,0,1,195.382,68.2Z" transform="translate(6.971 -1.835)"/>
    </g>
    <g id="head_hat-hip" data-name="head/hat-hip" transform="translate(959.817 2227.5)">
      <path id="_Skin-2" data-name="âœ‹ Skin" d="M136.7,70.881c-.146-8.219-.307-16.6-1.529-24.742A37.278,37.278,0,0,0,125.04,25.211C113.045,12.938,95.658,9.94,79.474,7.192L51.8,2.5C43.361,1.062,34.355-1.228,25.826.8A26.991,26.991,0,0,0,14.792,6.883c-3.144,2.653-6.525,5.5-8.655,9.07S3.268,23.705,2.574,27.747Q1.4,34.583.752,41.5A172.31,172.31,0,0,0,.4,69.26c.3,4.483.788,8.953,1.406,13.4q.46,3.31,1.044,6.6c.115.647.2,1.363.321,2.087a21.986,21.986,0,0,0-1.329,7.613c.118,7.54,6.482,12.288,12.9,14.836,3.72,1.478,7.61,2.482,11.265,4.133,3.845,1.737,6.463,4.552,9.092,7.763a88.455,88.455,0,0,0,17.134,16.223c13.7,9.738,31.05,14.343,47.672,10.848a42.47,42.47,0,0,0,11.6-4.1,25.928,25.928,0,0,0,9.021-8.624,84.336,84.336,0,0,0,10.028-21.561,125.016,125.016,0,0,0,5.149-23.451,178.526,178.526,0,0,0,1-24.148Z" transform="translate(16.877 33.02)" fill="#d08b5b"/>
      <path id="_Ink-2" data-name="ðŸ– Ink" d="M131,182.355h0a28.031,28.031,0,0,1-12.54-2.8,26.256,26.256,0,0,1-10.205-9.088l-.1-.165c-.52-.834-.733-1.425-.6-1.664a.212.212,0,0,1,.2-.105,3.243,3.243,0,0,1,1.672,1.253,33.072,33.072,0,0,0,21.993,8.671c8.123,0,15.975-3.151,22.7-9.112,6.115-5.283,10.921-12.645,14.285-21.883A99.026,99.026,0,0,0,173.8,118.65c.973-19.367-2.329-40.93-8.833-57.68a128.156,128.156,0,0,0-13.937-.762c-32.7,0-62.744,12.312-82.441,33.78l1.63,9.814c.092.553.189,1.115.284,1.658l0,.016c.19,1.1.387,2.228.547,3.346a3.584,3.584,0,0,1-.574,3.014,2.534,2.534,0,0,1-2.015.961c-1.573,0-3.444-1.241-5.254-2.441h0a28.372,28.372,0,0,0-2.744-1.68,15.386,15.386,0,0,0-2.131-.157c-.3,0-.59.01-.873.03-7.913,1.019-11.045,8.837-10.607,15.669a16.886,16.886,0,0,0,3.235,9.218,10.059,10.059,0,0,0,8.17,4.09,13.767,13.767,0,0,0,4.053-.654,3.176,3.176,0,0,1,1.653-.55,1.729,1.729,0,0,1,1.029.32,2.192,2.192,0,0,1,.718.943,39.325,39.325,0,0,1,5.359,6.77,63.823,63.823,0,0,0,8.895,10.928,59.612,59.612,0,0,0,7.636,6.685,12.659,12.659,0,0,0,1.984,1.456c1.99,1.29,4.245,2.751,3.1,4.816a2.009,2.009,0,0,1-1.947,1.272c-3.251,0-8.937-5.414-12.037-8.642-2.073-2.159-4.241-4.637-6.1-6.98a44.8,44.8,0,0,1-3.787-5.353,35.582,35.582,0,0,1-7.779,2.059,52.706,52.706,0,0,1-8.021.559c-4.476,0-9-.429-13.369-.843l-.065-.006-1.655-.156c-9.853-.512-18.013-2.852-24.255-6.955a29.931,29.931,0,0,1-7.456-6.912A29.4,29.4,0,0,1,1.705,127.6a39.139,39.139,0,0,1-1.366-16.84A63.908,63.908,0,0,1,5.856,91.943,93.3,93.3,0,0,1,17.724,72.808,115.424,115.424,0,0,1,35.41,55.01,122.815,122.815,0,0,1,62.34,40.1a1.184,1.184,0,0,0,.709-1.363.956.956,0,0,0-.891-.844,1.081,1.081,0,0,0-.4.084,131.66,131.66,0,0,0-18.261,9.041l-.009-2.087a57.33,57.33,0,0,1,.657-10.387,25.545,25.545,0,0,1,1.609-6.391,17.106,17.106,0,0,1,3.362-6.166A50.913,50.913,0,0,1,57.508,13.5,61.956,61.956,0,0,1,88.023.28,31.376,31.376,0,0,1,92.28,0a39.008,39.008,0,0,1,8.343.932A39.969,39.969,0,0,1,108.8,3.664,31.5,31.5,0,0,1,115.9,8.1a21.671,21.671,0,0,1,5.082,6.046,147.48,147.48,0,0,1,15.2-2.763A126.964,126.964,0,0,1,152.1,10.346a91.764,91.764,0,0,1,28.235,4.127,68.165,68.165,0,0,1,13.009,5.73,62,62,0,0,1,6.022,3.948,60.589,60.589,0,0,1,5.621,4.734,35.152,35.152,0,0,1,5.036,6.927,29.463,29.463,0,0,1,2.8,7.167,31.048,31.048,0,0,1-.072,14.48,45.01,45.01,0,0,1-5.12,12.5,62.262,62.262,0,0,1-8.3,11.021c-1.534,1.639-3.166,3.217-4.85,4.691a64.379,64.379,0,0,1-5.054,4,53.884,53.884,0,0,1-5.062,3.208,39.36,39.36,0,0,1-4.873,2.307,58.765,58.765,0,0,1,.23,11.2,173.258,173.258,0,0,1-2.053,19.4,135.915,135.915,0,0,1-5.256,21.8c-2.605,7.664-5.761,13.859-9.38,18.414a38.55,38.55,0,0,1-6.349,6.64,43.406,43.406,0,0,1-7.846,5.165,42.417,42.417,0,0,1-8.756,3.35A36.4,36.4,0,0,1,131,182.355Zm-68.8-77.54-.209.122a1.791,1.791,0,0,1-.517.2c.247.105.493.22.731.339,0-.176-.007-.317-.007-.443l0-.221Zm6.346,20.128a2.91,2.91,0,0,1-1.2-.9l-.068-.077.014.021c.174.268.242.454.2.538a.109.109,0,0,1-.105.05,1.813,1.813,0,0,1-1.1-.863l-.011-.028a3.046,3.046,0,0,1-.469-.5c-.026-.034-.044-.057-.058-.071l-.011-.011a13.58,13.58,0,0,0-5.167-3.208c-.257-.049-.513-.087-.76-.113a23.084,23.084,0,0,0-3.152-.476.582.582,0,0,1-.36-.234c-.666-.022-1.058-.158-1.074-.372-.014-.185.275-.4.629-.462l.012,0-.132-.011c-.677-.066-1.2-.247-1.206-.421-.006-.106.171-.2.513-.276l.132-.026c-.014-.021-.027-.043-.044-.076-.305-.033-.474-.164-.464-.358a.506.506,0,0,1,.489-.43.409.409,0,0,1,.16.033.362.362,0,0,1,.014-.324c.059-.08.175-.117.364-.117.067,0,.138,0,.2.009h.017c.058,0,.112.008.157.008a.179.179,0,0,0,.107-.021.582.582,0,0,1,.268-.194,1.042,1.042,0,0,0,.2-.164c.022-.024.022-.024.076-.026h.025a1.224,1.224,0,0,1,.887-.315,4.507,4.507,0,0,1,1.194.222l.112.032a3.729,3.729,0,0,0,.894.19h.027a11.8,11.8,0,0,1,5.08,2.039,13.74,13.74,0,0,1,2.111,1.45l.006,0-.005,0,.051.034a11.747,11.747,0,0,1,1.5,1.478c.651.745.991,1.276.934,1.457-.015.048-.059.073-.129.073a1.255,1.255,0,0,1-.458-.144c-.12-.156-.252-.318-.415-.512a.333.333,0,0,1-.061.067l.1.152c.361.542.518.864.469.956a.054.054,0,0,1-.052.027,6.682,6.682,0,0,1-1.952-1.76.3.3,0,0,1-.052.032l-.011.006.535.652c.074.092.132.164.183.229l.113.109c.956.94,1.415,1.831,1.323,2.057a.088.088,0,0,1-.089.057c-.232,0-.78-.513-1.467-1.372a.818.818,0,0,1,.157.368l.123.157c.716.922.811,1.227.766,1.32A.073.073,0,0,1,68.546,124.943Z" transform="translate(-22.749 6.604)"/>
    </g>
    <g id="face_Cute" data-name="face/Cute" transform="translate(1003.11 2291.706)">
      <path id="_Ink-3" data-name="ðŸ– Ink" d="M46.788,74.353A10.981,10.981,0,0,1,42.221,73.3a11.455,11.455,0,0,1-3.813-2.827,8.91,8.91,0,0,1-1.743-2.97,7.591,7.591,0,0,1-.344-3.49,1.187,1.187,0,0,1,1.284-1.065,1.9,1.9,0,0,1,1.488.7l.255.348c1.514,2.044,3.618,4.389,6.466,4.389a5.565,5.565,0,0,0,.968-.087A5.622,5.622,0,0,0,50.223,66.1a6.511,6.511,0,0,0,.979-2.373,8.033,8.033,0,0,1,.707-1.97,3.41,3.41,0,0,1,3.039-1.682,3.314,3.314,0,0,1,3.363,2.522,7.019,7.019,0,0,1-.131,3.5,9.447,9.447,0,0,1-1.661,3.16,13.491,13.491,0,0,1-9.495,5.1Zm3.03-22.609a27.652,27.652,0,0,1-9.988-2.229,2.635,2.635,0,0,1-1.351-1.239,2.483,2.483,0,0,1-.186-1.586,2.584,2.584,0,0,1,.786-1.387,2.281,2.281,0,0,1,1.552-.591,2.908,2.908,0,0,1,.916.156l.508.212h0c2.175.909,5.462,2.283,8.278,2.283a4.843,4.843,0,0,0,4.471-2.239,4.48,4.48,0,0,0-.075-3.715c-1.211-2.552-4.814-4.444-7.781-5.365a1.071,1.071,0,0,1-.625-1.2,1.407,1.407,0,0,1,1.524-1.08c.121,0,.243,0,.362,0a11.856,11.856,0,0,1,8.023,2.81,9.9,9.9,0,0,1,2.247,2.88,9.278,9.278,0,0,1,1,3.3A7.732,7.732,0,0,1,57.6,48.807c-1.724,1.922-4.416,2.937-7.785,2.937h0ZM3.276,33.378a1.037,1.037,0,0,1-.924-.677.713.713,0,0,1,.24-.824,35.389,35.389,0,0,1,5.876-3.889A40.365,40.365,0,0,1,15.033,25.2a4.25,4.25,0,0,1-.61-1.719,3.609,3.609,0,0,1,.206-1.776c.073-.243.163-.478.242-.675l.187-.458a3.319,3.319,0,0,1,.119-.638l.01-.063.005,0a3.6,3.6,0,0,1,.857-1.446,3.216,3.216,0,0,1,1.437-.868,3.143,3.143,0,0,1,.837-.114,3.26,3.26,0,0,1,1.286.267,3.824,3.824,0,0,1,1.93,1.015,4.378,4.378,0,0,1,1.16,1.855c.034.12.072.24.113.356l.065.175-.174-.445a2.848,2.848,0,0,0,.3.734,3.6,3.6,0,0,1,.266.6,4.823,4.823,0,0,1,.143,1.75c.534.005.974.025,1.383.06l.445.04c2.466.23,5.221.657,6.7,2.818a2.053,2.053,0,0,1,.336,1.1,2.8,2.8,0,0,1-.232,1.185,2.143,2.143,0,0,1-1.576,1.347,5.489,5.489,0,0,1-.831.062,11.07,11.07,0,0,1-3.225-.641,14.827,14.827,0,0,0-2.642-.625,20.4,20.4,0,0,0-2.257-.122,24.643,24.643,0,0,0-4.44.417A57.942,57.942,0,0,0,9.29,31.59c-1.7.567-3.466,1.153-5.241,1.618l-.6.152v0A.75.75,0,0,1,3.276,33.378ZM73.17,29.833a1.705,1.705,0,0,1-1.6-1.021l-.04-.089C71,27.486,69.545,26.86,67.213,26.86A18.012,18.012,0,0,0,65.122,27a24.407,24.407,0,0,0-3.909.856c-.467.135-.921.28-1.343.416l-.446.145c-.169.055-.973.478-.955.591,0,.018.026.026.069.026a.966.966,0,0,0,.18-.024.2.2,0,0,1,.04,0,.222.222,0,0,1,.208.174.164.164,0,0,1-.1.192,1.153,1.153,0,0,1-.5.117,1.289,1.289,0,0,1-.926-.427,1.509,1.509,0,0,1-.409-1.118c.094-1.516,2.213-2.426,3.615-3.029.187-.08.364-.156.52-.227l.078-.036c.516-.24,1.045-.463,1.57-.663a7.667,7.667,0,0,1-.767-1.506,6.632,6.632,0,0,1-.4-1.558,1.529,1.529,0,0,1,0-.8l.011-.076A2.49,2.49,0,0,1,61.6,19.5l-.008-.071H61.6a2.606,2.606,0,0,1,.7-1.7,2.221,2.221,0,0,1,1.6-.679,2.882,2.882,0,0,1,1.713.616l.133.1a5.563,5.563,0,0,1,2.241,2.2,5.446,5.446,0,0,1,.9,2.766,8.1,8.1,0,0,1,6.26,2.593,2.452,2.452,0,0,1,.625,2.372l-.181.491A2.71,2.71,0,0,1,73.17,29.833ZM1.163,17.247a1.049,1.049,0,0,1-.948-.718,5.116,5.116,0,0,1,.107-3.24,14.259,14.259,0,0,1,1.414-3.015,15.947,15.947,0,0,1,5.2-5.115,27.943,27.943,0,0,1,7.233-2.987l.63-.185c.462-.135.934-.285,1.389-.431a15.408,15.408,0,0,1,4.5-.971,5.26,5.26,0,0,1,3.624,1.371A3.33,3.33,0,0,1,25.33,4.042a3.454,3.454,0,0,1-.454,2.271,4.952,4.952,0,0,1-2.742,2.146A12.987,12.987,0,0,1,18.74,8.9c-.482.021-.98.043-1.483.084A23.975,23.975,0,0,0,5.7,13.424a13.419,13.419,0,0,0-1.9,1.756,11.529,11.529,0,0,1-2.166,1.928A.879.879,0,0,1,1.163,17.247Zm71.753-4.469a3.864,3.864,0,0,1-2.979-1.608l-.066-.086A17.144,17.144,0,0,0,63.1,5.628a17.85,17.85,0,0,0-4.215-1.32l-.462-.079a9.077,9.077,0,0,0-1.445-.153,3.191,3.191,0,0,0-.54.042,2.268,2.268,0,0,0-.868.3.329.329,0,0,1-.029.318.374.374,0,0,1-.309.177.347.347,0,0,1-.169-.045A1.7,1.7,0,0,1,54.1,3.61a2.342,2.342,0,0,1,.9-1.9C56.218.576,58.522,0,61.839,0h0a16.312,16.312,0,0,1,7.883,2.11,17.878,17.878,0,0,1,6.056,5.5,3.012,3.012,0,0,1,.4,2.382,3.618,3.618,0,0,1-1.628,2.32A3.2,3.2,0,0,1,72.916,12.779Z" transform="translate(22.692 24.897)"/>
    </g>
    <g id="accessories_Glasses_2" data-name="accessories/Glasses 2" transform="translate(974.476 2321.42)">
      <path id="_Ink-4" data-name="ðŸ– Ink" d="M67.982,43.2h0a23.036,23.036,0,0,1-12.266-3.616,16.24,16.24,0,0,1-5.08-5.211A15,15,0,0,1,48.613,28.3a19.762,19.762,0,0,1,.665-7.382,6.691,6.691,0,0,1-1.954.257,9.537,9.537,0,0,1-2.848-.431,4.083,4.083,0,0,1-2.054-1.271c-3.979-.34-8-.833-11.886-1.309A178.7,178.7,0,0,0,8.9,16.408c-1.731,0-3.433.051-5.06.152-1.225.17-1.156,1.047-1.088,1.9a2.994,2.994,0,0,1-.058,1.2,1.127,1.127,0,0,1-1.017.688A1.756,1.756,0,0,1,.031,18.674a4.46,4.46,0,0,1,.424-2.412,3.1,3.1,0,0,1,1.526-1.64c.728-.522,2.944-.8,6.408-.8a145.369,145.369,0,0,1,16.64,1.212A141.579,141.579,0,0,1,42.6,18.215a6.205,6.205,0,0,1,3.466-.831,25.216,25.216,0,0,1,3.281.288c.352.047.683.091,1,.126A22,22,0,0,1,53.1,12.964a27.129,27.129,0,0,1,4.239-4.514,21.742,21.742,0,0,1,5.273-3.337,14.666,14.666,0,0,1,5.867-1.3,12.231,12.231,0,0,1,1.971.159,27.169,27.169,0,0,1,5.707.9,17.847,17.847,0,0,1,4.975,2.208,15.155,15.155,0,0,1,3.989,3.809A19.135,19.135,0,0,1,87.875,16.6a14.1,14.1,0,0,1,4.691-2.739,16.637,16.637,0,0,1,5.55-.974,12.26,12.26,0,0,1,6.269,1.573,23.481,23.481,0,0,1,5.46-7.742,21.732,21.732,0,0,1,8.2-4.775A9.927,9.927,0,0,1,123.86,0a10.764,10.764,0,0,1,4.524,1.046,15.343,15.343,0,0,1,4.046,2.783,19.613,19.613,0,0,1,3.24,3.987,19.319,19.319,0,0,1,2.1,4.657,6.752,6.752,0,0,1,4-1.052,1.951,1.951,0,0,1,1.146.615,1.312,1.312,0,0,1,.319.977c-.066.7-.741,1.409-2.1,1.409a7.058,7.058,0,0,1-3.05-.86c2.266,9.478-.414,15.468-3.062,18.824a17.8,17.8,0,0,1-3.207,3.141,19.244,19.244,0,0,1-3.811,2.247,21.149,21.149,0,0,1-8.54,1.8h0a20.39,20.39,0,0,1-3.981-.388,18.4,18.4,0,0,1-3.748-1.167,16.148,16.148,0,0,1-3.335-1.948,14.553,14.553,0,0,1-2.743-2.73,15.053,15.053,0,0,1-2.9-7.032,23.74,23.74,0,0,1,.783-9.672,29.341,29.341,0,0,0-6.823-.865,19,19,0,0,0-8.539,1.88,19.158,19.158,0,0,1,.334,9.174,19.622,19.622,0,0,1-1.391,4.208,20.466,20.466,0,0,1-2.273,3.784A21.16,21.16,0,0,1,67.982,43.2ZM70.336,6.627h0A26.473,26.473,0,0,0,61.09,8.473c-6.419,4.314-10.54,12.39-9.8,19.2.391,3.6,2.308,8.46,9.217,11.181a19.209,19.209,0,0,0,7.26,1.4A18.266,18.266,0,0,0,82.38,33.266a17.605,17.605,0,0,0,1.953-18.338c-2.61-5.275-7.711-8.3-14-8.3Zm52.577-4.045a.2.2,0,0,0-.091.017,17.893,17.893,0,0,0-3.489.9c-.618.2-1.2.4-1.721.528-7.137,3.239-12.638,11.766-12.522,19.413.084,5.533,3.122,9.831,8.556,12.1a16.418,16.418,0,0,0,6.26,1.224,16.079,16.079,0,0,0,11.558-4.679c4.41-4.321,5.836-12.6,3.391-19.695-1.965-5.7-6.008-9.292-11.093-9.86a.875.875,0,0,1-.406.1,1.565,1.565,0,0,1-.247-.023l-.027,0A1.122,1.122,0,0,0,122.913,2.582ZM50.076,18.462h0l-.183.082-.005,0-.049.021.021.008.021.008a.468.468,0,0,1,.081.053l.036.026c.014-.038.029-.076.044-.112l0-.006.032-.082Z"/>
    </g>
  </g>
</svg>
