<svg xmlns="http://www.w3.org/2000/svg" width="260.914" height="305.52" viewBox="0 0 260.914 305.52">
  <g id="Group_2" data-name="Group 2" transform="translate(7028.041 -1329)">
    <g id="head_Long" data-name="head/Long" transform="translate(-6991 1329)">
      <path id="_Skin" data-name="âœ‹ Skin" d="M172.525,76.285c-1.652-27.106-10.447-57.838-36.334-71.147C79.122-17.766,4.087,39.912.115,98.835-1.27,119,9.929,141.044,30.393,146.652c4.55,6.028,11.431,9.71,18.223,12.9,80.892,41.969,133.145,7.853,123.909-83.272Z" transform="translate(15.688 41.399)" fill="#d08b5b"/>
      <path id="_Ink" data-name="ðŸ– Ink" d="M243.683,86.945q-4.288-11.91-9.055-23.637c-3.094-7.609-5.889-15.382-9.731-22.63-22.948-43.29-64.678-43.29-86.249-37.634-11.186-4.82-32.139-3.46-43.787.889C76,10.975,53.016,38.672,45.157,51.116,27.8,78.591,16.975,115.161,28.5,146.91a71.529,71.529,0,0,0,5.591,11.7,45.617,45.617,0,0,1-4.668,5.315c-5.163,5.108-10.326,10.048-14.786,15.81A78.607,78.607,0,0,0,3.8,198.258c-5.158,12.66-5.406,27,1.413,39.076,5.933,10.511,16.442,18.338,28.283,19.084.608.085,1.217.162,1.828.224a34.229,34.229,0,0,0,5.665,7.038c6.689,6.362,22.634,9.626,31.729,9.836.466.375.937.75,1.408,1.12,5.565,4.38,11.4,8.8,17.793,11.914,4.327,2.114,10,3.878,14.516,2.353,2.048,1.368,5.408,1.081,7.439-.039a19.677,19.677,0,0,0,7.7-8.541c4-8.232,3.042-17.239,2.013-26.033-1.133-9.714-2.222-19.431-3.329-29.145-.867-7.6-1.774-15.318-4.083-22.634a52.007,52.007,0,0,0-4.78-10.86,1.784,1.784,0,0,0-.039-.845c-.662-2.153-2.031-3.281-3.652-4.746-.209-.187-.418-.379-.623-.575a19.621,19.621,0,0,0-2.606-2.51c-.357-.362-.71-.728-1.063-1.094a88.65,88.65,0,0,1-8.166-9.761c-2.388-3.355-4.545-6.859-6.6-10.428-2.087-3.63-3.469-7.635-5.552-11.239a.571.571,0,0,0-.885-.113,2.835,2.835,0,0,0-.981,2.188l-.322.048a2.192,2.192,0,0,0-2.68-1.878,10.619,10.619,0,0,1-5.927-.2c.336-2.227.645-4.458.95-6.694.558-4.114,1.076-8.241,1.521-12.367a17.947,17.947,0,0,1,3.19,1.1,15.374,15.374,0,0,1,4.1,2.667c1.185,1.089,2,2.558,3.451,3.316a2.2,2.2,0,0,0,3.186-2.449c-.989-3.8-6.589-5.983-10.053-6.7a16.032,16.032,0,0,0-3.621-.327q.412-3.974.719-7.953.144-1.883.266-3.769a19.806,19.806,0,0,1,8.38-.675c.924.736,1.848,1.464,2.741,2.2,2.837,2.344,5.661,4.7,8.45,7.1.253.214.5.427.754.645a2.08,2.08,0,0,0,3.443-2c-2.275-16.533,7.853-29.685,19.71-39.874,13.126-11.282,36.989-12.6,52.6-32.139,7.189,1.463,23.24,5.809,29.864,16.363,9.273,14.79,8.062,28.042,8.768,44.82s2.5,34.3-1.312,50.86c-3.517,15.265-13.039,28.308-27.811,34.3-.366.148-.736.292-1.107.431a44.717,44.717,0,0,1-24.011,2.179c-8.894-1.682-16.32-5.752-23.719-10.759-.427-.283-1.05.3-.728.728,9.753,12.925,28.91,17.244,44.105,13.832q1.065-.242,2.118-.527a39.966,39.966,0,0,0,1.713,30.021,40.417,40.417,0,0,0,11.67,14.59c5.452,4.305,12.215,7.783,16,13.827,3.464,5.539,2.436,11.762-3.495,14.96-1.495.811-2.07,3.43-.588,4.58.567.436,1.133.88,1.713,1.316,3.321,2.506,12.441,7.212,13.919,7.386,13.117,1.556,21.937-8.075,27.589-19.436,6.637-13.335,4.911-29.585-2.4-42.284-5.866-10.188-17.418-20.229-12.825-33.124,1.639-4.606,4.99-8.533,8.245-12.08,3.713-4.04,7.7-7.822,11.265-12.006a42.728,42.728,0,0,0,8.428-13.884c2.558-7.617,1.286-15.854-.636-23.458C254.725,118.884,249.378,102.777,243.683,86.945Z" transform="translate(-37.041 13.877)"/>
    </g>
    <g id="face_Awe" data-name="face/Awe" transform="translate(-6934.131 1416.374)">
      <path id="eye" d="M24.055,36.605c11.552,0,20.917-8.194,20.917-18.3S35.607,0,24.055,0,0,7.862,0,17.97c0,4.289,3.379,11.784,6.2,14.9C10.034,37.108,17.4,36.605,24.055,36.605Z" transform="translate(17.344 34.427)" fill="#fff"/>
      <path id="eye-2" data-name="eye" d="M18.414,33.1A16.289,16.289,0,0,0,34.427,16.551,16.289,16.289,0,0,0,18.414,0C9.571,0,0,7.11,0,16.251c0,3.879,2.587,10.656,4.748,13.478C7.681,33.557,13.323,33.1,18.414,33.1Z" transform="translate(72.775 34.427)" fill="#fff"/>
      <path id="_Ink-2" data-name="ðŸ– Ink" d="M21.779,88A3.784,3.784,0,0,1,20.3,87.7a3.463,3.463,0,0,1-2.109-2.3,4.4,4.4,0,0,1,.823-3.714l.072-.1a28.294,28.294,0,0,0,3.864-7.837c.518-1.447.974-2.87,1.356-4.229.071-.252.126-.507.178-.753a3.551,3.551,0,0,1,.93-2.054.312.312,0,0,1,.21-.084.257.257,0,0,1,.137.038,4.956,4.956,0,0,1,1.764,3.338,22.192,22.192,0,0,1,.366,4.18c.266.069.533.142.792.213l.006,0c.516.141,1,.275,1.481.38,1.124.249,2.272.478,3.382.7h0l.011,0,1.259.253,1.164.24a91.553,91.553,0,0,0,11.816,1.73c2.195.168,4.118.25,5.879.25a44.676,44.676,0,0,0,5.763-.343,31.087,31.087,0,0,0,4.877-1.043,21.135,21.135,0,0,0,3.6-1.552c.493-.25,1-.509,1.53-.755a4.238,4.238,0,0,1,1.8-.417,3.79,3.79,0,0,1,2.4.858,4.093,4.093,0,0,1,1.362,2.041A3.523,3.523,0,0,1,73.3,80.828a20.877,20.877,0,0,1-6.159,2.42,44.011,44.011,0,0,1-6.577.992c-1.069.089-2.185.134-3.316.134a58.939,58.939,0,0,1-9.429-.844c-2.324-.372-4.6-.845-6.766-1.4a64.827,64.827,0,0,1-6.589-2.076,46.459,46.459,0,0,1-5.328-2.434l-.47-.251c-.2-.109-.415-.221-.62-.329l-.013-.007-.254-.134a30.2,30.2,0,0,1-2.384,8.359l-.027-.047a3.941,3.941,0,0,1-1.35,2.013A3.592,3.592,0,0,1,21.779,88ZM58.233,65.347a29.654,29.654,0,0,1-6.427-.733,3,3,0,0,1-2.075-1.469A4.217,4.217,0,0,1,51.177,57.9a2.758,2.758,0,0,1,1.421-.383,3.527,3.527,0,0,1,1.11.19A20.179,20.179,0,0,0,59.7,58.842c.19,0,.382.007.57.007.7,0,1.4-.031,2.07-.093.485-.045.985-.108,1.483-.187-.282-.376-.559-.761-.846-1.177-.349-.5-.658-.971-.944-1.429A30.437,30.437,0,0,1,59.793,51.6c-.185-.44-.375-.92-.578-1.466l0-.006-.076-.206-.168-.143a11.676,11.676,0,0,1-3.042-4.067,17.976,17.976,0,0,1-1.442-7.272,28.9,28.9,0,0,1,.979-7.4,18.927,18.927,0,0,1,2.289-5.272,17.5,17.5,0,0,1,3.693-4.235A9.615,9.615,0,0,1,62.673,19.8a14.776,14.776,0,0,1,6.151-3.551,15.5,15.5,0,0,1,4.642-.7,16.794,16.794,0,0,1,5.219.844,17.937,17.937,0,0,1,4.763,2.392,22.947,22.947,0,0,1,5.142,5.033,24.58,24.58,0,0,1,3.455,6.408,22.435,22.435,0,0,1,1.337,6.722,19.089,19.089,0,0,1-.927,6.77,15.774,15.774,0,0,1-3.616,6.069,14.763,14.763,0,0,1-5.974,3.757,20.459,20.459,0,0,1-6.611.985,46.141,46.141,0,0,1-7.941-.836c-1.171-.208-2.2-.413-3.141-.627a11.694,11.694,0,0,1,2.346,2.074,8.536,8.536,0,0,1,2.344,3.873,3.542,3.542,0,0,1-1.011,3.4,10.4,10.4,0,0,1-5.159,2.36A25.89,25.89,0,0,1,58.233,65.347Zm2.994-37.062a21.933,21.933,0,0,0-1.217,7.426v.333l0,.34c.077,4.182,1.029,6.993,2.911,8.6,2.151,1.833,5.382,2.254,8.242,2.5l2.221.186.59.044c.806.056,1.514.083,2.164.083a11.26,11.26,0,0,0,6.748-1.742,9.293,9.293,0,0,0,3.534-6.849A16.66,16.66,0,0,0,78.4,23.194a9.984,9.984,0,0,0-4.888-1.282,10.165,10.165,0,0,0-3.308.56,11.823,11.823,0,0,0-3.194,1.8l-.395.3c-.369.283-.731.524-1.081.757a7.709,7.709,0,0,0-2.189,1.914l-.118.169a2.06,2.06,0,0,1-1.727.89,2.231,2.231,0,0,1-.275-.017ZM27.6,58.022a76.308,76.308,0,0,1-9.322-.658l-1.735-.219a33.125,33.125,0,0,1-7.07-1.494,13.327,13.327,0,0,1-4.895-3.066A14.2,14.2,0,0,1,1.542,48.04a21.89,21.89,0,0,1-1.5-9.789,28.753,28.753,0,0,1,.749-5.025A27.091,27.091,0,0,1,2.346,28.6a22.96,22.96,0,0,1,2.913-4.809,24.736,24.736,0,0,1,4.119-4.164,20.174,20.174,0,0,1,4.949-2.93,14.421,14.421,0,0,1,5.4-1.107,12.382,12.382,0,0,1,1.285.067,27.933,27.933,0,0,1,3.615-.264h.25a28.176,28.176,0,0,1,16.5,5.2,24.287,24.287,0,0,1,3.222,2.8A20.112,20.112,0,0,1,47.21,26.73a15.128,15.128,0,0,1,2.375,8.042,20.8,20.8,0,0,1-1.961,8.389,37.241,37.241,0,0,1-4.506,7.418,20.671,20.671,0,0,1-3.082,3.257A17.428,17.428,0,0,1,36.5,56.148a17.743,17.743,0,0,1-3.992,1.387,21.651,21.651,0,0,1-4.462.485ZM24.672,20a31.059,31.059,0,0,0-13.659,3.256A24.661,24.661,0,0,0,5.238,33.878a20.766,20.766,0,0,0,.585,11.7c1.695,4.66,5.923,5.7,10.108,6.366l1.7.267.715.108a58.6,58.6,0,0,0,8.4.755,24.861,24.861,0,0,0,4.771-.416c4.75-.924,7.649-4.792,9.86-8.454l.108-.179c2.055-3.437,4.54-8.572,2.393-13.474C42.368,27.1,39,23.994,34.632,22.034A24.159,24.159,0,0,0,24.672,20Zm-.165,27.6a11.476,11.476,0,0,1-6.093-1.737l.019-.024,0,0a.585.585,0,0,0,.036-.048,2.092,2.092,0,0,0,.369.033,1.829,1.829,0,0,0,1.794-1.2,5.267,5.267,0,0,0-.241-4.047,3.914,3.914,0,0,0-2.4-1.963,4.426,4.426,0,0,0-1.272-.187,4.853,4.853,0,0,0-3.35,1.395,13.267,13.267,0,0,1-.807-7.266,10.836,10.836,0,0,1,6.088-8.233,7.383,7.383,0,0,1,3.012-.71,5.729,5.729,0,0,1,1.345.161,11.878,11.878,0,0,1,12.448,1.051,3.483,3.483,0,0,0-.911.288,2.9,2.9,0,0,0-1.458,2.02A1.779,1.779,0,0,0,34.3,29.269a4.3,4.3,0,0,0,1.292.225,2.186,2.186,0,0,0,2.1-1.37l.025-.063.032-.047.012-.022v0a.176.176,0,0,0-.034.045c.022-.051.042-.1.063-.155l0-.006a2.073,2.073,0,0,0,.087-.2c.04-.035.078-.074.114-.112l.011-.011a11.07,11.07,0,0,1,1.435,3.274,10.049,10.049,0,0,1,.014,4.878,13.5,13.5,0,0,1-2.078,4.535A18.086,18.086,0,0,1,32.2,45.168a15.179,15.179,0,0,1-6.362,2.359A12.282,12.282,0,0,1,24.507,47.6Zm49.1-2.222A9.1,9.1,0,0,1,67.98,43.44a1.418,1.418,0,0,0,.4-.312A4.205,4.205,0,0,0,69.133,42c.053-.12.1-.227.136-.326l.063-.165c.034-.1.089-.26.086-.266s0,0,0,.006l-.006.011.034-.08a1.781,1.781,0,0,0-.577-2.246l-.085-.053a1.759,1.759,0,0,0-.88-.217,2.725,2.725,0,0,0-2.181-1.016,3.537,3.537,0,0,0-.876.114l-.039-.311c-.007-.059-.011-.109-.015-.156a10.467,10.467,0,0,1-.332-4.412,11.1,11.1,0,0,1,1.555-4.307l.124-.2a10.914,10.914,0,0,1,2.257-2.534A4.964,4.964,0,0,1,71.45,24.6a3.4,3.4,0,0,1,.861.111,3.721,3.721,0,0,1,1.006.432,5.887,5.887,0,0,1,.788-.053,6.2,6.2,0,0,1,3.2.9l-.032.082a.309.309,0,0,0-.013.042,1.914,1.914,0,0,0,.176,1.343,2.828,2.828,0,0,0,1.042,1.186,2.047,2.047,0,0,0,1.015.275h.039a2.1,2.1,0,0,0,1.394-.606,1.666,1.666,0,0,0,.438-.776,5.339,5.339,0,0,1,.552.618,9.32,9.32,0,0,1,1.56,3.213A11.11,11.11,0,0,1,83,38.513a9.31,9.31,0,0,1-1.983,2.981c-.115.114-.237.221-.356.324l0,0-.067.058a8.445,8.445,0,0,1-6.064,3.451A9.13,9.13,0,0,1,73.6,45.379ZM3.5,18.563a.194.194,0,0,1-.138-.062.164.164,0,0,1-.047-.122,7.991,7.991,0,0,1,1.518-3.908,29.463,29.463,0,0,1,2.723-3.317l.009-.01a33.35,33.35,0,0,1,7.169-5.876,38.784,38.784,0,0,1,8.61-3.956A35.746,35.746,0,0,1,28.188.143L28.471.1A8.682,8.682,0,0,1,29.714,0a4.342,4.342,0,0,1,3.741,1.974,3.02,3.02,0,0,1,0,3.077,4.076,4.076,0,0,1-2.521,2.006,15.8,15.8,0,0,1-3.461.559,20.455,20.455,0,0,0-2.317.288,39.13,39.13,0,0,0-7.857,2.42A51.1,51.1,0,0,0,10,14.307c-.716.465-1.423,1.021-2.106,1.558a15.058,15.058,0,0,1-4.351,2.691A.152.152,0,0,1,3.5,18.563ZM85.3,15.574h0a3.808,3.808,0,0,1-2.44-.936l-.933-.774-.6-.491a37.8,37.8,0,0,0-8.618-5.641A57.813,57.813,0,0,0,61.465,4.388h-.006l-.526-.118a.26.26,0,0,1-.177-.162.244.244,0,0,1,.018-.228A6.288,6.288,0,0,1,63.92,1.545,12.287,12.287,0,0,1,68.087.9a24.535,24.535,0,0,1,6.026.843,33.789,33.789,0,0,1,7.452,2.97A23.976,23.976,0,0,1,87.906,9.6a3.431,3.431,0,0,1,.734,3.8A3.712,3.712,0,0,1,85.3,15.574Z" transform="translate(15.688 15.688)"/>
    </g>
  </g>
</svg>
