<svg xmlns="http://www.w3.org/2000/svg" width="613.765" height="643.331" viewBox="0 0 613.765 643.331">
  <g id="Group_8" data-name="Group 8" transform="translate(-504.094 -5390.06)">
    <g id="body_Whatever" data-name="body/Whatever" transform="translate(550.98 5646.391)">
      <path id="_Skin" data-name="âœ‹ Skin" d="M581.062,160.864c5.4-2.817,10.665-5.877,15.85-9.062,3.652-2.185.419-7.687-3.326-5.7-1.915,1.017-3.823,2.044-5.737,3.055a33.6,33.6,0,0,0,4.156-4.25l-.086-.086c4.828-4.325-1.373-12.487-6.864-8.934-4.842,3.51-9.728,7.091-15.286,9.4-11.512,4.881-24.209,5.689-36.565,5.83-4.522-.34-8.84.444-13.228,1.317,1.72-6.9,6.025-12.111,8.308-18.794,1.685-6.747-8.055-11.343-11.507-4.858-.847,1.593-1.655,3.2-2.444,4.823-7.461,6.786-19.918,6.188-27.443,13.474-4.286,3.8-6.383,8.965-7.212,14.146-.563,3.518.312,7.044-1.815,10.16-10.283,14.544-26.53,37.533-34.782,53.538-5.842-38.034-21.442-85.078-37.557-119.856C400.2,93.947,394.1,83.079,386.1,73.651c.907-3.144-2.295-8.725-4.331-7.007C375.5,58.988,364.418,57.006,355.51,53.2c-12.025-5.142-22-15.83-26.907-27.978C322.3,2.088,306.788-.85,285.274.172c-20.59-.026-35.823,8.781-40.316,29.74-9.127,15.908-30.676,13.277-46.18,17.489A153.589,153.589,0,0,0,165.91,59.1c-11.658-11.058-53.41,35.351-57.2,47.294,2.234.433,4.455.954,6.655,1.59a1.584,1.584,0,0,1-.84,3.053,61.3,61.3,0,0,0-7.422-1.28c-.076.238-.142.474-.192.708-.279-.019-.558-.043-.837-.062a9.961,9.961,0,0,1,1.8,1.179c1.4,1.165-.424,3.414-1.915,2.486-1.4-1.051-3.245-.885-4.93-1.238-.1,3.465-12.466-.411-14.387-1.56-8.537-1.068-17.319.078-25.289-4.039-10.6-2.233-21.288-4.7-31.773-7.547-2.776,1.082-5.384,4.954-3.18,7.8a1.589,1.589,0,0,1-1.915,2.485c-5.237-3.082-9.287-7.894-12.721-13.078-1.616-1.631-4.485-1.28-6.657-1.957a3.474,3.474,0,0,0-.459,1.7C-4.571,98.15,2,108.21,6.631,111.345c-2.456,1.6-2.55,4.732-2.335,7.347a3.539,3.539,0,0,0-.241,3.13c1.732,3.991,5.478,7.353,8.327,10.587,3.145,3.572,5.949,7.163,9.776,10.058C36.744,153.586,54.346,159.8,72.4,162.233c6.412.985,15.635,2.492,19.6,7.914a187.633,187.633,0,0,1-4.385,18.88c-2.269,8.328-2.115,17.048-2.145,25.539a.625.625,0,0,0-1.017.283c-.528,3.52-.92,7.119-3.06,10.076a85.456,85.456,0,0,0-3.825,17.143c-2.809,27.391-3.48,55.591,2.854,82.555a97.694,97.694,0,0,0,11.834,28.265,5.971,5.971,0,0,0,6.542,2.863c7.8,4.053,17.631,5.353,26.04,4.323,28.669-8.116,18.68,11.427,58.877,5.443,69.384-8.839,139.5,8.531,208.74-1.667,1.705,13.171,24.028,9.393,31.782,3.825,23.25-17.284,34.794-72.006,46.463-99.767,8.021-21.88,21.451-60.634,39.039-75.316,5.274-4.125,11.649-6.3,18.027-8.049,23.805-6.134,47.7-11.935,71.553-17.9,4.045-1,3.318-7.894-1.007-7.452C592.581,159.778,586.822,160.31,581.062,160.864Z" transform="translate(-45.437 -11.59)" fill="#d08b5b"/>
      <path id="_Ink" data-name="ðŸ– Ink" d="M405.578,357.417a3.057,3.057,0,0,1-2.279-1.055c-21.383-.86-42.413-1.49-62.505-1.87-16.748-.322-34.1-.485-51.588-.485-19.443,0-39.745.2-60.343.6-18.049.35-36.963.857-56.216,1.507-2.7.089-5.438.191-8.089.289h-.033c-6.416.238-13.051.484-19.577.573l-.27,0a23,23,0,0,1-4.069-.374,18.04,18.04,0,0,1-4.121-1.236,9.516,9.516,0,0,1-3.261-2.267,5.733,5.733,0,0,1-1.487-3.467l-.01-.171a17.285,17.285,0,0,1-1.923.406,2.31,2.31,0,0,1-.349.027,2.144,2.144,0,0,1-.486-.055l-.129-.035a19.562,19.562,0,0,1-5.686.774c-5.146,0-10.62-1.527-15.451-2.874-.944-.263-1.835-.512-2.709-.745l-.582-.154a37.745,37.745,0,0,1-9.14-3.486,24.757,24.757,0,0,1-7.4-6.35,42.9,42.9,0,0,1-4.895-7.88,58.28,58.28,0,0,1-3.347-8.725,104.76,104.76,0,0,1-3.48-18.343,138.122,138.122,0,0,1,.206-34.295c-.931-9.339,0-18.943,1.027-27.979.548-4.829,1.153-9.28,1.849-13.607.406-2.522.932-4.992,1.48-7.512.072-.333.139-.667.21-1.02v-.007c.137-.682.278-1.388.46-2.077l.124-.442a3.722,3.722,0,0,1-.48.031,4.554,4.554,0,0,1-2.175-.594,4.871,4.871,0,0,1-2.166-2.478,8.971,8.971,0,0,1-.6-3.3,156.739,156.739,0,0,1,1.257-19.091l.011-.1q.072-.675.144-1.348c.745-6.953,1.757-13.74,3.008-20.172l.335-1.717a76.534,76.534,0,0,1,4.085-14.8,162.471,162.471,0,0,1-22.057-4.894,67.179,67.179,0,0,1-10.294-4.22,21.916,21.916,0,0,1-3.65-.893l0,0h0c-.364-.111-.74-.226-1.108-.333-2.374-.694-4.749-1.518-7.059-2.45a82.117,82.117,0,0,1-13.744-6.938,65.346,65.346,0,0,1-9.817-7.642,57.626,57.626,0,0,1-8.063-9.463l-.321-.481a37.425,37.425,0,0,1-3.335-6.217c-1.141-2.817-1.5-5.143-1.066-6.916a4.627,4.627,0,0,1,2.33-3.038,21.9,21.9,0,0,1-4.768-5.783A16.928,16.928,0,0,1,.479,88.867,9.726,9.726,0,0,1,.008,85.6,4.7,4.7,0,0,1,1.83,81.858a6.39,6.39,0,0,1,3.864-1.122,10.109,10.109,0,0,1,5.418,1.592A28.14,28.14,0,0,1,17,88.241l.162.2c1.9,2.343,4,4.668,6.4,7.106.6.607,1.2,1.2,1.8,1.768l.613.576c-.1-.229-.181-.463-.253-.7a9.678,9.678,0,0,1,.136-6.079A7.663,7.663,0,0,1,29.793,86.6a6.156,6.156,0,0,1,2.621-.558,12.331,12.331,0,0,1,4.448,1.053l.349.143a84.005,84.005,0,0,0,9.361,3.292A116.671,116.671,0,0,0,60.7,93.484c4.756.726,9.626,1.265,14.335,1.786,3.765.417,7.659.848,11.468,1.372a136.251,136.251,0,0,1,15.478,2.923,48.8,48.8,0,0,1,4.742-12.024,75.052,75.052,0,0,1,7.169-10.712,95.137,95.137,0,0,1,10.026-10.763A103.949,103.949,0,0,1,135.22,57.06a121.123,121.123,0,0,1,12.358-7.45c4.113-2.165,8.548-4.216,13.18-6.1a210.6,210.6,0,0,1,27.906-8.946c8.216-2.073,17.252-3.967,28.436-5.962a3.681,3.681,0,0,1,.642-.056,7.229,7.229,0,0,1,3.828,1.532l.347.231.025.017a5.774,5.774,0,0,0,2.725,1.285,1.365,1.365,0,0,0,.663-.164,39.14,39.14,0,0,0,9.988-8c4.416-4.731,7.984-10.155,11.434-15.4,1.4-2.125,2.843-4.322,4.333-6.456A3.539,3.539,0,0,1,254.035,0a3.9,3.9,0,0,1,1.906.505,3.565,3.565,0,0,1,1.371,1.34,3.153,3.153,0,0,1-.166,3.285l-1.162,1.918c-2.168,3.562-4.777,7.737-7.689,11.685a66.376,66.376,0,0,1-9.246,10.362A40.342,40.342,0,0,1,233.26,33.4a33.887,33.887,0,0,1-6.526,3.078,27.461,27.461,0,0,1-8.425,1.571,13.173,13.173,0,0,1-3.828-.517l-.46-.67c.14.206.291.426.46.67a164.864,164.864,0,0,0,16.692,20.275c5.4,5.651,11.469,11.4,19.11,18.086C264.215,88.085,279.4,99,292.546,108.28l1.208.852a200.208,200.208,0,0,0,57.564-65.365c-2.523-.3-5.043-1.749-7.268-3.023l-.026-.015c-.364-.208-.707-.405-1.051-.6a27.4,27.4,0,0,1-8.07-6.416,16.38,16.38,0,0,1-2.261-3.637,20.8,20.8,0,0,1-1.317-3.932,55.107,55.107,0,0,1-1.062-8.36c-.116-1.53-.236-3.11-.423-4.643a.363.363,0,0,1,.084-.293.508.508,0,0,1,.378-.15.539.539,0,0,1,.339.111c2.26,1.877,3.237,4.751,4.182,7.53.142.418.289.849.437,1.268,1.217,3.421,2.587,6.182,5.315,8.534a38.915,38.915,0,0,0,8.735,5.289c.474.225,1.535.562,2.765.953h0c2.891.919,6.85,2.178,7.468,3.282a34.014,34.014,0,0,1,7.762-.9,37.439,37.439,0,0,1,15.351,3.417,49.867,49.867,0,0,1,13.39,8.978,88.842,88.842,0,0,1,12.734,14.978,186.247,186.247,0,0,1,10.193,16.867,266.888,266.888,0,0,1,16.8,37.893c2.454,6.818,4.554,13.575,6.244,20.082a190.554,190.554,0,0,1,4.177,20.6c1.542,10.685,2.656,22.312,3.406,35.545l.082,1.484c9.633-15.118,19.909-30.717,30.544-46.364a14.3,14.3,0,0,1-.207-9.361,22.129,22.129,0,0,1,4.89-8.282,29.408,29.408,0,0,1,7.325-5.693,89.183,89.183,0,0,1,8.388-4.034c.816-.358,1.658-.727,2.483-1.1l.854-.386a43,43,0,0,0,8.955-5.14,31.981,31.981,0,0,0,3.257-3.13,26.519,26.519,0,0,1,4-3.681,9.343,9.343,0,0,1,5.225-1.589,6.854,6.854,0,0,1,4.218,1.3,4.852,4.852,0,0,1,1.38,1.7,5.972,5.972,0,0,1,.572,2.463,16.27,16.27,0,0,1-.794,5.1,43.593,43.593,0,0,1-1.845,4.852,35.723,35.723,0,0,1-2.59,4.837,41.481,41.481,0,0,1-3.258,4.414,1.67,1.67,0,0,1-.351.317l-.091.057a83.564,83.564,0,0,0,9.946,1.133c1.283.059,2.58.089,3.855.089a78.225,78.225,0,0,0,16.448-1.711,73.221,73.221,0,0,0,19.523-7.164c1.23-.666,2.456-1.389,3.642-2.088,1.928-1.136,3.921-2.311,5.957-3.258a23.04,23.04,0,0,1,6.422-2.019c.519-.08,1.065-.135,1.67-.168l.065,0a1.617,1.617,0,0,1,1.271.738,1.352,1.352,0,0,1,.187,1.265c-.217.547-.433,1.052-.659,1.544a36.444,36.444,0,0,1-3.864,6.571,33.594,33.594,0,0,1-5.272,5.676l-.3.254c1.409-.488,2.787-1.033,4.094-1.622,2.85-1.283,5.651-2.829,8.36-4.324,4.8-2.648,9.757-5.385,15.167-6.765.357-.094.742-.186,1.212-.29a3.135,3.135,0,0,1,.658-.073,2.369,2.369,0,0,1,2.184,1.348,2.788,2.788,0,0,1-.381,2.955c-.288.367-.527.665-.753.938a96.516,96.516,0,0,1-12.538,12.949c-1.576,1.339-3.209,2.642-4.851,3.872,4.931-1.494,10.076-3.341,15.293-5.489a2.383,2.383,0,0,1,.908-.188,2.551,2.551,0,0,1,1.925,1,4.1,4.1,0,0,1,.908,2.041,7.1,7.1,0,0,1-.593,3.822,11.847,11.847,0,0,1-2.284,3.28,37.2,37.2,0,0,1-6.4,5l-.17.113a59.456,59.456,0,0,1-12.96,6.343c-8.647,3.125-17.688,4.551-26.963,5.852l-4.432.617c-4.229.591-8.732,1.24-13.2,2.089a102.189,102.189,0,0,0-12.882,3.229,59.673,59.673,0,0,0-11.953,5.328,47.77,47.77,0,0,0-5.437,3.751,45.131,45.131,0,0,0-4.976,4.636c-7.134,7.735-11.911,17.334-16.194,26.5-3.788,8.113-7.436,16.924-11.827,28.569-2.638,6.988-5.078,14.182-7.437,21.139-1.009,2.976-2.053,6.054-3.1,9.078-3.215,9.288-7.08,18.51-10.817,27.429l-.6,1.429a255.441,255.441,0,0,1-13.517,27.872c-2.6,4.574-5.347,8.978-8.159,13.088-2.967,4.337-6.119,8.511-9.369,12.405a2.254,2.254,0,0,1-1.734.9,2.3,2.3,0,0,1-1.333-.456,3.086,3.086,0,0,1-.965-1.153,2.951,2.951,0,0,1-.3-1.486,2.783,2.783,0,0,1,.6-1.545,162.3,162.3,0,0,0,9.747-14.1c2.873-4.649,5.7-9.7,8.389-15.011,2.484-4.9,4.862-10.006,7.27-15.611,2.117-4.928,4.208-10.129,6.392-15.9,2.078-5.489,4-11.146,5.85-16.617l0-.005c1.412-4.167,2.873-8.475,4.394-12.679l2.094-5.777c2.659-7.324,5.536-15.183,8.558-23.034a305.554,305.554,0,0,1,12.5-28.458l.5-.973a116.668,116.668,0,0,1,7.673-13.036,64.281,64.281,0,0,1,9.857-11.41,51.162,51.162,0,0,1,5.26-4.139,55.269,55.269,0,0,1,5.619-3.375,68.963,68.963,0,0,1,12.078-4.861c8.413-2.556,17.388-3.869,25.858-5l5.462-.72a164.031,164.031,0,0,0,21.84-4.015,58.5,58.5,0,0,0,11.927-4.563,48.815,48.815,0,0,0,4.4-2.607,121.307,121.307,0,0,1-12.359,2.929c-2.009.367-4.061.652-6.1.849-2.789.276-5.664.41-8.79.41-2.152,0-4.417-.064-6.925-.195a.459.459,0,0,1-.415-.441.349.349,0,0,1,.3-.386c3.322-.591,6.863-1.348,11.142-2.384l1.111-.272a3.193,3.193,0,0,1,.77-1.891,15.794,15.794,0,0,1,5.06-3.466,31,31,0,0,0,2.716-1.513,85.768,85.768,0,0,0,7.359-5.368c2.094-1.708,4.18-3.575,6.2-5.547l.055-.055-.028.027-.028.027c-1.945.9-3.885,1.9-5.761,2.879a80.21,80.21,0,0,1-10.285,4.734,54.935,54.935,0,0,1-13.829,2.992l-.292.023-.293.019c-1.433.1-2.888.165-4.295.224a60.372,60.372,0,0,0-10.408,1.051.539.539,0,0,1-.117.014.383.383,0,0,1-.386-.319.446.446,0,0,1,.277-.506,55.149,55.149,0,0,1,11.65-3l.035-.006,1.391-.254a1.339,1.339,0,0,1,.758-.859l1.138-.543a35.377,35.377,0,0,0,9.362-5.91,29.677,29.677,0,0,0,6.111-8.087c-3.956.868-7.634,3.108-11.192,5.274a66.242,66.242,0,0,1-6.151,3.455,77.187,77.187,0,0,1-19.387,6.148l-.763.131a83.049,83.049,0,0,1-13.609,1.161,62.158,62.158,0,0,1-13.159-1.326,41.488,41.488,0,0,1-12.032-4.524.309.309,0,0,1-.16-.358.387.387,0,0,1,.368-.279.392.392,0,0,1,.061,0c1.891.31,3.8.659,5.647,1l.01,0,.014,0c1.249.228,2.541.464,3.811.685a1.855,1.855,0,0,1-.587-1.1,1.591,1.591,0,0,1,.408-1.286,33.851,33.851,0,0,0,6.5-11l.274-.793.089-.254,0-.013a19.954,19.954,0,0,0,.926-3.214,4.092,4.092,0,0,0-.384-3.017,3.167,3.167,0,0,0-2.738-1.229,6.154,6.154,0,0,0-2.43.518,16.738,16.738,0,0,0-5.063,4.283,27.6,27.6,0,0,1-2.9,2.887,45.829,45.829,0,0,1-9.635,5.674l-.718.326c-.929.418-1.884.832-2.807,1.233-4.955,2.15-10.079,4.374-13.97,8.3a23.022,23.022,0,0,0-3.335,4.2,15.547,15.547,0,0,0-2.007,4.955,10.506,10.506,0,0,0,.105,4.867,8.6,8.6,0,0,0,.369,1.02,2.982,2.982,0,0,1,.28,2.267,13.55,13.55,0,0,1-2.263,3.521c-.432.549-.841,1.067-1.156,1.536-1.14,1.69-2.291,3.407-3.4,5.068-1.909,2.856-3.841,5.767-5.71,8.582l-.035.052-1.014,1.528c-4.312,6.5-8.684,13.189-13.365,20.44-1.438,2.228-2.883,4.478-4.3,6.687l-2.137,3.349-.919,1.437-.21.328-.168.264c-.316.5-.61.958-.873,1.373l-.884,1.391a1.491,1.491,0,0,1-.027.832,3.8,3.8,0,0,1-1.707,2.038l-.137.08c-6.931,10.956-13.907,22.136-20.653,32.948l-.053.086c-4.181,6.7-8.5,13.629-12.772,20.433-.666,6.086-1.2,11.424-1.639,16.319-1.181,13.219-1.867,25.331-2.1,37.029-.085,4.369.152,8.826.38,13.135v.021c.084,1.584.171,3.222.24,4.83.128,2.9.305,5.773.525,8.553l.166,2.02c.225,2.806.344,5.542-.65,8.176a3.4,3.4,0,0,1-1.2,1.584A2.938,2.938,0,0,1,405.578,357.417ZM93.418,151.15a12.631,12.631,0,0,1,5.761,1.565,11.61,11.61,0,0,1,3.93,3.572,3.6,3.6,0,0,1,1.127,2.028,13.519,13.519,0,0,1,1.006,3.662,2.161,2.161,0,0,1-.453,1.743,94.609,94.609,0,0,1-1.92,24.658,218.864,218.864,0,0,1-6.506,24.042l-.5,1.55-.321.982c-1,3.076-2.046,6.189-3.055,9.2l0,.006c-2.24,6.681-4.556,13.59-6.549,20.463A173.54,173.54,0,0,0,81.1,265.53a128.89,128.89,0,0,0-.438,35.275l.1.8A99.1,99.1,0,0,0,84.1,318.545a55.7,55.7,0,0,0,3.117,8.09,39.307,39.307,0,0,0,4.477,7.233,20.311,20.311,0,0,0,5.923,5.15,30.256,30.256,0,0,0,7.3,2.847l.3.079c1.363.359,2.767.768,4.124,1.163l.007,0a64.977,64.977,0,0,0,10.878,2.507,15.483,15.483,0,0,0,1.67.091c3.61,0,6.788-1.244,10.153-2.561l1.015-.4.005-.005a42.4,42.4,0,0,0,10.167-14.053,93.659,93.659,0,0,0,5.738-16.823,176.309,176.309,0,0,0,4.25-22.618,209.432,209.432,0,0,0,1.485-22.873,295.177,295.177,0,0,0-3.348-45.82c-2.263-15.7-5.382-31.511-8.4-46.807l-.1-.485c-.462-2.343-.942-4.723-1.407-7.025l0-.011v0c-1.093-5.413-2.223-11.009-3.194-16.536l-.823-4.638c-.406-2.3-.874-5.027-1.269-7.747-.483-3.325-.641-6.537-.809-9.937l-.023-.472a49.6,49.6,0,0,0-17.6-17.032,65.16,65.16,0,0,0-16.152-6.559c-8.948-2.412-18.487-3.394-27.712-4.344-7.255-.747-14.755-1.52-21.861-2.984A97.559,97.559,0,0,1,36.341,91.23l-.7-.272a8.912,8.912,0,0,0-3.031-.729,2.964,2.964,0,0,0-2.9,2.078,5.143,5.143,0,0,0-.325,2.963A6.541,6.541,0,0,0,30.626,98a16.073,16.073,0,0,0,6.2,4.62,58.94,58.94,0,0,0,7.392,2.716l.256.081a68.686,68.686,0,0,0,8.508,2.108c.871.158,1.754.282,2.609.4A28.316,28.316,0,0,1,61.5,109.19a1.391,1.391,0,0,1,.877,1.369,1.074,1.074,0,0,1-.877,1.011,14.694,14.694,0,0,1-3.38.369,37.075,37.075,0,0,1-7.026-.915l-.088-.017a73.359,73.359,0,0,1-11.237-3.177c-.791-.292-1.453-.542-2.083-.789l-.535-.212c.51.37,1.054.759,1.665,1.191a.188.188,0,0,1,.064.212.15.15,0,0,1-.142.114.178.178,0,0,1-.059-.011,52.887,52.887,0,0,1-12.19-6.555A61.446,61.446,0,0,1,16.2,92.5l-.3-.343c-.326-.373-.709-.854-1.153-1.411A39.233,39.233,0,0,0,10.9,86.39c-1.729-1.6-3.23-2.376-4.588-2.376a3.314,3.314,0,0,0-1.5.358,1.992,1.992,0,0,0-1.13,1.408,4.326,4.326,0,0,0,.346,2.363A15.689,15.689,0,0,0,5.5,90.931a56.85,56.85,0,0,0,3.953,5.193c.189.229.384.464.555.672l.289.357a10.191,10.191,0,0,1,4,1.058,34.545,34.545,0,0,1,3.632,2.049l.246.153a119.624,119.624,0,0,0,12.4,6.59c3.888,1.828,7.953,3.433,11.884,4.986,4.6,1.818,9.362,3.7,13.866,5.946a.084.084,0,0,1,.05.1.12.12,0,0,1-.113.087H56.25a103.336,103.336,0,0,1-15.71-3.883l-.229-.072-.229-.076c-3.018-.991-6.121-2.14-9.488-3.514a99.125,99.125,0,0,1-10.125-4.793c-.879-.48-1.772-1.065-2.717-1.683-2.247-1.47-4.57-2.991-7-3.3a4.966,4.966,0,0,0-.629-.043c-.121,0-.239.005-.351.016a1.878,1.878,0,0,0-1.631.947c-1.108,2.094,1.515,6.947,2.053,7.9a47.343,47.343,0,0,0,6.49,8.9A63.105,63.105,0,0,0,34.561,131.8c2.117,1.081,4.392,2.1,6.954,3.119-.4-.35-.788-.716-1.085-1a39.79,39.79,0,0,1-3.954-4.325,34.661,34.661,0,0,1-3.224-4.891l-.487-.927a15.689,15.689,0,0,1-1.8-4.9,4.673,4.673,0,0,1,.251-2.374,4.01,4.01,0,0,1,1.736-1.912,6.367,6.367,0,0,1,3.3-.849,12.126,12.126,0,0,1,3.725.67c.127.04.257.084.381.126l.077.026c.891.312,1.865.716,2.976,1.233a59.626,59.626,0,0,1,8.116,4.828c.955.639,1.941,1.3,2.925,1.927a37.284,37.284,0,0,0,5.959,3.12,35.873,35.873,0,0,0,6.414,1.94l.428.086c.435.086.878.17,1.305.25,3.879.733,7.889,1.49,10.564,4.644A1.433,1.433,0,0,1,79.3,134.1a1.088,1.088,0,0,1-.986.674,1.291,1.291,0,0,1-.413-.072c-2.885-.973-5.872-1.691-8.761-2.385-2.665-.64-5.421-1.3-8.062-2.159a36.512,36.512,0,0,1-7.668-3.4c-1.319-.795-2.629-1.653-3.9-2.483l0,0c-1.74-1.14-3.539-2.319-5.389-3.352a26.768,26.768,0,0,0-5.314-2.347l-1.019-.3a5.013,5.013,0,0,0-1.319-.246,1.407,1.407,0,0,0-.471.071.9.9,0,0,0-.566.4c-.121.251-.007.58.138,1l0,.009c.028.08.057.163.086.251l.028.086c2.515,7.777,10.1,13.613,14.4,16.4,1.289.84,2.675,1.653,4.12,2.419a78.347,78.347,0,0,0,12.752,5.271c4.389,1.424,8.956,2.618,13.373,3.772l.024.006c1.435.375,2.919.763,4.374,1.153.059.016,6.061,1.693,8.024,2.315C92.963,151.159,93.189,151.15,93.418,151.15Zm347.126,61.979c-.107.025-.211.054-.312.083h0l-.021.006c-2.109.591-4.267,1.126-6.354,1.644-.81.2-1.729.429-2.613.653a82.216,82.216,0,0,0-15.04,5.015c-.875,11.046-2.138,22.245-3.359,33.075v0c-.174,1.542-.371,3.29-.562,5L412,261.142c2.408-4.468,4.616-8.4,6.749-12.027C425.762,237.176,433.1,225.069,440.544,213.129ZM83.322,214.388a21.83,21.83,0,0,1-.3,3.253c-.063.446-.123.864-.171,1.283-.13,1.12-.25,2.261-.366,3.364v.013c-.128,1.218-.261,2.478-.407,3.714-.616,5.137-1.076,9.8-1.406,14.25-.232,3.107-.38,6.23-.506,9.141,2.51-9.381,5.755-18.735,8.892-27.781l.013-.037c.592-1.705,1.2-3.468,1.8-5.2a12.948,12.948,0,0,1-1.934-.4l-1.116-.3-.224-.057h0C86.777,215.422,84.865,214.935,83.322,214.388ZM592.46,146.366l-.239.169Zm1.56-1.132-.444.327ZM447.7,207.529h0l.041-.065.042-.066.873-1.373.289-.454.089-.139.919-1.437.021.5a3,3,0,0,1-.624,2.086,2.821,2.821,0,0,1-1.65.948Zm-325.232-79.98c-1.471,0-3.068-.959-4.613-1.887a17.555,17.555,0,0,0-2.459-1.317,34.405,34.405,0,0,0-18.829-1.822,33.537,33.537,0,0,0-6.042,1.7.273.273,0,0,1-.1.02.289.289,0,0,1-.262-.235.278.278,0,0,1,.13-.323,32.969,32.969,0,0,1,7.364-2.937,30.779,30.779,0,0,1,7.816-1.016c.893,0,1.8.04,2.688.119a32.883,32.883,0,0,1,9.167,2.107l.284.111.473.181a20.59,20.59,0,0,1,3.349,1.513,4.662,4.662,0,0,1,2.242,2.521.883.883,0,0,1-.112.776,1.135,1.135,0,0,1-.841.478C122.638,127.546,122.552,127.549,122.466,127.549Z" transform="translate(-46.886 2.766)"/>
    </g>
    <g id="head_Shaved_3" data-name="head/Shaved 3" transform="translate(660.98 5406.391)">
      <path id="_Skin-2" data-name="âœ‹ Skin" d="M165.727,3.561c-28.168-8.267-125.039.207-127.434,2-3.92,3.257-22.988,13.592-25.954,15.952-26.828,28.434-1.252,70.659-3.221,104.96.125,12.167-5.059,23.276-7.443,34.981-1.006,6.134-.784,12.479,2.413,17.986,5.621,9.841,17.492,11.836,27.146,15.8a62.06,62.06,0,0,1,13.407,8.21c27.7,24.505,43.121,41.286,83.541,35.758.207,1.93,1.916,3.826,4.035,2.963,4.963-2.021,9.89-4.164,14.9-6.08a3.608,3.608,0,0,0,6.225,1.037l.012.016c9.266-7.516,15.159-17.794,19.536-28.8a120.651,120.651,0,0,0,7.487-19.79,3.471,3.471,0,0,0-.008-2.055,268.45,268.45,0,0,0,9.788-94.227c-.471-6.528-1.7-13.142-1.4-19.7.274-5.922,2.825-11.524,4.77-17.04C203.551,32.094,188.22,10.944,165.727,3.561Z" transform="translate(32.045 23.318)" fill="#d08b5b"/>
      <path id="_Ink-2" data-name="ðŸ– Ink" d="M165.136,287.409a84.517,84.517,0,0,1-24.465-3.807,100.584,100.584,0,0,1-11.642-4.341,102.346,102.346,0,0,1-10.8-5.594,5.346,5.346,0,0,1-2.407-2.815,5.526,5.526,0,0,1-.078-3.333,6.527,6.527,0,0,1,1.957-3.142,5.09,5.09,0,0,1,3.379-1.332,5.453,5.453,0,0,1,2.853.855A88.267,88.267,0,0,0,153,275.2a73.21,73.21,0,0,0,14.009,1.483,40.432,40.432,0,0,0,15.693-2.858c10.7-4.493,19-14.665,25.4-31.1a206.043,206.043,0,0,0,6.985-22.553c2.112-8.06,4.788-18.711,6.754-29.617,3.806-21.156,4.1-39.651.89-56.542a115.246,115.246,0,0,0-4.8-17.685,9.985,9.985,0,0,1-.917-1.354,72.71,72.71,0,0,1-4.411-9.988c-.288-.751-.586-1.528-.883-2.287-1.336-2.318-2.843-4.653-4.609-7.138a63.945,63.945,0,0,1-6.942-6.111,49.809,49.809,0,0,0,15.676-15.51,1.9,1.9,0,0,0-.535-2.646,42.253,42.253,0,0,1-5.343,5.5,69.163,69.163,0,0,1-6.2,4.759,56.148,56.148,0,0,1-7.059,5.111c-1.533.3-3.171.547-5.312.791a52.577,52.577,0,0,1-5.915.326,67.2,67.2,0,0,1-8.957-.631c-2.529-.337-6.969-1.288-12.59-2.491-14.2-3.039-35.649-7.631-51.2-7.631a45.759,45.759,0,0,0-10.976,1.108,8.722,8.722,0,0,0-4.323,2.693A28.208,28.208,0,0,0,94.4,85.125l0,0c-.183.3-.373.6-.562.9a25.192,25.192,0,0,1-3.095,3.986,26.517,26.517,0,0,1-3.812,3.293l-.31.218c-5.705,3.949-16.425,15.844-20.922,26.244-5.708,13.2-11.143,51.522-9.264,54.847a.4.4,0,0,0,.274.231c5.655.766,9.263,3.383,13.441,6.413l0,0c.887.643,1.8,1.308,2.774,1.981a.457.457,0,0,1,.164.517.358.358,0,0,1-.338.275.428.428,0,0,1-.147-.028,66.914,66.914,0,0,0-11.526-2.755,27.947,27.947,0,0,0-4.636-.419,16.751,16.751,0,0,0-5.906.977c-4.588,1.7-7.526,5.449-8.734,11.142a30.024,30.024,0,0,0-.606,5.884l0,.573c0,7.933,1.916,13.9,5.687,17.728a12.547,12.547,0,0,0,3.327,2.414,12.407,12.407,0,0,0,3.932,1.221,8.1,8.1,0,0,0,1.072.073,11.621,11.621,0,0,0,4.144-.952,24.013,24.013,0,0,1,2.36-.769,5.485,5.485,0,0,1,1.352-.175,4.065,4.065,0,0,1,3.086,1.294,3.644,3.644,0,0,1,.892,2.869c.732.64,1.432,1.313,1.96,1.828h0v0l0,0a5.074,5.074,0,0,1,1.185.748,8.137,8.137,0,0,1,1.5,1.654,4.026,4.026,0,0,1,2.445,1.575c1.425,1.836,2.775,3.74,4.014,5.658,1.987,2.109,4.324,4.6,6.6,7.112,2.1,2.311,4.19,4.7,6.21,7.013l.041.047,1.484,1.7,1.285,1.463c1.351,1.536,2.746,3.127,4.146,4.73l.412.464.085.1c1.325,1.482,2.371,2.653,2.517,4.845a2.145,2.145,0,0,1-.6,1.635,2.737,2.737,0,0,1-1.963.846,2.4,2.4,0,0,1-.595-.074c-1.984-.512-3.054-1.945-4.186-3.463l0,0c-.169-.226-.343-.46-.52-.69l-2.065-2.649-1.944-2.5c-.7-.9-1.413-1.812-2.1-2.694l-.073-.093-.731-.933a4.637,4.637,0,0,1-1.735,2.928,5.515,5.515,0,0,1-3.17,1.292l-.513.02c-.46.015-.921.023-1.369.023a29.786,29.786,0,0,1-7.491-.865,15.078,15.078,0,0,1-6.53-3.361,15.973,15.973,0,0,1-6.685,4.035,11.945,11.945,0,0,1-3.552.542,12.556,12.556,0,0,1-6.785-2.03,12.734,12.734,0,0,1-4.619-5.16,22.949,22.949,0,0,1-15.509.964,4.256,4.256,0,0,1-1.954-6.933l.094-.1.024-.028a3.558,3.558,0,0,1-.709-2,3.921,3.921,0,0,1,.253-1.319,3.192,3.192,0,0,0,.227-1.409c-.177-1.1-.925-1.656-2.222-1.656a14.821,14.821,0,0,0-5.018,1.41l-.255.107a2.587,2.587,0,0,1-.9.208,2.683,2.683,0,0,1-.751.107,3.72,3.72,0,0,1-3.02-1.867,4.2,4.2,0,0,1-.628-1.788,3.541,3.541,0,0,1,.334-1.93c1.25-2.582,2.508-5.216,3.725-7.762l.005-.011,0-.006c1.751-3.664,3.561-7.453,5.38-11.16-.418.141-.817.26-1.185.353a11.765,11.765,0,0,1-2.921.366,10.686,10.686,0,0,1-3.871-.7,7.232,7.232,0,0,1-2.987-2.089,5.877,5.877,0,0,1-1.2-2.416,7.533,7.533,0,0,1-.016-3.154,3.565,3.565,0,0,1,1.146-1.972,5.625,5.625,0,0,1,1.983-1.158,12.689,12.689,0,0,1,3.736-.6,9.168,9.168,0,0,0,3.2-.549,29.57,29.57,0,0,0,6.975-4.52,36.306,36.306,0,0,0,5.884-6.1,23.805,23.805,0,0,1,3.766-8.971l.027-.036c.106-.144.215-.292.327-.433A13.15,13.15,0,0,1,29.1,175.9c-1.772-2.731-2.761-6.125-3.808-9.718a56.259,56.259,0,0,0-3.6-9.93l-.453-.879c-3.515-6.84-6.855-14.94-4.984-23.159a19.466,19.466,0,0,1,1.412-4.067c-.928.116-1.871.222-2.783.326l-.147.017a2.484,2.484,0,0,1-.278.016,3.65,3.65,0,0,1-2.889-1.756,3.252,3.252,0,0,1-.458-3.017c.457-1.083.976-2.17,1.544-3.229a36.7,36.7,0,0,1,5.689-7.85c-.7-.019-1.419-.034-2.111-.049h-.01c-3-.065-6.106-.132-9.127-.483A10.026,10.026,0,0,1,2.193,110.3a5.663,5.663,0,0,1-1.622-1.908A5.44,5.44,0,0,1,0,105.744a8.093,8.093,0,0,1,2.182-5.077,18.3,18.3,0,0,1,4.458-3.593,37.418,37.418,0,0,1,5.223-5.627A38.383,38.383,0,0,1,18.1,87a22.351,22.351,0,0,0-2.671-.433l-.453-.04a20.429,20.429,0,0,1-7.107-1.954,2.765,2.765,0,0,1-1.558-2.043,3.8,3.8,0,0,1,.879-3.23,9.292,9.292,0,0,1,7.1-3.021A19.779,19.779,0,0,1,23.1,78.822a13.535,13.535,0,0,0-1.16-1.291l-.256-.245a2.3,2.3,0,0,1-.65-2.618,2.94,2.94,0,0,1,2.622-1.835,2.555,2.555,0,0,1,1.754.728,17.617,17.617,0,0,1,2.111,2.363l.06-.124A54.327,54.327,0,0,1,41.312,58.444l1.332-1.108c.993-.829,1.9-1.6,2.776-2.344,3.489-2.965,6.245-5.306,9.182-6.857a19.127,19.127,0,0,1,4.708-1.757,25.937,25.937,0,0,1,5.841-.594c1.365,0,2.824.074,4.46.225a27.39,27.39,0,0,1-.392-7.53l.018-.309a37.516,37.516,0,0,1,3.086-13.134c2.121-4.595,5.141-7.82,8.978-9.587a3.2,3.2,0,0,1,1.337-.3A2.877,2.877,0,0,1,84.886,16.2a2.736,2.736,0,0,1,.477,2.372,41.713,41.713,0,0,1-1.517,5.152A60.793,60.793,0,0,1,102.1,10.648a34.659,34.659,0,0,1,14.128-3.307,26.032,26.032,0,0,1,4.363.364,23.686,23.686,0,0,1,6.9,2.428,71.217,71.217,0,0,1,6.259,3.811c.933.613,1.9,1.246,2.857,1.847a40.133,40.133,0,0,0,16.905,5.827,61.255,61.255,0,0,0,6.982.388A99.535,99.535,0,0,0,178.7,20.074a162.493,162.493,0,0,0,16.679-8.556,92.793,92.793,0,0,0,9.63-6.379l.3-.233c.453-.355.909-.731,1.35-1.1C208.927,1.938,211.276,0,214.238,0A7.433,7.433,0,0,1,216.2.272c3.359.919,5.532,3.574,6.459,7.892,1.123-1.176,2.247-2.425,3.34-3.714a5.376,5.376,0,0,1,4.2-1.826,6.967,6.967,0,0,1,3.945,1.231A5.834,5.834,0,0,1,235.6,5.3a5.022,5.022,0,0,1,.818,1.908,69.48,69.48,0,0,1,.137,26.946c-.268,1.381-.584,2.739-.938,4.035a72.942,72.942,0,0,0,5.463-7.728,3.075,3.075,0,0,1,2.669-1.593,3.44,3.44,0,0,1,2.263.893,3.578,3.578,0,0,1,1.168,2.354c.074.807.116,1.635.127,2.46a2.813,2.813,0,0,1,1.8,3.329,241.55,241.55,0,0,1-6.949,25.877A27.562,27.562,0,0,1,247,61.732a17.392,17.392,0,0,1,5.035-.8,13.024,13.024,0,0,1,4.367.735,11.751,11.751,0,0,1,4.606,2.94,12.56,12.56,0,0,1,2.688,4.389,19.647,19.647,0,0,1,.55,10.62,31.1,31.1,0,0,1-5.464,12.1,35.729,35.729,0,0,1-4.429,4.973,38.389,38.389,0,0,1-5.275,4.117c-.785,1.181-1.709,2.587-2.608,4.062a31.086,31.086,0,0,1-2.144,11.353,24.153,24.153,0,0,1-7.9,10.188,7.3,7.3,0,0,1-2.6,2.963,6.873,6.873,0,0,1-3.72,1.193,5.246,5.246,0,0,1-.976-.09l-.149-.03-.005.005c.7,2.5,1.337,5.146,1.9,7.865a112.481,112.481,0,0,1,2.037,15.434,141.7,141.7,0,0,1,.1,15.58c-.232,4.971-.693,10.061-1.409,15.558-.629,4.827-1.441,9.854-2.482,15.369l-.123.648c-1.659,8.707-3.532,18.034-5.985,27.248a159.6,159.6,0,0,1-9.24,26.28,73.922,73.922,0,0,1-6.2,10.9,59.244,59.244,0,0,1-8.056,9.446,43.623,43.623,0,0,1-21.767,11.457A66.372,66.372,0,0,1,165.136,287.409ZM64.041,57.943c-4.143,0-8.524,1.768-13.023,5.255a1.763,1.763,0,0,0-.724,1.179,70.855,70.855,0,0,1,11.322-3.142,62.572,62.572,0,0,1,9.231-1.229,1.85,1.85,0,0,0-.889-.779A14.346,14.346,0,0,0,64.041,57.943ZM65.36,206.56a5.558,5.558,0,0,1-4.388-2.5,15.458,15.458,0,0,1-1.46-2.534,11.269,11.269,0,0,0-2.149-3.3l-.412-.4c-2.133-2.04-3.9-3.031-5.412-3.031a3.234,3.234,0,0,0-.508.04.321.321,0,0,1-.048,0,.34.34,0,0,1-.321-.252.254.254,0,0,1,.143-.3c.588-.321,1.109-.675,1.614-1.018a9.814,9.814,0,0,1,3.217-1.632,11.166,11.166,0,0,1,2.779-.342,11.457,11.457,0,0,1,2.783.337,13.37,13.37,0,0,1,6.211,3.55,9.8,9.8,0,0,1,2.956,6.327,4.568,4.568,0,0,1-1.036,3.044,5.27,5.27,0,0,1-2.668,1.819A4.9,4.9,0,0,1,65.36,206.56Zm15.511-28.167a1.655,1.655,0,0,1-.713-.156,4.779,4.779,0,0,1-1.951-1.664,5.167,5.167,0,0,1-.829-2.292,6.3,6.3,0,0,1,2.2-5.537,1.035,1.035,0,0,1,.656-.247.932.932,0,0,1,.773.409.947.947,0,0,1,.076.908l-.029.068c-.969,2.042.193,4.456,1.338,6.121a1.354,1.354,0,0,1,.129,1.447A1.913,1.913,0,0,1,80.871,178.393Zm7.854-21.5a1.7,1.7,0,0,1-1.323-.613,1.8,1.8,0,0,1-.338-1.516c.68-3.491,1.651-6.96,2.59-10.315a104.288,104.288,0,0,0,3.074-13.164c1.213-8.435,1.737-15.331.6-23.633a.434.434,0,0,1,.1-.35.41.41,0,0,1,.3-.14.378.378,0,0,1,.358.28,59.731,59.731,0,0,1,3.156,23.986l-.043.765A65.063,65.063,0,0,1,95.41,144.7a32.5,32.5,0,0,1-5.185,11.4A1.847,1.847,0,0,1,88.725,156.892ZM68.046,138.408a.991.991,0,0,1-.735-.366.922.922,0,0,1-.207-.769,3.937,3.937,0,0,1,1.343-2.141,3.718,3.718,0,0,1,2.331-.982,2.183,2.183,0,0,1,1.773.9.988.988,0,0,1,.175.892,1.689,1.689,0,0,1-.96,1.036,1.421,1.421,0,0,1-.529.095,3.746,3.746,0,0,1-.5-.045,3.788,3.788,0,0,0-.509-.046,1.543,1.543,0,0,0-.307.029,1.678,1.678,0,0,0-1.134.858l-.051.1A.762.762,0,0,1,68.046,138.408Zm-1.992-17.889a.355.355,0,0,1-.294-.188.4.4,0,0,1-.026-.39,5.61,5.61,0,0,1,1.833-2.007,4.56,4.56,0,0,1,2.506-.8,3.9,3.9,0,0,1,1.993.549.945.945,0,0,1,.406,1.08.857.857,0,0,1-.837.67h-.044l-.561-.023c-.345-.012-.623-.018-.875-.018a6.246,6.246,0,0,0-3.915,1.058A.307.307,0,0,1,66.054,120.519Z" transform="translate(-3.69 -16.331)"/>
    </g>
    <g id="accessories_Sunglasses" data-name="accessories/Sunglasses" transform="translate(683.606 5523.763)">
      <path id="_Ink-3" data-name="ðŸ– Ink" d="M102.505,56.9c-1.066,0-2.144-.046-3.2-.136a31.615,31.615,0,0,1-10.695-2.85,34.26,34.26,0,0,1-8.137-5.348,36.9,36.9,0,0,1-5.545-6.108,25.009,25.009,0,0,1-2.918-5.129L71.883,37c-.192-.5-.375-1.013-.568-1.553-1.31-3.656-2.8-7.8-7.04-8.555L63.244,26.7a12.173,12.173,0,0,1-3.12-.923,5.673,5.673,0,0,1-2.433-2.23,6.755,6.755,0,0,1-.934-3.072c-.733.056-1.474.111-2.266.167-3.179.672-14.611,1.269-23.642,1.651-10.09.427-19.867.7-21.293.7A16.688,16.688,0,0,1,4.2,24.2a4.052,4.052,0,0,1-2.513-.685,4.2,4.2,0,0,1-1.571-2.17A3.763,3.763,0,0,1,.429,18.7c.587-1.243,2.142-2.393,4.622-3.418a32.448,32.448,0,0,1,5.679-1.688c.134,0,13.582.111,26,.111,13.142,0,20.425-.117,21.646-.349,1.565-1.614,4.107-1.777,6.566-1.934.636-.041,1.293-.083,1.912-.15a28.793,28.793,0,0,1,8.581-3.7c.6-.227,1.133-.424,1.629-.6A63.51,63.51,0,0,1,92.413,3.766c1.926-.183,3.922-.276,5.932-.276a75.886,75.886,0,0,1,10.248.73c2.39.324,4.59.724,6.727,1.223a99.7,99.7,0,0,1,11.93,2.416l.8.207a38.648,38.648,0,0,0,9.633,1.572,19.1,19.1,0,0,0,3.221-.265,42.945,42.945,0,0,0,10.2-3.436l.424-.192A72.6,72.6,0,0,1,177.96,0a79.007,79.007,0,0,1,18.928,2.265,25.607,25.607,0,0,0,3.079.6l.078.006a9.816,9.816,0,0,1,3.052.55,5.048,5.048,0,0,1,3.28,3.479,4.65,4.65,0,0,1-.016,2.247,5.034,5.034,0,0,1-1.108,2.073c-.047,1.571-.016,3.192.016,4.908v0a48.163,48.163,0,0,1-.648,11.234A47.416,47.416,0,0,1,202.131,40.4a23.384,23.384,0,0,1-4.531,7.786,18.888,18.888,0,0,1-10.276,5.668,24.729,24.729,0,0,1-5.461.644,17.632,17.632,0,0,1-3.923-.416,29.256,29.256,0,0,1-7.724-1.347A29.625,29.625,0,0,1,163.1,49.4a28.874,28.874,0,0,1-7.874-7.446,25.813,25.813,0,0,1-4.363-9.9,34.571,34.571,0,0,1-.651-10.576l.057-.485a16.944,16.944,0,0,0-6.724-1.225c-.8-.028-1.513-.052-2.234-.052-.409,0-.78.008-1.133.023-1.132.126-2.176.288-3.19.5a8.362,8.362,0,0,0-3.264,1.841l-.07,1.334a68.613,68.613,0,0,1-1.3,9.945,35.123,35.123,0,0,1-2.1,6.953,18.833,18.833,0,0,1-3.91,5.9,19.417,19.417,0,0,1-4.318,4.6,28.353,28.353,0,0,1-9.209,4.623A35.853,35.853,0,0,1,102.505,56.9Zm11.879-44.981a2.211,2.211,0,0,0-2.116,2.043,1.844,1.844,0,0,0,1.5,2.094,7.076,7.076,0,0,1,4.548,2.966l.113.175a2,2,0,0,0,1.725.989,2.363,2.363,0,0,0,2.023-1.171,1.858,1.858,0,0,0-.107-1.955,11.305,11.305,0,0,0-7.182-5.085A2.36,2.36,0,0,0,114.385,11.914Zm77-2.775A2.278,2.278,0,0,0,189.49,10.2a2.153,2.153,0,0,0,.668,2.829l.089.065a3.987,3.987,0,0,1,1.679,2.614l.009.129a2.088,2.088,0,0,0,2.192,2.041,2.111,2.111,0,0,0,1.525-.6,1.908,1.908,0,0,0,.5-1.437,8.241,8.241,0,0,0-3.777-6.4A1.709,1.709,0,0,0,191.384,9.139Z" transform="translate(0 7.902)"/>
    </g>
    <g id="face_Calm" data-name="face/Calm" transform="translate(737.867 5506.378)">
      <path id="_Ink-4" data-name="ðŸ– Ink" d="M55.467,98.4a20.074,20.074,0,0,1-11.123-3.289,21.194,21.194,0,0,1-4.6-3.973,14.331,14.331,0,0,1-3.805-9.567,1.57,1.57,0,0,1,.373-1,1.748,1.748,0,0,1,.93-.559,1.8,1.8,0,0,1,.41-.048,1.65,1.65,0,0,1,.678.142,1.447,1.447,0,0,1,.717.705c.334.438.774,1.013,1.216,1.569,3.329,4.11,6.53,7.064,11.33,8.12a13.451,13.451,0,0,0,2.887.314,14.13,14.13,0,0,0,4.874-.882,16.578,16.578,0,0,0,6.822-4.794,3.663,3.663,0,0,1,2.788-1.377h.024a4.286,4.286,0,0,1,2.965,1.313,4.625,4.625,0,0,1,1.385,3.018,4.038,4.038,0,0,1-1.147,2.965A22.98,22.98,0,0,1,67.353,95a23.4,23.4,0,0,1-5.7,2.514A22.253,22.253,0,0,1,55.467,98.4Zm6.275-29.3h0a18.393,18.393,0,0,1-6.558-1.322A33.122,33.122,0,0,1,47.471,63.4a2.963,2.963,0,0,1-1.076-1.712,3.546,3.546,0,0,1,.153-1.922,4.372,4.372,0,0,1,1.3-1.877,3.161,3.161,0,0,1,2.023-.789,2.871,2.871,0,0,1,1.565.48l.511.394.018.014c2.68,2.072,6.729,5.2,10.614,5.2A6.337,6.337,0,0,0,67.3,61.1a6.983,6.983,0,0,0,1.325-5.622c-.9-4.371-5.649-7.557-7.084-8.429a1.323,1.323,0,0,1-.358-1.521A1.968,1.968,0,0,1,63.1,44.165a2.682,2.682,0,0,1,.453.04,14.307,14.307,0,0,1,5.031,1.817,11.413,11.413,0,0,1,3.384,3.12,12.394,12.394,0,0,1,2.161,8.28,13.222,13.222,0,0,1-3.6,8.08A11.919,11.919,0,0,1,61.742,69.1ZM11.315,48.854a2.521,2.521,0,0,1-.731-.108,1.484,1.484,0,0,1-1-.862C8.311,44.5,9.215,41,10.2,38.652c1.7-4.045,4.741-7.381,6.745-8.466A11.707,11.707,0,0,1,22.5,28.754a11.123,11.123,0,0,1,5.353,1.381,13.927,13.927,0,0,1,3.7,3.04,38.328,38.328,0,0,1,2.869,3.82c.378.55.768,1.12,1.166,1.672a3.365,3.365,0,0,1,.566,3.128,4.045,4.045,0,0,1-2.3,2.371,4.4,4.4,0,0,1-1.692.347,3.861,3.861,0,0,1-1.509-.3,4.057,4.057,0,0,1-2.177-2.3,12.066,12.066,0,0,0-4.15-5.506,4.432,4.432,0,0,0-4.449-.34A14.539,14.539,0,0,0,14.7,41.231a10.12,10.12,0,0,0-1.7,6.03,1.368,1.368,0,0,1-.443,1.15,1.723,1.723,0,0,1-.961.426A2.26,2.26,0,0,1,11.315,48.854ZM87.68,41.417a3.291,3.291,0,0,1-.95-.153,3.592,3.592,0,0,1-1.484-.886,2.954,2.954,0,0,1-.825-1.493,6.111,6.111,0,0,0-2.145-3.571,4.282,4.282,0,0,0-3.423-.9,6.575,6.575,0,0,0-3.684,2.209,8.089,8.089,0,0,0-.773,1.128l-.023.038a8.23,8.23,0,0,1-1.53,2.008,1.492,1.492,0,0,1-.947.357,1.414,1.414,0,0,1-.422-.066,4.367,4.367,0,0,1-1.631-3.542,6.5,6.5,0,0,1,1.2-3.291,12.976,12.976,0,0,1,6.953-4.947,9.865,9.865,0,0,1,2.069-.22,10.56,10.56,0,0,1,6.073,1.976A11.531,11.531,0,0,1,90.85,37.28a3.839,3.839,0,0,1-.193,2.131,2.99,2.99,0,0,1-1.395,1.551A3.315,3.315,0,0,1,87.68,41.417ZM1.809,27.362a.878.878,0,0,1-.114-.007,1.069,1.069,0,0,1-.556-.27A4.045,4.045,0,0,1,0,23.755a14.412,14.412,0,0,1,1.465-5.6,30.333,30.333,0,0,1,6.439-8.85A31.3,31.3,0,0,1,18.03,3.139a21.771,21.771,0,0,1,7.216-1.59c.15,0,.3,0,.446.009a8.671,8.671,0,0,1,2.685.511,7.064,7.064,0,0,1,2.391,1.486A4.437,4.437,0,0,1,32.095,6.8a4.627,4.627,0,0,1-1.333,3.315,6.85,6.85,0,0,1-2.831,1.655,16.463,16.463,0,0,1-3.091.551,28.1,28.1,0,0,0-3.011.445,28.3,28.3,0,0,0-7.273,2.656A26.915,26.915,0,0,0,7.74,20.248c-.445.476-.868.981-1.277,1.468l-.011.013c-.38.453-.74.882-1.123,1.3-.426.465-.817.934-1.284,1.5a6.369,6.369,0,0,0-.363.641c-.093.194-.182.372-.274.546-.17.32-.333.6-.486.834-.3.509-.459.63-.583.686A1.307,1.307,0,0,1,1.809,27.362Zm90.175-1.156a1.031,1.031,0,0,1-.17-.014,1.017,1.017,0,0,1-.519-.252.975.975,0,0,1-.292-.5c-1.277-5.607-3.818-9.11-8.241-11.358A35.254,35.254,0,0,0,75.085,11.5c-.739-.175-1.535-.291-2.3-.4l-.036-.005c-2.332-.34-4.974-.726-6.651-2.805A5.6,5.6,0,0,1,65.057,6.26a5.158,5.158,0,0,1-.125-2.177A4.47,4.47,0,0,1,67.36.775,7.306,7.306,0,0,1,70.75,0c2.834,0,5.9,1.314,8.146,2.273l.179.076.008,0,.595.253A26.737,26.737,0,0,1,89,8.827a20.147,20.147,0,0,1,4.792,8.854,10.627,10.627,0,0,1-.967,8.057.957.957,0,0,1-.437.384A1.007,1.007,0,0,1,91.984,26.207Z" transform="translate(28.448 29.005)"/>
    </g>
  </g>
</svg>
