<svg xmlns="http://www.w3.org/2000/svg" width="387.785" height="463.869" viewBox="0 0 387.785 463.869">
  <g id="Group_7" data-name="Group 7" transform="translate(-800.432 -4778)">
    <g id="Group_1" data-name="Group 1" transform="translate(800.432 4778)">
      <g id="head_Bantu_Knots" data-name="head/Bantu Knots" transform="translate(0 0)">
        <path id="_Skin" data-name="âœ‹ Skin" d="M283.441,136.813c-.935-17.9-1.756-36.4-5.188-54.03A54.45,54.45,0,0,0,267.76,59.227c-4.981-6.348-11.249-11.271-17.607-16.161-12.779-9.828-25.066-20.709-39.37-28.311a127.838,127.838,0,0,0-43.94-13.675A137.335,137.335,0,0,0,80.407,18.819C55.463,33.571,35.41,56.464,23,82.564A159.911,159.911,0,0,0,9.708,123.379c-2.974,16.874-2.7,33.8-2.6,50.86.037,5.735-.015,11.467-.3,17.188a51.091,51.091,0,0,0-.719,8.6c-5.646,7.429-7.943,17.359-4.4,26.5,5.644,14.593,21.659,21.23,36.2,18.684a37.406,37.406,0,0,0,4.172,11.17,206.425,206.425,0,0,0,11.032,18.146,158.76,158.76,0,0,0,28.705,32.482c22.119,18.73,50.14,31,79.2,32.778,26.455,1.617,54.356-5.907,75.931-21.426a102.619,102.619,0,0,0,28.088-29.745c8.411-13.808,12.975-29.7,15.344-45.594,5.2-34.885,4.921-71.072,3.088-106.215Z" transform="translate(53.995 67.904)" fill="#d08b5b"/>
        <path id="_Ink" data-name="ðŸ– Ink" d="M230.856,412.857a92.119,92.119,0,0,1-24.774-3.321c-15.925-4.446-27.4-11.291-34.108-20.344a6.861,6.861,0,0,1-1.063-5.21,8.91,8.91,0,0,1,2.358-4.829,7.881,7.881,0,0,1,5.694-2.331,10.042,10.042,0,0,1,4.343,1.037c2.782,1.349,5.478,2.957,8.085,4.512a95.408,95.408,0,0,0,9.235,5.055,75.539,75.539,0,0,0,17.21,5.192,77.433,77.433,0,0,0,14.517,1.346,82.537,82.537,0,0,0,21.332-2.791,89.042,89.042,0,0,0,51.283-37.493c15.068-23.461,19.2-50.91,21.111-72.2a400.577,400.577,0,0,0-1.07-83.2c-1.483-12.408-3.812-25.7-7.121-40.638-1.395-6.3-2.932-12.67-4.42-18.833l0-.008c-.77-3.193-1.567-6.494-2.336-9.751-2.062-1.967-4.051-4-5.911-6.039l-.058,0a4.558,4.558,0,0,1-.759.125c-2.189.167-4.338.252-6.387.252a59.755,59.755,0,0,1-13.955-1.53,39.167,39.167,0,0,1-12.8-5.5,33.921,33.921,0,0,1-9.687-9.842,34.871,34.871,0,0,1-8.98-8.919c-1.634-1.793-3.243-3.732-4.782-5.763-3.682-4.862-5.713-10.051-7.863-15.546l-.15-.382a2.27,2.27,0,0,1-.113-.388,6.8,6.8,0,0,1-.881-2.249c-4.771-.566-9.826-.979-15.023-1.227-1.593-.075-3.327-.143-5.3-.207a23.736,23.736,0,0,1,.805,5.363,38.693,38.693,0,0,1,4.375.468,21.228,21.228,0,0,1,8.89,3.465,29.849,29.849,0,0,1,6.831,6.838,76.01,76.01,0,0,1,9.875,18.414,8.115,8.115,0,0,1-.1,5.9,11.372,11.372,0,0,1-3.693,4.853,72.845,72.845,0,0,0-24.8,6.2,1.311,1.311,0,0,0-.61.618c-6.765,2.015-12.955,3.661-18.924,5.033a47.847,47.847,0,0,1-10.725,1.357,31,31,0,0,1-7.675-.919,50,50,0,0,1-7.754-2.754,6.456,6.456,0,0,1-.777.047,7.12,7.12,0,0,1-3.563-1c-2.315-1.325-4.607-2.757-6.811-4.257a115.932,115.932,0,0,1-11.629-6.3l-.02-.029a46.03,46.03,0,0,0-11.992-10.087,14.994,14.994,0,0,1-1.362-2.554,13.82,13.82,0,0,1-.824-7.8,11,11,0,0,1,3.951-6.633,4.446,4.446,0,0,1,1.719-3.268c.884-.72,1.822-1.426,2.788-2.1l-.243-.179c-.118-.086-.239-.175-.357-.265-.351-.265-.723-.575-1.138-.946-2.592,1.421-5.661,3.067-8.769,4.505l-.07.052-.005,0c-.048.036-.1.074-.151.108-2.5,1.638-4.973,3.414-7.368,5.132-2.975,2.133-6.05,4.338-9.187,6.3-.969.6-1.948,1.2-2.895,1.785l-.032.02-1.122.688c-.536.731-1.017,1.415-1.47,2.092a20.779,20.779,0,0,1-.894,3.242,6.094,6.094,0,0,1,1.754,2.288,25.826,25.826,0,0,1,4.963,2.534l1.37.608a35.694,35.694,0,0,1,5.622-3.749,22.681,22.681,0,0,1,9.478,3.146,42.848,42.848,0,0,1,8.348,6.24c.38.429.689.792.972,1.141.224.181.451.373.671.558l.238.2c.487.524.949,1.051,1.376,1.568a2.9,2.9,0,0,0,1.552,1.024,41.651,41.651,0,0,1,7.529,9.034c3.014,5.161.888,11.591-1.3,16.615-.355.812-.737,1.633-1.136,2.439-4.241,5.713-8.278,11.614-12.181,17.32-3,2.9-5.493,5.357-7.9,7.925a13.656,13.656,0,0,1-1.34.8,13.365,13.365,0,0,1-6.257,1.514c-4.055,0-8.092-1.674-12-3.292-1.125-.466-2.288-.948-3.429-1.381l-.79-.292c-.9-.326-1.85-.645-2.766-.953-3.31-1.112-6.732-2.262-9.367-4.171a10.786,10.786,0,0,1-4.693-8.739,27.428,27.428,0,0,1,.116-3.958,144.389,144.389,0,0,1,6.145-13.974,9,9,0,0,1-1.227-1.671,14.018,14.018,0,0,1-1.827-3.011c-.627,1.2-1.257,2.434-1.866,3.626-2.728,5.34-5.548,10.862-9.1,15.5a10.806,10.806,0,0,1-3.975,3.3,10.643,10.643,0,0,1-4.551.957h-.031a7.483,7.483,0,0,1-3.357.786,7.87,7.87,0,0,1-.92-.054l.152,1.735c.11,1.2.267,2.777.509,4.312l.261,0a24.436,24.436,0,0,1,8.864,1.922c5.866,2.319,11.656,5.3,17.255,8.184l.005,0c2.389,1.23,4.859,2.5,7.286,3.7,1.118.55,2.338,1.067,3.629,1.614,3.224,1.366,6.555,2.777,8.831,4.917,2.571,2.42,2.068,5.461,1.236,8.116-.1.331-.216.664-.324.986l0,.009q-.086.258-.172.516l-.01.164a34.908,34.908,0,0,0-5.689,11.251,44.549,44.549,0,0,0-4.6,11.6,74.159,74.159,0,0,0-1.772,9.812l-.1.9-.054.106-.028.782a100.475,100.475,0,0,0,.013,17.528c.145,1.715.313,3.3.515,4.832a3.38,3.38,0,0,1-1.608,1.92,5.222,5.222,0,0,1-2.567.628,5.454,5.454,0,0,1-3.306-1.049,71.33,71.33,0,0,0-7.754-5.254,16.1,16.1,0,0,1-6.719,1.458,16.687,16.687,0,0,1-5.3-.871c-.227-.075-.448-.164-.661-.25l-.192-.077a57.7,57.7,0,0,0-9.029,1.946l-.874.258c-4.411,1.327-8.987,3.058-12.572,6.7-5.632,5.716-8.36,15.546-6.949,25.041,1.151,7.753,5.7,17.7,14.734,20.21a18.409,18.409,0,0,0,4.929.686,15.839,15.839,0,0,0,5.909-1.108,15.406,15.406,0,0,0,3.545-2.118c.377-.284.736-.581,1.083-.868a11.116,11.116,0,0,1,2.965-1.957A13.951,13.951,0,0,1,88.6,296.8c.191,0,.342-.008.454-.013.065,0,.132,0,.2,0a4.457,4.457,0,0,1,2.874,1.1,5.715,5.715,0,0,1,1.735,2.564c2.26,6.878-1.948,11.226-5.875,13.661.852,1.29,1.692,2.619,2.5,3.9,1.133,1.793,2.3,3.646,3.486,5.354,3.5,5.052,7.4,10.271,11.923,15.953a148.764,148.764,0,0,0,13.725,15.135c2.236,2.134,4.556,4.206,6.9,6.159l1.306,1.082a14.9,14.9,0,0,1,2.888,2.954,6.582,6.582,0,0,1,1.175,3.985,4.182,4.182,0,0,1-3.011,3.957,6.609,6.609,0,0,1-1.726.228c-4.957,0-9.953-5.358-13.6-9.27l0,0c-.567-.608-1.1-1.182-1.6-1.7l-.321-.328a144.157,144.157,0,0,1-13.7-16.047A94.742,94.742,0,0,1,87.3,326.508a87.671,87.671,0,0,1-3.752-10.215,38.371,38.371,0,0,1-13.342,2.519,24.431,24.431,0,0,1-2.767-.147,32.146,32.146,0,0,1-10.944-3.28,14.772,14.772,0,0,1-2.682,4.083c-3.451,3.662-8.644,5.519-15.435,5.519l-.35,0a15.6,15.6,0,0,1-9.793-3.364,12.118,12.118,0,0,1-4.464-9.2,13.732,13.732,0,0,1,1.646-7A17.178,17.178,0,0,1,30.079,300a11.677,11.677,0,0,1,8.056-7.361,46.738,46.738,0,0,1-1.1-24.969,39.668,39.668,0,0,1,4.708-11.443,33.555,33.555,0,0,1,8.148-9.182l.371-.281-.157.084c-.978.539-1.957,1.114-2.9,1.671l-.006,0c-.539.317-1.1.644-1.654.966l-.685.39a53.712,53.712,0,0,1-8.431,3.972,26.79,26.79,0,0,1-9.051,1.714,19.915,19.915,0,0,1-5-.627,15.023,15.023,0,0,1-4.036-1.681,12.942,12.942,0,0,1-3.028-2.534,12.69,12.69,0,0,1-3.016-6.7,13.614,13.614,0,0,1,1.284-7.8,14.68,14.68,0,0,1,5.969-6.275c3.787-2.167,8.128-2.944,12.254-3.461a11.153,11.153,0,0,1,2.347-2.286,9.828,9.828,0,0,1,4.123-7.531,8.808,8.808,0,0,1,5.171-1.658,10.385,10.385,0,0,1,3.069.482,16.088,16.088,0,0,1,3.321-1.947,16.919,16.919,0,0,1,3.178-1.009c-.013-.6-.022-1.211-.03-1.8v-.108q0-.329-.01-.658c-.17-.794-.272-1.618-.38-2.491v-.012l-.063-.011c-.161-.027-.342-.057-.513-.094a18.734,18.734,0,0,1-7.451-3.524,14.442,14.442,0,0,1-7.82,2.3,17.388,17.388,0,0,1-4.923-.751,16.379,16.379,0,0,1-6.558-4.006,21.134,21.134,0,0,1-4.687-6.712,23.252,23.252,0,0,1-8.413-3.123,11.664,11.664,0,0,1-2.694.319A10.087,10.087,0,0,1,4.131,190.4,8.983,8.983,0,0,1,.5,185.995a8.154,8.154,0,0,1-.008-5.61A9.617,9.617,0,0,1,3.812,175.8a2.139,2.139,0,0,1,1.287-.446,2.374,2.374,0,0,1,1.305.421,14,14,0,0,1,.648-1.73c.107-.235.223-.462.331-.672a15.4,15.4,0,0,1,1.309-6.8,11.47,11.47,0,0,1,4.643-5.144,12.323,12.323,0,0,1,6.272-1.676,13.98,13.98,0,0,1,4.235.666,16.3,16.3,0,0,1,7.292-3.863,15.577,15.577,0,0,1,3.754-.462,14.938,14.938,0,0,1,5.821,1.165,14.558,14.558,0,0,1,4.946,3.419,15.953,15.953,0,0,1,2.5-.515,10.49,10.49,0,0,1,2.618-5.96,12.64,12.64,0,0,1,3.913-2.788,14.46,14.46,0,0,1,3.565-6.583A14.76,14.76,0,0,1,55.87,142.3a15.98,15.98,0,0,1-2.262-.529,15.053,15.053,0,0,1-8.524-6.863,14.036,14.036,0,0,1-3.474.451,13.274,13.274,0,0,1-7.132-2.129,13.757,13.757,0,0,1-5.541-7.085l-2.925-1.026a10.967,10.967,0,0,1-3.542-2.034,9.919,9.919,0,0,1-2.321-2.929,5.389,5.389,0,0,1-1.821.335,3.973,3.973,0,0,1-2.486-.832c-2.957-2.283-4.2-5.353-3.486-8.645a11.007,11.007,0,0,1,3.172-5.47,12.957,12.957,0,0,1,6-3.288,14.013,14.013,0,0,1,3.225-.39,12.923,12.923,0,0,1,5.487,1.243,14.222,14.222,0,0,1,6.7-3.656,12.6,12.6,0,0,1,2.787-.308,14.646,14.646,0,0,1,6.265,1.466l.725-.01a12.176,12.176,0,0,1,7.414-2.434,15.631,15.631,0,0,1,3.471.409,17.159,17.159,0,0,1,6.39,2.866,17.392,17.392,0,0,1,4.366,4.749,13.044,13.044,0,0,1,2.5-1.765,12.157,12.157,0,0,1,5.874-1.5,13.118,13.118,0,0,1,2.147.18c.931-1.326,1.858-2.592,2.754-3.762A10.268,10.268,0,0,1,78.9,96.072a9.5,9.5,0,0,1-1.118-4.216c-.547-.341-1.08-.719-1.595-1.084l-.367-.259c-3.569-2.514-5.812-5.3-6.857-8.518a16.21,16.21,0,0,1-.737-5.612c-.313-.068-.649-.146-.986-.242a18.01,18.01,0,0,1-8.447-5.372,20.3,20.3,0,0,1-4.548-8.738,18.981,18.981,0,0,1,.014-9.144,16.69,16.69,0,0,1,4.835-8.135,10.165,10.165,0,0,1,7.189-2.728c3.624,0,7.931,1.557,11.817,4.272a40.462,40.462,0,0,1,9.184,9.232c.056.012.113.02.163.027.067.01.135.02.2.037a13.968,13.968,0,0,1,5.083,2.379A17.944,17.944,0,0,1,96.648,62a15.834,15.834,0,0,1,2.7-.235,15.029,15.029,0,0,1,4.633.728,15.817,15.817,0,0,1,4.471,2.3,14.279,14.279,0,0,1,5.3,7.1A104.673,104.673,0,0,1,124.6,67.033c.219-.526.485-1.146.79-1.747a10.85,10.85,0,0,1,2.181-2.934,16.876,16.876,0,0,1-2.448-3.541,15.93,15.93,0,0,1-1.773-9.174,16.8,16.8,0,0,1,3.261-8.084,17.449,17.449,0,0,1-1.1-11.144,16.038,16.038,0,0,1,.633-2,24.835,24.835,0,0,1-3.863-11.15,16.262,16.262,0,0,1,.828-6.835A15.839,15.839,0,0,1,126.4,4.907,14.7,14.7,0,0,1,137.141,0,13.337,13.337,0,0,1,141.3.666a12.529,12.529,0,0,1,5.024,1.717,10.614,10.614,0,0,1,2.7,2.307,8.755,8.755,0,0,1,1.523,2.719,9.388,9.388,0,0,1,.025,5.828,12.765,12.765,0,0,1,4.547,6.271,11.522,11.522,0,0,1-.038,7.454,12.68,12.68,0,0,1,5.839,8.743,13.23,13.23,0,0,1-.27,5.147,13.437,13.437,0,0,1,5.865,3.758,9.531,9.531,0,0,1,2.39,6.542c1.588.1,3.087.151,4.583.151,1.162,0,2.322-.032,3.446-.094a12.253,12.253,0,0,1,1.562-3.134,12.04,12.04,0,0,1,5.667-4.173l.306-.112-.005-.6a6.3,6.3,0,0,1-1.668-3.177,4.973,4.973,0,0,1,.979-3.708,4.918,4.918,0,0,1,1.117-1.13,25.488,25.488,0,0,1,.694-3.345,5.264,5.264,0,0,1-.79-4.353,3.381,3.381,0,0,1,1.975-2.282,18.293,18.293,0,0,1,.007-6.319,16.346,16.346,0,0,1,2.271-5.86A17.739,17.739,0,0,1,193.2,8.456a19.061,19.061,0,0,1,11.642-4.014c.234,0,.469,0,.7.013a15.293,15.293,0,0,1,3.184.468,29.107,29.107,0,0,1,6.32,1.4,3.511,3.511,0,0,1,2.489,4.516,14.509,14.509,0,0,1,2.9,7.439,13.32,13.32,0,0,1-2,8.161c-.1.169-.219.332-.329.49l-.068.1a5.668,5.668,0,0,1,1.657,1.987,6.051,6.051,0,0,1,.6,3.406,5.545,5.545,0,0,1-1.425,3.145,4.135,4.135,0,0,1-1.609,1.048l-.011.174a36.249,36.249,0,0,1-1.51,8.33,19.884,19.884,0,0,1,4.222,5.58,18.231,18.231,0,0,1,1.935,6.7c1.385.129,2.728.277,3.86.4a5.2,5.2,0,0,1,2.16-3.352,14.218,14.218,0,0,1,3.145-1.805,13.627,13.627,0,0,1,3.98-7.354,16.169,16.169,0,0,1,2.621-2.013,16.279,16.279,0,0,1,2.226-8.639A12.713,12.713,0,0,1,245.45,29.6a15.327,15.327,0,0,1,9.074-7.5,7.6,7.6,0,0,1,2.489-.414,10.711,10.711,0,0,1,6.8,2.757l.56.491a7.91,7.91,0,0,1,2.32,4,8.931,8.931,0,0,1-.039,4.632,13.791,13.791,0,0,1-2.028,4.211,9.719,9.719,0,0,1-.511,6.074,10.053,10.053,0,0,1-3.608,4.283,26.676,26.676,0,0,1,2.71,4.98,7.263,7.263,0,0,1,.114,4.942,11.184,11.184,0,0,1-2.627,4.449,13.628,13.628,0,0,1,1.943,5.478,14.559,14.559,0,0,1,3.118.54,10.839,10.839,0,0,1,3.209-5.085,20.317,20.317,0,0,1,2.471-3.766,10.579,10.579,0,0,1,5.457-3.549,7.1,7.1,0,0,1,1.163-1.851,11.721,11.721,0,0,1,2.886-8.817,8.353,8.353,0,0,1,6.268-2.841,31.172,31.172,0,0,1,1.523-3.956,8.536,8.536,0,0,1,6.423-4.567,11.44,11.44,0,0,1,3.647-4.889,12.359,12.359,0,0,1,6.493-2.319c.409-.036.823-.054,1.228-.054,4.492,0,8.66,2.234,11.735,6.291a21.866,21.866,0,0,1,3.888,8.6,19.356,19.356,0,0,1-.159,9.214,13.743,13.743,0,0,1-5.645,7.747,11.215,11.215,0,0,1-2.155,1.071,9.467,9.467,0,0,1-2.958,2.648,8.7,8.7,0,0,1-.859.44A9.875,9.875,0,0,1,308.283,69a10.314,10.314,0,0,1-5.123,3.55,10.158,10.158,0,0,1-2.74,8.2l-.159.154-.327.292-.026.129a6.925,6.925,0,0,1-.431,6.182,17.7,17.7,0,0,0,.979,4.975,37.634,37.634,0,0,1,5.919,6.086,4.647,4.647,0,0,1,3.073-1.2,3.882,3.882,0,0,1,1.38.248,5.807,5.807,0,0,1,1.276-.278,11,11,0,0,1,1.106-.055c.3,0,.619.012.94.036a8.852,8.852,0,0,1,1.068-1.276,7.708,7.708,0,0,1,5.537-2.233,10.1,10.1,0,0,1,4.719,1.225,10,10,0,0,1,2-1.123,8.394,8.394,0,0,1,3.261-.7c3.687,0,6.316,2.75,7.873,5.056a22.758,22.758,0,0,1,3.519,9.337,4.838,4.838,0,0,1-1.076,3.782,6.77,6.77,0,0,1-4.77,2.237,5.722,5.722,0,0,1-1.9,2.767,7.682,7.682,0,0,1-3.151,1.528,5.819,5.819,0,0,1-.84,3.871,6.484,6.484,0,0,1-2.979,2.615,6.124,6.124,0,0,1-2.383.5,5.653,5.653,0,0,1-.751-.05l.047.64a4.552,4.552,0,0,1-2.847,4.868,3.869,3.869,0,0,1-2.242,2.635,211.7,211.7,0,0,1,9.96,29.3,347.238,347.238,0,0,1,9.161,49.4,381.87,381.87,0,0,1,.13,88.511,199.406,199.406,0,0,1-3.715,22.072,126.109,126.109,0,0,1-6.852,21.275,109.416,109.416,0,0,1-8.753,16.338,165.2,165.2,0,0,1-10.98,14.948A109.992,109.992,0,0,1,295.2,388.254a106.222,106.222,0,0,1-15.117,10.987,98.476,98.476,0,0,1-16.819,8.035,90.1,90.1,0,0,1-18.1,4.558A101.975,101.975,0,0,1,230.856,412.857ZM76.585,208.5a2.572,2.572,0,0,0-2.367,1.824,2.475,2.475,0,0,0,1.582,2.969l.133.05a12.664,12.664,0,0,1,4.308,2.654l.264.25a2.331,2.331,0,0,0,1.636.7,2.686,2.686,0,0,0,2.4-1.684,2.2,2.2,0,0,0-.567-2.492,18.342,18.342,0,0,0-6.738-4.164A1.956,1.956,0,0,0,76.585,208.5Zm57.54-90.51a2.775,2.775,0,0,0-2.206,1.241,2.483,2.483,0,0,0-.256,2.377l.057.131a8.952,8.952,0,0,1-.582,7.9l-.125.23a2.281,2.281,0,0,0-.016,2.345,2.765,2.765,0,0,0,2.306,1.337,2.184,2.184,0,0,0,1.949-1.205,14.167,14.167,0,0,0,.707-13.08A1.973,1.973,0,0,0,134.126,117.985Zm35.348-35.962a2.857,2.857,0,0,0-2.147,1.005,2.432,2.432,0,0,0-.511,2.071c.889,4.745,4.259,8.366,9.489,10.2a2.518,2.518,0,0,0,.829.15,2.229,2.229,0,0,0,2.118-2.012,2.5,2.5,0,0,0-1.642-2.87,8.556,8.556,0,0,1-6-6.485l-.057-.283a2.016,2.016,0,0,0-2.075-1.771Zm78.65-2.949.635.838c.074-.324.135-.571.2-.8ZM86.4,283.279A3.983,3.983,0,0,1,83.568,282l-.127-.133a42.193,42.193,0,0,0-9.6-7.549,43.335,43.335,0,0,0-4.075-2.056l0,0c-.488-.225-.993-.458-1.493-.7A8.6,8.6,0,0,1,66.5,270.36a9.211,9.211,0,0,0-1.533-1.089.362.362,0,0,1-.182-.375.372.372,0,0,1,.273-.326,16.861,16.861,0,0,0,1.777-.55,7.119,7.119,0,0,1,2.723-.551c.262,0,.536.012.837.037a35.5,35.5,0,0,1,5.893.992,36.475,36.475,0,0,1,12.552,6.371,4.408,4.408,0,0,1,1.787,5.1A4.718,4.718,0,0,1,86.4,283.279Z" transform="translate(6.547 2.454)"/>
      </g>
      <g id="face_Calm" data-name="face/Calm" transform="translate(89.889 131.779)">
        <path id="_Ink-2" data-name="ðŸ– Ink" d="M96.646,171.2a35.014,35.014,0,0,1-19.38-5.723,36.912,36.912,0,0,1-8.017-6.913c-4.435-5.142-6.728-10.9-6.63-16.645a2.73,2.73,0,0,1,.649-1.743,3.047,3.047,0,0,1,1.621-.972,3.135,3.135,0,0,1,.714-.083,2.879,2.879,0,0,1,1.181.248,2.519,2.519,0,0,1,1.249,1.227c.582.763,1.348,1.763,2.118,2.73,5.8,7.151,11.377,12.29,19.741,14.128a23.47,23.47,0,0,0,5.029.546,24.653,24.653,0,0,0,8.492-1.534,28.886,28.886,0,0,0,11.887-8.34,6.386,6.386,0,0,1,4.858-2.4h.042a7.474,7.474,0,0,1,5.166,2.284,8.041,8.041,0,0,1,2.413,5.251,7.019,7.019,0,0,1-2,5.159,40.028,40.028,0,0,1-8.426,6.855,40.81,40.81,0,0,1-9.923,4.374A38.826,38.826,0,0,1,96.646,171.2Zm10.933-50.978h0a32.089,32.089,0,0,1-11.427-2.3,57.734,57.734,0,0,1-13.438-7.614,5.154,5.154,0,0,1-1.875-2.978,6.161,6.161,0,0,1,.266-3.344,7.607,7.607,0,0,1,2.262-3.265,5.512,5.512,0,0,1,3.525-1.373,5.007,5.007,0,0,1,2.727.836q.425.326.89.685l.031.024c4.669,3.6,11.725,9.051,18.494,9.051a11.049,11.049,0,0,0,8.227-3.643,12.135,12.135,0,0,0,2.308-9.781c-1.562-7.6-9.843-13.148-12.344-14.666a2.3,2.3,0,0,1-.624-2.646,3.428,3.428,0,0,1,3.34-2.37,4.68,4.68,0,0,1,.789.07A24.952,24.952,0,0,1,119.5,80.07a19.874,19.874,0,0,1,5.9,5.428A21.538,21.538,0,0,1,129.156,99.9a22.988,22.988,0,0,1-6.273,14.058A20.784,20.784,0,0,1,107.579,120.222ZM19.715,85a4.4,4.4,0,0,1-1.273-.187,2.584,2.584,0,0,1-1.743-1.5c-2.219-5.883-.643-11.982,1.07-16.062,2.955-7.038,8.261-12.842,11.753-14.73A20.422,20.422,0,0,1,39.2,50.027a19.4,19.4,0,0,1,9.327,2.4,24.259,24.259,0,0,1,6.443,5.289,66.691,66.691,0,0,1,5,6.646c.658.958,1.338,1.948,2.031,2.909a5.847,5.847,0,0,1,.986,5.443,7.043,7.043,0,0,1-4,4.124,7.67,7.67,0,0,1-2.948.6,6.737,6.737,0,0,1-2.629-.52,7.064,7.064,0,0,1-3.793-4c-1.792-4.3-4.427-7.79-7.23-9.579a7.732,7.732,0,0,0-7.752-.591c-2.358,1.07-6.322,4.582-9.021,8.982a17.587,17.587,0,0,0-2.959,10.491,2.379,2.379,0,0,1-.772,2,3,3,0,0,1-1.674.742A3.945,3.945,0,0,1,19.715,85ZM152.773,72.059a5.741,5.741,0,0,1-1.655-.266,6.261,6.261,0,0,1-2.585-1.542,5.137,5.137,0,0,1-1.437-2.6,10.63,10.63,0,0,0-3.737-6.213,7.6,7.6,0,0,0-4.7-1.673,7.677,7.677,0,0,0-1.262.106,11.459,11.459,0,0,0-6.419,3.843,14.073,14.073,0,0,0-1.348,1.962l-.04.066a14.321,14.321,0,0,1-2.665,3.493,2.6,2.6,0,0,1-1.65.62,2.468,2.468,0,0,1-.735-.115c-2.617-2.622-2.912-4.511-2.841-6.163a11.294,11.294,0,0,1,2.083-5.726c2.971-4.4,8.493-7.829,12.115-8.606a17.213,17.213,0,0,1,3.605-.383A18.418,18.418,0,0,1,150.08,52.3,20.06,20.06,0,0,1,158.3,64.86a6.67,6.67,0,0,1-.336,3.708,5.2,5.2,0,0,1-2.43,2.7A5.783,5.783,0,0,1,152.773,72.059ZM3.152,47.606a1.532,1.532,0,0,1-.2-.013,1.864,1.864,0,0,1-.969-.47C.615,45.967-.052,44.018,0,41.329a25.044,25.044,0,0,1,2.553-9.742c2.219-4.432,5.966-10.7,11.219-15.4A54.56,54.56,0,0,1,31.415,5.462C34.614,4.274,39.4,2.7,43.989,2.7c.261,0,.522.005.778.015a15.129,15.129,0,0,1,4.678.888,12.31,12.31,0,0,1,4.166,2.586,7.715,7.715,0,0,1,2.311,5.639A8.043,8.043,0,0,1,53.6,17.592a11.939,11.939,0,0,1-4.933,2.879,28.723,28.723,0,0,1-5.385.959,49.037,49.037,0,0,0-5.247.774,49.349,49.349,0,0,0-12.672,4.62c-4.026,2.182-8.585,4.887-11.877,8.4-.775.828-1.512,1.706-2.225,2.555l-.019.023c-.663.789-1.289,1.534-1.956,2.26-.743.809-1.424,1.624-2.238,2.606a11.077,11.077,0,0,0-.632,1.115c-.161.337-.318.648-.478.95-.3.557-.581,1.044-.847,1.45-.528.886-.8,1.1-1.016,1.193A2.281,2.281,0,0,1,3.152,47.606Zm157.121-2.011a1.8,1.8,0,0,1-.3-.025,1.773,1.773,0,0,1-.9-.439,1.7,1.7,0,0,1-.508-.876c-2.225-9.755-6.653-15.85-14.359-19.761A61.49,61.49,0,0,0,130.828,20c-1.287-.3-2.674-.507-4.015-.7l-.063-.009c-4.063-.592-8.667-1.263-11.589-4.881a9.736,9.736,0,0,1-1.806-3.518,8.961,8.961,0,0,1-.218-3.788,7.778,7.778,0,0,1,4.23-5.755A12.746,12.746,0,0,1,123.275,0c4.937,0,10.287,2.286,14.193,3.955l.312.133.014.006q.526.224,1.036.44a46.591,46.591,0,0,1,16.244,10.823,35.035,35.035,0,0,1,8.349,15.4c1.236,5.344.653,10.191-1.685,14.018a1.666,1.666,0,0,1-.762.668A1.758,1.758,0,0,1,160.273,45.595Z" transform="translate(49.567 50.464)"/>
      </g>
    </g>
    <g id="accessories_Glasses_5" data-name="accessories/Glasses 5" transform="translate(825.79 4969.066)">
      <path id="_Ink-3" data-name="ðŸ– Ink" d="M142.294,88.2h-.006a42.9,42.9,0,0,1-13.157-2.012,36.264,36.264,0,0,1-11.62-6.177,33.952,33.952,0,0,1-8.744-10.556,41.894,41.894,0,0,1-4.53-15.15c-.118,0-.223,0-.32,0A13.273,13.273,0,0,1,96.624,51.9a18.245,18.245,0,0,1-5.477-5.775c-3.117.2-6.427.3-10.116.3-6.409,0-13.1-.3-19.561-.592l-.111-.005c-6.52-.293-13.26-.6-19.882-.6-12.739,0-22.67,1.181-31.254,3.717a4.406,4.406,0,0,1-4.206,2.378,7.564,7.564,0,0,1-3.959-1.161,3.992,3.992,0,0,1-2.044-2.8c-.121-1.175.576-2.332,2.016-3.346a22.552,22.552,0,0,1,8.116-2.974A101.535,101.535,0,0,1,25.7,38.4c4.789-.46,10-.684,15.916-.684,6.5,0,13.116.267,19.516.526h.024c6.387.258,12.989.525,19.4.525,4.566,0,8.635-.133,12.441-.407,5.418-3.152,10.055-7.583,14.54-11.867,2.525-2.412,5.136-4.907,7.845-7.13A45.312,45.312,0,0,1,124.1,13.6,48.481,48.481,0,0,1,147.385,7.55a38.889,38.889,0,0,1,20.2,5.325,32.629,32.629,0,0,1,8.16,7.014,36.013,36.013,0,0,1,5.921,10.233,53.321,53.321,0,0,1,19.81-3.5,68.244,68.244,0,0,1,12.282,1.114,29.968,29.968,0,0,1,4.644-7.85,37.025,37.025,0,0,1,6.254-7.963A43.194,43.194,0,0,1,242.574,1.489,36.732,36.732,0,0,1,252.76,0a28.734,28.734,0,0,1,21.858,9.58c.848.09,1.2.934,1.457,1.551a1.378,1.378,0,0,0,.315.563,36.132,36.132,0,0,1,2.5,3.692,23.644,23.644,0,0,0,6.511,3.547,25.47,25.47,0,0,1,5.582,2.869,7.456,7.456,0,0,1,3.09,5.034,6.921,6.921,0,0,1-1.293,5.663,19.38,19.38,0,0,1-4.342,3.752,18.972,18.972,0,0,0-4.247,3.663,6.247,6.247,0,0,1-1.116,2.064c-2.3,11.72-7.283,21.6-14.422,28.575a36.389,36.389,0,0,1-10.894,7.437,29.645,29.645,0,0,1-11.866,2.535A27.481,27.481,0,0,1,234.8,78.194a31.3,31.3,0,0,1-10.033-7.129,43.77,43.77,0,0,1-8.041-12.14,69.115,69.115,0,0,1-5.115-17.361,14.368,14.368,0,0,0-8.9-3.324,8.488,8.488,0,0,0-1.178.078,24.2,24.2,0,0,1-5.494,1.722c-4.288,2.373-7.907,6.042-11.389,11.545a36.688,36.688,0,0,1-4.337,15.56,37.272,37.272,0,0,1-9.77,11.492,43.8,43.8,0,0,1-13.307,7.119A47.059,47.059,0,0,1,142.294,88.2Zm8.454-69.8c-12.385,0-25.98,7.019-35.478,18.316-6.6,15.221-3.437,25.351.381,31.169,5.277,8.042,15.44,13.039,26.522,13.04,15.353,0,31.753-9.83,33.788-31.79.268-10.273-2.336-18.521-7.53-23.852C164.043,20.781,157.929,18.4,150.748,18.4ZM251.764,9.251a21.76,21.76,0,0,0-15.69,6.571c-5.309,6.006-17.27,21.658-13.671,37.23,5.361,12.472,13.926,19.626,23.5,19.627,5.566,0,11.194-2.377,16.73-7.065a60.91,60.91,0,0,0,9.5-17v-.766a50.485,50.485,0,0,0,3.034-17.392,45.916,45.916,0,0,0-.657-5.741A24.778,24.778,0,0,0,251.764,9.251Z" transform="translate(9.196 8.43)"/>
    </g>
  </g>
</svg>
