<svg xmlns="http://www.w3.org/2000/svg" width="25.865" height="22.632" viewBox="0 0 25.865 22.632">
  <path id="Icon_awesome-camera" data-name="Icon awesome-camera" d="M25.865,7.908V22.457a2.425,2.425,0,0,1-2.425,2.425H2.425A2.425,2.425,0,0,1,0,22.457V7.908A2.425,2.425,0,0,1,2.425,5.483H6.87l.621-1.662A2.421,2.421,0,0,1,9.76,2.25H16.1a2.421,2.421,0,0,1,2.268,1.571l.626,1.662H23.44A2.425,2.425,0,0,1,25.865,7.908Zm-6.87,7.275a6.062,6.062,0,1,0-6.062,6.062A6.067,6.067,0,0,0,18.995,15.183Zm-1.617,0a4.446,4.446,0,1,1-4.446-4.446A4.452,4.452,0,0,1,17.378,15.183Z" transform="translate(0 -2.25)" fill="rgba(0,0,0,0.68)"/>
</svg>
