<svg xmlns="http://www.w3.org/2000/svg" width="69.008" height="86.45" viewBox="0 0 69.008 86.45">
  <path id="Path_17" data-name="Path 17" d="M1318.373,885.707c-2.5,5.248-6.22,10.291-13.254,12.192-6.551,1.77-13.845.148-20.472-1.474-9.206-2.253-19.394-5.126-23.291-11.476-2.053-3.345-1.965-7.129-1.841-10.778l.779-23.022c.262-7.762.565-15.684,4.283-22.983,7.29-14.313,27.773-21.071,46.013-11.461,14.574,7.678,18.558,22.934,17.788,35.23-.634,10.116-4.469,19.974-8.28,29.73-.784,2.008-1.36,3.083-.753,5.007.673,2.13,2.015,4.037,2.393,6.261.167.98.059,2.207-1.194,2.631a4.1,4.1,0,0,1-3.593-1.028,5.258,5.258,0,0,0-3.366-1.559c1.59-2,3.289-6.3,5.574-7.927Z" transform="translate(-1259.461 -812.218)" fill="#179ee3"/>
</svg>
