<svg xmlns="http://www.w3.org/2000/svg" width="293.007" height="272.925" viewBox="0 0 293.007 272.925">
  <path id="Path_18" data-name="Path 18" d="M227.78,309.638l6.381,29.87a192.632,192.632,0,0,1-19.905-6.866c-1.819-.741-3.984-2.158-3.527-4.069a4.223,4.223,0,0,1,.84-1.5c4.537-6,12.022-12.92,14.983-19.792,2.141-4.968,1.414-12.209,2.39-17.705,9.474-53.316,53.13-101.257,101.412-123.515,20.913-9.641,45.369-12.759,67.243-5.561,32.816,10.8,54.17,41.795,71.692,71.569,14.3,24.305,27.924,49.712,32.725,77.5s-.505,58.686-20.035,79.032c-16.833,17.537-41.364,24.9-64.735,31.581-25.28,7.228-52.884,14.364-77.2,4.356-19.837-8.165-33.686-26.34-51.919-37.643-13.232-8.2-28.812-12.811-40.328-23.289-13.99-12.729-19.816-32.391-20.511-51.292q-.108-2.957-.043-5.918" transform="translate(-210.667 -156.553)" fill="#179ee3"/>
</svg>
