<svg xmlns="http://www.w3.org/2000/svg" width="415.661" height="348.854" viewBox="0 0 415.661 348.854">
  <path id="Path_26" data-name="Path 26" d="M581.957,132.208c-24.911,41.911-50.717,84.844-90.645,115.688-45.369,35.046-104.4,51.029-161.57,66.121-19.334,5.1-39.454,10.259-59.324,7.322s-39.382-16.478-40.967-34.729c-2.426-27.94,34.461-45.45,43.336-72.29,8.01-24.222-8.492-50.466-2.731-75.212,3.769-16.192,16.886-29.628,32.454-38.2S336,88.037,353.821,84.659C409.5,74.1,467.317,71.348,520.756,53.637c26.209-8.687,51.162-21.7,71.544-39.125,10.183-8.7,31.771-49.077,47.125-39.793,16.347,9.885-7.947,61.476-13.322,74.315C614.041,77.841,598.048,105.137,581.957,132.208Z" transform="translate(-229.337 26.658)" fill="#fcd1d3"/>
</svg>
