<svg id="peeps" xmlns="http://www.w3.org/2000/svg" width="845.108" height="1164.421" viewBox="0 0 845.108 1164.421">
  <g id="bust-1" transform="translate(0 23.598)">
    <g id="BODY" transform="translate(109.358 475.529)">
      <path id="_Skin" data-name="âœ‹ Skin" d="M270.915,169.35c-6.484-25.153-12.447-35.818-23.966-44.56-10.774-8.177-26.5-15.045-49.451-20.062-23.9-4.18-24.58-16.6-30.573-36.573-1.748-6-10.412-7.6-14.152-3.274a17.172,17.172,0,0,0-1.646-1.561c.509-2.863-3.659-11.069-3.52-13.808,1.454-28.586-7.9-42.941-31.229-48.277C111.3.073,76.836-.61,71.888.758,50.258,6.739,28.964,25.73,32.223,48.606c-6.79,8.875-13.435,14.291-23.91,17.15C-8,67.828.194,298.97,28.526,437.448c12.156,59.415,302.819-41.712,289.684-71.469,1.862-5.455-1.532-11.449,0-17.082,1.108-4.076,3.947-5.762,5.376-9.8,2.011-5.68-.176-13.3-2.44-19.1-.928-2.889,1.708-6,2.44-8.946,3.474-13.9-4.48-12.678-10.214-21.973.085-.029,1.577-6.664,1.57-6.631.878-4.737-1.322-10.806-3.24-14.761a6.965,6.965,0,0,0-6.834-4.039c2.779-9.437,6.295-17.289,10.074-26.381,6.685-16.026,13.042-32.792,22.641-47.3,3.931-5.94.756-11.4-5.605-11.808A388.67,388.67,0,0,1,270.915,169.35Z" transform="translate(257.357 -23.069)" fill="#ae5d29"/>
      <path id="_Device" data-name="ðŸ“± Device" d="M47,0,0,79.559s11.15,1.113,15.663,3.281,25.231,28.513,25.231,28.513l3.292,14.507-7.8,11.7,3.042,7.343A23.919,23.919,0,0,1,47,136.061c5.4-3.862,17.321-10.2,17.321-10.2s-3.96-2.119-3.96-4.607-3.488-13.1,3.96-17.111S110.26,90.75,110.26,90.75l39.008-82.3Z" transform="translate(449.127 148.224)" fill="#ec7495"/>
      <path id="_Top" data-name="ðŸ‘• Top" d="M258.525,0,407.768,26.2l68.6,32.294,11.2,8.63L421.195,184.556,318.7,203.259,292.59,271.1l5.33,76.468,166.735-19.883,71.921-8.548L553.483,387.4l-3.054,28.084-4.442,14.242-178.3,48.147s-90.792-8.8-106.886-8.8-134.1,11.721-134.1,11.721l-27.3-2.919S39,414.2,29.629,391.534,0,231.1,0,231.1l2.231-21.168L54.42,75.6A172.23,172.23,0,0,0,70.176,58.493C78.962,47.715,258.525,0,258.525,0Z" transform="translate(27.933 43.227)" fill="#9ddadb"/>
      <path id="_Ink" data-name="ðŸ– Ink" d="M452.134,523.559h0a165.343,165.343,0,0,1-17.031-.9c-6.387-.663-12.854-1.527-19.109-2.362l-.013,0c-7.233-.966-14.711-1.965-22.108-2.659-7.609-.716-15.555-1.284-24.291-1.738.57-1.14,1.163-2.286,1.737-3.394l.005-.01c.442-.854.9-1.737,1.342-2.611a2.893,2.893,0,0,0-.088-2.914,3.373,3.373,0,0,0-2.754-1.6,2.52,2.52,0,0,0-2.3,1.506c-.475.938-.965,1.884-1.438,2.8-1,1.925-2.026,3.916-2.965,5.91-11.388-.483-23.435-.718-36.83-.718-19.637,0-39.592.513-58.889,1.009-8.03.206-16.333.42-24.55.594-7.971.168-16.075.313-23.912.454l-.114,0h-.016c-17.421.313-35.436.636-53.155,1.226-7.353.243-14.84.543-22.08.834h-.058c-4.655.187-9.469.38-14.2.556-.694-2.2-1.461-4.426-2.2-6.574-.3-.871-.642-1.858-.966-2.812a2.919,2.919,0,0,0-2.874-2.051,3.2,3.2,0,0,0-2.589,1.235,2.537,2.537,0,0,0-.276,2.4c.329.97.667,1.946.993,2.891l0,.01c.579,1.676,1.178,3.408,1.736,5.121-12.676.43-22.429.621-31.625.621-.761,0-1.536,0-2.3,0a2.9,2.9,0,0,1-.908-.141l-.057.358-.022.139-.032.2a.089.089,0,0,1-.091.075.117.117,0,0,1-.075-.028.1.1,0,0,1-.035-.078c0-.253,0-.514-.015-.782a3.3,3.3,0,0,1-1.9-2.136,22.434,22.434,0,0,1-.357-9.295,11.957,11.957,0,0,0-3.065-4.167c-2.424-2.037-5.646-3.131-8.763-4.188a43.332,43.332,0,0,1-5.766-2.264A68.367,68.367,0,0,1,58,491.7,85.5,85.5,0,0,1,40.885,474.18a123.594,123.594,0,0,1-7.52-11.366c-2.216-3.775-4.35-7.843-6.345-12.09a209.6,209.6,0,0,1-9.836-25.459c-2.743-8.572-5.195-17.592-7.289-26.809-2.009-8.844-3.738-18.091-5.141-27.486A450.265,450.265,0,0,1,.1,315.409a372.874,372.874,0,0,1,1.8-46.286,124.3,124.3,0,0,1,11.041-6.36,2.532,2.532,0,0,0,1.422-2.974,3.424,3.424,0,0,0-1.072-1.757,2.937,2.937,0,0,0-1.951-.763,3.079,3.079,0,0,0-1.4.353c-2.346,1.195-4.7,2.5-7.2,4A367.788,367.788,0,0,1,12.928,209.6,355.629,355.629,0,0,1,30.634,159.63c4.24-9.605,8.237-17.865,12.219-25.253a205.3,205.3,0,0,1,14.922-23.935,52.456,52.456,0,0,1,12.006,2.167,3.135,3.135,0,0,0,.938.152,2.819,2.819,0,0,0,2.678-2.554,3.159,3.159,0,0,0-.317-1.977,2.874,2.874,0,0,0-1.717-1.361,52.959,52.959,0,0,0-9.348-1.982A136.371,136.371,0,0,1,72.4,93.288,122.757,122.757,0,0,1,85.355,82.167,141.063,141.063,0,0,1,99.6,72.862a167.278,167.278,0,0,1,15.226-7.673c5.016-2.223,10.364-4.317,15.894-6.224,22.31-7.687,45.541-11.944,69.364-15.976,2.184-.37,4.367-.716,6.479-1.05,18.791-2.976,36.539-5.787,48.081-23.978a3.154,3.154,0,0,1,2.6-1.447,2.439,2.439,0,0,1,1.37.406c.473.315,1.1.732,1.741,1.168.017-.046.034-.1.049-.14l.04-.113a72.57,72.57,0,0,0,2.3-10.256c.4-2.293.807-4.661,1.372-6.987A.737.737,0,0,1,264.854,0a.938.938,0,0,1,.87.593,25.931,25.931,0,0,1,1.393,10.014,42.3,42.3,0,0,1-1.944,10.845c.9.643,1.848,1.318,2.68,1.913a177.163,177.163,0,0,0,16.008,10.6c9.76,5.49,26.52,8.412,37.611,10.345l.508.089a164.956,164.956,0,0,0,28.07,2.648c1.918,0,3.828-.045,5.675-.133a47.831,47.831,0,0,0,12.811-2.172,26.239,26.239,0,0,0,6.16-2.962c.409-.274.8-.554,1.19-.856a82.93,82.93,0,0,1-.6-14.072c.186-4.777.378-9.717,2.939-14.08a.183.183,0,0,1,.162-.1.248.248,0,0,1,.218.152c2.01,4.762,2.472,10.261,2.92,15.578.092,1.09.186,2.216.294,3.325a15.139,15.139,0,0,1,4.372-.651,14.6,14.6,0,0,1,11.95,6.21,27.835,27.835,0,0,1,3.548,7.936A48.737,48.737,0,0,0,403.4,49.94a13.02,13.02,0,0,0,1.241,1.916c.792,1.1,1.69,2.347,1.713,3.076.31.267.457.431.437.486-.005.014-.022.022-.049.022a1.945,1.945,0,0,1-.567-.2c-.318-.1-.513-.164-.58-.179.082.035.257.1.521.188l.081.028c.209.106.407.2.6.3l.043.021a12.427,12.427,0,0,1,2.916,1.8,5.863,5.863,0,0,1,1.709,2.665,7.887,7.887,0,0,1,.33,3.207c.966.457,1.939.935,2.88,1.4,1.979.973,4.026,1.979,6.054,2.806l.739.3c5.2,2.124,10.579,4.32,15.791,6.732C448.9,79.881,460.5,85.852,471.712,92.253l1.735.988c2.413,1.373,4.908,2.793,7.339,4.271a65.706,65.706,0,0,0-7.382,6.264,2.682,2.682,0,0,0-.674,3.038,3.252,3.252,0,0,0,2.9,2.035,2.809,2.809,0,0,0,1.984-.863,60.181,60.181,0,0,1,8.5-7.026c5.882,4.088,10.032,8.132,13.063,12.727,2.749,4.173,4.577,8.933,6.345,13.537l.028.072q.221.574.441,1.147a69.713,69.713,0,0,0,7.557,14.63l.038.058a2.323,2.323,0,0,1,.149.248c.215.011.432.023.643.035l.036,0c.228.013.451.026.675.037,9.709.555,19.538,1.306,29.215,2.232,1.51.143,3.083.285,4.471.41a193.179,193.179,0,0,1,23.895,3.162,2.681,2.681,0,0,1,1.678,1.4,2.237,2.237,0,0,1,.174,1.865c-.314.77-.68,1.667-1.056,2.568-10.034,24.432-21.68,49.534-35.6,76.74a8.645,8.645,0,0,1,4.023,1.052,6.259,6.259,0,0,1,2.7,3.509,47.071,47.071,0,0,1,2.445,9.949,23.035,23.035,0,0,1-.83,10.077.3.3,0,0,1-.28.222.319.319,0,0,1-.159-.043,13.523,13.523,0,0,0,3.719,9.786,26.943,26.943,0,0,0,3.034,2.548,18.934,18.934,0,0,1,4.1,3.808c3.13,4.331.988,7.809-1.28,11.491-.429.7-.872,1.416-1.28,2.143a3.566,3.566,0,0,0-.353,3.471,8.862,8.862,0,0,0,2.256,2.537,15.51,15.51,0,0,1,2.032,2.036,9.971,9.971,0,0,1,1.856,3.975,12.831,12.831,0,0,1,.16,4.4,28.957,28.957,0,0,1-3.511,9.622c-.439.841-.878,1.727-1.3,2.583a41.43,41.43,0,0,1-5.013,8.4,1.741,1.741,0,0,1-.3.282.3.3,0,0,1,.074-.007h.007c.4,0,.913.64,1.05.974.078.174.154.35.227.521.083.192.158.365.234.536-.008-.018-.015-.039-.023-.059s-.015-.041-.023-.059a.436.436,0,0,1,.053-.417.775.775,0,0,1,.6-.305h.013c.456.007,1.206.859,1.353,1.242a177.855,177.855,0,0,1,7.031,18.872l.8,3.081.159.616,1.433,5.545c1.06,4.537,1.7,9.187,2.328,13.683l.008.055c.5,3.173.862,6.325,1.071,9.369.5,4.6.8,9.279.892,13.916a173.9,173.9,0,0,1-1.949,22.459,90.588,90.588,0,0,1-1.5,9.146,112.87,112.87,0,0,1-3.192,13.588c-.546,2.253-1.105,4.577-1.6,6.628l-.418,1.736-.046.125q-.424,1.143-.846,2.287a42.9,42.9,0,0,1-1.853,5.224c-.247.755-.527,1.547-.857,2.423-5.874-1.74-12.237-3.365-18.975-3.472h-.06a2.76,2.76,0,0,0-2.815,2.9,3.181,3.181,0,0,0,.71,2.075,2.785,2.785,0,0,0,2.165.975,62.668,62.668,0,0,1,16.6,2.986c-.851,1.714-1.78,3.378-2.759,4.948l-.1.195c-2.677,5.262-5.444,10.7-8.62,15.836a97.275,97.275,0,0,1-6.033,8.655,65.823,65.823,0,0,1-12.84,12.9,34.084,34.084,0,0,1-7.648,4.852,57.171,57.171,0,0,1-9.754,3.245,53.985,53.985,0,0,1-5.668,1.057c-1.019.126-2.06.2-3.068.278-1.245.092-2.532.188-3.791.376a28.719,28.719,0,0,0-6.063,1.5,14.718,14.718,0,0,0-2.769,1.392,20.275,20.275,0,0,0-2.076,2.129.1.1,0,0,1-.051.044,5.512,5.512,0,0,1-4.583,3.8A147.947,147.947,0,0,1,452.134,523.559ZM211.114,477.968a3.081,3.081,0,0,0-.783.1,3.239,3.239,0,0,0-1.939,1.67,2.4,2.4,0,0,0-.139,1.992,41.054,41.054,0,0,0,8.478,13.316,2.743,2.743,0,0,0,1.981.9,3.232,3.232,0,0,0,2.85-2,2.754,2.754,0,0,0-.623-3.1,33.468,33.468,0,0,1-6.946-10.689A3.179,3.179,0,0,0,211.114,477.968Zm40.458-65.22a2.94,2.94,0,0,0-.7.089,16.435,16.435,0,0,1-1.889.327,10.235,10.235,0,0,0-2.8.655c-.9.373-1.8.808-2.66,1.228-.328.159-.7.34-1.066.513-2.9,1.372-5.79,2.743-8.591,4.074-5.417,2.575-10.747,5.118-15.841,7.558-9.733,4.661-19.543,9.579-29.029,14.336l-.015.007-4.365,2.188c-9.855,4.937-21.319,10.684-32.651,16.419-5.772,2.924-11.43,5.9-16.2,8.434l-1.475.779c-2.057,1.085-4.183,2.207-6.246,3.369-.554.311-1.12.609-1.72.923a19.354,19.354,0,0,0-5.693,3.891.317.317,0,0,0-.044.331.235.235,0,0,0,.221.146h.02c3.752-.254,7.922-2.37,11.6-4.237,1.28-.649,2.488-1.263,3.643-1.785l3.49-1.575.015-.007c4.111-1.854,8.362-3.772,12.518-5.712,13.14-6.139,23.918-11.128,33.919-15.7,4.539-2.074,9.15-4.155,13.609-6.167,6.487-2.928,13.192-5.954,19.757-8.994,5.492-2.542,11.086-5.121,16.625-7.665,2.365-1.087,4.978-2.284,7.989-3.661.437-.2.885-.4,1.317-.594l.058-.026c.863-.386,1.755-.785,2.621-1.206a15.414,15.414,0,0,0,3.189-2.156c.483-.394.983-.8,1.58-1.233a2.613,2.613,0,0,0,.981-2.947A2.227,2.227,0,0,0,251.571,412.748Zm189.35,51.488a3.238,3.238,0,0,0-2.863,2.011,2.734,2.734,0,0,0,.638,3.085c.819.832,1.616,1.71,2.387,2.56a36.493,36.493,0,0,0,5.929,5.622,2.434,2.434,0,0,0,1.4.424,3.171,3.171,0,0,0,2.67-1.492,2.8,2.8,0,0,0,.287-2.247,3.439,3.439,0,0,0-1.355-1.826,27.856,27.856,0,0,1-4.825-4.726c-.738-.85-1.5-1.728-2.286-2.524A2.763,2.763,0,0,0,440.921,464.236Zm-129.651-18.86a2.764,2.764,0,0,0-1.983.886,104.162,104.162,0,0,0-9.035,10.89,2.4,2.4,0,0,0-.383,1.927,3.331,3.331,0,0,0,1.451,2.146,2.755,2.755,0,0,0,1.429.411,3.383,3.383,0,0,0,2.643-1.48,93.446,93.446,0,0,1,8.1-9.685,2.732,2.732,0,0,0,.639-3.083A3.238,3.238,0,0,0,311.271,445.376Zm-240.824-22.2a3.114,3.114,0,0,0-1.375.333c-1.854.908-3.778,1.745-5.637,2.555a86.871,86.871,0,0,0-8.932,4.3,2.709,2.709,0,0,0-1.333,3.185,3.12,3.12,0,0,0,2.853,2.381,2.94,2.94,0,0,0,1.483-.425,86.789,86.789,0,0,1,8.933-4.3c1.86-.81,3.784-1.648,5.636-2.554a2.483,2.483,0,0,0,1.444-2.914A3.294,3.294,0,0,0,70.446,423.174Zm452.725-47.153a.3.3,0,0,0-.217.091.246.246,0,0,0-.069.185,26.073,26.073,0,0,0,1.725,6.918c.314.905.639,1.841.906,2.743,1.343,4.532,2.281,8.25,2.952,11.7a87.358,87.358,0,0,1,1.146,9.966,65.2,65.2,0,0,0,1.914,13.168,2.464,2.464,0,0,0,2.411,1.933,3.134,3.134,0,0,0,2.834-1.933,21.859,21.859,0,0,0,1.541-6.132,31.128,31.128,0,0,0-.023-6.416,58.8,58.8,0,0,0-2.879-12.5,56.875,56.875,0,0,0-4.964-11.186,44.709,44.709,0,0,0-3.079-4.709,14.306,14.306,0,0,0-4.064-3.795A.273.273,0,0,0,523.171,376.021ZM369.54,385.584a3.118,3.118,0,0,0-2.6,1.24,2.371,2.371,0,0,0-.143,2.324c.818,2.021,1.712,4.05,2.575,6.012s1.75,3.975,2.567,5.99a3.293,3.293,0,0,0,5.595.743,2.373,2.373,0,0,0,.144-2.325c-.82-2.023-1.712-4.051-2.575-6.011l0,0c-.86-1.953-1.749-3.973-2.565-5.986A3.123,3.123,0,0,0,369.54,385.584Zm78.232-1.949a3.181,3.181,0,0,0-.906.139,122.764,122.764,0,0,0-14.386,5.638c-1.076.475-2.3,1.013-3.465,1.519a2.537,2.537,0,0,0-1.331,1.182,2.366,2.366,0,0,0-.17,1.543,3.432,3.432,0,0,0,3.226,2.689,3.212,3.212,0,0,0,1.28-.274c.97-.419,1.954-.852,2.9-1.27l.052-.023a116.33,116.33,0,0,1,13.472-5.265,2.843,2.843,0,0,0,2.051-3.276,3.288,3.288,0,0,0-.868-1.811A2.539,2.539,0,0,0,447.772,383.634ZM181.247,381.09a3.244,3.244,0,0,0-2.88,2.022,2.71,2.71,0,0,0,.656,3.063l7.713,7.716a2.784,2.784,0,0,0,1.983.876,3.244,3.244,0,0,0,2.88-2.021,2.711,2.711,0,0,0-.655-3.064l-7.713-7.715A2.784,2.784,0,0,0,181.247,381.09ZM135.193,254.585a.669.669,0,0,0-.489.194.622.622,0,0,0-.155.476c.212,3.723.547,7.49.87,11.132v0c.43,4.844.875,9.854,1.038,14.816.27,8.194.239,16.777-.094,26.237-.272,7.726-.782,15.87-1.606,25.63-.213,2.521-.558,5.158-.893,7.708v0c-.736,5.609-1.5,11.41-1.016,16.9-7.9,2.07-14.7,4.16-20.8,6.393-1.275.467-2.6.926-4.011,1.412a90.642,90.642,0,0,0-14,5.747c-5.072,2.8-8.446,6.039-10.316,9.915a.261.261,0,0,0,.021.252.254.254,0,0,0,.205.128.2.2,0,0,0,.157-.084,17.039,17.039,0,0,1,6.49-4.767,56.69,56.69,0,0,1,7.788-2.65c.469-.135,1-.287,1.516-.438,5.914-1.737,11.8-3.281,18.335-4.977,12.288-3.188,24.933-5.817,37.161-8.359l.01,0,1.373-.285c2.086-.434,4.27-.884,6.025-1.247,10.716-2.213,21.8-4.5,32.61-7.161l1.671-.41.052-.013c5.507-1.349,11.2-2.744,16.634-4.592,6.389-2.174,12.991-4.671,18-8.188a2.478,2.478,0,0,0,.821-2.7,1.622,1.622,0,0,0-1.615-1.213,2.292,2.292,0,0,0-.261.015,110.216,110.216,0,0,0-15.817,3.44l-.038.01c-1.064.286-2.163.582-3.231.861-2.657.7-5.347,1.439-7.95,2.158l-.015,0c-3.834,1.059-7.8,2.154-11.73,3.118-9.146,2.242-18.5,4.3-27.542,6.293h0c-4.264.939-8.67,1.909-13,2.886-4.931,1.114-8.977,2.063-12.731,2.984a58.382,58.382,0,0,0,.907-7.488c.054-.7.111-1.429.174-2.147.1-1.186.212-2.392.316-3.559l.011-.119c.267-2.989.542-6.078.786-9.12.809-10.11,1.26-18.958,1.376-27.052a207.358,207.358,0,0,0-1.179-26.233c-.429-3.826-.981-8.348-1.821-12.879a78.561,78.561,0,0,0-3.3-12.551A.767.767,0,0,0,135.193,254.585ZM427.422,228.05c-3.535,0-7.079.305-10.507.6l-.025,0c-.954.082-1.854.16-2.751.23a149.282,149.282,0,0,0-23.114,3.52,31.806,31.806,0,0,0-8.829,3.469,29.361,29.361,0,0,0-7.278,6.064c-3.6,4.09-6.408,8.89-9.121,13.532-.378.647-.807,1.381-1.219,2.08a101.58,101.58,0,0,1-13.172,17.672,93.319,93.319,0,0,1-16.593,14.1,5.1,5.1,0,0,1-2.031,2.247.17.17,0,0,1,.029.046c-.3.127-.543.236-.773.342a.2.2,0,0,0-.034.015.244.244,0,0,1-.034.015l-1.411.62a216.768,216.768,0,0,0-23.249,11.339c-.04.321-.086.646-.129.96l0,.011c-.081.575-.157,1.118-.2,1.648-.142,1.66-.327,3.343-.507,4.971s-.364,3.3-.505,4.948a171.536,171.536,0,0,0-.744,19.982,101.531,101.531,0,0,0,2.76,20.74c.657,2.7,1.527,5.382,2.369,7.972l.169.519c4.281-3.328,9.53-5.866,14.983-8.387a60.407,60.407,0,0,1,16.716-5.351,41.5,41.5,0,0,1,6.06-.421,85.874,85.874,0,0,1,12.018,1.061l1.2.172.064.009a63.318,63.318,0,0,0,8.97.861,21.445,21.445,0,0,0,6.508-.9c5.71-1.8,9.135-6.8,12.447-11.625a46.7,46.7,0,0,1,6.173-7.775,18.656,18.656,0,0,1,10.914-5.268,17.209,17.209,0,0,1,1.81-.082c.479,0,.969.012,1.442.024h.031c.488.012.989.025,1.481.025a10.98,10.98,0,0,0,4.536-.772,9.669,9.669,0,0,0,5.23-6.527,3.915,3.915,0,0,1,2.059-2.41A11.265,11.265,0,0,1,419.6,316c-.352-.3-.715-.612-1.1-.922-2.112-1.681-4.23-3.266-6.294-4.71-1.307-.916-2.657-1.815-3.963-2.685-.657-.438-1.337-.891-2-1.341-.342-.231-.768-.579-1.262-.982-1.395-1.138-3.127-2.552-4.406-2.552a1.5,1.5,0,0,0-.3.03.263.263,0,0,1-.044,0,.3.3,0,0,1-.235-.117.2.2,0,0,1-.026-.192c.294-.79,1.047-1.191,2.237-1.191a17,17,0,0,1,6.193,1.755,64.945,64.945,0,0,1,7.657,4.095c5.239,3.225,9.559,6.671,10.271,8.193a2.315,2.315,0,0,1-.476,2.7,5.691,5.691,0,0,0,1.42.184,6.469,6.469,0,0,0,4.678-2.285,11.4,11.4,0,0,0,2.568-4.834c1.113-4.452.268-9.568-.477-14.081q-.094-.568-.184-1.123a.723.723,0,0,1,.17-.59.706.706,0,0,1,.523-.257.555.555,0,0,1,.148.02l.163-.372c-3.6-1.573-7.439-2.825-11.149-4.036h0c-1.649-.538-3.355-1.094-5.011-1.67l-3.039-1.059-.249-.087-7.1-2.471c-.351-.122-.708-.242-1.054-.357-2.327-.777-4.523-1.511-6.1-3.438a3.145,3.145,0,0,1-.567-2.947,2.318,2.318,0,0,1,1.75-1.541,8.853,8.853,0,0,1,1.971-.217,18.67,18.67,0,0,1,6.407,1.544c.53.195,1.077.4,1.629.585,2.9.985,5.809,1.982,8.622,2.946l1.093.374c1.506.514,3.052,1.017,4.546,1.5l.023.008a125.146,125.146,0,0,1,12.557,4.59,24.669,24.669,0,0,1,6.335,3.994,17.988,17.988,0,0,1,4.444,5.986c.2.432.394,1.03.623,1.723.705,2.129,1.669,5.04,3.43,5.436a1.763,1.763,0,0,0,.387.045c1.04,0,1.883-1.005,2.508-2.989a24.814,24.814,0,0,0,.848-4.4c1.428-12.39-5.748-26.116-16.337-31.248-5.446-2.634-11.469-4.192-17.293-5.7l-.644-.167c-4.855-1.255-10.018-2.324-15.346-3.177-1.963-.323-4.094-.63-6.517-.938a.367.367,0,0,1-.338-.381.32.32,0,0,1,.338-.312c1.862-.082,3.725-.124,5.537-.124.857,0,1.719.009,2.564.028,7.353-3.74,13.883-4.379,22.306-4.874.139-.008.28-.012.418-.012a10.546,10.546,0,0,1,5.51,1.832,25.052,25.052,0,0,1,4.964,4.232c3.02,3.253,5.123,6.787,5.479,8.087,6.19,4.154,10.638,10.43,13.6,19.185.144.434.276.853.4,1.28a18.656,18.656,0,0,1,3.631-5.555,27.348,27.348,0,0,1,5.036-4.283,90.807,90.807,0,0,1,12.6-6.988,4.162,4.162,0,0,1-1.042-.588c-1.692-1.319-1.943-3.657-2.164-5.72-.028-.264-.058-.538-.09-.805a25.366,25.366,0,0,1,.149-8.79,13.519,13.519,0,0,1,1.55-3.844,15.274,15.274,0,0,1,2.494-3.121,25.109,25.109,0,0,1,6.8-4.51A99.687,99.687,0,0,1,510.457,235a107.481,107.481,0,0,1,20.078-2.93,3.26,3.26,0,0,1,.312-.758c6.728-12.069,13.349-24.86,19.681-38.017,5.965-12.395,11.873-25.533,17.561-39.05-4.691-.35-9.458-.928-14.068-1.487h-.011c-3.419-.415-6.954-.843-10.434-1.176-9.227-.886-18.563-1.612-27.749-2.159-1.9-.118-3.818-.221-5.671-.322l-.1-.006c-6.248-.329-12.678-.586-19.111-.766-.756-.021-1.525-.044-2.274-.066l-.237-.007c-2.974-.089-6.049-.18-9.078-.18-.494,0-.983,0-1.453.007a9.528,9.528,0,0,0-2.749.322,4.562,4.562,0,0,0-2.237,1.538,8.609,8.609,0,0,0-.822,1.288,4.963,4.963,0,0,1-1.654,2.032c-.056.031-.13.073-.214.122-.121.07-.256.147-.389.22-.062.065-.127.128-.189.19l-.008.008a4.026,4.026,0,0,0-.39.42,32.564,32.564,0,0,0-2.374,3.594c-2.081,3.586-3.994,7.359-5.843,11.007l-.026.051c-1.377,2.717-2.711,5.505-4,8.2-1.829,3.82-3.72,7.77-5.751,11.564-3.55,6.616-6.849,12.416-10.088,17.733-.823,1.343-7.225,11.108-10.861,16.031a33.839,33.839,0,0,1,8.541,1.332c.6-1.377,1.3-2.729,1.979-4.037l0,0c.578-1.115,1.175-2.267,1.708-3.43.4-.871.752-1.8,1.1-2.708a24.253,24.253,0,0,1,2.3-4.928,1.609,1.609,0,0,1,1.346-.767,1.641,1.641,0,0,1,1.243.589,1.694,1.694,0,0,1,.35,1.413c-.482,2.655-2.169,5.224-3.657,7.491l-.023.035-.2.31a35.374,35.374,0,0,1-5.036,6.408c.105.033.209.07.3.1a20.637,20.637,0,0,1,7.461,5.225,71.3,71.3,0,0,1,5.916,7.325c.7.956,1.371,1.859,2.051,2.743.14.182.325.418.539.691l.01.013c2.776,3.542,11.222,14.318,12.888,23.363a13.229,13.229,0,0,1-.059,5.054,10.449,10.449,0,0,1-1.916,4.305,6.417,6.417,0,0,1-4.751,2.587c-.044,0-.086,0-.125,0a1.43,1.43,0,0,1-1.277-.679,3.208,3.208,0,0,1-.405-1.694,9.045,9.045,0,0,1,1.227-4.312c.867-1.494,1.951-2.325,3.051-2.34-.629,0-.645-.417-.664-.944a3.641,3.641,0,0,0-.072-.694,12.6,12.6,0,0,0-.672-1.877c-.074-.177-.149-.358-.22-.534a58.052,58.052,0,0,0-3.02-6.259,91.959,91.959,0,0,0-6.272-9.718c-2.372-3.257-4.908-6.4-7.514-9.608l-.348-.427c-2.582-3.171-5.022-6.165-9.114-7.29a35.736,35.736,0,0,0-9.247-1.093Zm102.3,79.557a1.77,1.77,0,0,1,1.364.571,2.11,2.11,0,0,1,.5,1.31,2.582,2.582,0,0,1-.486,1.638,2.215,2.215,0,0,1-1.615.891l-.532.05h-.006c-10.9,1.03-22.181,2.095-33.206,3.67-6.011.861-11.345,1.745-16.307,2.7-1.882.363-3.8.838-5.655,1.3-.918.227-1.867.462-2.8.682a.276.276,0,0,1-.037.246c-3.266,4.88-5.465,12.09-.915,16.35a7.07,7.07,0,0,0,5.127,1.713,29.911,29.911,0,0,0,3.182-.228l.247-.027c3.332-.364,6.638-.821,10.014-1.3,5.514-.778,11.244-1.685,17.518-2.775,2.919-.5,5.975-1.063,9.084-1.667,2.547-.49,23.193-9.076,32.124-13.7a52.976,52.976,0,0,1,3.086-5.772c.638-1.083,1.3-2.2,1.883-3.306l.1-.185c1.683-3.18,3.988-7.535,2.528-11.148a9.862,9.862,0,0,0-2.894-3.5,10.147,10.147,0,0,1-2.938-3.537,6.729,6.729,0,0,1-.467-3.454,9.088,9.088,0,0,1,1.151-3.319,17.78,17.78,0,0,1,1.745-2.378c1.277-1.562,2.6-3.177,2.68-5,.111-2.534-2.363-4.465-4.546-6.167a24.168,24.168,0,0,1-2.023-1.691,13.029,13.029,0,0,1-3.736-6.98,12.728,12.728,0,0,1,1.141-7.806.37.37,0,0,1,.3-.208,74.711,74.711,0,0,0-1.618-8.1,38.268,38.268,0,0,0-2.8-7.612c-1.02-1.985-2.486-2.392-4.372-2.392-.476,0-.962.024-1.478.049h-.028c-.325.016-.661.032-1,.042-2.615.086-5.073.252-7.514.506a106.253,106.253,0,0,0-16.182,2.969,98.857,98.857,0,0,0-15.5,5.507,25.365,25.365,0,0,0-6.212,3.682,9.848,9.848,0,0,0-3.467,6.126,24.659,24.659,0,0,0,.216,7.181c.012.083.024.17.037.261.1.694.215,1.557.492,1.689a.556.556,0,0,0,.222.033,18.965,18.965,0,0,0,3.286-.748c.369-.1.659-.187.791-.216l1.531-.33.12-.026c4.854-1.047,9.873-2.13,14.8-3.2,1.433-.309,2.926-.687,4.371-1.052h.006a51.941,51.941,0,0,1,11.3-2h.042a2.221,2.221,0,0,1,2.044,1.875,1.765,1.765,0,0,1-1.015,2.085c-4.721,2.024-10.169,3-15.439,3.95-2.148.386-4.366.785-6.448,1.243l-1.83.4-1.83.4c-1.931.9-3.9,1.776-5.808,2.625a149.749,149.749,0,0,0-14.717,7.213l-.214.125c-3.724,2.17-7.945,4.63-10.179,8.486a9.353,9.353,0,0,0-1.166,3.7,7.754,7.754,0,0,0,.511,3.808,5.005,5.005,0,0,0,3.572,2.991,10.574,10.574,0,0,0,2.4.256,17.017,17.017,0,0,0,2.338-.174A48.488,48.488,0,0,0,481,294.441c1.22-.346,2.37-.672,3.43-.91l14.372-3.26,5.7-1.291,23.763-5.385a2.263,2.263,0,0,1,.5-.057,1.893,1.893,0,0,1,1.4.6,2.344,2.344,0,0,1,.619,1.336,1.932,1.932,0,0,1-.261,1.247,1.818,1.818,0,0,1-1.171.781c-13,2.955-26.115,5.943-38.8,8.833-1.633.371-3.307.792-4.926,1.2l-.01,0a102.211,102.211,0,0,1-10.985,2.34l-.092.059c-4.8,3.084-9.342,6-13.038,10.405-.244.282-.5.6-.8.99a4.418,4.418,0,0,0-.94,4.421,3.416,3.416,0,0,0,3.224,1.71c.119.008.24.008.357.008a17.761,17.761,0,0,0,4.432-.834c.461-.128.936-.259,1.393-.372,3.9-.977,7.91-1.865,11.926-2.641,15.243-2.978,30.985-4.415,46.21-5.805l2.2-.2C529.564,307.611,529.644,307.607,529.721,307.607Zm-479.6,1.509a3.312,3.312,0,0,0-2.938,2.059,2.628,2.628,0,0,0,.713,2.987c3.679,3.5,8.393,5.351,12.951,7.145l.026.01,1.191.47a2.933,2.933,0,0,0,1.078.221,2.6,2.6,0,0,0,2.433-2.305,3.179,3.179,0,0,0-1.928-3.656c-.479-.19-.986-.387-1.394-.546-3.591-1.4-7.3-2.844-10.148-5.547A2.857,2.857,0,0,0,50.125,309.116Zm414.117-11.9a30.591,30.591,0,0,1-.26,5.627,30.8,30.8,0,0,1,5.133-3A8.971,8.971,0,0,1,464.243,297.214ZM255.609,277.361a2.745,2.745,0,0,0-2.795,2.88,3.2,3.2,0,0,0,.706,2.084,2.8,2.8,0,0,0,2.166.99,33.664,33.664,0,0,1,7.516,1.324h.005c.366.094.744.19,1.115.283a3.284,3.284,0,0,0,.792.1A3,3,0,0,0,268,282.256a2.918,2.918,0,0,0-.369-1.871,2.727,2.727,0,0,0-1.727-1.2l-.533-.133-.143-.036a43.47,43.47,0,0,0-9.543-1.651ZM172.681,231.14a3.292,3.292,0,0,0-3.068,2.556,2.487,2.487,0,0,0,1.442,2.919,54.543,54.543,0,0,0,12.709,4.587,3.353,3.353,0,0,0,.7.076,3.131,3.131,0,0,0,3.007-2.9,2.782,2.782,0,0,0-.4-1.807,2.645,2.645,0,0,0-1.725-1.111,48,48,0,0,1-11.288-3.986A3.107,3.107,0,0,0,172.681,231.14Zm104.3-36.852a2.728,2.728,0,0,0-2.739,2.1,134.164,134.164,0,0,0-3.429,17.146,3.074,3.074,0,0,0,.724,2.523,3.566,3.566,0,0,0,2.618,1.216,2.311,2.311,0,0,0,2.4-2.157,134.063,134.063,0,0,1,3.428-17.146,2.7,2.7,0,0,0-.409-2.454A3.291,3.291,0,0,0,276.981,194.288Zm-195.83,8.371a2.93,2.93,0,0,0-1.085.225,99.64,99.64,0,0,0-13.566,6.3,2.806,2.806,0,0,0-1.273,1.466,2.869,2.869,0,0,0-.05,1.741,3.415,3.415,0,0,0,1.035,1.66,2.719,2.719,0,0,0,1.8.706,2.928,2.928,0,0,0,1.491-.432,89.826,89.826,0,0,1,12.145-5.7,3.2,3.2,0,0,0,1.921-3.677A2.591,2.591,0,0,0,81.151,202.658ZM383.1,153.016a2.5,2.5,0,0,0-2.286,1.513,47.366,47.366,0,0,0-2.634,6.119,22.223,22.223,0,0,0-1.2,6.528,2.715,2.715,0,0,0,.732,2.018,3.03,3.03,0,0,0,2.172.855,2.89,2.89,0,0,0,3.047-2.874c.087-3.488,1.48-6.551,3.023-9.642a2.914,2.914,0,0,0-.1-2.925A3.377,3.377,0,0,0,383.1,153.016Zm-191.626-9.406a3.233,3.233,0,0,0-.852.12c-3.666,1.006-7.457,1.75-11.123,2.47-2.824.555-5.744,1.128-8.589,1.818a2.707,2.707,0,0,0-1.725,1.183,2.894,2.894,0,0,0-.375,1.859,3.019,3.019,0,0,0,2.908,2.794,3.3,3.3,0,0,0,.774-.1c2.85-.69,5.769-1.263,8.592-1.818,3.664-.72,7.453-1.464,11.12-2.469a2.769,2.769,0,0,0,2.074-3.179,3.324,3.324,0,0,0-.882-1.862A2.619,2.619,0,0,0,191.472,143.611Zm-116.9-8.671a2.612,2.612,0,0,0-2.444,2.317,3.167,3.167,0,0,0,1.933,3.642c1.975.775,4.016,1.469,5.99,2.14h0c1.978.672,4.023,1.368,6,2.145a2.947,2.947,0,0,0,1.072.218,2.612,2.612,0,0,0,2.444-2.316,3.168,3.168,0,0,0-1.934-3.643c-1.977-.775-4.019-1.47-5.994-2.141s-4.024-1.368-6-2.145A2.944,2.944,0,0,0,74.577,134.94Zm185.393-21.321h0a2.978,2.978,0,0,0,0,5.953,66.2,66.2,0,0,1,12.064.752,3.4,3.4,0,0,0,.616.058,2.934,2.934,0,0,0,2.169-.943,3.517,3.517,0,0,0,.932-2.06,2.459,2.459,0,0,0-2.136-2.8,73.712,73.712,0,0,0-13.646-.963ZM420.275,80.085a2.774,2.774,0,0,0-1.546.507l-7.713,5.144a2.97,2.97,0,0,0-1.225,1.593,3.12,3.12,0,0,0,.016,1.827,2.953,2.953,0,0,0,2.669,2.228,2.77,2.77,0,0,0,1.545-.507l1.543-1.029,6.171-4.115a2.971,2.971,0,0,0,1.226-1.593,3.119,3.119,0,0,0-.016-1.827A2.953,2.953,0,0,0,420.275,80.085ZM150.908,71.669a3.439,3.439,0,0,0-.568.049,70.386,70.386,0,0,0-13.712,3.431,3.152,3.152,0,0,0-1.941,3.625,2.62,2.62,0,0,0,2.456,2.329,2.964,2.964,0,0,0,1.067-.214,68.738,68.738,0,0,1,13.712-3.429,2.41,2.41,0,0,0,2.141-2.728A3.278,3.278,0,0,0,150.908,71.669ZM295.2,61.311a3.16,3.16,0,0,0-2.662,1.488,3.03,3.03,0,0,0,1.068,4.073,44.36,44.36,0,0,1,6.149,5.43l.1.1a2.785,2.785,0,0,0,1.984.876,3.244,3.244,0,0,0,2.88-2.022,2.71,2.71,0,0,0-.655-3.063,52.339,52.339,0,0,0-7.459-6.467A2.484,2.484,0,0,0,295.2,61.311Z" transform="translate(26.039 5.209)"/>
    </g>
    <g id="HEAD" transform="translate(276.743 133.952)">
      <path id="_Skin-2" data-name="âœ‹ Skin" d="M267.623,155.59c-1.764-22.879.969-46.859-7.831-68.606C244.45,50.9,201.425,38.872,168.07,25.136c-13.363-3.958-58.327-4.511-73.973-9.75C58.687,3.53,50.226-10.6,22.089,11.978A30.66,30.66,0,0,0,12.2,25.752l.089.025a7.649,7.649,0,0,0,1.439,6.589C1.528,44.866-3.577,63.607,2.683,80.248c20.428,43.3,19.467,66.717,12.885,113.27-8.6,43.46,11.046,59.335,43.573,82.982-1.324,2.574-1.6,6,.128,8.266,37.613,52.985,108.534,78.282,169.3,51.389,24.665-11,35.677-37.336,41.961-61.1,7.32-26.6,9.57-54.637,3.61-81.737C271.734,180.79,268.6,168.347,267.623,155.59Z" transform="translate(27.467 25.808)" fill="#ae5d29"/>
      <path id="bandana" d="M0,90.687l22.365,14.935,80.056-84.6L75.78,0S27.447,35.808,17.944,45.259,0,90.687,0,90.687Z" transform="translate(25.689 25.808)" fill="#9fd8e5"/>
      <path id="_Ink-2" data-name="ðŸ– Ink" d="M285.482,450a112.064,112.064,0,0,1-26.8-3.365,137.347,137.347,0,0,1-18.206-5.925,10.871,10.871,0,0,1-4.655-3.193,4.3,4.3,0,0,1-.965-3.4,3.957,3.957,0,0,1,4.17-2.983,7.031,7.031,0,0,1,2.228.385c10.246,3.431,25.647,7.521,40.825,7.521a72.972,72.972,0,0,0,9.433-.586c25.965-3.4,43.753-12.17,55.978-27.593,15.576-19.649,22.3-50.284,20.545-93.656-.248-6.15-.743-12.4-1.222-18.452-.557-7.033-1.132-14.3-1.324-21.451-.137-5.218-.2-10.52-.26-15.647-.091-7.656-.184-15.573-.527-23.355l-.19-4.433c-.225-5.233-.46-10.361-.849-15.571-.143-.612-.28-1.238-.413-1.843-.3-1.381-.616-2.806-1.013-4.178a89.927,89.927,0,0,0-6.095-15.561,4.3,4.3,0,0,1-1.856.849,29.846,29.846,0,0,1-5.328.5,22.635,22.635,0,0,1-9.415-1.985,23.173,23.173,0,0,1-6.058-3.937,9.257,9.257,0,0,1-1.923-2.285h-.174a7.658,7.658,0,0,1-5.928-2.338,6.356,6.356,0,0,1-1.509-2.884,5.207,5.207,0,0,1,.223-2.821l.068-.182-.164-.06a28.623,28.623,0,0,1-10.148,12.577,32.366,32.366,0,0,1-11.174,4.9,55.313,55.313,0,0,1-12.187,1.4c-.4.006-.812.009-1.217.009-8.606,0-17.592-1.321-26.058-2.673-2.808-.446-4.949-.869-6.941-1.369-.034.035-.068.071-.1.109-.056.06-.112.12-.171.174a25.883,25.883,0,0,1-8.227,5.362,24.757,24.757,0,0,1-9.331,1.816,26,26,0,0,1-10.355-2.177,36.7,36.7,0,0,1-7.723-4.593,53.549,53.549,0,0,1-6.642-6.116c-.064,2.482-.188,4.753-.379,6.943l-.083.914c-.421,4.389-1.249,8.871-4.431,11.916a10.893,10.893,0,0,1-7.813,3.027,18.663,18.663,0,0,1-5.607-.952,31.367,31.367,0,0,1-5.392-2.335c.007.156.007.323.007.484,1.5,5.111,3.034,10.315,4.516,15.348l.031.1.345,1.172.352,1.181q.181.6.364,1.2l0,.013a53.217,53.217,0,0,1,2.48,10.787,14,14,0,0,1-3.2,10.55,8.894,8.894,0,0,1-6.713,2.984,11.629,11.629,0,0,1-3.361-.526c-3.842-1.158-7-4.022-10.053-6.793l-.009-.008c-.587-.533-1.142-1.036-1.705-1.531l-2.218-1.923c6.452,21.142,9.751,40.083,10.089,57.9a1.927,1.927,0,0,1-1.9,1.9c-.2.008-.41.013-.616.013a18.239,18.239,0,0,1-6.66-1.329,3.832,3.832,0,0,1-.408-.038,27.446,27.446,0,0,1-11.136-4.219,20.77,20.77,0,0,1,.905,7.777.7.7,0,0,1-.7.614.523.523,0,0,1-.535-.45,18.288,18.288,0,0,0-7.089-10.7,21.831,21.831,0,0,0-5.862-3.194,19.089,19.089,0,0,0-6.454-1.164,16.286,16.286,0,0,0-3.037.281c-9.755,1.857-17.613,10.2-19.554,20.748a36.856,36.856,0,0,0,1.037,16.664,40.3,40.3,0,0,0,7.768,14.822c2.587,3.071,6.855,6.921,12.494,7.821a16.371,16.371,0,0,0,2.551.2,15.563,15.563,0,0,0,4.375-.618,23.184,23.184,0,0,0,2.268-.851l.479-.2a12.672,12.672,0,0,1,1.99-.559,10.988,10.988,0,0,0,2.123-.624,3.618,3.618,0,0,1,1.492-.331,3.128,3.128,0,0,1,2.689,1.461,3.165,3.165,0,0,1,.058,3.119c-1.243,2.529-2.368,4.249-4.439,5.559a39.053,39.053,0,0,1,2.937,4.367c.359.593.643,1.061.826,1.31A131.468,131.468,0,0,0,165.721,375a94.882,94.882,0,0,0,10.838,9.979l1.62,1.283c3.689,2.933,6.954,5.7,9.56,9.917a4.984,4.984,0,0,1,.034,5.1,5.146,5.146,0,0,1-4.444,2.724h-.065a21.485,21.485,0,0,1-8.469-1.91,30.314,30.314,0,0,1-7.3-4.732c-4.888-4.186-8.843-9.707-11.393-13.5-.865-1.294-1.71-2.7-2.51-4.182a8.933,8.933,0,0,1-.943,1.265l.691,1.861a4.175,4.175,0,0,1-.454,4,5.519,5.519,0,0,1-2.086,1.765,6.089,6.089,0,0,1-2.7.651,4.766,4.766,0,0,1-2.338-.584A4.335,4.335,0,0,1,144,386.754a78.063,78.063,0,0,0-6.429-10.567,5.466,5.466,0,0,1-3.579-2.181c-.633-.919-1.3-1.857-1.949-2.764-1.372-1.924-2.791-3.913-4.042-5.957-.963-.917-2-1.842-3.155-2.828l-.159.14-.01.009c-.255.224-.517.455-.767.692a39.476,39.476,0,0,1-5.092,8.566l-.444.567a43.433,43.433,0,0,1-6.855,7.1,20.157,20.157,0,0,1-8.676,4.265,2.167,2.167,0,0,1-.4.038,2.489,2.489,0,0,1-2.249-1.555,1.838,1.838,0,0,1,.552-2.1,70.822,70.822,0,0,1,5.917-4.62,51.376,51.376,0,0,0,7.98-6.661,50.1,50.1,0,0,0,5.507-7.221l.365-.593c.243-.4.505-.82.825-1.325-1.868-1.275-3.76-2.575-5.59-3.832a47.9,47.9,0,0,1-10.3,6.173,71.949,71.949,0,0,0-7.183,3.869l-.564.37a4.774,4.774,0,0,1-2.68.868,5.39,5.39,0,0,1-4.742-3.5,5.1,5.1,0,0,1,1-5.715,112.357,112.357,0,0,0,9.163-11.03l0,0h0c1.034-1.358,2.1-2.762,3.169-4.116a29.743,29.743,0,0,1-3.117-11.778c-.135-1.205-.242-2.443-.338-3.535v-.006h-.188a14.3,14.3,0,0,1-8.038-2.65L91,324.222a28,28,0,0,1-8.415,1.341c-.227,0-.455,0-.68-.009a7.851,7.851,0,0,1-4.318-1.367,7.566,7.566,0,0,1-2.609-3.193,8.178,8.178,0,0,1-.6-4.435,8.52,8.52,0,0,1,2.01-4.371,15.552,15.552,0,0,1,11.888-5.11,17.942,17.942,0,0,1,6.693,1.293c.2-.1.407-.215.609-.328a7.228,7.228,0,0,1,.107-3.7l-.1-.665a17.223,17.223,0,0,1-2.611-7.053,16.33,16.33,0,0,1,.249-6,10.179,10.179,0,0,1,.463-1.358c.087-.221.177-.449.258-.678a13.189,13.189,0,0,1-.9-3.938c-.13-.155-.28-.337-.417-.53a10.667,10.667,0,0,1-2.024-6.867,10.826,10.826,0,0,1,2.5-6.244c.014-.233.036-.459.064-.67-.169-.381-.329-.777-.474-1.177-3.43-3.468-4.931-6.98-4.59-10.736a11.19,11.19,0,0,1,2.858-6.56,3.727,3.727,0,0,1,.033-2.6,31.171,31.171,0,0,1-1.822-10.885A48.686,48.686,0,0,1,90.616,226.9a10.153,10.153,0,0,1-.565-3.706,11.387,11.387,0,0,1,3.272-7.411,10.309,10.309,0,0,1,7.367-3.246h.111a9.694,9.694,0,0,1,1.952.228l.009-.133a15.05,15.05,0,0,1,1.351-4.618,2.92,2.92,0,0,1-.9-.52,50.905,50.905,0,0,1-11.6,4.476,3.513,3.513,0,0,1-.854.105,4.081,4.081,0,0,1-3.484-2.138,3.266,3.266,0,0,1,.147-3.433,25.071,25.071,0,0,1,2.837-3.546,36.347,36.347,0,0,0-4.431.3,5.207,5.207,0,0,1-.669.043,7.239,7.239,0,0,1-3.72-1.153,10.332,10.332,0,0,1-3.043-2.864c-2.167,2.113-4.371,4.246-6.5,6.31l-.017.016a8.326,8.326,0,0,1-5.865,2.486,8.708,8.708,0,0,1-5.785-2.271,9.379,9.379,0,0,1-3.049-5.855,12.371,12.371,0,0,1-4.513-2.248,76.767,76.767,0,0,1-27.586,6.251c-.117,0-.236.007-.352.007a7.837,7.837,0,0,1-4.217-1.2,8.8,8.8,0,0,1-2.914-3.051,9.218,9.218,0,0,1-.179-9.136,44.667,44.667,0,0,1,7.906-10.166,92.541,92.541,0,0,1-14.758,3.2,4.558,4.558,0,0,1-.6.039,8.656,8.656,0,0,1-7.067-4.444,33.121,33.121,0,0,1,.987-29.082c.149-.3.314-.592.474-.875l0,0,.117-.208c.5-1.256,1.051-2.493,1.626-3.676a18.814,18.814,0,0,1-5.029-10.957,24.374,24.374,0,0,1,1.792-12.09,7.766,7.766,0,0,1-.9-6.839A58.319,58.319,0,0,1,12.5,97.8a18.1,18.1,0,0,1-2.041-8.661,22.085,22.085,0,0,1,.9-6.069,22.585,22.585,0,0,1,6.326-10.3,30.6,30.6,0,0,1,12.561-6.7A35.889,35.889,0,0,1,37.522,57l.008-.018c.108-.238.218-.48.341-.719a25.591,25.591,0,0,1,9.1-9.811,28.181,28.181,0,0,1,5.9-2.8A31.453,31.453,0,0,1,59.273,42.2a9.368,9.368,0,0,1,1.817-4.607A8.064,8.064,0,0,1,65.079,34.7a27.3,27.3,0,0,1,4.045-8.089,9.9,9.9,0,0,1,7.844-4.378,8.6,8.6,0,0,1,4.3,1.186,53.317,53.317,0,0,1,7.037,4.807A9.659,9.659,0,0,1,91.7,27.36l.321-.02,7.319-.372c1.943-.863,3.915-1.768,5.823-2.643,1.042-.478,2.22-1.019,3.368-1.54a24.6,24.6,0,0,1,6.139-3.743,24.954,24.954,0,0,1,7.743-1.868,66.361,66.361,0,0,1,6.414-1.778A70.7,70.7,0,0,1,143.918,13.7c.206,0,.413,0,.615,0,.11-1.4.161-2.8.152-4.164l-.011-.7a8.279,8.279,0,0,1,2.217-5.817A9.338,9.338,0,0,1,152.365.1a9.08,9.08,0,0,1,1.346-.1,7.969,7.969,0,0,1,5.062,1.779,11,11,0,0,1,3.246,4.479l.086.216c.505,1.3,1.076,2.609,1.744,3.988A30.859,30.859,0,0,1,170.6,8.087a32.546,32.546,0,0,1,7.224-.816A28.234,28.234,0,0,1,189.709,9.78a21.187,21.187,0,0,1,9.1,7.886,17.352,17.352,0,0,1,2.318,5.637,22.826,22.826,0,0,1,.471,5.921,64.053,64.053,0,0,1-2.065,12.015c-.22.926-.448,1.884-.658,2.816L197.6,49.732a9.7,9.7,0,0,1,3.079,3.153,7.66,7.66,0,0,1,1.163,4.161l-.011.225-.519,7.918a41.163,41.163,0,0,0,4.5-5.44c.946-1.737,1.958-3.42,3.007-5a8.735,8.735,0,0,1,7.361-4.209,9.4,9.4,0,0,1,7.87,4.43,8.7,8.7,0,0,1,.091,8.754,53.617,53.617,0,0,1-3.341,5.641,50.2,50.2,0,0,0-3.348,8.193,7.828,7.828,0,0,1,4.573,7.092,20.452,20.452,0,0,1-2.683,11.468,22.675,22.675,0,0,1-3.559,4.661,26.523,26.523,0,0,1-4.753,3.793,8.01,8.01,0,0,1-4.306,1.3,7.611,7.611,0,0,1-1.841-.228c-.316.427-.674.911-1.009,1.392a44.854,44.854,0,0,1,7.512,7.777,135.5,135.5,0,0,1,19.717-1.459,36.034,36.034,0,0,1,15.976-3.327,61.773,61.773,0,0,1,10.356.938,103.252,103.252,0,0,1,10.391,2.529h0c1.959.55,3.986,1.118,6,1.607a77.554,77.554,0,0,0,10.475,1.55c2.3.233,4.673.473,7.008.854a31.376,31.376,0,0,1,10.18,3.433,23.959,23.959,0,0,1,7.7,6.614A26.511,26.511,0,0,1,322.233,132c5.831,3.727,11.737,7.551,17.45,11.25l.031.02c3.147,2.038,6.4,4.145,9.617,6.218a9.261,9.261,0,0,1,4.126,9.791l-.043.255-.3,1.652.714,1.017.624.881c2.6,3.665,5.283,7.456,6.939,11.453a132.858,132.858,0,0,1,8.953,14.972,109.064,109.064,0,0,1,8.515,21.879c.464,1.784.989,3.807,1.322,5.79a15.2,15.2,0,0,1-.321,5.667v0c-.112.6-.228,1.215-.324,1.86-.234,1.6-.4,3.237-.56,4.82-.175,1.734-.357,3.525-.628,5.278a3.749,3.749,0,0,1-1.495,2.5,4.864,4.864,0,0,1-2.714.877c.74,5.642,1.268,11.27,1.789,17.019.781,8.768,1.283,17.587,1.633,24.29,2.158,3.142,6.6,5.68,9.866,6.564a14.268,14.268,0,0,0,3.7.469,29.1,29.1,0,0,0,9.658-2.1,2.741,2.741,0,0,1,.935-.169,2.94,2.94,0,0,1,2.507,1.584,3.22,3.22,0,0,1,.092,3.2,11.277,11.277,0,0,1-4.712,4.511,13.426,13.426,0,0,1-6.115,1.361,20.114,20.114,0,0,1-8.5-1.995,18.152,18.152,0,0,1-7.038-5.678c.106,2.23.22,4.5.331,6.7v.028l.017.336.11,2.137c.222,4.149.493,8.4.754,12.509.659,10.371,1.341,21.092,1.36,31.633.01,5.68-.168,10.834-.545,15.757a140.821,140.821,0,0,1-2.021,15.575,97.967,97.967,0,0,1-10.877,29.874,96.235,96.235,0,0,1-19.27,24.184,93.074,93.074,0,0,1-25.844,16.634,90.868,90.868,0,0,1-30.6,7.223C289.425,449.945,287.445,450,285.482,450ZM147.235,360.322h0c-.749.161-1.489.286-2.2.372l.029.07c.207.512.42,1.042.631,1.582.61.344,1.215.665,1.8.952a15.324,15.324,0,0,1-.26-2.976Zm-37.616-10.058a16.6,16.6,0,0,1,1.886.108l0-.111-.059-.02a2.677,2.677,0,0,1-.336-.13,16.439,16.439,0,0,1-2.012-1.151l-.494.912-.211.393-.025.047C108.784,350.279,109.206,350.263,109.619,350.263ZM99.925,215.721c-.752.025-1.019.381-1.015.614a.184.184,0,0,0,.185.2c.082,0,.3-.05.593-.509A2.277,2.277,0,0,1,99.925,215.721Zm84.953-102.34c-15.7.413-31,10.089-41.072,18.132a144.467,144.467,0,0,0-25.529,26.932,155.618,155.618,0,0,0-4.937,15.1c-.586,2.159-1.039,4.371-1.477,6.511l0,.01c-.244,1.193-.5,2.426-.77,3.638l-.237,1.04a16.38,16.38,0,0,0-1.372,3.587,10.554,10.554,0,0,0,5.042,2.8,3.124,3.124,0,0,1,1.549.9,32.824,32.824,0,0,0,3.707-8.263l.029-.135a171.013,171.013,0,0,1,9.722-14.264,204.1,204.1,0,0,1,15.284-18.087,146.867,146.867,0,0,1,17.618-15.788,108.007,108.007,0,0,1,31.884-16.722A34.822,34.822,0,0,0,184.878,113.38ZM157.94,330.273c-.079,0-.159,0-.237-.008-4.579-.314-7.7-3.818-10.719-7.207-1.079-1.211-2.1-2.356-3.185-3.368a71.438,71.438,0,0,0-14.528-10.671.82.82,0,0,1-.392-.935.831.831,0,0,1,.741-.687h.09c7.47.436,12.716,1.674,18.106,4.273l.513.251a42.184,42.184,0,0,1,8.891,5.594,14.966,14.966,0,0,1,3.36,4.021,8.191,8.191,0,0,1,1.022,4.822,5.047,5.047,0,0,1-1.11,2.673A3.3,3.3,0,0,1,157.94,330.273Z" transform="translate(-74.236 -72.186)"/>
    </g>
    <g id="FACE" transform="translate(395.029 272.369)">
      <path id="_Ink-3" data-name="ðŸ– Ink" d="M78.328,139a28.341,28.341,0,0,1-15.707-4.647,29.931,29.931,0,0,1-6.5-5.613c-3.594-4.175-5.453-8.848-5.374-13.515a2.219,2.219,0,0,1,.526-1.415,2.469,2.469,0,0,1,1.314-.789,2.536,2.536,0,0,1,.579-.067,2.33,2.33,0,0,1,.957.2,2.044,2.044,0,0,1,1.012,1c.472.619,1.093,1.431,1.717,2.216,4.7,5.806,9.221,9.978,16,11.471a18.986,18.986,0,0,0,4.076.443,19.948,19.948,0,0,0,6.883-1.246,23.411,23.411,0,0,0,9.634-6.772,5.172,5.172,0,0,1,3.938-1.946h.034a6.052,6.052,0,0,1,4.187,1.855,6.534,6.534,0,0,1,1.956,4.264,5.7,5.7,0,0,1-1.62,4.189,32.453,32.453,0,0,1-6.829,5.566,33.045,33.045,0,0,1-8.042,3.552A31.415,31.415,0,0,1,78.328,139Zm8.861-41.391h0a25.967,25.967,0,0,1-9.261-1.867,46.768,46.768,0,0,1-10.891-6.182,4.186,4.186,0,0,1-1.52-2.418,5.01,5.01,0,0,1,.216-2.715,6.176,6.176,0,0,1,1.833-2.651,4.463,4.463,0,0,1,2.857-1.115,4.053,4.053,0,0,1,2.21.678l.721.556.025.019c3.784,2.926,9.5,7.349,14.989,7.349a8.947,8.947,0,0,0,6.668-2.958,9.866,9.866,0,0,0,1.871-7.941c-1.266-6.174-7.977-10.675-10-11.908a1.869,1.869,0,0,1-.506-2.148A2.779,2.779,0,0,1,89.1,62.389a3.786,3.786,0,0,1,.64.056,20.2,20.2,0,0,1,7.1,2.567,16.118,16.118,0,0,1,4.778,4.407,17.512,17.512,0,0,1,3.051,11.7A18.68,18.68,0,0,1,99.593,92.53,16.829,16.829,0,0,1,87.189,97.613Zm-71.211-28.6a3.558,3.558,0,0,1-1.032-.152,2.1,2.1,0,0,1-1.413-1.218c-1.8-4.776-.521-9.728.867-13.042,2.4-5.715,6.7-10.427,9.526-11.96a16.528,16.528,0,0,1,7.841-2.022,15.7,15.7,0,0,1,7.56,1.951,19.669,19.669,0,0,1,5.222,4.294,54.141,54.141,0,0,1,4.052,5.4c.533.778,1.085,1.582,1.646,2.362a4.754,4.754,0,0,1,.8,4.419A5.714,5.714,0,0,1,47.8,62.389a6.207,6.207,0,0,1-2.389.49,5.451,5.451,0,0,1-2.131-.423,5.731,5.731,0,0,1-3.074-3.248c-1.452-3.49-3.588-6.325-5.86-7.778a6.257,6.257,0,0,0-6.283-.48c-1.911.869-5.124,3.72-7.311,7.293a14.3,14.3,0,0,0-2.4,8.518,1.933,1.933,0,0,1-.625,1.625,2.433,2.433,0,0,1-1.356.6A3.192,3.192,0,0,1,15.978,69.013Zm107.84-10.506a4.646,4.646,0,0,1-1.341-.216,5.072,5.072,0,0,1-2.095-1.252,4.173,4.173,0,0,1-1.165-2.108,8.633,8.633,0,0,0-3.029-5.045,6.045,6.045,0,0,0-4.834-1.272,9.284,9.284,0,0,0-5.2,3.12,11.429,11.429,0,0,0-1.092,1.593l-.033.054a11.626,11.626,0,0,1-2.16,2.836,2.106,2.106,0,0,1-1.337.5,2,2,0,0,1-.6-.093c-2.121-2.129-2.36-3.663-2.3-5a9.18,9.18,0,0,1,1.688-4.649,18.324,18.324,0,0,1,9.819-6.988,13.927,13.927,0,0,1,2.922-.311,14.908,14.908,0,0,1,8.576,2.791,16.289,16.289,0,0,1,6.659,10.194,5.425,5.425,0,0,1-.273,3.011,4.223,4.223,0,0,1-1.97,2.191A4.68,4.68,0,0,1,123.818,58.507ZM2.555,38.653a1.24,1.24,0,0,1-.161-.01,1.51,1.51,0,0,1-.785-.382C.5,37.323-.042,35.74,0,33.556a20.363,20.363,0,0,1,2.069-7.91,42.848,42.848,0,0,1,9.092-12.5,44.2,44.2,0,0,1,14.3-8.711A30.735,30.735,0,0,1,35.652,2.189c.211,0,.423,0,.63.012a12.242,12.242,0,0,1,3.791.721,9.974,9.974,0,0,1,3.377,2.1A6.269,6.269,0,0,1,45.323,9.6a6.537,6.537,0,0,1-1.882,4.683,9.672,9.672,0,0,1-4,2.338,23.241,23.241,0,0,1-4.364.779,39.675,39.675,0,0,0-4.252.628,39.949,39.949,0,0,0-10.27,3.751C17.293,23.551,13.6,25.748,10.93,28.6c-.628.672-1.226,1.385-1.8,2.074l-.016.019c-.537.64-1.045,1.245-1.585,1.835-.6.657-1.154,1.319-1.814,2.116a9,9,0,0,0-.512.905c-.131.274-.257.526-.387.771-.24.452-.471.848-.686,1.177-.428.719-.648.89-.824.968A1.846,1.846,0,0,1,2.555,38.653ZM129.9,37.02a1.456,1.456,0,0,1-.24-.02,1.436,1.436,0,0,1-.733-.356,1.378,1.378,0,0,1-.412-.711c-1.8-7.921-5.392-12.869-11.637-16.045a49.774,49.774,0,0,0-10.843-3.648c-1.043-.247-2.167-.412-3.254-.571l-.051-.007c-3.293-.481-7.025-1.026-9.392-3.963a7.911,7.911,0,0,1-1.464-2.857,7.288,7.288,0,0,1-.176-3.076,6.315,6.315,0,0,1,3.428-4.673A10.315,10.315,0,0,1,99.911,0c4,0,8.337,1.856,11.5,3.212l.253.108.011,0q.426.182.84.357a37.756,37.756,0,0,1,13.165,8.788,28.462,28.462,0,0,1,6.766,12.508c1,4.339.529,8.274-1.366,11.382a1.351,1.351,0,0,1-.617.543A1.422,1.422,0,0,1,129.9,37.02Z" transform="translate(40.173 40.974)"/>
    </g>
  </g>
</svg>
