<svg xmlns="http://www.w3.org/2000/svg" width="348.813" height="696.429" viewBox="0 0 348.813 696.429">
  <g id="peep-standing-12" transform="translate(25.657)">
    <g id="BODY" transform="translate(-25.657 134.165)">
      <path id="_Skin" data-name="âœ‹ Skin" d="M221.911,508.871c1.28-5.164-.6-9.283-6.011-12.324-.465-1.229-10.917-5.213-19.221-11.061a61.8,61.8,0,0,1-13.1-12.867,30.475,30.475,0,0,1-1.869-5.653c-.917-8.431-.387-13.958-.953-16.581,3.816-.5,13.2-247.833,11.68-256.031a24.757,24.757,0,0,0,7.489-2.518c.189-.049-.122-.6-.113-.7,5.943-11.645-3.174-51.241-8.888-62.2,4.538-.118,10.515-.734,13.324-4.516a4.6,4.6,0,0,0,2.814-2.42,38.968,38.968,0,0,0,2.054-3.64c3.023-6.268,4.888-13.229,3.88-20.135.192-.061,1.182-.067,1.231-.344a12.868,12.868,0,0,0-.726-4.8c-5.192-18.062-11.442-35.846-19.7-52.85-4.14-9.1-12.7-12.423-21.579-15.84-4.269-1.674-8.54-3.606-13-4.7-.056-.311.21-1.258-.374-1.181-.721.15-.579,1.307-.846,1.957-10.3-8.418-3.769-12.755-9.982-17.366C141.595-.231,133.755-.366,126.667.354c-2.615.075-4.707,1.252-5.324,3.879A18.661,18.661,0,0,1,108.084,14.9c-.475-.843-1.78-3.263-2.511-2.5-8.3.283-20.879,3.323-28.646,5.6-7.8,1.987-15.684,5.616-17.724,14.071-3.7,15.067,2.187,76.988,11.846,88.913l.314.005a16.338,16.338,0,0,0,6.677,3.89c-.059,5.575-1.82,11.018-2.7,16.47-1.973,9.888-3.489,19.786-5.686,29.727-.01,1.108-4.191,16.263-.069,13.224.851.418,1.893.873,2.809,1.263-4.379,9.961-6.383,26.032-6.073,38.338a89.423,89.423,0,0,1-1.873,21.251c-12.185,63.582-22.928,205.8-23.18,207.7-.232,1.817,1.31,11.681,0,14.283-1.162,2.309-6.12.946-7.068,1.837-2.463,4-1.335,6.554-3.355,10.551-1.036.925-3.352,2.949-4.112,4.372C25.2,485.363-.281,502.05.752,504.582c0,0-.116,1.215-.155,1.479-2.172,12.614,1.445,12.509,13.148,14.365,17.1,3.01,29.872-2.781,44.32-10.517,4.8-3.232,11.625-9.4,9.4-16.708-.061-.447-1.379-8.133-1.9-12.035,0,0,1.416-3.125-4.064-2.736.9-.987,2.881-13.777,2.206-15.469-.429-4.358.237-8.314.026-12.8,2.3.17,42.6-190.53,67.878-202.38.156,1.267-.147,3.624,1.538,3.861,7.819,60.883,26.619,197.275,27.482,197.513-1.3,6.953-1.256,23.07-1.281,29.972-.2.184-1.108,1-1.255,1.193-.031-.051-.623.539-.654.555l-.08-.183c-2.663,5.993-6.544,12.165-3.114,18.039-2.546-.185-2.137,4.7-2.251,6.954,1.45,4.4,42.672,16.283,51.883,16.847,3.027.527,17.122-3.947,19.834-4.59C227.231,517.284,223.783,510.764,221.911,508.871Z" transform="translate(22.689 -1.481)" fill="#d08b5b"/>
      <path id="_Shoes" data-name="ðŸ‘Ÿ Shoes" d="M204.483,54.206a3.586,3.586,0,0,1-.6-.043,40.78,40.78,0,0,1-4.815-.705c-1.986-.382-4.332-.9-6.974-1.546-5.273-1.284-11.333-2.965-17.063-4.733-6.241-1.926-11.638-3.811-15.608-5.453a44.482,44.482,0,0,1-5.155-2.446c-1.33-.774-2.094-1.435-2.268-1.965l.009-.21c.011-.3.015-.641.019-1a18.868,18.868,0,0,1,.3-3.768,3.465,3.465,0,0,1,.615-1.418,1.451,1.451,0,0,1,1.171-.563c.046,0,.091,0,.138.005a10,10,0,0,1-.866-1.912,9.613,9.613,0,0,1-.419-1.929,12.021,12.021,0,0,1,.244-3.9,37.992,37.992,0,0,1,3.017-7.839c.325-.691.661-1.4.976-2.1l.161-.36.08.183c.009,0,.064-.056.141-.129a3.128,3.128,0,0,1,.506-.429.007.007,0,0,1,.007,0,2.7,2.7,0,0,1,.237-.251h.031a5.031,5.031,0,0,0-.192,1.765,2.514,2.514,0,0,0,.493,1.312,3,3,0,0,0,1.49.974,8.066,8.066,0,0,0,2.47.325c3.407,0,6.053-3.3,8.179-5.956,1.28-1.6,2.385-2.976,3.387-3.332l1.045-.378c1.559-.571,4.249-1.575,7.994-2.986.106.257.224.535.349.827a47.314,47.314,0,0,0,3.837,4.613c1.328,1.44,2.707,2.814,4.1,4.083a53.279,53.279,0,0,0,5.162,4.171,111.355,111.355,0,0,0,13.92,7.955c2.96,1.492,5.1,2.57,5.3,3.106a16.309,16.309,0,0,1,3.4,2.482,10.251,10.251,0,0,1,2.113,2.884,8.994,8.994,0,0,1,.859,3.281,11.888,11.888,0,0,1-.361,3.676,14.475,14.475,0,0,1,2.4,3.7,11.017,11.017,0,0,1,.791,2.267,3.854,3.854,0,0,1,.014,1.924,1.67,1.67,0,0,1-1.4,1.178c-.642.152-1.923.519-3.545.984h0c-2.365.678-5.6,1.606-8.549,2.345A35.394,35.394,0,0,1,204.483,54.206ZM22.79,52.868c-1.458,0-2.948-.066-4.427-.2-1.516-.134-3.07-.34-4.619-.613L12.713,51.9l-.632-.1A56.961,56.961,0,0,1,5.1,50.454a6.955,6.955,0,0,1-3.943-2.418,5.418,5.418,0,0,1-.792-1.657,9.43,9.43,0,0,1-.347-2.2A30.2,30.2,0,0,1,.6,37.693l.015-.112c.047-.389.14-1.357.14-1.366-.092-.226.027-.577.354-1.043a12.073,12.073,0,0,1,1.475-1.63,68.624,68.624,0,0,1,5.356-4.464c4.32-3.325,9.7-7.089,13.628-9.838h0c2.769-1.938,4.769-3.338,5.169-3.722A20.987,20.987,0,0,1,30.681,11.3l0,0,.166-.148A15.739,15.739,0,0,0,32.3,6.22a21.624,21.624,0,0,1,.567-2.667A12.271,12.271,0,0,1,34.2.595,4.451,4.451,0,0,1,36.614.23,13.412,13.412,0,0,0,39.432,0a11.61,11.61,0,0,1,2.8.94,24.264,24.264,0,0,1,3.058,1.7,19.116,19.116,0,0,1,2.559,1.956,4.587,4.587,0,0,1,1.308,1.719l.037.125c.081.28.181.652.3,1.082a53.417,53.417,0,0,0,1.665,5.365,11.3,11.3,0,0,0,1.132,2.264c.431.617.858.93,1.268.93a5.251,5.251,0,0,0,2.305-.638,14.7,14.7,0,0,0,2.787-1.914l.233-.214a22.393,22.393,0,0,1,4.294-3.279,5.432,5.432,0,0,1,1.613.285,1.687,1.687,0,0,1,.882.657,1.934,1.934,0,0,1-.108,1.824l.066.486c.418,3,1.214,7.8,1.6,10.1h0c.134.806.223,1.339.237,1.448.984,3.236.288,6.561-2.069,9.883a29.066,29.066,0,0,1-7.335,6.826c-3.527,1.889-6.2,3.255-8.682,4.432a91.138,91.138,0,0,1-8.57,3.6,58.754,58.754,0,0,1-8.763,2.415c-1.514.288-3.045.509-4.549.655C25.942,52.792,24.357,52.868,22.79,52.868Z" transform="translate(22.689 466.886)" fill="#fff"/>
      <path id="_Top" data-name="ðŸ‘• Top" d="M11.465,197.251h0c.174-1.735.31-3.339.441-4.891v0c.265-3.135.495-5.843.94-8.447a31.728,31.728,0,0,1,2.223-7.61l-3.393-1.27c-.415-.178-.258-.868-.107-1.536a5.381,5.381,0,0,0,.155-.9c.011-.292-.062-.471-.222-.55a1.69,1.69,0,0,1-.927.4.616.616,0,0,1-.5-.245C9,170.873,10.4,164.448,11.147,161c.246-1.132.423-1.949.425-2.176,1.308-5.915,2.391-11.91,3.439-17.707.712-3.941,1.449-8.016,2.248-12.02.3-1.848.7-3.727,1.095-5.544.383-1.777.78-3.614,1.078-5.435a36.328,36.328,0,0,0,.523-5.491,19.683,19.683,0,0,1-3.615-1.571,13.918,13.918,0,0,1-2.954-2.21l-.108-.109-.314-.005A24.627,24.627,0,0,1,9.529,102.1,87.375,87.375,0,0,1,6.517,91.924,234.363,234.363,0,0,1,2.031,65.45c-.549-4.673-1-9.392-1.338-14.025C.356,46.826.14,42.44.049,38.388c-.093-4.129-.053-7.8.119-10.915a44.067,44.067,0,0,1,.95-7.657,15.667,15.667,0,0,1,1.027-2.951,15,15,0,0,1,1.506-2.536,16.164,16.164,0,0,1,1.915-2.158,19.093,19.093,0,0,1,2.255-1.817A26.952,26.952,0,0,1,13.07,7.592a45.411,45.411,0,0,1,5.772-1.848l.472-.137C27.828,3.141,39.7.412,47.488.147A.434.434,0,0,1,47.807,0c.274,0,.618.263,1.023.782a12.536,12.536,0,0,1,.925,1.431L50,2.646c.728,2.119,1.525,4.144,2.369,6.019a54.626,54.626,0,0,0,2.719,5.282,42.988,42.988,0,0,0,3.07,4.544,34.947,34.947,0,0,0,3.42,3.807,29.986,29.986,0,0,0,3.771,3.069A27.7,27.7,0,0,0,69.469,27.7a27.918,27.918,0,0,0,4.472,1.594,30.647,30.647,0,0,0,4.822.856c1.549.151,3.032.228,4.406.228a31.543,31.543,0,0,0,3.679-.2,21.946,21.946,0,0,0,3.207-.61,15.7,15.7,0,0,0,2.735-1.018,12.094,12.094,0,0,0,2.263-1.424,10.644,10.644,0,0,0,1.791-1.832,11.1,11.1,0,0,0,1.32-2.239,13.551,13.551,0,0,0,.848-2.646,18.368,18.368,0,0,0,.376-3.053l1.481-11.1c.321.032.294.476.273.833a1.721,1.721,0,0,0,0,.35,75.6,75.6,0,0,1,10.171,3.57l0,0c.925.375,1.881.763,2.821,1.131l1.328.513c2,.777,4.137,1.623,6.151,2.55a41.289,41.289,0,0,1,5.646,3.09,24.933,24.933,0,0,1,4.81,4.1,21.683,21.683,0,0,1,1.988,2.578,22.327,22.327,0,0,1,1.655,3.008c2.01,4.138,3.973,8.475,5.834,12.892,1.774,4.211,3.513,8.631,5.169,13.137,1.567,4.264,3.112,8.75,4.593,13.335,1.387,4.293,2.769,8.83,4.107,13.487a12.765,12.765,0,0,1,.726,4.8c-.036.2-.571.26-.926.3a2.181,2.181,0,0,0-.305.045c.9,6.159-.406,12.933-3.88,20.135a39.058,39.058,0,0,1-2.054,3.64,5.117,5.117,0,0,1-1.15,1.5,4.713,4.713,0,0,1-1.664.915,8.545,8.545,0,0,1-2.629,2.284,14,14,0,0,1-3.385,1.347,32.654,32.654,0,0,1-7.31.884,75.333,75.333,0,0,1,4.635,12.707c.8,2.766,1.555,5.7,2.255,8.722.728,3.145,1.376,6.314,1.925,9.417.581,3.287,1.045,6.466,1.379,9.449.356,3.189.564,6.156.616,8.818.117,5.958-.53,10.363-1.922,13.09,0,.021,0,.162.007.358a12.57,12.57,0,0,1-.076,2.768,17.125,17.125,0,0,1-3.982,1.55c-1.487.418-3.039.751-4.286,1.018l-.85.183-4.453.635c.046.312.591.6,1.345,1a11.74,11.74,0,0,1,3.249,2.292,6.554,6.554,0,0,1,1.29,2.03,7.484,7.484,0,0,1,.5,2.881l-123,3.646ZM42.809,81.989h0a30.557,30.557,0,0,1,5.4.5,37.574,37.574,0,0,1,5.619,1.49l.231.081c4.916,1.737,8.479,3.089,10.592,4.019l7.691,6.462-2.466,11.539.6.028c2.265.1,4.324.153,6.12.153a46.72,46.72,0,0,0,6.907-.4,10.974,10.974,0,0,0,2.069-.5,2.776,2.776,0,0,0,1.146-.7,7.309,7.309,0,0,0,1.32-2.152,4.864,4.864,0,0,0,.3-2.178l-.237-.564A105.638,105.638,0,0,1,83.983,88.5a29.019,29.019,0,0,1-.849-3.795,8.38,8.38,0,0,1-.042-2.571,20,20,0,0,0,.369-3.566,8.826,8.826,0,0,0-.369-2.7l-.535-.278c-2.169-1.12-4.29-2.113-6.3-2.953a61,61,0,0,0-5.833-2.109,42.776,42.776,0,0,0-5.362-1.265,30.3,30.3,0,0,0-4.892-.422,89.42,89.42,0,0,0-9.8.56c-3.351.371-6.85.936-10.4,1.679l-1.12,1.574,1.12,9.482a27.519,27.519,0,0,1,2.842-.146h0Z" transform="translate(80.774 10.768)" fill="#9ddadb"/>
      <path id="_Ink" data-name="ðŸ– Ink" d="M205.168,521.861c-.233,0-.465-.006-.688-.019a96.387,96.387,0,0,1-12.779-1.7,130.448,130.448,0,0,1-13.48-3.429,123.428,123.428,0,0,1-12.882-4.78,81.514,81.514,0,0,1-10.984-5.756,6.274,6.274,0,0,1-2.008-2.669,6.992,6.992,0,0,1-.447-1.645,6.477,6.477,0,0,1-.025-1.687,5.3,5.3,0,0,1,.913-2.451A5.124,5.124,0,0,1,155,495.96a8.858,8.858,0,0,1-1.2-4.487,21.3,21.3,0,0,1,.709-4.524l0-.018c.094-.414.191-.843.287-1.288a25.788,25.788,0,0,1,2.87-7.681.265.265,0,0,1,.23-.132.219.219,0,0,1,.23.193,51.549,51.549,0,0,1-.205,7.442l0,.037q-.029.386-.058.772l-.022.3c-.044.617-.1,1.144-.155,1.609a9.2,9.2,0,0,0,.249,4.244c.55,2.043,2.721,3.92,6.637,5.736a91.1,91.1,0,0,0,11.09,3.942h0c2.4.739,4.471,1.377,6.008,2,4.892,1.512,9.9,2.878,14.9,4.058l.369.08c.724.159,1.466.335,2.183.506l.015,0a36.342,36.342,0,0,0,8.318,1.308,15.876,15.876,0,0,0,2.593-.2,6.641,6.641,0,0,1,1.821-.9c.652-.218,1.35-.378,2.025-.533a9.663,9.663,0,0,0,4.245-1.711,6.568,6.568,0,0,0,1.357-6.387,18.936,18.936,0,0,0-3.034-6.133,3.4,3.4,0,0,1-1.032.162,4.552,4.552,0,0,1-2.07-.564,15.83,15.83,0,0,1-1.875-1.19c-.37-.26-.72-.506-1.067-.72l-.064-.039a5.56,5.56,0,0,0-2.629-.719,5.579,5.579,0,0,1-2.629-.717l-.4.075c-1.251.238-2.439.481-3.488.7h-.007a32.909,32.909,0,0,1-3.435.62c-.081,0-.124-.011-.128-.033-.026-.149,1.684-.824,5.9-2.329-1.733-1.081-3.423-2.143-5.04-3.245a30.7,30.7,0,0,0-4.863,1.162h0a24.135,24.135,0,0,1-5.358,1.177c2.014-1.873,4.716-2.945,7.329-3.982L196,484.4a36.738,36.738,0,0,1-4.434-3.893l-1.286.32a47.788,47.788,0,0,1-6.853,1.44c-.213,0-.329-.035-.343-.1-.035-.162.471-.518,1.545-1.086,1.115-.589,2.842-1.408,5.281-2.5a13.9,13.9,0,0,1-2.181-3.777c-.329-.739-.668-1.5-1.071-2.209a8.266,8.266,0,0,0-1.481-1.947,27.629,27.629,0,0,0-10.111,4.494,17.1,17.1,0,0,0-2.853,2.766l-.028.032-.22.249a15.219,15.219,0,0,1-1.823,1.966,12.327,12.327,0,0,1-1.972,1.456,9.371,9.371,0,0,1-2.033.9,6.951,6.951,0,0,1-2.006.311,5.519,5.519,0,0,1-1.883-.322,5.361,5.361,0,0,1-1.683-.992,8.379,8.379,0,0,1-2.422-4.163.131.131,0,0,1,.026-.115.188.188,0,0,1,.142-.068.116.116,0,0,1,.109.062l.008.019a5.586,5.586,0,0,0,2.013,2.309,5.993,5.993,0,0,0,1.46.716,5.149,5.149,0,0,0,1.606.265,4.467,4.467,0,0,0,2.085-.508l.084-.045a8.575,8.575,0,0,0,2.185-1.673,25.3,25.3,0,0,0,1.759-2.092l0,0a20.4,20.4,0,0,1,2.2-2.517,22.068,22.068,0,0,1,2.3-1.8,27.054,27.054,0,0,1,2.521-1.522,38.713,38.713,0,0,1,5.462-2.353,37.184,37.184,0,0,1-.936-6.405c-.167-2.272-.232-4.763-.177-6.836-1.5.071-2.993.106-4.439.106-2.475,0-4.915-.1-7.252-.311a71.032,71.032,0,0,1-7.183-1,110.29,110.29,0,0,1,.606,14.188v0c0,3.241.008,6.3.192,8.9a1.569,1.569,0,0,1-.261,1.44,2.475,2.475,0,0,1-.926.738,2.73,2.73,0,0,1-1.149.273,1.622,1.622,0,0,1-.925-.257,1.266,1.266,0,0,1-.522-.833c-.113-3.338-.02-7.526.268-12.111.272-4.326.714-8.842,1.244-12.718l-.445-.108a4.953,4.953,0,0,1-1.223-.434,2.26,2.26,0,0,1-.252.014,1.789,1.789,0,0,1-.887-.226,2.21,2.21,0,0,1-.685-.628,5.863,5.863,0,0,1-.877-2.168,34.472,34.472,0,0,1-.569-5.918v0a23.03,23.03,0,0,0-.293-3.559c-.84-11.706-1.866-23.636-3.137-36.47-1.133-11.436-2.435-23.334-3.983-36.374-2.874-24.225-6.179-48.81-9.374-72.585v0c-1.825-13.577-3.712-27.616-5.5-41.431a1.917,1.917,0,0,1-1.084-1.165,8.019,8.019,0,0,1-.4-1.7l-.012-.072c-7.553,5.1-10.595,13.994-13.536,22.594-1.026,3-2,5.832-3.149,8.531-1.666,4.619-3.315,9.431-4.9,14.3-1.512,4.644-3.016,9.5-4.471,14.421-2.686,9.089-5.269,18.617-7.9,29.128-2.191,8.759-4.453,18.375-6.915,29.4-2.194,9.82-4.342,19.827-6.418,29.5l0,.023c-3.707,17.274-7.54,35.136-11.774,52.571l.076.02c.024.007.036.012.035.015s-.009,0-.025,0l-.068,0-.026,0v0a1.409,1.409,0,0,1,1.074.762,1.083,1.083,0,0,1-.075,1.067A3.515,3.515,0,0,1,72,454.439a6.631,6.631,0,0,1-2.58.429,25.168,25.168,0,0,1-2.78-.207c-.486-.055-.989-.111-1.442-.143.117,2.057,0,5.1-.131,8.319-.169,4.254-.344,8.652.028,11.09a3.258,3.258,0,0,1,3.006,1.83,11.6,11.6,0,0,1,1,3.484h0c.053.3.1.579.156.842l.036.233c.133.841.337,1.853.552,2.923.395,1.962.842,4.185,1.041,6.232a9.984,9.984,0,0,1-.456,5.139,4.808,4.808,0,0,1,.959,1.774,4.914,4.914,0,0,1,.154,1.876,6.778,6.778,0,0,1-.973,2.766,8.22,8.22,0,0,1-1.946,2.2,33.2,33.2,0,0,1-6.091,3.27c-.945.426-1.922.867-2.855,1.336-3.449,1.39-6.944,3.134-10.325,4.819l0,0h0a124.472,124.472,0,0,1-12.969,5.86,48,48,0,0,1-6.8,1.949c-1.183.241-2.366.425-3.517.548a34.172,34.172,0,0,1-3.608.194,32.7,32.7,0,0,1-3.838-.226,33.276,33.276,0,0,1-3.958-.717L13.9,520.1a76.2,76.2,0,0,1-7.508-1.841,16.456,16.456,0,0,1-2.621-1.08,7.83,7.83,0,0,1-1.908-1.377,5.775,5.775,0,0,1-1.227-1.818,7.944,7.944,0,0,1-.579-2.4,25.141,25.141,0,0,1,.657-7.133,9.733,9.733,0,0,1-.55-1.855,8.357,8.357,0,0,1-.143-1.872,6.879,6.879,0,0,1,1.089-3.516,14.942,14.942,0,0,1,2.982-2.8c1.12-.823,2.353-1.576,3.546-2.3h0c1.153-.7,2.344-1.431,3.425-2.217,2.4-1.612,4.91-3.16,7.334-4.656h0c3.243-2,6.6-4.073,9.732-6.315-.059-.051-.081-.1-.067-.133.022-.059.131-.086.229-.086a.49.49,0,0,1,.084.007,8.221,8.221,0,0,0,1.443-1.449,10.1,10.1,0,0,0,1.04-1.662,25.982,25.982,0,0,0,1.411-3.686,18.349,18.349,0,0,1,2.311-5.191,2.311,2.311,0,0,1,.741-1.019,4.276,4.276,0,0,1,1.241-.679,9.368,9.368,0,0,1,3.138-.5,10.27,10.27,0,0,1,1.208.069,11.651,11.651,0,0,1-.032-2.765c.085-1.136.251-2.445.481-3.785s.5-2.571.778-3.575a6.787,6.787,0,0,1,.86-2.135.4.4,0,0,1,.279-.179c.2,0,.367.313.5.932a20.278,20.278,0,0,1,.3,3.128v.165c0,.364.015.905.031,1.532.032,1.266.072,2.841.052,4.257a10.345,10.345,0,0,1-.308,3.1,13.008,13.008,0,0,1,2.421,1.007,11.786,11.786,0,0,1,1.983,1.358,13.3,13.3,0,0,1,2.89,3.515,23.083,23.083,0,0,1,1.848,4.159c.495,1.439.893,2.893,1.277,4.3l0,.018c.074.272.151.554.227.826l.1.028.182.045h.006c.484.117,1.034.25,1.258.689a6.693,6.693,0,0,0,1.559-1.411,19.8,19.8,0,0,0,1.219-1.7h0a10.483,10.483,0,0,1,2.606-3.006,1.484,1.484,0,0,1-.545-1.023,2.34,2.34,0,0,1,.192-1.206,70.057,70.057,0,0,0,1.237-7.338c.282-2.049.575-4.167.917-6.113a30.258,30.258,0,0,1,1.207-4.983c-2.1-.314-4.243-.59-6.318-.857l-.016,0h0c-2.752-.354-5.6-.72-8.377-1.18a78.673,78.673,0,0,1-8.259-1.772,1.9,1.9,0,0,1-1.322.524,1.626,1.626,0,0,1-1.178-.466,1.535,1.535,0,0,1-.392-1.165c.568-9.189,1.255-18.652,2.043-28.127.761-9.154,1.639-18.6,2.61-28.08.934-9.12,1.983-18.55,3.118-28.029,1.087-9.08,2.287-18.492,3.567-27.975,1.091-9.2,2.506-19.234,4.326-30.672,1.623-10.2,3.41-20.541,5.139-30.545v0c2.421-14.011,4.924-28.5,7.012-42.791l.043-4.762c.038-3.989.091-7.345.222-10.757.154-3.978.4-7.484.757-10.718a93.524,93.524,0,0,1,1.735-10.562c.4-1.775.864-3.519,1.372-5.185.531-1.743,1.131-3.46,1.782-5.1-.513-.224-.97-.433-1.4-.639a3.057,3.057,0,0,1-1.143.266,1.389,1.389,0,0,1-1.133-.529,3.742,3.742,0,0,1-.622-2.038,16.314,16.314,0,0,1,.111-3.014c.251-2.2.781-4.624,1.206-6.571h0c.29-1.327.519-2.375.564-2.92.832-4.446,1.719-8.953,2.577-13.311v0c2.091-10.626,4.254-21.614,5.771-32.478a19.213,19.213,0,0,1-3.215-1.492,15.08,15.08,0,0,1-2.829-2.137c-1.26-1.024-2.509-2.975-3.712-5.8a70.3,70.3,0,0,1-3.235-10.111A225.972,225.972,0,0,1,60.46,77.679c-1.155-9.839-1.9-20.047-2.1-28.746-.1-4.351-.063-8.175.113-11.365a38.762,38.762,0,0,1,.976-7.555,15.7,15.7,0,0,1,2.591-5.741A18.912,18.912,0,0,1,66.4,20a27.923,27.923,0,0,1,5.5-3.011,40.848,40.848,0,0,1,5.989-1.945l1.186-.334c3.971-1.115,8.689-2.392,13.575-3.413A95.372,95.372,0,0,1,106.5,9.345a1.075,1.075,0,0,1,.7-.191c.363,0,.675.1.742.228a5.563,5.563,0,0,1,1.609,1.763c7.986-.916,9.724-4.488,11.121-7.358a11.894,11.894,0,0,1,1.392-2.392A3.94,3.94,0,0,1,124.332,0h.048a1.159,1.159,0,0,1,.713.221,1.124,1.124,0,0,1,.385.544,1.436,1.436,0,0,1,.017.837,1.362,1.362,0,0,1-.486.727l-.038.028a4.318,4.318,0,0,0-1.564,1.921A11.624,11.624,0,0,1,121.6,7.444,11.85,11.85,0,0,1,118.98,9.85a12.076,12.076,0,0,1-3.194,1.529,11.986,11.986,0,0,1-3.54.536,11.923,11.923,0,0,1-2.373-.239c.961,1.788,1.779,3.574,2.57,5.3v0c.828,1.807,1.685,3.676,2.7,5.525a28.2,28.2,0,0,0,4.584,6.7,30.477,30.477,0,0,0,6.11,5.117,29.308,29.308,0,0,0,6.982,3.265,24.179,24.179,0,0,0,7.2,1.147,18.56,18.56,0,0,0,6.068-.976,15.621,15.621,0,0,0,5.265-3.052,17.134,17.134,0,0,0,4-5.315,25.445,25.445,0,0,0,2.276-7.765,4.787,4.787,0,0,1-1.854-.822,7.892,7.892,0,0,1-1.618-1.578,14.846,14.846,0,0,1-2.342-4.615,16.923,16.923,0,0,1-.834-5.687,6.528,6.528,0,0,1,1.448-4.282l.095.445c.1.467.193.935.286,1.388v0a44.734,44.734,0,0,0,1.628,6.383,16.974,16.974,0,0,0,1.38,2.938,13.309,13.309,0,0,0,2.059,2.639,1.125,1.125,0,0,0,.322.042c.155-.731.318-1.368.5-1.947a1.419,1.419,0,0,1,.565-.77,1.522,1.522,0,0,1,.849-.25,1.493,1.493,0,0,1,1.077.435,1.333,1.333,0,0,1,.358,1.006c3,.913,6.232,2.069,9.878,3.535,3.247,1.306,6.507,2.727,9.659,4.1l.006,0,1.7.739a26.465,26.465,0,0,1,7.769,5.173,26.016,26.016,0,0,1,3.061,3.52,25.612,25.612,0,0,1,2.389,4.044c1.827,3.774,3.628,7.766,5.352,11.863,1.617,3.843,3.225,7.92,4.78,12.116,2.747,7.416,5.441,15.5,8.236,24.7a22.187,22.187,0,0,0,.747,2.645c.868,2.729,2.058,6.466,1.191,8.04a1.362,1.362,0,0,1-.874.686,29.044,29.044,0,0,1,.087,5.147,34.557,34.557,0,0,1-.756,5.1,45.925,45.925,0,0,1-3.435,9.719c-.309.524-.592,1.083-.892,1.674h0a18.74,18.74,0,0,1-1.671,2.869,6.482,6.482,0,0,1-1.1,1.156,4.72,4.72,0,0,1-1.408.789,9.843,9.843,0,0,1-2.528,2.213,14.156,14.156,0,0,1-3.11,1.406,27.164,27.164,0,0,1-6.754,1.13c.73,1.714,1.488,3.749,2.255,6.049.774,2.322,1.538,4.858,2.271,7.539,1.561,5.711,2.9,11.781,3.869,17.555.526,3.131.943,6.166,1.238,9.02.315,3.045.494,5.911.533,8.518.086,5.783-.509,10.338-1.769,13.539a1.321,1.321,0,0,1-.464,1.245,5.343,5.343,0,0,1-1.584.975,27.347,27.347,0,0,1-4.127,1.274h-.006c-.478.119-.892.223-1.171.309a74.88,74.88,0,0,1,.948,12.04c.024,4.431-.244,8.785-.481,12.082-.676,8.576-1.284,17.19-1.808,25.6-.534,8.583-1,17.205-1.372,25.628-.384,8.587-.689,17.216-.909,25.646-.224,8.588-.365,17.22-.419,25.655-.055,8.585-.022,17.217.1,25.656.122,8.583.339,17.212.643,25.648.309,8.576.718,17.2,1.214,25.632.5,8.565,1.115,17.181,1.813,25.607.32,4.088.68,8.38,1.071,12.758l.23,2.549a91.425,91.425,0,0,1,.479,10.2,1.893,1.893,0,0,1-.638,1.4,2.279,2.279,0,0,1-1.359.559,13.314,13.314,0,0,1-4.4,1.691,45.034,45.034,0,0,1-4.821.676h0c-.82.085-1.594.165-2.362.267.223,1.218.413,2.646.613,4.159v.01c.2,1.518.409,3.088.666,4.541a21.665,21.665,0,0,0,.96,3.829,3.321,3.321,0,0,1,.837-.111,2.4,2.4,0,0,1,1.3.351,1.459,1.459,0,0,1,.654.856,1.246,1.246,0,0,1-.158.949,2.538,2.538,0,0,1-1.036.9,10.754,10.754,0,0,1,2.469,1.936c.727.743,1.393,1.573,2.036,2.375v0a26.128,26.128,0,0,0,2.494,2.819,10.859,10.859,0,0,1,3.883-.915,3.083,3.083,0,0,1,1.443.291.914.914,0,0,1,.535.713.976.976,0,0,1-.172.605,2.236,2.236,0,0,1-.619.613,6.559,6.559,0,0,1-2.617.943,54.051,54.051,0,0,0,4.668,3.448l.115-.016c.427-.065.942-.194,1.487-.332l.007,0a12.971,12.971,0,0,1,2.945-.512,1.928,1.928,0,0,1,2,1.069,1.245,1.245,0,0,1-.139,1.055c-.371.557-1.276.936-2.689,1.128,1.215.765,2.409,1.509,3.627,2.268.371-.163.747-.343,1.11-.517a20.075,20.075,0,0,1,2.079-.9,2.7,2.7,0,0,1,.583-.068,1.527,1.527,0,0,1,1.046.356,1.158,1.158,0,0,1,.38.836,1.6,1.6,0,0,1-.607,1.237,3.3,3.3,0,0,1-1.983.686,7.418,7.418,0,0,0,3.1,1.126c1.377.275,2.678.535,3.464,1.815a9.6,9.6,0,0,1,3.3,2.228,11.3,11.3,0,0,1,2.205,3.275,12.5,12.5,0,0,1,1.03,3.818,11.376,11.376,0,0,1-.231,3.857,9.834,9.834,0,0,1,2.206,2.872,8.944,8.944,0,0,1,.976,3.473,4.617,4.617,0,0,1-1.063,3.523,6.273,6.273,0,0,1-3.392,2.111c-2.816.935-5.895,1.872-9.412,2.863l-.33.113a36.329,36.329,0,0,1-3.674,1.071A16.97,16.97,0,0,1,205.168,521.861Zm-49.834-25.35a5.83,5.83,0,0,0-.246,4.619,6.529,6.529,0,0,0,1.838,2.5,11.5,11.5,0,0,0,3.046,1.851c3.645,1.686,7.273,3.225,10.784,4.573,3.813,1.464,7.608,2.749,11.281,3.82a119.481,119.481,0,0,0,11.665,2.793,99.814,99.814,0,0,0,11.934,1.489c2.455-.592,4.944-1.394,7.35-2.168h0c2.4-.772,4.877-1.57,7.348-2.172l.214-.038a4.115,4.115,0,0,0,1.919-.667,1.949,1.949,0,0,0,.5-1.784l.064-.732a24.971,24.971,0,0,0,.116-3.9,7.682,7.682,0,0,1-1.658,2.43,11.468,11.468,0,0,1-2.461,1.85,17.049,17.049,0,0,1-2.925,1.3,21.3,21.3,0,0,1-3.052.795,13.89,13.89,0,0,1-6.074,1.281,39.291,39.291,0,0,1-9.624-1.655h0c-1.386-.358-2.694-.7-3.992-.963-1.814-.551-4.051-1.17-6.418-1.825h0c-5.435-1.5-12.2-3.377-18.106-5.593-1.536-.576-2.968-1.159-4.255-1.732-1.4-.621-2.67-1.252-3.787-1.875a26.61,26.61,0,0,1-3.14-2.023A13.664,13.664,0,0,1,155.334,496.512ZM1.788,506.456h0c.236,1.146.358,2.137.465,3.011.213,1.737.367,2.992,1.252,3.944a5.237,5.237,0,0,0,1.974,1.234,20.367,20.367,0,0,0,3.666.95,44.8,44.8,0,0,0,6.477,1.6,37.311,37.311,0,0,0,6.1.514c6.555,0,12.975-1.8,20.2-5.676,3.125-1.517,6.4-2.926,9.562-4.289h0c4.506-1.941,9.165-3.948,13.467-6.292l.1-.07a7.682,7.682,0,0,0,2.026-2.071A3.543,3.543,0,0,0,67.589,498a2.5,2.5,0,0,0-.186-1.4l-.21.064-.451.141-.014,0a12.662,12.662,0,0,1-3.769.774,6.008,6.008,0,0,1-1.467-.176c-7.863,2.66-16.11,5.807-26.739,10.2-1.477.706-2.925,1.347-4.305,1.907-1.642.666-3.249,1.242-4.778,1.712a42.347,42.347,0,0,1-5.036,1.234,29.341,29.341,0,0,1-5.08.475,21.177,21.177,0,0,1-3.849-.338,16.787,16.787,0,0,1-3.645-1.1,15.133,15.133,0,0,1-3.34-2A16.458,16.458,0,0,1,1.788,506.456Zm13.242,2.808h.249a24.812,24.812,0,0,0,4.264-.376,32.494,32.494,0,0,0,4.065-.989,81.129,81.129,0,0,0,7.765-2.988c1.912-.812,3.889-1.652,5.856-2.349a76.952,76.952,0,0,0,7.367-2.9l0,0c3.089-1.307,6.591-2.788,9.746-3.952,3.656-1.349,6.128-2,7.56-2a1.542,1.542,0,0,1,1.32.444,11.149,11.149,0,0,1,1.291-.485h0a5.318,5.318,0,0,0,2.3-1.179,55.084,55.084,0,0,0-1.241-11.605h0c-.067-.375-.15-.842-.228-1.284-.056-.275-.14-.565-.229-.872h0a7.157,7.157,0,0,1-.327-1.522,5.8,5.8,0,0,0-1.8,1.11,18.136,18.136,0,0,0-1.5,1.532l0,0a13,13,0,0,1-2.093,2,5.045,5.045,0,0,1-1.276.657,4.756,4.756,0,0,1-1.553.249c-.17,0-.346-.008-.522-.024a1.552,1.552,0,0,1-1.376.629,3.885,3.885,0,0,1-2.413-.916,5.038,5.038,0,0,1-1.336-3.026c-.028-.146-.06-.312-.093-.47l-.116-.55c-.213-1-.479-2.172-.839-3.315a16.257,16.257,0,0,0-1.363-3.2,9.362,9.362,0,0,0-1.827-2.338,11.768,11.768,0,0,0-2.5-1.786,13.114,13.114,0,0,0-2.919-1.14,12.3,12.3,0,0,0-3.076-.4,9.934,9.934,0,0,0-3.195.5,32.246,32.246,0,0,0-.119,3.969,28.5,28.5,0,0,1-.187,4.5,10.518,10.518,0,0,1-.538,2.136,8.146,8.146,0,0,1-1.071,1.993c2.536.444,5.017.952,7.109,1.39l2.164.457a5.541,5.541,0,0,1,1.583.542,1.487,1.487,0,0,1,.528.5,1.045,1.045,0,0,1,.125.716.918.918,0,0,1-.42.676,1.528,1.528,0,0,1-.8.184,6.508,6.508,0,0,1-1.7-.31l-.422-.123c-3.414-1-6.272-1.87-9.119-2.838a18.113,18.113,0,0,1-2.716,2.378c-1.005.736-2.105,1.439-3.075,2.06h0l.858.1.66.074.236.026h0c2.675.3,5.44.6,8.116,1.151a1.181,1.181,0,0,1,.683.491,1.032,1.032,0,0,1,.149.7.964.964,0,0,1-.3.578,1.009,1.009,0,0,1-.691.248,1.451,1.451,0,0,1-.148-.008c-.842-.219-1.685-.446-2.5-.665h0c-2.67-.717-5.431-1.458-8.191-1.965-.636.419-1.281.847-1.905,1.26l-.048.032-.075.05c-1.066.706-2.169,1.436-3.258,2.15,2.244.324,4.53.46,6.74.591h.009c1.212.072,2.465.147,3.7.252a1.724,1.724,0,0,1,1.685,1.766,1.392,1.392,0,0,1-.4.933,1.525,1.525,0,0,1-1.1.408h0c-.058,0-.12,0-.182-.007a51.009,51.009,0,0,1-11.982-2.932l-2.037,1.337c-2.148,1.409-4.65,3.045-7.167,4.636-.34.216-.693.424-1.068.644a11.055,11.055,0,0,0-3.263,2.485,4.539,4.539,0,0,0-.732,2.421,4.665,4.665,0,0,0,.633,2.271,10.14,10.14,0,0,0,4.339,3.793,13.449,13.449,0,0,0,5.811,1.508ZM73.278,184.339a.456.456,0,0,1,.35.182c25.36,7.872,50.467,11.864,74.624,11.864h0c4.546,0,9.117-.144,13.584-.429,4.544-.29,9.105-.732,13.558-1.316,5.622-.7,11.453-1.691,17.826-3.028a.406.406,0,0,1,.1-.322.5.5,0,0,1,.368-.154.424.424,0,0,1,.425.309l.835-.147h0c1.013-.18,2.06-.366,3.085-.5a1.959,1.959,0,0,1-.023-1.352A28.7,28.7,0,0,0,199.237,184a42.7,42.7,0,0,0,.33-5.649,113.066,113.066,0,0,0-.8-11.358v0c-.058-.561-.119-1.141-.177-1.711-.347-4.115-.906-8.588-1.708-13.676-.715-4.538-1.553-9.132-2.363-13.574l0-.026c-.517-2.837-1.052-5.77-1.55-8.658-3.8-.172-7.66-.525-11.391-.867h0c-5.265-.482-10.71-.98-16.1-.98-.579,0-1.156.006-1.715.017A5.633,5.633,0,0,1,162.9,129a6.74,6.74,0,0,1-1.295,1.236,5.712,5.712,0,0,1-3.3,1.163,4.106,4.106,0,0,1-1.979-.5,4.908,4.908,0,0,1-1.879-1.888,15.943,15.943,0,0,1-1.115-2.482c-.122-.319-.249-.65-.378-.963-1.585-3.834-3.216-7.685-4.793-11.409l0,0-.541.137a59.617,59.617,0,0,1-14.5,2.079c-.822,0-1.639-.026-2.429-.078a30.669,30.669,0,0,0-.6,4.007,36.288,36.288,0,0,1-1.013,6.066c-.629,2.116-1.557,3.364-2.835,3.815a3.534,3.534,0,0,1-1.23.211,3.788,3.788,0,0,1-1.66-.373,2.368,2.368,0,0,1-1.14-1.127c-5.824-.1-11.769-.507-17.518-.9-2.374-.161-4.829-.328-7.239-.471-1.314-.1-2.663-.185-3.967-.264h-.01c-2.431-.147-4.946-.3-7.4-.6a40.074,40.074,0,0,1-7.221-1.482,38.732,38.732,0,0,1,.706,5.427,33,33,0,0,1-.139,5.488c-.32,3.642-.841,7.6-1.593,12.11-.67,4.017-1.457,8.085-2.219,12.02v0c-.725,3.745-1.474,7.618-2.121,11.437-.725,4.281-1.24,8.04-1.576,11.492l-.071.752-.044-.026c0,.03,0,.059,0,.089.4.116.827.244,1.34.4A.307.307,0,0,1,73.278,184.339ZM106.9,9.707h0c-4.291,1.265-8.7,2.4-12.96,3.492-5.9,1.514-11.993,3.08-17.875,5.022A24.883,24.883,0,0,0,70.294,20.4a17.517,17.517,0,0,0-4.515,3.418,16.173,16.173,0,0,0-4.238,10.767c-.168,4.662-.175,9.526-.021,14.459.145,4.642.438,9.5.871,14.451.774,8.851,2.006,18.239,3.766,28.7l.167.857c.181.933.363,1.884.539,2.8l0,.021c.776,4.055,1.578,8.248,2.547,12.33.522,2.2,1.049,4.187,1.609,6.076.63,2.123,1.287,4.069,2.009,5.949a31.214,31.214,0,0,0,7.717,2.339,62.835,62.835,0,0,0,8.062.836c7.525.382,15.529.8,23.394,1.312l6.111.4c.358.023.739.029,1.142.036,1.577.025,3.365.053,4.428,1.152a.493.493,0,0,0,.313.194.882.882,0,0,1,.228.1l.036.026a1.409,1.409,0,0,1,.17.147.681.681,0,0,0,.43.251.33.33,0,0,0,.071-.008c.415-.129.6-.9.708-1.356l.03-.126.01-.039c.344-1.344.638-2.728.923-4.066v-.005c.205-.967.418-1.967.648-2.944.43-1.579.782-3.217,1.123-4.8v0a47.933,47.933,0,0,1,2.563-9.014,38.035,38.035,0,0,1-7.474-6.059l-2.647-.93a146.841,146.841,0,0,0-19.339-5.7,1.728,1.728,0,0,1-.613,1.122,1.807,1.807,0,0,1-1.148.444,1.371,1.371,0,0,1-1.253-.806,46.043,46.043,0,0,1-1.582-7.389h0c-.24-1.526-.489-3.1-.828-4.624-.551-3.246-1.14-6.544-1.71-9.733v-.007c-1.511-8.456-3.073-17.2-4.083-25.875a111.532,111.532,0,0,1,3.247,10.931c.951,3.806,1.815,7.787,2.651,11.637v.008c.9,4.142,1.829,8.424,2.857,12.435a.269.269,0,0,1,.134-.037.185.185,0,0,1,.2.191,44.17,44.17,0,0,1,32.155.4c1.105.443,2.237.873,3.332,1.289l.019.007c1.438.547,2.926,1.112,4.376,1.714a4.941,4.941,0,0,0,1.083.38c.8.217,1.624.442,1.819,1.156a4.88,4.88,0,0,1,1.295-1.873,2.7,2.7,0,0,1,1.712-.61c.362,0,.584.111.641.321a122.191,122.191,0,0,1,12.779,2.7h0c3.148.784,6.4,1.594,9.629,2.192,1.737.322,3.327.559,4.861.723a45.706,45.706,0,0,0,4.912.274c.929,0,1.855-.032,2.752-.1-1.215-4.425-1.265-9.176-1.315-13.771-.008-.718-.016-1.531-.03-2.3l.029-.6c.016-.332.031-.661.046-1.009l0-.081c.112-2.465.238-5.26.542-7.873a27.128,27.128,0,0,1,1.618-7.115A109.328,109.328,0,0,0,181.4,72.4c.214,4.867.688,10.029,1.491,16.246a17.556,17.556,0,0,1,2.2-.16,6.024,6.024,0,0,1,1.838.228,1.252,1.252,0,0,1,.8.582.982.982,0,0,1-.286,1.049,5.085,5.085,0,0,1-2.037,1.278,9.369,9.369,0,0,1-3.275.581c-.1,0-.207,0-.309,0-.816.059-1.652.088-2.485.088a39.471,39.471,0,0,1-6.211-.507,55.129,55.129,0,0,1-6.074-1.336c-4.01-1.1-8-2.593-11.867-4.032h0c-1.851-.69-3.765-1.4-5.645-2.06a10.688,10.688,0,0,0-3.67-.94,2.121,2.121,0,0,0-1.622.594c-.843.882-.935,2.724-.808,5.409.005,6.632,2.842,12.728,5.585,18.623l.027.058c.16.344.326.7.487,1.049l1.3,2.92c2.032,4.564,4.213,9.493,6.4,14.6a33.265,33.265,0,0,1,6.288-1.394,50.87,50.87,0,0,1,6.5-.379c3.625,0,7.315.29,10.884.571,1.767.139,3.593.282,5.357.385a46,46,0,0,0,5.743.417,25.026,25.026,0,0,0,3.307-.206,20.135,20.135,0,0,0,3.178-.678,22.97,22.97,0,0,0,6.38-3.136c.6-1.151,1.271-2.306,1.916-3.423.865-1.5,1.76-3.045,2.526-4.624a24.3,24.3,0,0,0,1.831-4.944,44.885,44.885,0,0,0,1.427-6.671c.327-2.279.537-4.6.723-6.79l-.348-1.266c-2.621-9.512-4.92-17.21-7.237-24.226-2.876-8.709-5.805-16.444-8.956-23.647l-.366-.852-.024-.057-.142-.333c-2.247-5.251-4.57-10.681-9.1-14.342a50.26,50.26,0,0,0-6.854-4.171c-2.382-1.227-4.875-2.348-7.285-3.431h0a95.685,95.685,0,0,1-11.468-5.789l-.052.374a50.522,50.522,0,0,1-1.914,8.752,29,29,0,0,1-1.7,4.128,22.359,22.359,0,0,1-2.409,3.766,17.932,17.932,0,0,1-3.265,3.1,18.839,18.839,0,0,1-3.823,2.166,20.982,20.982,0,0,1-4.207,1.269,23.471,23.471,0,0,1-4.419.414,25.337,25.337,0,0,1-13.22-3.732,32.544,32.544,0,0,1-11.2-10.45,43.182,43.182,0,0,1-3.718-6.768,51.806,51.806,0,0,1-2.57-7.3l-.032-.109-.038-.133h0a14.435,14.435,0,0,0-.724-2.09c-.415-.9-.86-1.356-1.321-1.368ZM132,105.186a47.764,47.764,0,0,1-.709,7.013v0c-.112.74-.228,1.505-.33,2.258,1.489-.293,3-.563,4.461-.824h.007c3.241-.579,6.593-1.178,9.853-2.06-2.367-.893-4.652-1.863-6.79-2.885A72.844,72.844,0,0,1,132,105.186ZM101.766,91.024A86.33,86.33,0,0,1,113.907,93.1a63.83,63.83,0,0,1,7.324,2.08c2.242.823,3.554,1.6,3.9,2.315a.81.81,0,0,1-.116.916c1.844.984,3.664,2.076,5.424,3.133,1.561.937,3.174,1.9,4.8,2.795a75,75,0,0,0,10.834,4.872l-.2-.438a58.64,58.64,0,0,1-4.005-11.284c-.217-1-.381-1.987-.489-2.932a24.407,24.407,0,0,1-.16-2.95,21.029,21.029,0,0,1,.23-2.955,19.416,19.416,0,0,1,.682-2.946,5.177,5.177,0,0,1-1.931.347,10.628,10.628,0,0,1-3.262-.612c-1.109-.362-2.211-.834-3.277-1.289h0c-.939-.4-1.825-.781-2.633-1.049-1.773-.71-3.528-1.322-5.217-1.82a47.472,47.472,0,0,0-5.38-1.258,40.822,40.822,0,0,0-7.9-.717,63.384,63.384,0,0,0-6.638.376c-1.9.2-3.989.483-6.569.894.326,1.513.678,3.046,1.019,4.528v.006c.445,1.935.9,3.937,1.311,5.916ZM84.311,68.745c-.471,0-1.276-.689-2.459-2.107-1.012-1.213-2.139-2.768-3.045-4.017a20.121,20.121,0,0,0-1.92-2.469c-1.078-1.384-2.293-2.7-3.468-3.968h0c-1.161-1.254-2.361-2.551-3.425-3.914,0-.183.087-.276.248-.276A4.235,4.235,0,0,1,72,52.972c.726.546,1.5,1.209,2.014,1.647.279.238.48.411.575.48l.319.288A62.794,62.794,0,0,1,80.5,61a27.524,27.524,0,0,1,4.3,6.6,1.492,1.492,0,0,1-.212,1.033A.363.363,0,0,1,84.311,68.745Zm97.545-5.288a.1.1,0,0,1-.1-.053c-.081-.18.312-.813.934-1.5.677-.753,1.616-1.557,2.222-1.557a.573.573,0,0,1,.13.014.463.463,0,0,1,.066,0,.558.558,0,0,1,.518.424.354.354,0,0,1-.232.415l-.256.112-.307.132a11.46,11.46,0,0,0-1.582.773,3.885,3.885,0,0,0-1.267,1.225A.42.42,0,0,1,181.856,63.457Z" transform="translate(21.416 1.271)"/>
    </g>
    <g id="Head" transform="translate(85.666 38.091)">
      <g id="HEAD-2" data-name="HEAD">
        <path id="_Skin-2" data-name="âœ‹ Skin" d="M76.281,44.244c-.5-6.506.276-13.325-2.232-19.509C69.676,14.475,57.412,11.054,47.905,7.148,44.1,6.022,31.28,5.865,26.821,4.375,16.728,1,14.316-3.013,6.3,3.406A8.719,8.719,0,0,0,3.477,7.323L3.5,7.33A2.171,2.171,0,0,0,3.913,9.2,13.086,13.086,0,0,0,.765,22.819c5.823,12.314,5.549,18.972,3.673,32.21-2.45,12.358,3.148,16.873,12.42,23.6a2.278,2.278,0,0,0,.036,2.351C27.614,96.044,47.829,103.237,65.149,95.59c7.03-3.129,10.169-10.617,11.96-17.373a48.345,48.345,0,0,0,1.029-23.243A96.255,96.255,0,0,1,76.281,44.244Z" transform="translate(7.829 7.339)" fill="#d08b5b"/>
        <path id="bandana" d="M0,25.788l6.375,4.247L29.193,5.977,21.6,0S7.823,10.183,5.115,12.87,0,25.788,0,25.788Z" transform="translate(7.322 7.339)" fill="#9fd8e5"/>
        <path id="_Ink-2" data-name="ðŸ– Ink" d="M81.371,127.964a32.013,32.013,0,0,1-7.638-.957,39.212,39.212,0,0,1-5.189-1.685,3.1,3.1,0,0,1-1.327-.908,1.221,1.221,0,0,1-.275-.966,1.127,1.127,0,0,1,1.189-.848,2.008,2.008,0,0,1,.635.11A38.451,38.451,0,0,0,80.4,124.848a20.849,20.849,0,0,0,2.689-.167c7.4-.968,12.471-3.461,15.955-7.846,4.44-5.587,6.355-14.3,5.856-26.632-.071-1.749-.212-3.527-.348-5.247-.159-2-.323-4.067-.377-6.1-.039-1.484-.057-2.992-.074-4.45-.026-2.177-.053-4.428-.15-6.641L103.9,66.5c-.064-1.488-.131-2.946-.242-4.428-.041-.174-.08-.352-.118-.524-.086-.393-.175-.8-.289-1.188a25.535,25.535,0,0,0-1.737-4.425,1.227,1.227,0,0,1-.529.241,8.527,8.527,0,0,1-1.519.143,6.465,6.465,0,0,1-2.683-.564,6.607,6.607,0,0,1-1.727-1.119,2.635,2.635,0,0,1-.548-.65h-.05a2.185,2.185,0,0,1-1.69-.665,1.806,1.806,0,0,1-.43-.82,1.477,1.477,0,0,1,.064-.8l.019-.052-.047-.017a8.143,8.143,0,0,1-2.893,3.576A9.236,9.236,0,0,1,86.3,56.606a15.8,15.8,0,0,1-3.474.4l-.347,0a48.125,48.125,0,0,1-7.427-.76c-.8-.127-1.411-.247-1.978-.389l-.03.031c-.016.017-.032.034-.049.049a7.379,7.379,0,0,1-2.345,1.525,7.071,7.071,0,0,1-2.659.516,7.426,7.426,0,0,1-2.951-.619,10.466,10.466,0,0,1-2.2-1.306,15.25,15.25,0,0,1-1.893-1.739c-.018.706-.054,1.352-.108,1.974l-.024.26a5.168,5.168,0,0,1-1.263,3.389,3.109,3.109,0,0,1-2.227.861,5.331,5.331,0,0,1-1.6-.271,8.951,8.951,0,0,1-1.537-.664c0,.044,0,.092,0,.138.428,1.453.865,2.933,1.287,4.364l.009.03.1.333.1.336.1.341v0a15.1,15.1,0,0,1,.707,3.067,3.975,3.975,0,0,1-.912,3,2.538,2.538,0,0,1-1.913.848,3.322,3.322,0,0,1-.958-.15,7.964,7.964,0,0,1-2.865-1.932l0,0c-.167-.151-.325-.295-.486-.435l-.632-.547A60.029,60.029,0,0,1,51.6,85.725a.549.549,0,0,1-.542.542c-.058,0-.117,0-.175,0a5.21,5.21,0,0,1-1.9-.378,1.093,1.093,0,0,1-.116-.011,7.834,7.834,0,0,1-3.174-1.2,5.893,5.893,0,0,1,.258,2.211.2.2,0,0,1-.2.175.149.149,0,0,1-.152-.128A5.2,5.2,0,0,0,43.579,83.9a6.227,6.227,0,0,0-1.671-.908,5.452,5.452,0,0,0-1.84-.331,4.653,4.653,0,0,0-.866.08,7.239,7.239,0,0,0-5.574,5.9,10.457,10.457,0,0,0,.3,4.739,11.451,11.451,0,0,0,2.214,4.215A6.124,6.124,0,0,0,39.7,99.817a4.676,4.676,0,0,0,.727.057,4.446,4.446,0,0,0,1.247-.176,6.618,6.618,0,0,0,.646-.242l.136-.056a3.617,3.617,0,0,1,.567-.159,3.138,3.138,0,0,0,.605-.177,1.033,1.033,0,0,1,.425-.094.873.873,0,0,1,.783,1.3,3.478,3.478,0,0,1-1.265,1.581,11.107,11.107,0,0,1,.837,1.242c.1.169.183.3.235.373a37.4,37.4,0,0,0,2.59,3.17,27.021,27.021,0,0,0,3.089,2.838l.462.365a10.88,10.88,0,0,1,2.725,2.82,1.414,1.414,0,0,1,.01,1.45,1.467,1.467,0,0,1-1.267.774h-.019a6.136,6.136,0,0,1-2.414-.543A8.642,8.642,0,0,1,47.741,113a19.3,19.3,0,0,1-3.247-3.838c-.247-.368-.487-.768-.715-1.189a2.541,2.541,0,0,1-.269.36l.2.529a1.185,1.185,0,0,1-.129,1.136,1.572,1.572,0,0,1-.595.5,1.739,1.739,0,0,1-.77.185,1.361,1.361,0,0,1-.666-.166,1.234,1.234,0,0,1-.5-.536,22.189,22.189,0,0,0-1.832-3,1.558,1.558,0,0,1-1.02-.62c-.18-.261-.371-.528-.556-.786-.391-.547-.8-1.113-1.152-1.694-.275-.261-.569-.524-.9-.8l-.045.04,0,0c-.073.064-.147.129-.219.2a11.22,11.22,0,0,1-1.452,2.436l-.127.161a12.364,12.364,0,0,1-1.954,2.02,5.751,5.751,0,0,1-2.473,1.213.619.619,0,0,1-.115.011.709.709,0,0,1-.641-.442.522.522,0,0,1,.157-.6A20.179,20.179,0,0,1,30.4,106.8a14.636,14.636,0,0,0,2.275-1.894,14.25,14.25,0,0,0,1.57-2.053l.1-.169c.069-.114.144-.233.235-.377-.532-.363-1.072-.732-1.593-1.09a13.66,13.66,0,0,1-2.936,1.755,20.518,20.518,0,0,0-2.047,1.1l-.161.105a1.363,1.363,0,0,1-.764.247,1.536,1.536,0,0,1-1.352-.994,1.449,1.449,0,0,1,.285-1.625,31.967,31.967,0,0,0,2.612-3.137h0c.295-.386.6-.785.9-1.17a8.442,8.442,0,0,1-.889-3.349c-.038-.343-.069-.695-.1-1.005v0h-.054a4.082,4.082,0,0,1-2.291-.754l-.264-.188a8,8,0,0,1-2.4.381l-.194,0a2.241,2.241,0,0,1-1.231-.389,2.152,2.152,0,0,1-.744-.908,2.321,2.321,0,0,1-.17-1.261,2.42,2.42,0,0,1,.573-1.243,4.438,4.438,0,0,1,3.388-1.453,5.125,5.125,0,0,1,1.908.368c.056-.029.116-.061.173-.093a2.051,2.051,0,0,1,.03-1.053l-.028-.189a4.891,4.891,0,0,1-.744-2.006,4.633,4.633,0,0,1,.071-1.7,2.89,2.89,0,0,1,.132-.386c.025-.063.05-.128.074-.193a3.743,3.743,0,0,1-.255-1.12c-.037-.044-.08-.1-.119-.151a3.028,3.028,0,0,1-.577-1.953,3.075,3.075,0,0,1,.713-1.776c0-.066.01-.131.018-.191-.048-.108-.094-.221-.135-.335a3.776,3.776,0,0,1-1.308-3.053,3.179,3.179,0,0,1,.815-1.865,1.058,1.058,0,0,1,.009-.74,8.845,8.845,0,0,1-.519-3.1,13.814,13.814,0,0,1,.409-3.265,2.881,2.881,0,0,1-.161-1.054A3.234,3.234,0,0,1,26.6,61.36a2.941,2.941,0,0,1,2.1-.923h.032a2.769,2.769,0,0,1,.556.065l0-.038a4.272,4.272,0,0,1,.385-1.313A.833.833,0,0,1,29.417,59a14.53,14.53,0,0,1-3.307,1.273,1,1,0,0,1-.243.03,1.163,1.163,0,0,1-.993-.608.927.927,0,0,1,.042-.976,7.132,7.132,0,0,1,.809-1.008,10.385,10.385,0,0,0-1.263.085,1.485,1.485,0,0,1-.191.012,2.067,2.067,0,0,1-1.06-.328,2.942,2.942,0,0,1-.867-.814c-.618.6-1.246,1.208-1.853,1.794l0,0a2.376,2.376,0,0,1-1.672.707,2.485,2.485,0,0,1-1.649-.646,2.665,2.665,0,0,1-.869-1.665,3.53,3.53,0,0,1-1.286-.639A21.924,21.924,0,0,1,7.146,58l-.1,0a2.238,2.238,0,0,1-1.2-.341,2.5,2.5,0,0,1-.83-.868,2.616,2.616,0,0,1-.051-2.6,12.705,12.705,0,0,1,2.253-2.891,26.432,26.432,0,0,1-4.206.91,1.3,1.3,0,0,1-.172.011A2.468,2.468,0,0,1,.824,50.963a9.4,9.4,0,0,1,.281-8.27c.042-.085.089-.168.135-.249h0l.033-.059c.143-.357.3-.709.464-1.045A5.344,5.344,0,0,1,.3,38.223a6.916,6.916,0,0,1,.511-3.438A2.2,2.2,0,0,1,.559,32.84a16.576,16.576,0,0,1,3-5.03,5.136,5.136,0,0,1-.582-2.463,6.267,6.267,0,0,1,.258-1.726,6.42,6.42,0,0,1,1.8-2.93,8.728,8.728,0,0,1,3.58-1.9,10.21,10.21,0,0,1,2.074-2.58l0-.005c.031-.068.062-.137.1-.2a7.284,7.284,0,0,1,2.594-2.79,8.041,8.041,0,0,1,1.681-.8A8.983,8.983,0,0,1,16.895,12a2.66,2.66,0,0,1,.518-1.31,2.3,2.3,0,0,1,1.137-.823,7.756,7.756,0,0,1,1.153-2.3,2.822,2.822,0,0,1,2.236-1.245,2.457,2.457,0,0,1,1.226.337A15.2,15.2,0,0,1,25.17,8.026a2.758,2.758,0,0,1,.967-.246l.091-.006,2.086-.106c.554-.245,1.116-.5,1.66-.752.3-.136.633-.29.96-.438a7.013,7.013,0,0,1,1.75-1.064,7.127,7.127,0,0,1,2.207-.531,18.949,18.949,0,0,1,1.828-.506,20.2,20.2,0,0,1,4.3-.481H41.2c.031-.4.046-.8.043-1.184l0-.2A2.351,2.351,0,0,1,41.869.86a2.663,2.663,0,0,1,1.56-.83A2.594,2.594,0,0,1,43.813,0a2.275,2.275,0,0,1,1.443.506,3.127,3.127,0,0,1,.925,1.274l.025.061c.144.371.307.742.5,1.134A8.809,8.809,0,0,1,48.627,2.3a9.3,9.3,0,0,1,2.059-.232,8.064,8.064,0,0,1,3.387.713,6.035,6.035,0,0,1,2.593,2.242,4.928,4.928,0,0,1,.661,1.6,6.476,6.476,0,0,1,.134,1.684,18.176,18.176,0,0,1-.588,3.417c-.063.263-.128.536-.188.8l-.364,1.614a2.762,2.762,0,0,1,.878.9,2.174,2.174,0,0,1,.331,1.183l0,.064-.148,2.252a11.711,11.711,0,0,0,1.282-1.547c.27-.494.558-.973.857-1.422a2.491,2.491,0,0,1,2.1-1.2,2.682,2.682,0,0,1,2.243,1.26,2.468,2.468,0,0,1,.026,2.489,15.239,15.239,0,0,1-.952,1.6,14.256,14.256,0,0,0-.954,2.33,2.226,2.226,0,0,1,1.3,2.017,5.8,5.8,0,0,1-.765,3.261A6.45,6.45,0,0,1,61.5,28.657a7.557,7.557,0,0,1-1.355,1.079,2.287,2.287,0,0,1-1.227.37,2.174,2.174,0,0,1-.525-.065c-.09.121-.192.259-.288.4a12.768,12.768,0,0,1,2.141,2.211,38.712,38.712,0,0,1,5.62-.415,10.291,10.291,0,0,1,4.554-.946,17.647,17.647,0,0,1,2.952.267,29.489,29.489,0,0,1,2.962.719h0c.559.156,1.136.318,1.709.457a22.153,22.153,0,0,0,2.986.441c.655.066,1.332.135,2,.243a8.958,8.958,0,0,1,2.9.976,6.824,6.824,0,0,1,2.2,1.881,7.568,7.568,0,0,1,3.718,1.266c1.662,1.06,3.346,2.147,4.974,3.2l.009.006c.9.579,1.825,1.179,2.741,1.768a2.631,2.631,0,0,1,1.176,2.784l-.012.073-.087.47.2.289.178.25a17.432,17.432,0,0,1,1.978,3.257,37.762,37.762,0,0,1,2.552,4.258,30.97,30.97,0,0,1,2.427,6.222c.132.507.282,1.082.377,1.646a4.313,4.313,0,0,1-.091,1.611h0c-.032.17-.065.346-.092.529-.067.455-.114.92-.16,1.371-.05.493-.1,1-.179,1.5a1.065,1.065,0,0,1-.426.711,1.389,1.389,0,0,1-.774.249c.211,1.6.361,3.2.51,4.84.223,2.493.366,5,.465,6.907a5.478,5.478,0,0,0,2.812,1.866,4.076,4.076,0,0,0,1.054.133,8.311,8.311,0,0,0,2.753-.6.783.783,0,0,1,.266-.048.838.838,0,0,1,.715.45.914.914,0,0,1,.026.91,3.211,3.211,0,0,1-1.343,1.283,3.834,3.834,0,0,1-1.743.387,5.744,5.744,0,0,1-2.422-.567,5.171,5.171,0,0,1-2.006-1.614c.03.634.063,1.28.094,1.9v.008l0,.1.031.608c.063,1.18.14,2.388.215,3.557.188,2.949.382,6,.388,9,0,1.615-.048,3.081-.155,4.481a39.954,39.954,0,0,1-.576,4.429,27.817,27.817,0,0,1-3.1,8.495,27.377,27.377,0,0,1-5.492,6.877,26.537,26.537,0,0,1-7.366,4.73,25.95,25.95,0,0,1-8.721,2.054C82.5,127.948,81.931,127.964,81.371,127.964Zm-39.4-25.5h0c-.214.046-.424.081-.626.106l.008.02c.059.146.12.3.18.45.174.1.346.189.512.271a4.347,4.347,0,0,1-.074-.846ZM31.245,99.6a4.743,4.743,0,0,1,.538.031V99.6l-.017-.006a.761.761,0,0,1-.1-.037,4.688,4.688,0,0,1-.574-.327l-.141.259-.06.112-.007.013C31.007,99.606,31.127,99.6,31.245,99.6ZM28.482,61.343c-.214.007-.291.108-.289.175a.052.052,0,0,0,.053.057c.023,0,.086-.014.169-.145A.648.648,0,0,1,28.482,61.343ZM52.7,32.241c-4.475.118-8.836,2.869-11.707,5.156a41.122,41.122,0,0,0-7.277,7.658,44.178,44.178,0,0,0-1.407,4.295c-.167.614-.3,1.243-.421,1.851v0c-.07.339-.142.69-.22,1.034l-.068.3a4.651,4.651,0,0,0-.391,1.02,3.01,3.01,0,0,0,1.437.8.891.891,0,0,1,.442.255,9.323,9.323,0,0,0,1.057-2.35l.008-.038a48.628,48.628,0,0,1,2.771-4.056,58.071,58.071,0,0,1,4.357-5.143A41.829,41.829,0,0,1,46.3,38.529a30.81,30.81,0,0,1,9.088-4.755A9.931,9.931,0,0,0,52.7,32.241ZM45.018,93.917l-.068,0c-1.305-.089-2.195-1.086-3.055-2.049-.308-.344-.6-.67-.908-.958a20.36,20.36,0,0,0-4.141-3.035.233.233,0,0,1-.112-.266.237.237,0,0,1,.211-.2h.026a12.842,12.842,0,0,1,5.161,1.215l.146.071a12.029,12.029,0,0,1,2.534,1.591,4.258,4.258,0,0,1,.958,1.143,2.325,2.325,0,0,1,.291,1.371,1.433,1.433,0,0,1-.316.76A.941.941,0,0,1,45.018,93.917Z" transform="translate(-21.16 -20.527)"/>
      </g>
      <g id="FACE" transform="translate(33.715 39.361)">
        <path id="_Ink-3" data-name="ðŸ– Ink" d="M22.908,40.59a8.092,8.092,0,0,1-3.063-.61,8.658,8.658,0,0,1-2-1.146A8.507,8.507,0,0,1,16.218,37.2a1.676,1.676,0,0,1-.339-1.3,1.872,1.872,0,0,1,.731-1.174,1.8,1.8,0,0,1,1.071-.372,1.558,1.558,0,0,1,.239.018,1.654,1.654,0,0,1,1.107.731l.065.09a5.713,5.713,0,0,0,2.094,1.754,4.762,4.762,0,0,0,2.077.484,4.612,4.612,0,0,0,.515-.029A6.907,6.907,0,0,0,28,34.982c.139-.141.285-.295.476-.5a.753.753,0,0,1,.4-.3.811.811,0,0,1,.257-.041.873.873,0,0,1,.288.049.864.864,0,0,1,.429.324.8.8,0,0,1,.135.525,5.4,5.4,0,0,1-1.8,3.435,7.87,7.87,0,0,1-1.854,1.29,7.731,7.731,0,0,1-2.058.7A7.594,7.594,0,0,1,22.908,40.59ZM25.064,28.4h0a7.416,7.416,0,0,1-2.64-.531,13.339,13.339,0,0,1-3.1-1.758,1.19,1.19,0,0,1-.433-.688,1.422,1.422,0,0,1,.061-.772,1.756,1.756,0,0,1,.522-.754,1.274,1.274,0,0,1,.814-.317,1.157,1.157,0,0,1,.63.193l.21.162,0,0c1.079.832,2.709,2.09,4.272,2.09a2.553,2.553,0,0,0,1.9-.841,2.8,2.8,0,0,0,.533-2.258c-.361-1.756-2.274-3.036-2.852-3.386a.531.531,0,0,1-.144-.611.792.792,0,0,1,.772-.547,1.082,1.082,0,0,1,.182.016,5.766,5.766,0,0,1,2.025.73,4.59,4.59,0,0,1,1.362,1.253,4.971,4.971,0,0,1,.87,3.326A5.307,5.307,0,0,1,28.6,26.959,4.8,4.8,0,0,1,25.064,28.4ZM7.888,16.506a1.767,1.767,0,0,1-1.713-1.569,12.692,12.692,0,0,1,.068-3.312c.04-.322.081-.655.11-1.013a1.981,1.981,0,0,1,.753-1.417,2.322,2.322,0,0,1,1.427-.5,1.761,1.761,0,0,1,1.079.339,1.6,1.6,0,0,1,.6,1.058,8.869,8.869,0,0,1-.93,5.476A1.535,1.535,0,0,1,7.888,16.506ZM33.1,15.755a1.516,1.516,0,0,1-1.187-.508,5.1,5.1,0,0,1-1.094-2.706,3.131,3.131,0,0,1,.856-2.691,1.774,1.774,0,0,1,.137-.209,1.941,1.941,0,0,1,1.493-.857,1.62,1.62,0,0,1,.453.067,2.182,2.182,0,0,1,1.458,1.27,4.482,4.482,0,0,1,.18,2.456,8.21,8.21,0,0,1-.746,2.317,1.505,1.505,0,0,1-.645.636A1.958,1.958,0,0,1,33.1,15.755ZM.279,7.864A.275.275,0,0,1,.05,7.723a.306.306,0,0,1-.018-.3A10.442,10.442,0,0,1,2.377,4.46,14.5,14.5,0,0,1,5.516,2.32a13.516,13.516,0,0,1,3.727-1.3l.4-.07A9.718,9.718,0,0,1,11.267.777a2.516,2.516,0,0,1,2.007.747,1.7,1.7,0,0,1,.4,1.209,1.107,1.107,0,0,1-.4.79,3.1,3.1,0,0,1-2.12.62c-.167,0-.34,0-.507-.008h-.006c-.161,0-.343-.009-.523-.009s-.315,0-.454.012a14.358,14.358,0,0,0-3.155.537A21.454,21.454,0,0,0,.426,7.816.262.262,0,0,1,.279,7.864Zm38.387-1.6h0L38.5,6.219a9.507,9.507,0,0,1-1.84-.717l-.6-.294A16.62,16.62,0,0,0,33.925,4.3a25.234,25.234,0,0,0-4.862-1.072,1.989,1.989,0,0,1-.975-.369,1.459,1.459,0,0,1-.546-.829A1.481,1.481,0,0,1,27.71.787a1.586,1.586,0,0,1,.77-.662A1.735,1.735,0,0,1,29.136,0a1.937,1.937,0,0,1,.379.038l.3.062a21.792,21.792,0,0,1,5.252,1.7,10.62,10.62,0,0,1,2.31,1.516,6.73,6.73,0,0,1,1.633,2.106c.057.44,0,.549-.055.623l-.017.021-.015.02a.422.422,0,0,1-.261.173Z" transform="translate(11.238 11.004)"/>
      </g>
    </g>
  </g>
</svg>
