<svg xmlns="http://www.w3.org/2000/svg" width="269.664" height="427.248" viewBox="0 0 269.664 427.248">
  <g id="peep-4" transform="translate(0 21.073)">
    <g id="BODY" transform="translate(0 80.252)">
      <path id="_Skin" data-name="âœ‹ Skin" d="M233.691,262.521c-5.217-7.418-16.216-8.646-23.281-13.844-3.722-2.851-7.661-4.738-10.553-8.577,4.605-5.406-1.09-18.079-2.262-25.4-4.644-19.16-8.94-38.627-14.463-57.765,9.572,2.977,7.079-14.85,5.712-18.972-.095-.567-.8-.68-1.228-.858.12-.809.452-.987-.554-1.21-.336-4.85,1.037-10.282-1.445-14.566-2.8-4.677-9.486-8.591-15.012-8.655-3.882-15.4-4.593-22.667-22.984-16.138a5.989,5.989,0,0,0-.175-4.392C144.68,83.8,141.2,74.662,138.182,66.2c-3.483-9.737-7.085-19.806-11.743-29.162-3.244-5.941-13.395-7.529-20.275-6.546-1.641-2.893-5.778-10.9-11.012-9.045q-.059-3.62-.108-7.241c-.027-2.1.194-4.249-.614-6.242-.855-2.11-2.6-3.224-4.642-4.032C83.6,1.89,76.484-1.392,69.95.639c-5.708,2.6-5.043,12.391-7.806,17.712-3.871-5.735-10.473-1.89-11.87,4.261-15.9,6.334-29.572-.862-30.59,24,.877,4.532,1.622,8.783,1.207,13.36l-.481.049a317.443,317.443,0,0,0-4.652,70.194c-.2,9.666-3.723,18.688-7.132,27.41-2.508,6.414-5.1,13.046-6.325,19.85C.941,183.143-4.062,210.4,7.064,201.349c.426,31.005,28.079,34.975,52.981,28.126,26.436-5.491,56.2-3.912,72.694-30.476,5.6,9.57,7.528,15.478,8.933,25.485,1.542,7.331,3.781,15.657,7.9,20.506-3.544,6.373-5.279,14.137-5.108,19.2.067,1.988-.843,2.908.465,4.143,6.273,5.927,20.268,5.993,30.909,8.632,7.3.928,33.682,4.478,37.714,2.164,2.812.786-.458-6.526,2.354-6.682.962.007,1.091-1.217,2.079-1.172,6.307.287,19.9,2.14,16.617-2.941Z" transform="translate(31.467 -9.483)" fill="#d08b5b"/>
      <path id="_Shoes" data-name="ðŸ‘Ÿ Shoes" d="M61.716,41.732c-15.969-.605-38.083-5.093-53.637-8.464C4.04,32.51,1.168,30.4.327,28.611a7.238,7.238,0,0,1,.109-3.984c.3-1.372-.577-2.9-.415-4.378a22.566,22.566,0,0,1,2.394-6.763C3.881,11,4.885,4.662,4.994,4.729a24.947,24.947,0,0,0,6.442,2.343c.029.008.586,1.421.615,1.43l.03.085a7.158,7.158,0,0,0,2.409,3.277c1.07.955,2.324.94,3.673,1.112,3.348.427,5.51-1.226,8.686-3.423l.235-.006c.353-.008.717-.007,1.087-.007,1.862,0,3.88.023,5.321-1.147q.058-.047.114-.1.052.05.109.1a1.892,1.892,0,0,0,.218.154c.32-.189.634-.38.946-.57,1.057-.643,3.952-2.263,3.978-2.219.873,1.475,15.12-6.818,16.356-5.646,1.583,1.5,5.172,7.217,10.475,9.683,9.389,4.366,15.893,7.527,20.815,11.214s2.328,5.939,2.813,6.146c1.231.527.764,4.351.7,4.917-.054.5-6.854,1.348-11.075,1.229-4.784-.135-7.078-1.243-7.509-.6-1.722,2.348-.577,7.446-.577,7.446A12.876,12.876,0,0,1,61.716,41.732Z" transform="translate(175.954 229.227)" fill="#fff"/>
      <path id="_Jacket" data-name="ðŸ§¥ Jacket" d="M1.642,184.519c-.365-.718-3.4-5.83-.162-21.206,3.261-15.465,12.591-36.619,13.009-40.038-.015-3.814.145-12.212.087-16.03l.386-7.946.351-7.182c2.177-44.351,4.854-68.433,5.218-69.785a15.455,15.455,0,0,1,9.8-11.1l.167-.061A39.32,39.32,0,0,1,35.878,9.7l1.139-.245L37.3,9.4,37.7,9.3l.182-.043c2.635-.634,7.632-.844,11.005-3.007,2.654-1.7,3.38-4.393,4.862-5.323A6.957,6.957,0,0,1,57.077,0h.092a5.87,5.87,0,0,1,1.545.211A6.52,6.52,0,0,1,60.25,1.487q.112.126.215.253c-.041.1-.081.2-.121.294l-.079.2a6.261,6.261,0,0,0-.5,1.821l-.062.936-.513-.361a54.9,54.9,0,0,0,3.222,7.048l1.11,2.112,3.789,7.247c.865,1.649,1.669,3.172,2.19,4.142l.108.214.223.447a3.265,3.265,0,0,0,1.243,1.523c.059.033.12.063.18.089q.035.109.069.219C71.65,28.743,88.317,89.277,88.343,89.3c.3.273,24.433,6.56,30.212,7.757.451.093.9.194,1.355.294a8.153,8.153,0,0,0,1.621.12h.11c1.506-.007,3.409-.17,4.608-.187q.149-.381.293-.764l.111-.3a3.287,3.287,0,0,1,.349-.042c.05,0,.1-.005.151-.006h.077c2.137.021,5.2,2.086,7.178,3.507l.761.549.15.107.44.31-.2.4c-3.017,6.081-5.707,12.315-8.187,18.633h0q-.708,1.792-1.389,3.594l-.339.9-.826-.143-.318-.056c-1.164-.21-57.274-.18-57.274-.18L2.133,185.3A5.408,5.408,0,0,1,1.642,184.519ZM144.927,92.193c-2.094-.023-8.35-11.417-10.548-11.414-4.69,0-17.052,0-17.052,0S105.3,51.058,102.144,40.865C97.163,24.779,97.4,16.443,97.239,15.857a1.622,1.622,0,0,0-.146-.631l-.071-.147q-.461-1.646-.932-3.289l-.315-1.1-.671.118c-.033-.088-.064-.176-.1-.265a31.643,31.643,0,0,1-1.247-4.838q-.044-.247-.083-.495c.161-.045.331-.083.51-.115A5.3,5.3,0,0,1,95,5.016h.1c.127,0,.253,0,.377.013l.112.01.1.051c2.589,1.374,4.937,5.164,6.888,9.537l2.534-.3.988-.113c.536-.059.99-.105,1.248-.122l.116-.006.395.041c6.032.633,13.812,1.78,17,7.38,3.2,7.734,21.3,57.583,21.992,58.273a.547.547,0,0,0,.081.068l.817.544-2.312.38c-.241.1,1.738,11.425-.5,11.425Z" transform="translate(33.15 5.971)" fill="#e86bbb"/>
      <path id="_Top" data-name="ðŸ‘• Top" d="M22.016,52.249a82.2,82.2,0,0,1-8.33-1.691c-.356-.71-3.063-11.2-3.063-11.2Q8.382,31.4,6.191,23.424C4.184,16.166.035.542,0,.418A42.882,42.882,0,0,0,12.616,2.868C18.7,2.937,27.283.024,27.315,0c.023.078,15.425,42.338,15.35,42.358a71.384,71.384,0,0,0-10.938,4.287A86.269,86.269,0,0,0,22.016,52.249Z" transform="translate(107.801 44.37)" fill="#fff"/>
      <path id="_Ink" data-name="ðŸ– Ink" d="M206.2,277.751h0c-2.587,0-5.62-.172-9.015-.509-2.911-.29-6.177-.711-9.707-1.252-6.462-.991-12.653-2.2-17.173-3.08h0c-1.48-.289-2.758-.538-3.816-.735-5.031-1.12-10.379-2.353-15.6-4.02a10.066,10.066,0,0,1-3.25-1.435,7.012,7.012,0,0,1-2.386-2.563,4.268,4.268,0,0,1-.466-1.737,4.322,4.322,0,0,1,.376-1.919,9.526,9.526,0,0,1-.642-1.65,9.07,9.07,0,0,1-.3-1.632,10.764,10.764,0,0,1,.215-3.221,31.137,31.137,0,0,1,2.359-6.329c.533-1.167,1.083-2.374,1.529-3.562a16.547,16.547,0,0,0,.959-3.577,15.476,15.476,0,0,1-2.2-1.915c-.032.139-.061.277-.09.411l-.019.088c-.052-.033-.105-.065-.157-.1h0a2.634,2.634,0,0,1-.511-.368c.1-.21.193-.393.279-.56l.006-.012,0-.007a10.611,10.611,0,0,1-1.526-2.222,15.645,15.645,0,0,1-1.032-2.536,43.107,43.107,0,0,1-1.212-5.443h0c-.079-.442-.16-.9-.242-1.342-.318-1.81-.635-3.735-.942-5.6v0c-.5-3.019-.967-5.871-1.328-7.525-.272-1.234-.614-2.5-1.018-3.769-.382-1.2-.833-2.442-1.339-3.688a.506.506,0,0,0-.034-.2c-2.921-7.746-5.6-15.723-8.184-23.438-1.6-4.781-3.261-9.725-4.961-14.564-1.35-3.842-2.614-7.293-3.866-10.549a.542.542,0,0,0-.525-.355.557.557,0,0,0-.46.219.428.428,0,0,0-.033.416c3.183,8.282,6.049,16.833,8.821,25.1,1.4,4.181,2.85,8.5,4.324,12.743.248.715.495,1.415.747,2.13l-.083-.147-.006-.011-.142-.251a53.983,53.983,0,0,1-9.906,11.975,52.7,52.7,0,0,1-6.193,4.848,43.554,43.554,0,0,1-6.662,3.67,54.189,54.189,0,0,1-6.934,2.494c-2.207.635-4.531,1.174-7.1,1.647-4.783.879-9.74,1.391-14.534,1.886-4.04.417-8.217.849-12.312,1.5,3.494-2.608,6.892-5.466,10.178-8.231,1.286-1.082,2.615-2.2,3.932-3.288a.44.44,0,0,0,.131-.513.584.584,0,0,0-.514-.4.445.445,0,0,0-.256.083c-3.973,2.731-8.131,5.328-12.151,7.839-3.058,1.91-6.219,3.885-9.279,5.905l-.249.049c-.2.039-.405.079-.608.121-.34.085-.707.175-1.153.281-.5.166-1.018.328-1.533.481a10.847,10.847,0,0,1-2.941.512h-.108a79.6,79.6,0,0,1-15,1.565c-9.6,0-17.273-2.274-22.81-6.759a24.761,24.761,0,0,1-4-4.1,27.06,27.06,0,0,1-3.134-5.207,33.923,33.923,0,0,1-2.169-6.385,46.723,46.723,0,0,1-1.11-7.634,4.836,4.836,0,0,1-1.384.794,4.78,4.78,0,0,1-1.38.22A3.4,3.4,0,0,1,1.8,199.26a6.664,6.664,0,0,1-1.467-2.921,11.115,11.115,0,0,1-.311-3.366c-.027-1.591.006-3.237.1-4.891.09-1.583.238-3.222.439-4.872a93.974,93.974,0,0,1,1.714-9.632c.3-1.652.678-3.321,1.159-5.1.429-1.586.929-3.225,1.53-5.01,1.116-3.317,2.417-6.645,3.674-9.863,1.69-4.325,3.438-8.8,4.751-13.279a62.6,62.6,0,0,0,1.615-6.8,45.628,45.628,0,0,0,.705-7c-.247-6.172-.335-12.356-.262-18.38.074-6.175.32-12.354.73-18.365.42-6.158,1.025-12.31,1.8-18.286.79-6.118,1.778-12.222,2.936-18.143A53.183,53.183,0,0,1,19.9,47.46a41.058,41.058,0,0,1-.249-5.715,32.8,32.8,0,0,1,.612-5.488,28.071,28.071,0,0,1,1.576-5.205,20.073,20.073,0,0,1,1.619-2.794,15.742,15.742,0,0,1,1.829-2.179,14.3,14.3,0,0,1,4.185-2.866,18.345,18.345,0,0,1,2.306-.864c.743-.226,1.533-.423,2.414-.6,1.64-.335,3.3-.549,5.053-.777,3.711-.48,7.549-.977,11.135-2.687a13.047,13.047,0,0,1,2.241-4.424A8.048,8.048,0,0,1,54.4,12.235,7.821,7.821,0,0,1,56.751,11.2a7.541,7.541,0,0,1,1.628-.18,6.278,6.278,0,0,1,2.388.445A4.7,4.7,0,0,1,62.7,12.893c.029-.075.06-.16.095-.258.209-.588.419-1.188.622-1.768l.006-.018A89.335,89.335,0,0,1,67.72.116.208.208,0,0,1,67.915,0a.27.27,0,0,1,.194.081.2.2,0,0,1,.056.154A89.452,89.452,0,0,1,66.5,11.664l0,.015c-.128.672-.26,1.366-.386,2.049-.05.266-.09.552-.132.856h0a9.908,9.908,0,0,1-.419,2,2.457,2.457,0,0,1-1.188,1.461,1.889,1.889,0,0,1-.8.207c1.278,1.954,2.762,4.659,3.846,6.634.7,1.277,1.207,2.2,1.366,2.387,1.913,3.36,3.483,6.156,4.943,8.8.064.111.133.227.194.329l.005.009.162.275c1.564,2.149,2.041,4.614,2.545,7.223.147.761.3,1.549.481,2.336.336,1.157.647,2.23.951,3.282,1.849.548,3.395.994,5.053,1.343a35.342,35.342,0,0,0,7.091.723,34,34,0,0,0,5.742-.485,32.052,32.052,0,0,0,5.572-1.479,2.1,2.1,0,0,1,.763-.167c-1.009-3.635-1.8-6.91-2.426-10.012a91.753,91.753,0,0,1-1.5-10.172,1.508,1.508,0,0,1-1.034-.752,24.666,24.666,0,0,1-3.175-10.777A23.73,23.73,0,0,1,96.086,6.7a.2.2,0,0,1,.194-.115.28.28,0,0,1,.205.087.185.185,0,0,1,.047.149,36.466,36.466,0,0,0,.093,9.866,4.62,4.62,0,0,1,1.063-.125,5,5,0,0,1,1.534.25,6.849,6.849,0,0,1,1.464.687,12.505,12.505,0,0,1,2.664,2.3,25.71,25.71,0,0,1,2.224,2.892c.7,1.045,1.294,2.051,1.679,2.717.088.158.165.3.237.439a27.644,27.644,0,0,1,3.191-.174,41.486,41.486,0,0,1,4.167.225,23.175,23.175,0,0,1,3.825.635,19.035,19.035,0,0,1,3.646,1.326,14.9,14.9,0,0,1,3.207,2.1,12.519,12.519,0,0,1,2.509,2.953c1.127,2.262,2.214,4.6,3.323,7.151.988,2.271,1.97,4.659,3,7.3,1.92,4.9,3.726,9.954,5.473,14.837v0c1.48,4.137,3.01,8.414,4.6,12.576,1.576,4.394,3,8.475,4.36,12.477.093.3.2.6.3.892a12.512,12.512,0,0,1,.5,1.636,4.114,4.114,0,0,1,.027,1.7,29.858,29.858,0,0,1,9.571-1.86,13.042,13.042,0,0,1,3.492.426,6.756,6.756,0,0,1,2.7,1.4,9.554,9.554,0,0,1,1.634,1.7,12.96,12.96,0,0,1,1.234,2.013,24.359,24.359,0,0,1,1.627,4.443c.32,1.2.633,2.426.935,3.61v0c.412,1.613.837,3.281,1.289,4.914a16.044,16.044,0,0,1,4.261.857,22.167,22.167,0,0,1,4.265,1.973,18.8,18.8,0,0,1,6.564,6.222,11,11,0,0,1,1.04,2.461,14.528,14.528,0,0,1,.487,2.573,38.592,38.592,0,0,1,.052,5.32h0c-.048,1.322-.1,2.689-.04,4a.945.945,0,0,1,.5.351,1.217,1.217,0,0,1,.214.952A1.705,1.705,0,0,1,190.509,134a28,28,0,0,1,.873,3.777,38.518,38.518,0,0,1,.493,4.848c.1,2.76-.1,6.6-1.6,9.217a6.134,6.134,0,0,1-1.46,1.75,4.947,4.947,0,0,1-2.042.973,3.47,3.47,0,0,1-.444.028,4.6,4.6,0,0,1-1.072-.137c.174.563.32,1.079.426,1.456.035.124.068.24.094.331,1.859,6.822,3.791,14.31,5.905,22.892,1.887,7.658,3.739,15.451,5.531,22.988l.006.025c.677,2.847,1.377,5.791,2.068,8.685.248,1.522.787,3.537,1.411,5.871h0a94.87,94.87,0,0,1,2.253,9.823l.014.112c.4,3.125.852,6.667-.936,9.433a9.753,9.753,0,0,1,2.663,1.581,31.233,31.233,0,0,1,2.325,2.148,24.485,24.485,0,0,0,2.97,2.635,13.2,13.2,0,0,0,2.023,1.616,28.206,28.206,0,0,0,2.584,1.508c1.872.979,3.968,1.9,6.187,2.872a62.5,62.5,0,0,1,10.275,5.249,17.727,17.727,0,0,1,1.953,1.563,11.027,11.027,0,0,1,1.512,1.717,7.525,7.525,0,0,1,.974,1.9,6.479,6.479,0,0,1,.339,2.105,1.249,1.249,0,0,1,.657.9c.543,2.615.382,4.477-.48,5.535a2.605,2.605,0,0,1-1.015.756,3.968,3.968,0,0,1-1.55.279h-.126a65.934,65.934,0,0,1-7.688.582,22.966,22.966,0,0,1-7.16-1,9.774,9.774,0,0,1-1.873,2.585.743.743,0,0,1,.583.269,2.015,2.015,0,0,1,.253,1.36,15.883,15.883,0,0,1-.263,1.825,7.451,7.451,0,0,0-.2,1.631,7.816,7.816,0,0,1-1.9.956,15.542,15.542,0,0,1-2.484.642A36.833,36.833,0,0,1,206.2,277.751Zm-60.4-16.235a4.022,4.022,0,0,0,.328,1.332,4.386,4.386,0,0,0,.721,1.116,6.155,6.155,0,0,0,1.035.926,9.524,9.524,0,0,0,1.27.761,28.286,28.286,0,0,0,5.871,1.905c.484.118.942.23,1.353.339,3.648.969,7.381,1.872,11.094,2.683,3.688.806,7.458,1.543,11.2,2.192,3.722.644,7.52,1.218,11.288,1.705,3.746.484,7.565.9,11.349,1.224,1.861.152,3.862.292,5.884.292a33.5,33.5,0,0,0,4.007-.221,23.234,23.234,0,0,0,3.931-.8c.07-1,.154-2.184.248-3.369a12.589,12.589,0,0,1-3.207,1.5,12.006,12.006,0,0,1-3.518.536,10.85,10.85,0,0,1-2.969-.408c-1.3.062-2.644.093-3.992.093-2.882,0-5.824-.137-9-.419-2.822-.251-5.758-.611-8.976-1.1-5.974-.911-12-2.138-17.828-3.325l-.013,0c-2.224-.453-4.525-.921-6.776-1.362-.72-.162-1.445-.308-2.213-.462h0a36.924,36.924,0,0,1-6.1-1.587,13.231,13.231,0,0,1-2.728-1.412A9.71,9.71,0,0,1,145.8,261.517Zm56.839,8.232a15.094,15.094,0,0,1,3.293.469c.652.143,1.327.29,2.021.384.269.022.544.033.816.033a9.524,9.524,0,0,0,3.7-.729,7.609,7.609,0,0,0,1.626-.937,6.583,6.583,0,0,0,1.326-1.343,7.779,7.779,0,0,0,1.286-3.078,5.243,5.243,0,0,0-.266-2.693A6.118,6.118,0,0,0,215.4,260.1a8.638,8.638,0,0,0-1.609-1.472,13.579,13.579,0,0,0-4.338-1.984c-1.687-.646-3.416-1.227-5.246-1.842h0a69.335,69.335,0,0,1-10.868-4.344,24.787,24.787,0,0,1-4.7-3.22,19.245,19.245,0,0,1-2-2.042,18.015,18.015,0,0,1-1.7-2.4,26.112,26.112,0,0,0-3.207,1.752c-.337.2-.685.416-1.037.624a2.121,2.121,0,0,1-.331-.222,5.117,5.117,0,0,1-2.4,1.016,15.758,15.758,0,0,1-2.716.17h-.635c-.286,0-.623,0-.947.012a24.829,24.829,0,0,1-2.241,1.376,21.051,21.051,0,0,1-2.375,1.108,13.35,13.35,0,0,1-4.8,1.007,7.238,7.238,0,0,1-4.276-1.273,7.36,7.36,0,0,1-1.725-1.741,10.735,10.735,0,0,1-1.333-2.612,30.344,30.344,0,0,1-3.366-1.148,22.42,22.42,0,0,1-3.12-1.565,12.725,12.725,0,0,1-.24,4.3c-.3,1.459-.757,2.933-1.2,4.359-1.074,3.443-2.087,6.7-.639,9.1,1.01,1.677,3.145,2.8,6.526,3.435,7.944,1.722,15.714,3.375,23.43,4.674,4.215.709,8.081,1.26,11.82,1.683,4.175.472,8.07.772,11.907.918C202.244,269.756,202.444,269.749,202.643,269.749Zm31.211-6.3a53.357,53.357,0,0,1-11.736,2.154c-.947.1-1.926.207-2.879.322a9.789,9.789,0,0,1-.38,1.208c1.62-.135,3.275-.191,4.876-.246,1.528-.052,3.108-.106,4.655-.228a34.758,34.758,0,0,0,4.613-.642c.051-.01.139-.019.242-.03.332-.036.833-.09.942-.229a.037.037,0,0,1-.026.017c-.072,0-.079-.484-.081-.667,0-.039,0-.064,0-.074A10.935,10.935,0,0,0,233.854,263.445ZM188.38,241.516a6.515,6.515,0,0,0-2.009.455h0c-.258.087-.525.177-.781.25-.015.044-.027.077-.038.108,5.851,5.789,13.72,8.322,21.33,10.772l.007,0c.862.278,1.754.565,2.624.851a32.667,32.667,0,0,1,3.387,1.265,16.327,16.327,0,0,1,3.16,1.807,10.459,10.459,0,0,1,1.322,1.167,8.164,8.164,0,0,1,1.057,1.376,7.192,7.192,0,0,1,.724,1.608,7.582,7.582,0,0,1,.321,1.865c3.407-.262,6.771-.642,10-1.132,2.443-.036,3.808-.532,4.055-1.473.266-1.014-.828-2.338-1.793-3.27a19.808,19.808,0,0,0-1.974-1.65,22.368,22.368,0,0,0-1.979-1.308,45.524,45.524,0,0,0-4.487-2.451c-1.554-.752-3.178-1.466-4.749-2.157a69.555,69.555,0,0,1-9.517-4.778,25.694,25.694,0,0,1-4.1-3.207,20.606,20.606,0,0,1-1.768-1.95,19.5,19.5,0,0,1-1.534-2.235,3.679,3.679,0,0,0-.576-.174,13.231,13.231,0,0,1-2.415,2,15.454,15.454,0,0,1-2.8,1.423,17.968,17.968,0,0,1-3.031.876,19.616,19.616,0,0,1-3.113.357A2.265,2.265,0,0,0,188.38,241.516Zm-30.221,2.82h0a8.962,8.962,0,0,0,2.633,1.7,7.482,7.482,0,0,0,2.83.55,9.832,9.832,0,0,0,3.777-.824c-1.695-.18-3.393-.388-5.047-.62C160.866,244.921,159.456,244.651,158.159,244.335ZM21.517,55.785h0c-.8,7.923-1.358,15.923-1.865,23.438-.259,3.066-.451,6.2-.588,9.574-.122,3.008-.2,6.142-.23,9.581-.06,6.388.041,12.883.138,19.165v.006c.067,4.3.136,8.749.152,13.119a61.1,61.1,0,0,1-1.1,6.236c-.44,1.934-.977,3.927-1.642,6.095-1.235,4.026-2.737,8.058-4.189,11.958h0c-1.324,3.554-2.692,7.228-3.858,10.895-.628,1.974-1.148,3.787-1.59,5.544-.5,1.972-.884,3.823-1.183,5.657-.41,2.047-.742,4.071-.986,6.018-.258,2.06-.426,4.105-.5,6.078.01.648-.024,1.331-.057,1.992a10.752,10.752,0,0,0,.546,5.134c0-.007.018-.025.035-.051A12.2,12.2,0,0,1,5.616,195h0c.233-.259.474-.526.68-.779s.432-.528.642-.788c2.491-3.076,4.909-6.3,7.247-9.418l0,0c2.066-2.755,4.2-5.6,6.381-8.339,2.444-3.069,4.685-5.67,6.851-7.949,4.15-3.892,8.666-7.547,13.034-11.082h0c4.454-3.6,9.06-7.333,13.277-11.312,2.27-2.142,4.25-4.184,6.052-6.242.976-1.115,1.911-2.249,2.777-3.37.909-1.176,1.774-2.379,2.572-3.576a20.018,20.018,0,0,1,2.435-3.017,25.973,25.973,0,0,1-3.887-2.529,28.143,28.143,0,0,1-2.892-2.664,39.157,39.157,0,0,1-2.546-2.98c-1.607-2.068-3.077-4.3-4.5-6.466v0c-.659-1-1.341-2.039-2.024-3.04-1.348-2.084-2.853-4.35-4.447-6.748-2.209-3.324-4.713-7.092-7.192-10.981-2.837-4.45-5.241-8.431-7.351-12.172-1.23-2.181-2.382-4.322-3.425-6.364-1.129-2.211-2.169-4.384-3.093-6.459-.988-2.22-1.875-4.4-2.637-6.487-.808-2.21-1.5-4.379-2.057-6.447Zm141.471,84.641a.615.615,0,0,0-.461.216.523.523,0,0,0-.111.445c1.222,6.587,2.889,13.187,4.5,19.569v0c1.165,4.613,2.369,9.383,3.4,14.111a.45.45,0,0,0,.46.378.6.6,0,0,0,.46-.216.507.507,0,0,0,.1-.442c-1.027-4.728-2.232-9.5-3.4-14.11v0c-1.612-6.382-3.279-12.982-4.5-19.57A.432.432,0,0,0,162.987,140.426Zm-23.421-26.307c-.72,1.809-1.46,3.644-2.175,5.419l-.011.026c-1.639,4.067-3.335,8.273-4.909,12.449a195.929,195.929,0,0,1,22,2.3c1.191.169,2.422.344,3.618.511a24.757,24.757,0,0,1,5.542,1.186,29.647,29.647,0,0,1,5.094,2.288,46.684,46.684,0,0,1,8.977,6.8,65.757,65.757,0,0,0,5.528,4.478c.142.1.292.213.45.331l0,0a4.431,4.431,0,0,0,2.214,1.131,1.044,1.044,0,0,0,.669-.234,1.969,1.969,0,0,0,.547-.808c1.345-3.343,1.009-6.98.685-10.5v-.014q-.026-.287-.053-.572c-.1-.691-.23-1.385-.358-2.056-.047-.243-.095-.494-.141-.743a5.486,5.486,0,0,1-.84-1.676c-.089-.242-.18-.492-.285-.737a21.676,21.676,0,0,0-2.145-3.885,22.2,22.2,0,0,0-2.883-3.374,21.577,21.577,0,0,0-3.084-2.6,22.691,22.691,0,0,0-3.345-1.908,27.489,27.489,0,0,0-3.927-1.459,39.644,39.644,0,0,0-4.122-.951c-2.8-.5-5.739-.785-8.58-1.057-.989-.095-2.012-.193-3.015-.3a.863.863,0,0,1-.36.073,1.233,1.233,0,0,1-.245-.026,2.474,2.474,0,0,1-.383-.155,56.8,56.8,0,0,1-7.484-1.264A27.925,27.925,0,0,1,139.566,114.119Zm-20.515,19.153h0a19.784,19.784,0,0,0,4.265,1.366c1.661.39,3.351.7,4.476.894.454-1.2.907-2.385,1.347-3.507l-.073-.014L129,132c.047,0,.1,0,.144,0,2.774-7.109,5.529-13.4,8.424-19.234-.191-.135-.408-.292-.637-.459-1.889-1.369-5.051-3.66-7.228-3.66-.063,0-.124,0-.184.006-.862,2.3-1.9,4.57-2.9,6.77l0,0c-.674,1.478-1.372,3.007-2.009,4.528a68.013,68.013,0,0,0-3.032,8.749l0,.006c-.232.782-.471,1.591-.714,2.382-.035.132-.074.262-.112.388-.063.212-.129.431-.176.655a1.392,1.392,0,0,1-.547.865,1.56,1.56,0,0,1-.914.276Zm-68.93-114.1a14.088,14.088,0,0,1-2.408,1.518,19.56,19.56,0,0,1-2.625,1.076,52.4,52.4,0,0,1-5.606,1.413,45.255,45.255,0,0,0-6.32,1.668,15.533,15.533,0,0,0-4.076,2.172,14.129,14.129,0,0,0-2.964,3.022,18.21,18.21,0,0,0-3.071,7.833A28.186,28.186,0,0,0,22.7,42.3a36.062,36.062,0,0,0,.282,4.518,43.3,43.3,0,0,0,1.975,8.537c.644,2.308,1.4,4.663,2.245,7,.805,2.227,1.719,4.511,2.716,6.79A144.518,144.518,0,0,0,36.49,82.2c2.149,3.814,4.641,7.915,7.621,12.537,2.653,4.115,5.43,8.241,8.116,12.231l0,.006.014.021c1.451,2.156,2.952,4.386,4.409,6.579a40.269,40.269,0,0,0,6,7.97,30.935,30.935,0,0,0,3.705,3.225,26.663,26.663,0,0,0,4.19,2.534,24.45,24.45,0,0,0,6.569,2.1c1.948.349,3.945.633,6.1.866,1.923.208,3.932.371,6.142.5,4.106.238,8.3.313,12.347.386h0c4.277.077,8.7.157,13.031.428a4.079,4.079,0,0,1,1.1-1.853,2.634,2.634,0,0,1,1.769-.827,1.7,1.7,0,0,1,.47.066c.435-1.663.943-3.31,1.51-4.9.6-1.683,1.275-3.313,2-4.845a38.013,38.013,0,0,1,5.543-8.68,1.46,1.46,0,0,1-.2.013l-.089,0a27.23,27.23,0,0,1-4.569-.747c-.441-.1-.9-.2-1.347-.293-6.306-1.307-11.976-2.488-17.335-3.612-1.023-.214-2.09-.418-3.121-.616h0c-2.359-.452-4.8-.919-7.147-1.577a1.449,1.449,0,0,1-.469.074,2.59,2.59,0,0,1-1.683-.746,23.4,23.4,0,0,1-5.311-2.559,18.03,18.03,0,0,1-2.833-2.621,33.547,33.547,0,0,1-2.731-3.569c-.859-1.277-1.743-2.738-2.628-4.34-.82-1.486-1.669-3.147-2.524-4.935-3.3-6.9-6.344-15-9.034-22.15h0c-2.157-5.733-4.2-11.149-6.006-14.993,5.745,9.98,11.157,21.459,16.391,32.56l0,.007c.925,1.962,1.881,3.99,2.811,5.95a43.348,43.348,0,0,0,3.914,7.09,19.091,19.091,0,0,0,2.619,2.981,15.874,15.874,0,0,0,1.566,1.261A15.232,15.232,0,0,0,89.19,98.8c-1.467-5.222-2.941-10.523-4.366-15.649v-.005c-2.7-9.73-5.5-19.79-8.351-29.655-.408-1.3-.757-2.462-1.067-3.547-.4-1.4-.72-2.646-.992-3.821-.208-.905-.327-1.848-.443-2.76a21.674,21.674,0,0,0-.656-3.565l0-.01,0-.017a2.894,2.894,0,0,1-.961-.9,9.189,9.189,0,0,1-.66-1.174l0,0c-.053-.106-.108-.216-.163-.323-1.695-3.153-3.333-6.287-4.711-8.937-.541-1.083-1.119-2.177-1.677-3.235l0,0a61.951,61.951,0,0,1-4.089-8.843c.041-.349.156-.526.34-.526a.641.641,0,0,1,.345.142A8.394,8.394,0,0,1,62.46,13.5l.067-.165a5.176,5.176,0,0,0-1.408-.651,5.364,5.364,0,0,0-1.494-.209,6.363,6.363,0,0,0-3.112.851,7.446,7.446,0,0,0-1.181.917,7.59,7.59,0,0,0-.935,1.082,9.777,9.777,0,0,0-1.271,2.547,28.969,28.969,0,0,0-1.113,5.838c-.113.935-.221,1.819-.365,2.669-.164,1.178-.33,2.433-.412,3.684a18.512,18.512,0,0,0,.085,3.7,1.841,1.841,0,0,1-.037.732,1.786,1.786,0,0,0,.433.053,4.007,4.007,0,0,0,2.185-.961,23.773,23.773,0,0,1,3.971-2.834,11.206,11.206,0,0,1,2.04-.88,6.915,6.915,0,0,1,2.024-.326,5.334,5.334,0,0,1,1.45.2,5.417,5.417,0,0,1,1.406.63,7,7,0,0,1,1.347,1.121,10.673,10.673,0,0,1,1.272,1.669l.154.21c.895,1.22,1.82,2.482,2.666,3.761a31.478,31.478,0,0,1,2.282,3.995.219.219,0,0,1-.006.217.215.215,0,0,1-.18.1.242.242,0,0,1-.15-.055,31.7,31.7,0,0,1-3.392-3.145c-1.06-1.119-2.083-2.311-3.073-3.464h0l-.039-.045-.522-.607a7.484,7.484,0,0,0-1.381-1.329,3.051,3.051,0,0,0-1.776-.561l-.129,0a5.17,5.17,0,0,0-1.433.258,6.645,6.645,0,0,0-1.287.588A18.054,18.054,0,0,0,56.813,34.8a17.817,17.817,0,0,1-2.345,1.731,6.511,6.511,0,0,1-1.294.582,5.082,5.082,0,0,1-1.44.242c-.092.008-.185.012-.279.012A3.522,3.522,0,0,1,49.891,37a3.074,3.074,0,0,1-1.155-.966,2.1,2.1,0,0,1-.362-.86,1.846,1.846,0,0,1,.093-.95c-.005-.025-.009-.053-.012-.077a21.946,21.946,0,0,1-.044-4.562c.123-1.482.341-2.931.592-4.537l.035-.232A50.21,50.21,0,0,1,50.122,19.169Zm122.073,89.259a71.805,71.805,0,0,0,2.326,7.126,15.15,15.15,0,0,0,.818,2h0a10.557,10.557,0,0,1,1,2.837,26.279,26.279,0,0,1,5.273,3.572,30.351,30.351,0,0,1,4.345,4.674c.028-.494.063-1,.1-1.483a24.185,24.185,0,0,0-.146-6.651,14.863,14.863,0,0,0-5.089-7.915,19.407,19.407,0,0,0-4.077-2.618A19.892,19.892,0,0,0,172.195,108.428Zm-43.431.4a1.8,1.8,0,0,0-.538.365l-.008.005c0,.057,0,.113,0,.177C128.4,109.183,128.586,109,128.764,108.83ZM118.016,91.58c-.358,0-.73.01-1.1.018-1.16.043-2.34.123-3.482.2-.781.053-1.589.108-2.382.15-1.5.08-3.016.163-4.486.244l-.045,0-.739.041c-.558.041-1.215.089-1.861.135l-2.581.183-.043,0c-1.683.12-3.424.244-5.136.363-.861.06-1.735.116-2.58.17l-.07,0-1.144.074c-.264.017-.539.046-.805.074h0c-.411.043-.835.087-1.249.094l.5,1.8.051.181.352,1.263a15.135,15.135,0,0,1,.419,1.544,12.875,12.875,0,0,0,.553,1.914,49.42,49.42,0,0,0,5.348,1.387c.634.135,1.293.273,1.957.411a41.931,41.931,0,0,1,5.681-4.188,50.288,50.288,0,0,1,6.256-3.266,51.045,51.045,0,0,1,6.822-2.371C118.173,91.889,118.1,91.752,118.016,91.58ZM132.3,89.892a20.861,20.861,0,0,1,7.02,1.019,8.11,8.11,0,0,1,2.828,2.56,44.912,44.912,0,0,0,2.4,6.776.421.421,0,0,0,.392.274.6.6,0,0,0,.481-.278.538.538,0,0,0,.038-.528A42,42,0,0,1,143.5,94.4a27.4,27.4,0,0,1,4.213-2.173,1.081,1.081,0,0,1-.162-.133,4.81,4.81,0,0,1-.977-1.471,14.62,14.62,0,0,1-.588-1.676c-.128-.419-.261-.853-.419-1.266-1.64-4.923-3.341-9.69-4.789-13.7-1.8-4.7-3.573-9.514-5.291-14.165-3.179-8.606-6.466-17.506-10.014-26.1-3.4-5.955-10.517-6.658-16.8-7.278l-.926-.092a50.329,50.329,0,0,1,2.5,5.792c.725,1.973,1.379,4.013,2.011,5.985v0c.382,1.192.777,2.424,1.184,3.629.053.139.1.292.156.467a1.683,1.683,0,0,1-.135,1.339,1.974,1.974,0,0,1-1.184.98,1.9,1.9,0,0,1-.5.07,1.752,1.752,0,0,1-1.1-.4,2.467,2.467,0,0,1-.719-.989,4.317,4.317,0,0,0-2.144-2.258,6.14,6.14,0,0,0-2.33-.368A4.077,4.077,0,0,1,103.7,40.3c1.005,3.655,2.211,7.986,3.535,12.391,1.359,4.522,2.665,8.531,3.992,12.257,1.125,3.212,2.344,6.465,3.727,9.946,1.231,3.1,2.564,6.309,4.073,9.809.456,1.052.951,2.182,1.559,3.556.107.24.227.483.354.741.174.353.354.717.505,1.087a1.153,1.153,0,0,1,.2.553,4.6,4.6,0,0,1,.121.5,57.794,57.794,0,0,1,6.276-1.018,20.241,20.241,0,0,0-1.4-4.059,24.809,24.809,0,0,1-1.239-3.351c-.673-2.132-1.228-4.01-1.7-5.742-.569-2.1-1.026-4.014-1.4-5.864a52.219,52.219,0,0,1-1.122-11.9h.009a.167.167,0,0,1,.093.028c-.01-.069-.021-.144-.033-.22a.174.174,0,0,1,.049-.007c.111,0,.231.109.356.323a4.688,4.688,0,0,1,.342.8c.218.63.413,1.4.556,1.966.075.3.134.53.176.665.545,2.014.983,4.089,1.406,6.1h0c.384,1.822.781,3.706,1.257,5.538a105.217,105.217,0,0,0,3.715,11.469c.1.248.188.5.284.766h0a7.7,7.7,0,0,0,1.623,3.028,1.153,1.153,0,0,1,.193.251C131.587,89.9,131.951,89.892,132.3,89.892ZM114.052,82.2c-2.735.038-5.676.167-9.255.4-1.331.125-2.664.272-3.962.437l-1.74.224c-1.638.212-3.332.432-5.005.615-1.234.135-2.339.236-3.378.31-.581.041-1.15.075-1.691.1-.275.013-.56.024-.847.033h-.009l-.015,0h0l-.05.006a1.3,1.3,0,0,1-.258.163l.23.824.016.058,0,.017c.374,1.34.76,2.726,1.144,4.087l.536,1.923a11.47,11.47,0,0,1,1.769-.144h0c.272-.008.554-.016.824-.034l1.073-.071c.891-.059,1.812-.12,2.721-.176,1.665-.1,3.359-.2,5-.3h.016l.205-.012,2.367-.141c1.053-.063,2.126-.136,3.163-.206h.006c3.019-.205,6.141-.417,9.21-.417.408,0,.814,0,1.206.011-.083-.217-.181-.47-.281-.7C115.949,86.676,114.969,84.382,114.052,82.2Zm-4.424-10.915c-2.057.189-4.15.371-6.174.546h-.011c-2.243.194-4.563.4-6.843.608-1.255.117-2.6.245-4.1.391-1.24.151-2.5.31-3.719.464l-.019,0c-1.192.151-2.425.307-3.647.456-.027.241-.047.488-.058.736.875,3.163,1.548,5.592,2.183,7.874a6.5,6.5,0,0,1,1.277-.1c.112,0,.228,0,.332-.007,2.689-.1,5.321-.365,8.445-.732.9-.106,1.828-.222,2.721-.335a87.154,87.154,0,0,1,10.774-.9c.858,0,1.7.027,2.491.079C111.923,77.094,110.728,74.126,109.628,71.286Zm-24.862.109a.775.775,0,0,1,.443.128c.057.04.108.077.154.113a4.629,4.629,0,0,0,.713-.083c.156-.026.3-.051.435-.063l1.739-.157c1.068-.1,2.121-.188,3.13-.275,2.149-.185,4.314-.366,6.437-.536l.176-.014H98c3.61-.29,7.343-.589,11.018-.813-1.069-2.805-2.018-5.41-2.9-7.964-4.41.025-8.753.32-13.184.647-.9.067-1.851.142-2.9.231-.795.1-1.719.223-2.628.344-1.114.147-2.255.3-3.39.455l-1.538.211-.411.057c.768,2.756,1.529,5.506,2.182,7.867A1.025,1.025,0,0,1,84.766,71.394Zm-6.052-19.6c.89,3.112,1.822,6.417,2.934,10.4,2.824-.376,5.565-.729,8.148-1.05,3.257-.405,6.171-.748,8.907-1.046l.254-.028.059-.006h0a32.606,32.606,0,0,1,3.534-.259,10.664,10.664,0,0,1,3.043.392c-.968-2.867-1.811-5.536-2.577-8.158a7.846,7.846,0,0,1-2.161.892c-.813.228-1.657.4-2.4.547h0c-.513.1-.956.192-1.3.282a37.519,37.519,0,0,1-6.219.527,32.589,32.589,0,0,1-6.271-.591A26.2,26.2,0,0,1,78.714,51.793Zm19.637-30.08a.241.241,0,0,1,.244.182c.457,1.573.931,3.235,1.41,4.942l.027.056.024.05a1.731,1.731,0,0,1,.179.718c.752,2.692,1.5,5.423,2.218,8.064l.039.142.562,2.058a2.787,2.787,0,0,1,2.694-1.285,8.868,8.868,0,0,1,2.547.42c-.672-2.251-1.377-4.376-2.1-6.317a60.168,60.168,0,0,0-2.692-6.265c-2.27-4.468-4.566-6.969-6.824-7.434a31.363,31.363,0,0,0,1.313,5.277c.026.076.058.165.091.255v-.091c0-.17,0-.345.006-.519a.23.23,0,0,1,.064-.172A.273.273,0,0,1,98.351,21.713Z" transform="translate(30.588 -5.795)"/>
    </g>
    <g id="Head" transform="translate(74.887)">
      <g id="HEAD-2" data-name="HEAD">
        <path id="_Skin-2" data-name="âœ‹ Skin" d="M61.487,28.263C60.283,13.569,56.617.555,39.39,0A60.1,60.1,0,0,0,16.531,4.782C-.846,13.5-6.359,45.373,8.95,58.2a.163.163,0,0,0-.005.274,59.23,59.23,0,0,0,10.2,5.355c9.379,3.969,20.42,5.693,29.985,1.388C63.727,59,63.946,41.7,61.487,28.263Z" transform="translate(10.174 20.019)" fill="#d08b5b"/>
        <path id="_Ink-2" data-name="ðŸ– Ink" d="M126.707,62.506a4.369,4.369,0,0,0,1.274-2.046,4.006,4.006,0,0,0,0-2.241c-.235-.776-.742-1.394-.628-2.2a1.847,1.847,0,0,1,.053-.244c.439-1.521,1.517-2.618,1.131-4.3a2.922,2.922,0,0,0-.6-1.242c.032-.365.06-.734.082-1.1a5.891,5.891,0,0,0-.065-4.708,17.809,17.809,0,0,0-.382-2.218,4.267,4.267,0,0,0-.239-1.918,27.268,27.268,0,0,0-1.3-2.931,1.081,1.081,0,0,0-.113-.788,7.323,7.323,0,0,0-.968-1.23c-.252-.45-.505-.9-.757-1.337-.116-.2-.245-.427-.387-.665a2.287,2.287,0,0,0,.184-2.261,1.043,1.043,0,0,0-.923-.53c-.38.023-.763.04-1.148.054a8.216,8.216,0,0,0-2.411-2.1c-.886-.752-1.784-1.489-2.658-2.242l-.744-.643-.005-.018c-.182-.666-.388-1.322-.593-1.983-.128-.409-.167-.838-.565-1.061a8.159,8.159,0,0,0-3.065-.618l-.284-.251a4.469,4.469,0,0,0-.189-3.54.869.869,0,0,0-1.186-.311,3.965,3.965,0,0,1-2.747.725c-1.41-1.085-7.1-5.993-7.978-6.511-.011-.019-.02-.037-.031-.056A7.139,7.139,0,0,0,97.7,10.052l-.289-.3a3.678,3.678,0,0,1,.667-1.67c.039-.056.082-.111.126-.163A.843.843,0,0,0,97.186,6.6c-.063.028-.126.056-.189.086-.674.3-1.42.628-2.2.9-.284-.107-.574-.2-.839-.31L91.13,6.14c-.466-.188-.958-.346-1.409-.567a2.171,2.171,0,0,0-2.293-1.7,2.039,2.039,0,0,1,.289-.581c.039-.054.081-.107.125-.158.56-.651-.188-1.86-.988-1.28l-.17.121c-.222.156-.45.3-.68.444a1.546,1.546,0,0,0-1.217-.027,12.517,12.517,0,0,0-2.693,1.35c-.034.024-.07.044-.1.067A2.3,2.3,0,0,0,80.3,2.968h-.033A2.206,2.206,0,0,0,78.2,1.982a2.1,2.1,0,0,0-4.124-.462l-.262.853a9.234,9.234,0,0,0-2.563-.881,13.222,13.222,0,0,0-5.992.589c-.2.057-.392.115-.588.173-.28-.325-.543-.657-.794-.967a.829.829,0,0,0-1.4.581,1.128,1.128,0,0,1-.454,1.06,6.724,6.724,0,0,1-1.167.055,3.833,3.833,0,0,1-1.642-.3,2.167,2.167,0,0,1-.9-.747,2.173,2.173,0,0,0-3.4-.356,2.228,2.228,0,0,0-2.564.927,2.565,2.565,0,0,1-1.51.827c-.521.146-1.054.257-1.589.353a.827.827,0,0,0-1.11-.27c-.25.185-.492.374-.731.568a10.328,10.328,0,0,1-5.436-.456c-1.488-.609-2.855,1.055-2.609,2.452-.431.225-.9.374-1.324.609a5.252,5.252,0,0,0-2.156,2.28c-.083.171-.159.344-.23.519-.347.283-.69.573-1.026.88l-1.672-.859a.828.828,0,0,0-1.2.49,5.046,5.046,0,0,1-.931,2.3,38.116,38.116,0,0,0-4.389,2.7c-1.612.506-3.326.8-4.735,1.133a.8.8,0,0,0-.474,1.164q.432.666.861,1.333-1.2,1.175-2.265,2.448a45.5,45.5,0,0,0-5.112,7.665l-1.758.709a.831.831,0,0,0-.361,1.368,5.234,5.234,0,0,1,.579.727A9.663,9.663,0,0,1,9.995,34.9,2.145,2.145,0,0,0,9.1,35.984c-.142.095-.282.2-.421.3a.842.842,0,0,0-.167,1.3,5.235,5.235,0,0,1,.868.932c.054.2.111.4.167.6a14.777,14.777,0,0,0-3.119,4.053.7.7,0,0,0-.537.105C4.474,44.325,4.432,46,5,47.488a15.264,15.264,0,0,0,.54,6.734,6.328,6.328,0,0,0-1.61,3.34,68.347,68.347,0,0,0-.5,7.574,7.75,7.75,0,0,0-2.005,3.386L.473,69A.933.933,0,0,0,0,69.82a6.682,6.682,0,0,0,1.53,3.788,8.341,8.341,0,0,0,1.295,2.341,17.756,17.756,0,0,1,1.116,1.537.979.979,0,0,1,.072.14,3.12,3.12,0,0,0-.34.553A3.59,3.59,0,0,0,4,82.528a1.084,1.084,0,0,0-.065,1.51c2.489,2.847,4.564,6.308,8.018,7.82a.864.864,0,0,1,.042.079,5.1,5.1,0,0,0-.223,4.3.452.452,0,0,0,.014.046c.305.913.867,2.376,1.879,2.66a3.4,3.4,0,0,0,.944.128q1.205,1.162,2.407,2.327a8.1,8.1,0,0,1,.128,1.164,1.039,1.039,0,0,0,1.3.992c.233-.068,1.524-1.324,1.761-1.317.119.119.235.239.351.36a3.888,3.888,0,0,1,1.067,1.623,2.3,2.3,0,0,0,1.609,2.074.884.884,0,0,0,1.342,0c.028-.03.056-.06.086-.086l.135-.016q.31.927.623,1.853a2.2,2.2,0,0,0,3.079,1.287c.179.107.354.221.53.335.267.17.537.344.814.507.016.046.032.091.046.135a.974.974,0,0,0,1.381.525,4.052,4.052,0,0,0,.435.112A4.377,4.377,0,0,0,34,110.8a7.036,7.036,0,0,1,1.621-.58c.036,0,.073,0,.109,0a4.52,4.52,0,0,0,2.387,2.074,4.431,4.431,0,0,0,3.249-.215,7.553,7.553,0,0,0,1.022,1.537.622.622,0,0,0,.868,0q.665-.59,1.323-1.184c.318-.123.639-.27.974-.407a18.662,18.662,0,0,0,3.166-1.225,5.354,5.354,0,0,0,1.249-1.1,9,9,0,0,0,1.844-1.426,1.845,1.845,0,0,0,.847-.205,3.529,3.529,0,0,0,1.845-3.056,21.551,21.551,0,0,0,1.666-7.072,17.606,17.606,0,0,0,0-2.415,4.238,4.238,0,0,0-.4-1.454,4.5,4.5,0,0,1-.188-.488c.012-.541.019-1.082.026-1.621a3.036,3.036,0,0,1,.767-1.234,1.982,1.982,0,0,0,.307-2.378l-.993-1.322c.093-1.891.546-4.9-.458-5.217.04-.281.126-.558.175-.838a5.092,5.092,0,0,0-.617-3.714c-.149-.244-.275-.46-.379-.671l-.195-1.159c-.1-.6-.2-1.2-.282-1.8-.044-.769-.084-1.538-.128-2.309q-.061-1.064-.133-2.13c.019-.318.047-.636.088-.954.24-1.895,1.014-2.6,2.354-3.912.211-.033.419-.07.624-.112a9.519,9.519,0,0,1,2.94-.4c1.068.119,2.024.581,3.063-.009.305-.176.977-.66,1.035-1.045A.24.24,0,0,1,63.8,62.7c.072-.011.165-.019.223-.021.824-.028,1.612.3,2.444.207A3.823,3.823,0,0,0,68.906,61.7a6.1,6.1,0,0,0,2.27.163,5.042,5.042,0,0,0,1.8-.608c.416-.225.284-.29.737-.107,1.03.418,1.961.969,3.121.683a3.316,3.316,0,0,0,1.558-.91,5.313,5.313,0,0,0,.4-.4c.551.279,1.937.91,2.165.966a3.535,3.535,0,0,0,1.958-.077c.461-.155,1.026-.576,1.431-.662.525-.112,1.689.618,2.316.869a4.406,4.406,0,0,0,3.373.095c.382-.156,1.126-.78,1.412-.774A31.256,31.256,0,0,1,93.591,65.8c1.577,4.636,1.986,19.111,1.258,22.8-.028.109-.058.216-.088.325a52.549,52.549,0,0,1-3.322,9.47,15.464,15.464,0,0,1-6.166,6.9,17.477,17.477,0,0,1-9.581,1.8,33.226,33.226,0,0,1-6.206-1.091c-1.063-.276-2.117-.583-3.166-.9-.458-.139-.923-.269-1.372-.43a2.1,2.1,0,0,0-1.968.058,1.434,1.434,0,0,0-.509,1.939c.586,1.011,1.659,1.082,2.7,1.377,1.056.3,2.116.588,3.182.846a41.187,41.187,0,0,0,6.215,1.043,21.383,21.383,0,0,0,11.029-1.809c.386-.186.758-.385,1.117-.6-.133.186-.268.372-.405.557a1.22,1.22,0,0,0,.433,1.659c.168.088.337.172.507.255.023.054.047.109.075.163a3.717,3.717,0,0,0,2.54,1.8,15.039,15.039,0,0,0,3.863.049l3.482-.105c.274-.007.547-.016.821-.025l4.133-.125a4.123,4.123,0,0,0,2.323-.434,3.445,3.445,0,0,0,1.289-.95,5.184,5.184,0,0,0,.64-.339,8.362,8.362,0,0,0,1.786-1.57,1.735,1.735,0,0,0,2.382-1.133c.288-1.846,2.684-2.634,3.8-3.969a6.02,6.02,0,0,0,1.516-3.84c2.277-1.1,3.515-4.009,3.8-6.475.135-1.143.114-2.367.309-3.53a1.935,1.935,0,0,0,.228-.3,24.562,24.562,0,0,0,1.509-2.855,3.934,3.934,0,0,1,2.065-.739,1.637,1.637,0,0,0,.433-3.2l-.025-.009a4.61,4.61,0,0,0-.142-3.739c.025-.123.047-.244.07-.367a5.6,5.6,0,0,0,1.491-3.977,4.859,4.859,0,0,1,1.509-.716.969.969,0,0,0,.228-1.746,2.954,2.954,0,0,1-.64-.65,4.126,4.126,0,0,0-.628-3.911l1.7-2.181a1.259,1.259,0,0,0,0-1.754Q127.259,62.942,126.707,62.506Z" transform="translate(-26.313 -21.073)"/>
      </g>
      <g id="FACE" transform="translate(27.951 32.663)">
        <path id="teeth" d="M2.493.562c1.855-1.1,8.786-.294,14.232,0,4.324.234,7.413-.229,8.4.427,2.233,1.483,1.149,8.655-2.7,9.636s-18.114,2.351-20.573,0S-.834,2.539,2.493.562Z" transform="translate(10.955 32.579)" fill="#fff"/>
        <path id="_Ink-3" data-name="ðŸ– Ink" d="M16.116,34.515c-.331,0-.691,0-1.1-.007l-.469-.006c-.248,0-.518-.005-.847-.005l-.766,0h-.018l-.806,0a22.62,22.62,0,0,1-6.4-.664,6.584,6.584,0,0,1-4.517-3.915,7.013,7.013,0,0,1-.415-1.479,7.238,7.238,0,0,1,.7-4.479,6.165,6.165,0,0,1,2.474-2.518A9.063,9.063,0,0,1,7.36,20.353a11.684,11.684,0,0,1,1.383-.08,26.028,26.028,0,0,1,4.966.646c.73.143,1.485.291,2.229.407a40.667,40.667,0,0,0,4.527.473c.321.014.644.021.918.027a.79.79,0,0,1,.506-.656,3.979,3.979,0,0,1,1.751-.409c.062,0,.125,0,.19,0a14.545,14.545,0,0,1,2.011.214,6.354,6.354,0,0,1,3.292,1.57,4.63,4.63,0,0,1,1.1,1.68,5.167,5.167,0,0,1,.326,1.923,6.289,6.289,0,0,1-.351,1.956,6.772,6.772,0,0,1-.927,1.78,9.514,9.514,0,0,1-1.235,1.39,9.709,9.709,0,0,1-1.419,1.083,11.065,11.065,0,0,1-1.57.814,13.661,13.661,0,0,1-1.687.582,20.22,20.22,0,0,1-3.594.617C18.719,34.47,17.554,34.514,16.116,34.515Zm5.7-6.719-.041,0c-2.059.078-4.213.137-6.4.176.062.522.129,1.08.2,1.622.054.4.115.812.186,1.273.009.057.025.125.042.2a1.278,1.278,0,0,1,.058.44l-.01.07a.645.645,0,0,1,.283.242.952.952,0,0,1,.062.117v0l.568,0a26.883,26.883,0,0,0,4.564-.319l0-.036a.7.7,0,0,1,.24-.455,11.09,11.09,0,0,0,.122-1.44c.009-.211.018-.429.032-.637.02-.289.041-.583.062-.867v0ZM7.648,31.68h0l.04.006.173.027a28.626,28.626,0,0,0,3.9.211c.373,0,.751,0,1.117-.005h0c.333,0,.677,0,1.014-.005a8.082,8.082,0,0,1-.076-1.363c0-.17,0-.331,0-.477l0-.08c-.03-.658-.052-1.328-.064-1.992-1.067.018-2.212.034-3.359.034-.441,0-.851,0-1.256-.007l-.7-.011c.047.25.1.5.144.748h0c.1.521.206,1.061.3,1.595a1.047,1.047,0,0,1-.237.885,1.282,1.282,0,0,1-.949.434ZM3.3,27.858h0a4.565,4.565,0,0,0,.313,1.173,4.666,4.666,0,0,0,3.755,2.6.824.824,0,0,1-.551-.708A21.12,21.12,0,0,1,6.62,28c-1.008-.009-2.18-.029-3.325-.142ZM25.7,27.649c-.186,0-.384,0-.578.01-.633.028-1.276.054-1.9.079l-.281.011.022.313v.006c.026.376.053.765.082,1.148.013.171.022.347.032.517a10.464,10.464,0,0,0,.142,1.412A7.67,7.67,0,0,0,26.976,28.6a4.89,4.89,0,0,0,.631-1.077,7.06,7.06,0,0,1-1.567.125H25.7ZM7.026,22.916h0A4.862,4.862,0,0,0,3.8,25.061a4.5,4.5,0,0,0-.538,2.363c1.12-.129,2.278-.177,3.368-.216,0-.22.009-.416.015-.6l.017-.511q0-.1.006-.2a11.154,11.154,0,0,1,.362-2.98Zm2.387-.239h0c-.338,0-.669.011-.982.032-.234.016-.471.041-.706.075a10.911,10.911,0,0,1,.293,2.174c.024.361.048.7.086,1.029.042.351.1.728.168,1.154l.279-.013c1.326-.071,2.675-.122,3.979-.171l1.2-.046c0-.354,0-.668.007-.961l.006-.32c.006-.239.005-.483,0-.74a13.012,13.012,0,0,1,.084-1.856l-.579-.064-.14-.016a33.355,33.355,0,0,0-3.7-.278Zm5.437.459h0c.028.229.048.463.067.689v0c.01.115.02.233.031.348.061.653.134,1.33.221,2.071l.072.6c1.9-.085,3.926-.182,6.369-.3l.3-.016.084-1.16c.054-.732.117-1.52.209-2.316l-.066-.024a1.085,1.085,0,0,1-.223-.125,33.161,33.161,0,0,1-5.081.327H16.81c-.581,0-1.2-.031-1.96-.1Zm7.794.057c.066.778.112,1.571.156,2.338.018.311.037.632.056.948l1.4-.074.7-.039c.252-.014.52-.045.8-.078a11.3,11.3,0,0,1,1.271-.1,3.283,3.283,0,0,1,.893.106,2.28,2.28,0,0,0-.9-2.128,5.161,5.161,0,0,0-2.8-.765,9.466,9.466,0,0,1-1.582-.212Zm-2.9-4a2.744,2.744,0,0,1-2.036-.707,1.24,1.24,0,0,1-.241-1.4,1.5,1.5,0,0,1,.467-.6,1.161,1.161,0,0,1,.7-.244,1.181,1.181,0,0,1,.663.214,1.666,1.666,0,0,0,.925.216,6.825,6.825,0,0,0,1.8-.308l.045-.013a2.429,2.429,0,0,0,1.422-1.032,1.053,1.053,0,0,0,.071-.861,1.374,1.374,0,0,0-.95-.812,4.682,4.682,0,0,0-1.305-.2c-.078,0-.159,0-.241,0a14.255,14.255,0,0,0-1.879.167c-.4.054-.823.11-1.237.141h-.013a.155.155,0,0,1-.151-.122.173.173,0,0,1,.076-.2,9.393,9.393,0,0,1,2-.8,9.1,9.1,0,0,1,2.423-.367,3.847,3.847,0,0,1,2.161.542,2.472,2.472,0,0,1,1.061,1.947,3.249,3.249,0,0,1-.7,2.274,4.767,4.767,0,0,1-1.933,1.469l-.056.023A8.77,8.77,0,0,1,19.746,19.19Zm9.689-5.5a.732.732,0,0,1-.075,0l-.119-.011a1.087,1.087,0,0,1-.177-.028,1.174,1.174,0,0,1-.588-.4.964.964,0,0,1-.228-.662l.009-.139a4.391,4.391,0,0,0-.185-1.747,1.64,1.64,0,0,0-1.3-1.077,1.621,1.621,0,0,0-.318-.033c-1,0-1.56,1.024-1.573,1.988a.262.262,0,0,1-.259.252A.239.239,0,0,1,24.5,11.8a1.708,1.708,0,0,1-.8-1.09,2.39,2.39,0,0,1,.107-1.369A2.789,2.789,0,0,1,24.857,8,3.158,3.158,0,0,1,26.5,7.469c.058,0,.117,0,.175,0a3.656,3.656,0,0,1,2.907,1.463,4.64,4.64,0,0,1,.855,3.954,1.132,1.132,0,0,1-.371.557A.994.994,0,0,1,29.435,13.691Zm-25.787-.5a.359.359,0,0,1-.155-.037,1.362,1.362,0,0,1-.724-1.21,3.3,3.3,0,0,1,.271-1.463,4.241,4.241,0,0,1,2.468-2.36,4.068,4.068,0,0,1,1.274-.2A4.479,4.479,0,0,1,9.1,8.586a4.726,4.726,0,0,1,1.681,1.737.773.773,0,0,1,.65.773,2.135,2.135,0,0,1-.587,1.4,1.155,1.155,0,0,1-.859.368,1.384,1.384,0,0,1-.769-.238,1.218,1.218,0,0,1-.49-.645l-.011-.039a2.144,2.144,0,0,0-2.034-1.553,1.921,1.921,0,0,0-.627.1,2.472,2.472,0,0,0-1.391,1.459,3.647,3.647,0,0,1-.8,1.158A.32.32,0,0,1,3.647,13.194ZM.15,9.5a.107.107,0,0,1-.1-.1,8.045,8.045,0,0,1,.037-1.99A9.908,9.908,0,0,1,.581,5.4a10.2,10.2,0,0,1,.9-1.868A8.661,8.661,0,0,1,2.7,1.956,7.059,7.059,0,0,1,4.721.608,6.2,6.2,0,0,1,7.23,0,2.968,2.968,0,0,1,8.8.4,2.569,2.569,0,0,1,9.862,1.753a1.123,1.123,0,0,1-.116.924,1.167,1.167,0,0,1-.753.585,2.93,2.93,0,0,1-.57.053,6.752,6.752,0,0,1-1.053-.11h0a6.778,6.778,0,0,0-1.061-.11c-.086,0-.172,0-.253.01a4.437,4.437,0,0,0-2.333.836A8.421,8.421,0,0,0,1.428,7.271,13.858,13.858,0,0,1,.238,9.447.108.108,0,0,1,.15,9.5ZM31.417,7.515a1.585,1.585,0,0,1-.436-.061C29.907,7.148,29.625,6.4,29.3,5.543c-.063-.166-.127-.336-.2-.508a4.358,4.358,0,0,0-1.4-1.77A6.591,6.591,0,0,0,23.88,2.127a6.129,6.129,0,0,0-1.714.229.1.1,0,0,1-.028,0,.135.135,0,0,1-.116-.075.093.093,0,0,1,.009-.1c.081-.1.154-.2.224-.3a3.544,3.544,0,0,1,.732-.8A5.226,5.226,0,0,1,26.162.025a6,6,0,0,1,1.766.268,6.642,6.642,0,0,1,1.594.736A6.763,6.763,0,0,1,30.87,2.148a7.375,7.375,0,0,1,.959,1.273,4,4,0,0,1,.221.506,5.089,5.089,0,0,0,.231.533,1.731,1.731,0,0,1,.875,1.226,1.367,1.367,0,0,1-.051.62,1.506,1.506,0,0,1-.361.587l-.035.035-.1.1A1.715,1.715,0,0,1,31.417,7.515Z" transform="translate(8.49 10.89)"/>
      </g>
    </g>
  </g>
</svg>
