<svg xmlns="http://www.w3.org/2000/svg" width="364.755" height="537.077" viewBox="0 0 364.755 537.077">
  <g id="peep-1" transform="translate(25.643 26.49)">
    <g id="BODY" transform="translate(0 100.881)">
      <path id="_Skin" data-name="âœ‹ Skin" d="M77.936,327.279h-.074c-2.932,0-5.754-.073-8.388-.217a93.956,93.956,0,0,1-10.122-1.046,35.2,35.2,0,0,1-8.87-2.469,11.576,11.576,0,0,1-3.033-1.953,5.4,5.4,0,0,1-1.6-2.532,12.85,12.85,0,0,1-1.658-6.6,10.3,10.3,0,0,1,.621-3.37,7.6,7.6,0,0,1,1.8-2.815,24.4,24.4,0,0,1,.715-10.535,25.678,25.678,0,0,1,2.04-5.015,24.192,24.192,0,0,1,3.082-4.47l.011.017a56.123,56.123,0,0,0,4.1-6.92,17.132,17.132,0,0,0,1.718-5.755,16.813,16.813,0,0,0-.584-5.989,52.159,52.159,0,0,0-2.8-7.624c-1.034-.04-2.121-.078-3.08-.111-4.091-.144-8.322-.293-12.473-.644-2.236-.189-4.262-.42-6.195-.705-2.172-.321-4.166-.7-6.1-1.164l.338-2.022c-.322-.085-2.037-.536-2.412-.633.01.076.028.2.051.367l0,.012v0c.093.666.25,1.781.245,2.054a1.6,1.6,0,0,1-1.042.517.577.577,0,0,1-.592-.535c-3.354-14.337-6.555-28.755-9.65-42.7C11.83,204.7,9.6,194.647,7.327,184.677c-.369-1.562-.753-3.148-1.16-4.828-1.469-6.065-3.134-12.94-4.352-19.89A100.964,100.964,0,0,1,.04,139.189c.059-1.713.185-3.383.374-4.965a47.734,47.734,0,0,1,.812-4.777,39.176,39.176,0,0,1,1.305-4.541,33.238,33.238,0,0,1,1.854-4.256,29.709,29.709,0,0,1,2.458-3.922,28.534,28.534,0,0,1,3.117-3.539,29.838,29.838,0,0,1,3.832-3.108,33.912,33.912,0,0,1,4.6-2.628l-.589-2.512c-1.574,0-2.206-1.715-2.928-4.139-1.45-3.908-1.1-8.117,1.044-12.508a29.245,29.245,0,0,1,3.534-5.463,41.9,41.9,0,0,1,4.308-4.564c7.962-7.973,15.31-16.822,22.416-25.379l.084-.1C51.27,46.7,56.206,40.75,61.543,34.894A171.623,171.623,0,0,1,79.2,17.82a104.987,104.987,0,0,1,9.727-7.146c1.695-1.093,3.407-2.114,5.09-3.036,1.743-.955,3.507-1.832,5.241-2.605,1.793-.8,3.607-1.513,5.393-2.121a57.034,57.034,0,0,1,5.545-1.582,52.761,52.761,0,0,1,5.7-.989,50.365,50.365,0,0,1,13.8.289l-.119,1.458c1.267.159,2.572.363,3.835.56h0a58.744,58.744,0,0,0,8.95.93,22.9,22.9,0,0,0,4.135-.35,53.289,53.289,0,0,1,9.072-.773,56.114,56.114,0,0,1,23.744,5.31,53.233,53.233,0,0,1,10.363,6.391,48.965,48.965,0,0,1,8.553,8.663l.433-2.871c.041-.271.137-.521.566-.521h.035c.535,0,.821.436,1.03.863a34.924,34.924,0,0,1,6.731,3.57,40.841,40.841,0,0,1,5.83,4.831,52.459,52.459,0,0,1,5.028,5.829,70.741,70.741,0,0,1,4.325,6.566,115.009,115.009,0,0,1,6.94,14.293c2,4.848,3.764,9.76,5.321,14.093l.012.035c.359,1,.7,1.943,1.038,2.882a16.068,16.068,0,0,1,.6,3.121,2.424,2.424,0,0,1-.076.983l-1.179.7a124.24,124.24,0,0,1,14.8,26.38,297.273,297.273,0,0,1,9.946,28.1,24.525,24.525,0,0,1,1.084,3.447,10.736,10.736,0,0,1,.286,2.978,6.766,6.766,0,0,1-.669,2.611,8.06,8.06,0,0,1-1.781,2.346A91.89,91.89,0,0,1,273.1,153.779a58.687,58.687,0,0,1,10.885,12.968,40.43,40.43,0,0,1,3.434,7.2,33.458,33.458,0,0,1,1.763,7.608,31.409,31.409,0,0,1-.157,7.967,33.363,33.363,0,0,1-.877,4.1,36.714,36.714,0,0,1-1.45,4.174,49.5,49.5,0,0,1-4.638,6.84,65.628,65.628,0,0,1-5.841,6.327c-2.045,1.954-4.342,3.927-6.829,5.864-2.311,1.8-4.868,3.636-7.6,5.453-4.721,3.14-10.168,6.371-16.654,9.878-5.73,3.1-11.536,6.022-17.151,8.849l0,0c-3.439,1.731-6.687,3.367-9.855,5.009a102.062,102.062,0,0,1-11.215,4.9h0c-3.74,1.466-7.608,2.981-11.253,4.821a49.492,49.492,0,0,0-5.263,3.042,33.56,33.56,0,0,0-4.691,3.747,6.679,6.679,0,0,1-.964,1.144,1.6,1.6,0,0,1-.927.514.458.458,0,0,1-.061,0,.99.99,0,0,1-.145.011h0c-.635,0-1.349-.606-2.123-1.8a31.109,31.109,0,0,1-2.782-6.153c-.838-2.354-1.673-5.129-2.415-8.025-1.411-5.5-2.192-10.282-1.816-11.114a24.9,24.9,0,0,1-4.326,1.076c-1.473.245-3,.407-4.468.564h-.006c-1.612.172-3.279.349-4.88.635a5.763,5.763,0,0,0,.421.711c.5.766,1.068,1.634.319,2.382a40.816,40.816,0,0,1-1.058,9.335,12.324,12.324,0,0,1,1.929-.169c1.259,0,1.956.274,2.089.545a.2.2,0,0,1-.01.209c-.132.21-.6.336-1.251.336a10.077,10.077,0,0,1-2.674-.449l-.055.516c-.162,1.517-.465,4.341-.589,5.49a9.732,9.732,0,0,1,3.564-.725,3.129,3.129,0,0,1,2.193.63c-.144.463-.65.678-1.593.678a16.692,16.692,0,0,1-1.715-.128h0l-.026,0a16.161,16.161,0,0,0-1.648-.125,2.941,2.941,0,0,0-.794.087c-.559,4.145-.881,8.317-1.192,12.351-.172,2.235-.351,4.546-.568,6.832a19.086,19.086,0,0,0,3.617,2.641c1.3.756,2.69,1.428,4.034,2.078,1.514.732,3.08,1.489,4.505,2.363a19.29,19.29,0,0,1,2.041,1.424,13.725,13.725,0,0,1,1.794,1.718,8.429,8.429,0,0,1,2.292,6.649,8.628,8.628,0,0,1-.337,1.713,8.386,8.386,0,0,1-.682,1.613,8.014,8.014,0,0,1-2.384,2.671,4.617,4.617,0,0,1,1.067,2.367,5.508,5.508,0,0,1-.251,2.54,6.005,6.005,0,0,1-1.5,2.386,5.172,5.172,0,0,1-2.485,1.356,15.925,15.925,0,0,1-3.661.4,40.544,40.544,0,0,1-10.6-1.957l-.084-.023-.818-.226a120.169,120.169,0,0,1-26.252-12.872,18.506,18.506,0,0,1-7.858-10.324c-9.6-29.593-12.168-49.718-7.636-59.814a7.619,7.619,0,0,1,4.647-1.271,8.587,8.587,0,0,0,3.21-.544,4.689,4.689,0,0,0,1.612-1.09,6.922,6.922,0,0,0,1.379-2.529c-3.731-.366-7.919-.419-12.354-.474a151.609,151.609,0,0,1-15.344-.7,46.08,46.08,0,0,1-6.981-1.3,28.3,28.3,0,0,1-3.122-1.055,20.777,20.777,0,0,1-2.8-1.387l.351-.748a21.258,21.258,0,0,1-2.785-2.815c-.381-.429-.709-.8-.934-1.028.73,8.78,1.35,17.288,1.843,25.286.543,8.8.952,17.291,1.216,25.242,1.814,3.053,3.381,6.258,5.095,9.831l.057.056c1.193,1.171,3.189,3.131,1.989,4.434l0,.006c.42.985,10.313,24.252,13.384,36.151,1.69.072,2.674,1.7,3.2,3.058a13.173,13.173,0,0,1,.708,2.748,15.122,15.122,0,0,1,.17,2.733c-.451,6.076-8.206,6.751-15.049,7.347l-.116.01a137.43,137.43,0,0,1-14.3.749h-.073Zm122.2-104.253a1.376,1.376,0,0,0-.98.405,1.4,1.4,0,0,0-.409,1.005l1.389,0ZM77.614,134.135,76.1,136.252c3.707,3.884,7.151,7.831,10.236,11.731l2.342-1.076c-1.132-5.759-4.648-9.818-11.063-12.771Zm120.154-47-1.3,2.343c-2.447,4.414-5.4,8.757-8.254,12.957-6.3,9.271-12.819,18.858-14.826,30.324-.232,1.409-.334,6.394-.335,6.445l1.868-.761a187.8,187.8,0,0,1,19.256-6.256l.016,0c2.466-.7,5.016-1.432,7.523-2.191,1.02-.273,2.035-.592,3.017-.9h0a28.265,28.265,0,0,1,7-1.576l.721-.037.361-.624c3.269-5.659.812-11.036-1.985-16.059a92.206,92.206,0,0,0-5.936-10.439l0,0a84.575,84.575,0,0,1-6.051-10.761ZM72.874,81.009h0L70.927,82.1A39.809,39.809,0,0,1,64.1,85.249l-3.006,1,2.827,1.432A27.714,27.714,0,0,1,69.5,91.479L70.92,92.7,71.6,90.96a20.33,20.33,0,0,0,1.3-7.722l-.029-2.229Z" transform="translate(-24.538 -12.362)" fill="#edb98a"/>
      <path id="_Shoes" data-name="ðŸ‘Ÿ Shoes" d="M30.67,108.67a92.755,92.755,0,0,1-13.174-.816,30.645,30.645,0,0,1-8.9-2.618,18.845,18.845,0,0,1-5.158-3.611A11.328,11.328,0,0,1,.474,97.038C.436,96.85.4,96.674.364,96.5l0-.022c-.64-3.088-.64-3.088,1.812-8.988l.07-.169a10.845,10.845,0,0,0,.551-3.477,29.393,29.393,0,0,1,.5-4.342,24.2,24.2,0,0,1,2.042-5.867c2.02-4.127,8.813-15.786,8.881-15.9a10.25,10.25,0,0,0,1.1-5.721,21,21,0,0,1,7.4-3.371,36.043,36.043,0,0,1,4.593-.913,35.54,35.54,0,0,1,4.673-.318,25.456,25.456,0,0,1,5.053.465,12.708,12.708,0,0,1,4.018,1.46,2.37,2.37,0,0,0,.7,1.125,1.847,1.847,0,0,0,1.045.464,6.065,6.065,0,0,1,.716,1.048,3.711,3.711,0,0,0,1.276,1.5c1.533,5.068,3.98,10.97,6.57,17.22,3.606,8.7,7.335,17.7,8.8,25.025-.034.011-.052.026-.056.048-.014.074.152.214.4.425a5.911,5.911,0,0,1,2.083,2.839,5.53,5.53,0,0,1,.171,1.687,10.237,10.237,0,0,1-.222,1.761,4.1,4.1,0,0,1-.832,2.071,44.423,44.423,0,0,1-6.324,1.8c-2.318.5-4.919.936-7.73,1.29-2.691.339-5.538.6-8.463.775C36.336,108.583,33.468,108.67,30.67,108.67Zm91.256-18.042a30.346,30.346,0,0,1-6.318-.813c-2.079-.456-3.994-1.011-5.393-1.416l-.01,0-.129-.037-.254-.072A131.56,131.56,0,0,1,96.7,82.841,140.6,140.6,0,0,1,84.2,76.12a10.084,10.084,0,0,1-2.446-2.049,17.612,17.612,0,0,1-2.014-2.811,28.97,28.97,0,0,1-2.669-6.242c-.579-2.059-1.189-4.174-1.778-6.218v0a248.845,248.845,0,0,1-6.364-25.39,94.286,94.286,0,0,1-1.443-12.9c-.084-2.2-.07-4.372.039-6.457A62.517,62.517,0,0,1,68.194,7.6a14.948,14.948,0,0,1,3.812-1.989,61.75,61.75,0,0,1,7.331-2.559,4.243,4.243,0,0,0,1.593-1.274A3.582,3.582,0,0,1,82.488.571,47.664,47.664,0,0,1,90.462,0c2.8,0,5.411.15,7.318.26h0c1.05.06,1.879.108,2.389.11L99.96.73a27.024,27.024,0,0,0-1.868,5.7,26.469,26.469,0,0,0-.571,9.813c.965,5.743,5.608,7.979,9.334,8.843a9.166,9.166,0,0,0,1.924.23,5.225,5.225,0,0,0,2.12-.426,12.934,12.934,0,0,0,1.863-1.06,22.111,22.111,0,0,1,2.887-1.628c0,.04.147.088.373.16a5.14,5.14,0,0,1,1.619.768,1.776,1.776,0,0,1,.662,1.942c-.512,2.109-1.213,6.416-1.955,10.976-.529,3.251-1.076,6.612-1.581,9.332-.215,1.158-.427,2.186-.614,3.094-.792,3.844-1.229,5.962-.27,9.488.727,2.674,6.3,5.98,10.782,8.637a37.847,37.847,0,0,1,5.356,3.5,6.127,6.127,0,0,1,1.545,4.6,22.42,22.42,0,0,1-1.012,6.055,46.59,46.59,0,0,1-1.978,5.445,24.587,24.587,0,0,1-1.353,2.775,4.9,4.9,0,0,1-2.248,1.274A11.18,11.18,0,0,1,121.925,90.628Z" transform="translate(19.864 205.386)" fill="#fff"/>
      <path id="_Top" data-name="ðŸ‘• Top" d="M70.9,0c.32.031.615.065.91.1l.315.039-.139.284C68.241,16.662,68.967,27.886,73.5,38.464,78.7,50.61,87.379,58.7,97.75,61.537c10.028,2.744,21.012-1.19,30.127-9.333,7.8-6.972,14.421-32.7,14.421-32.7,1.373.6,6.232,2.843,7.5,3.611,12.961,11.133,22.734,33.394,27.412,48.556.028.091.056.182.081.271l-.28.021a50.262,50.262,0,0,0-21.163,7.065c-4.646,2.783-13.485,12.362-13.485,12.362l-1.547-2.428s6.656-12.3,4.642-11.037c-3.529,2.205-26.751,39.934-30.286,56.07-.3,1.392.031,8.046.031,8.046.021.1-.346,6.344-2.021,10.055-4.325,9.583-14.016,23.492-23.334,28.735-9.611,4.427-20.045-.471-28.421-5.484l-.51-.307-.1-.06s-1.613-7.606-1.8-10.743c-.168-2.834.067-5.563,0-7.726-.154-5.013-.552-8.009-1.505-9.544-.432-2.213-1.469-8.149-8-15.18-3.1-3.337-10.763-6.691-14.01-10.438C25.173,109.419,16.018,96.575,14.6,95.078l-.371-.389.034-.123a25.866,25.866,0,0,0,.094-12.651l.967-.626c4.744-3.081,14.989-10.176,22.8-18.066,2.427-2.451,2.536-7,.988-5.505-.051.049-.1.1-.156.144l-.153-.139A63.912,63.912,0,0,0,.52,41.979C.346,41.97.171,41.99,0,42L.343,41.6c4.709-5.378,9.574-11.732,14.7-16.677C29.669,10.667,49.977.365,70.9,0Z" transform="translate(32.938 -13.024)" fill="#8fa7df"/>
      <path id="_Ink" data-name="ðŸ– Ink" d="M79.41,329.929a139.27,139.27,0,0,1-18.045-1.183,38.714,38.714,0,0,1-4.453-.625,22.746,22.746,0,0,1-4.292-1.3,14.4,14.4,0,0,1-3.74-2.268,11.572,11.572,0,0,1-2.8-3.53,13.6,13.6,0,0,1-1.369-3.369,14.2,14.2,0,0,1-.47-3.712,11.7,11.7,0,0,1,.584-3.634,8.959,8.959,0,0,1,1.79-3.133,24.434,24.434,0,0,1-.129-5.329,26.387,26.387,0,0,1,.988-5.242,27.534,27.534,0,0,1,4.92-9.421.145.145,0,0,0,.044.007.255.255,0,0,0,.215-.183c-.005.005-.008.007-.01.007h0s0-.006,0-.013a1.809,1.809,0,0,0-.249.183.083.083,0,0,1-.064-.083c.005-.073.117-.17.415-.222a.882.882,0,0,1-.063.09L52.66,287a.815.815,0,0,1,.458-.161,2.614,2.614,0,0,0-.367.035,71.786,71.786,0,0,0,3.871-6.478,20.652,20.652,0,0,0,1.132-2.659,13.164,13.164,0,0,0,.6-2.528,14.5,14.5,0,0,0-.409-5.424A48.944,48.944,0,0,0,55.4,262.6l-2.253-.081c-4.287-.151-8.72-.307-13.066-.693-2.341-.208-4.462-.464-6.485-.782-2.272-.357-4.361-.784-6.384-1.3a2.472,2.472,0,0,1-1.555.565,1.944,1.944,0,0,1-1.171-.369,2,2,0,0,1-.736-1.18c-3.327-14.218-6.544-28.707-9.655-42.719-2.165-9.751-4.4-19.834-6.661-29.744-.5-2.219-1.04-4.5-1.612-6.915-1.447-6.108-3.088-13.032-4.237-19.885a94.134,94.134,0,0,1-1.5-20.352c.087-1.671.242-3.3.461-4.852a45.684,45.684,0,0,1,.9-4.675,38.374,38.374,0,0,1,1.4-4.457,33.534,33.534,0,0,1,1.952-4.2,30.568,30.568,0,0,1,5.774-7.452,32.919,32.919,0,0,1,3.931-3.172,37.94,37.94,0,0,1,4.7-2.747,3.239,3.239,0,0,1-2.855-1.7,13.706,13.706,0,0,1-1.344-3.386c-.09-.3-.176-.59-.264-.864a15.564,15.564,0,0,1-.626-3.319,15.757,15.757,0,0,1,.09-3.235,19.571,19.571,0,0,1,1.933-6.132,36.859,36.859,0,0,1,8.12-10.333c3.559-3.568,7.307-7.623,11.458-12.4,3.7-4.258,7.374-8.681,10.925-12.959,3.136-3.777,6.379-7.683,9.631-11.462,3.646-4.237,6.917-7.861,10-11.077,3.7-3.86,7.209-7.232,10.733-10.307,1.91-1.666,3.846-3.262,5.757-4.744,2-1.554,4.049-3.037,6.078-4.407a73.432,73.432,0,0,1,7.975-4.606,68.761,68.761,0,0,1,8.563-3.558A56.712,56.712,0,0,1,123.47,0a47.074,47.074,0,0,1,8.016.678,43.709,43.709,0,0,1,7.869,2.132.163.163,0,0,1,.114.186.161.161,0,0,1-.159.137.2.2,0,0,1-.044,0A47.138,47.138,0,0,0,131.136,2.1c1.36.166,2.729.382,4.054.591a54.952,54.952,0,0,0,8.49.889,22.969,22.969,0,0,0,3.989-.329,57.767,57.767,0,0,1,21.07.43A56.5,56.5,0,0,1,179.9,7.223a53.718,53.718,0,0,1,10.159,5.822,51.057,51.057,0,0,1,8.687,8.032,1.821,1.821,0,0,1,1.878-1.649,2.288,2.288,0,0,1,1.971,1.1,28.522,28.522,0,0,1,5.883,2.9,36.254,36.254,0,0,1,5.257,4.137,49.45,49.45,0,0,1,4.679,5.111,68.814,68.814,0,0,1,4.148,5.817,111.242,111.242,0,0,1,6.894,12.686c2.029,4.306,3.821,8.611,5.342,12.307.171.631.569,1.7,1.072,3.048v0a76.481,76.481,0,0,1,2.474,7.408,13.8,13.8,0,0,1,.5,3.179,3.421,3.421,0,0,1-.153,1.118,1.219,1.219,0,0,1-.507.675c1.423,1.949,2.818,4.01,4.145,6.125,1.272,2.027,2.523,4.168,3.718,6.364,2.236,4.109,4.316,8.459,6.358,13.3,1.77,4.194,3.492,8.711,5.263,13.81,1.4,4.03,2.811,8.357,4.576,14.028a21.1,21.1,0,0,1,1.467,5.9,8.556,8.556,0,0,1-.3,2.919,7.216,7.216,0,0,1-1.475,2.7,96.005,96.005,0,0,1,8.475,5.8,73.215,73.215,0,0,1,7.7,6.8,56.89,56.89,0,0,1,6.471,7.893,48.89,48.89,0,0,1,2.635,4.384,45.628,45.628,0,0,1,2.161,4.69,36.472,36.472,0,0,1,2.2,7.008,31.1,31.1,0,0,1,.619,6.7,29.8,29.8,0,0,1-.81,6.359,31.872,31.872,0,0,1-2.09,5.984,40.248,40.248,0,0,1-7.429,10.705,58.279,58.279,0,0,1-10.774,8.794c-3.9,2.821-8,5.611-12.182,8.293-4.043,2.59-8.285,5.155-12.61,7.623-4.162,2.375-8.525,4.733-12.968,7.007-4.257,2.179-8.717,4.347-13.256,6.445-5.416,2.5-11.192,5-18.178,7.883a64.428,64.428,0,0,0-7.388,3.444,26.906,26.906,0,0,0-6.448,4.889,6.056,6.056,0,0,1-1.473,1.575,2.532,2.532,0,0,1-1.444.494c-1.328,0-2.7-1.227-4.075-3.648a43.051,43.051,0,0,1-3.352-8.3c-.854-2.763-1.665-5.954-2.284-8.985a40.69,40.69,0,0,1-.869-5.7,36.052,36.052,0,0,1-6.747,1.108c-1.159.116-2.357.236-3.508.411a2.384,2.384,0,0,1,.327,1.219,2.293,2.293,0,0,1-.387,1.256,38.02,38.02,0,0,1-.743,7.461c.216-.019.428-.029.63-.029a4.108,4.108,0,0,1,2.3.589,1.769,1.769,0,0,1,.841,1.3,1.448,1.448,0,0,1-.4,1.1,3.023,3.023,0,0,1-2.255.781,7.014,7.014,0,0,1-1.515-.181c-.049.452-.1.911-.145,1.355l0,.028q-.061.572-.122,1.145a5.788,5.788,0,0,1,1.675-.223,7.039,7.039,0,0,1,2.354.385,2.308,2.308,0,0,1,1.445,1.136,1.267,1.267,0,0,1-.011.941,3.291,3.291,0,0,1-.836,1.158,3.843,3.843,0,0,1-1.759.371,12.666,12.666,0,0,1-1.462-.115h-.009a12.8,12.8,0,0,0-1.49-.116c-.1,0-.194,0-.287.007-.47,3.7-.759,7.459-1.038,11.1h0c-.157,2.05-.32,4.171-.514,6.263a20.3,20.3,0,0,0,3.347,2.308c1.189.673,2.456,1.285,3.68,1.876a50.789,50.789,0,0,1,4.614,2.427,19.483,19.483,0,0,1,2.109,1.49,14.328,14.328,0,0,1,1.868,1.819A10.2,10.2,0,0,1,178.614,292a10.038,10.038,0,0,1,.483,1.9,9.769,9.769,0,0,1,.1,1.941,9.252,9.252,0,0,1-3.095,6.491,5.742,5.742,0,0,1,.793,2.759,6.57,6.57,0,0,1-.535,2.746,7.4,7.4,0,0,1-1.9,2.633,6.858,6.858,0,0,1-2.9,1.535,16.9,16.9,0,0,1-3.95.441c-3.774,0-7.55-1.051-11.2-2.067l-.712-.2c-2.273-.748-4.607-1.622-6.936-2.6-2.2-.923-4.471-1.966-6.742-3.1-4.138-2.068-8.357-4.463-12.9-7.321a19.367,19.367,0,0,1-5.211-4.766A20.165,20.165,0,0,1,120.7,286.1c-1.051-3.24-2.629-8.2-4.191-13.851-1.676-6.064-3-11.724-3.929-16.823-.55-3.015-.976-5.9-1.264-8.566a76.784,76.784,0,0,1-.476-8.158,44.858,44.858,0,0,1,.553-7.365,24.338,24.338,0,0,1,1.824-6.189,4.373,4.373,0,0,1,1.991-1.281,7.2,7.2,0,0,1,2.2-.277c.363,0,.723.013,1.07.025h.015c.356.013.692.025,1.029.025a5.3,5.3,0,0,0,2.132-.35,3.073,3.073,0,0,0,1.553-1.654c-3.007-.235-6.479-.276-10.155-.32h0c-2.674-.032-5.44-.064-8.207-.174-3.133-.124-5.809-.331-8.181-.634a44.418,44.418,0,0,1-7.515-1.547,26.478,26.478,0,0,1-3.308-1.257,19,19,0,0,1-2.9-1.655c.224,3.22.478,6.492.724,9.656.393,5.057.8,10.286,1.093,15.433.33,5.773.481,10.828.462,15.456a5.04,5.04,0,0,0,.288,2.186,4.274,4.274,0,0,1,.194,2.507c1.686,2.88,3.151,5.879,4.755,9.219a9.78,9.78,0,0,1,1.663,2.015,6.351,6.351,0,0,1,.591,1.226,3.636,3.636,0,0,1,.218,1.241,2.361,2.361,0,0,1-.87,1.815c7.027,10.284,10.8,22.437,13.826,34.039a3.777,3.777,0,0,1,2.088,1.434,9.053,9.053,0,0,1,1.379,2.64,16.126,16.126,0,0,1,.725,3.046,13.319,13.319,0,0,1,.127,2.652c-.37,3.147-2.11,5.317-5.319,6.632-2.773,1.137-6.179,1.456-9.184,1.738-.644.06-1.251.118-1.84.181-3.537.372-7.152.609-10.746.707C81.882,329.912,80.638,329.929,79.41,329.929Zm-32.42-20.06h0a19.583,19.583,0,0,0,.131,3.15,14.345,14.345,0,0,0,.6,2.692,11.617,11.617,0,0,0,1.028,2.267,10.8,10.8,0,0,0,1.411,1.877,12.227,12.227,0,0,0,2.991,2.3,17.815,17.815,0,0,0,3.7,1.5,35.662,35.662,0,0,0,8.8,1.2c4.477.425,9.013.641,13.484.641,1.82,0,3.662-.036,5.475-.107l1.367-.079.117-.007a95.844,95.844,0,0,0,16.314-1.877,4,4,0,0,0,2.875-1.977,4.14,4.14,0,0,0,.458-2.023,6.2,6.2,0,0,0-.5-2.282,1.828,1.828,0,0,1-.734.161,1.4,1.4,0,0,1-.811-.248,4.094,4.094,0,0,1-1.172-1.192A56.811,56.811,0,0,1,90.749,319.6a62.937,62.937,0,0,1-12.464,1.235,64.143,64.143,0,0,1-14.805-1.724,58.54,58.54,0,0,1-13.788-5.132,2.1,2.1,0,0,1-1.81-1.2,8.841,8.841,0,0,1-.74-2.274C47.09,310.28,47.041,310.069,46.99,309.869Zm4.972,1.936h0a2.169,2.169,0,0,1-.617,1.556c2.082.675,4.179,1.272,6.233,1.775s4.121.926,6.153,1.259,4.078.584,6.1.75,4.052.248,6.065.248h0c2.111,0,4.259-.092,6.385-.273s4.267-.454,6.407-.814c2.121-.357,4.293-.81,6.456-1.346,2.14-.531,4.338-1.16,6.533-1.87-.74-3.711-1.768-7.71-3.144-12.223-1.227-4.026-2.61-8.076-3.947-11.993v0c-1.378-4.038-2.8-8.213-4.058-12.36a3.712,3.712,0,0,1-1.276-1.5,6.066,6.066,0,0,0-.716-1.048,1.847,1.847,0,0,1-1.045-.464,2.371,2.371,0,0,1-.7-1.125,23.261,23.261,0,0,0-6.23-2.47,31.036,31.036,0,0,0-7.474-.945,21.93,21.93,0,0,0-5.533.654,12.264,12.264,0,0,0-4.512,2.127c.387,2.233-.493,4.3-1.345,6.294l-.045.106c.748-.178,2.993-.529,5.682-.828a86.376,86.376,0,0,1,9.061-.573,26.626,26.626,0,0,1,4.926.369c1.437.282,2.342.729,2.689,1.328a1.554,1.554,0,0,1-.146,1.61,3.307,3.307,0,0,1-1.167.608,4.5,4.5,0,0,1-1.277.167,13.633,13.633,0,0,1-2.349-.283c-.54-.1-1.05-.188-1.55-.235-2.17-.18-4.407-.272-6.649-.272a90.468,90.468,0,0,0-10.147.587c-.2.566-.355,1.17-.5,1.753a13.466,13.466,0,0,1-.775,2.417,59.5,59.5,0,0,1,8.8-2.14,79.181,79.181,0,0,1,9.01-.946c.35-.019.727-.046,1.059-.071h0c.685-.051,1.392-.1,2.085-.1a7.84,7.84,0,0,1,2.372.306,4.454,4.454,0,0,1,2.021,1.269,2,2,0,0,1,.4.951,1.461,1.461,0,0,1-.158.837,3.178,3.178,0,0,1-1.588,1.313,5.548,5.548,0,0,1-2.159.484,3.271,3.271,0,0,1-.377-.021c-1.924-.058-3.964-.087-6.064-.087-6.1,0-12.2.24-17.919.486-1.277,2.1-2.6,4.322-3.6,6.381a23.735,23.735,0,0,0-1.961,5.38c-.752,3.419-.574,7.065.637,13l-.013-.011a.216.216,0,0,1-.024-.02Zm69.564-87.226a9.492,9.492,0,0,1-2.408.749,12.239,12.239,0,0,0-2.042.57,3.532,3.532,0,0,0-1.606,1.218c-2.714,17.173,2.274,34.466,7.1,51.19.59,2.046,1.2,4.161,1.78,6.224a15.793,15.793,0,0,0,7.129,9.336,123.589,123.589,0,0,0,23.853,11.726c.507.142,1.107.322,1.742.513l.011,0c1.452.437,3.257.98,5.1,1.406a24.53,24.53,0,0,0,5.433.74,9.262,9.262,0,0,0,2.665-.343,4.53,4.53,0,0,0,2.009-1.179,2.437,2.437,0,0,0,.473-1.5,1.684,1.684,0,0,0-.681-1.247l-.181-.069c-.846-.319-2-.756-2.127-1.827l.031-.011a1.569,1.569,0,0,1-.038-1.421,2.739,2.739,0,0,1,.788-1,2.979,2.979,0,0,1,1.109-.582,2.741,2.741,0,0,0,1.958-.826,5.563,5.563,0,0,0,1.137-2.026,7.683,7.683,0,0,0,.034-1.807,6.835,6.835,0,0,0-.37-1.614,8.352,8.352,0,0,0-1.717-2.758,28.763,28.763,0,0,0-5.71-4.394h0c-1.22-.791-2.482-1.609-3.586-2.469a12.84,12.84,0,0,1-2.779-2.813,1.614,1.614,0,0,1-.622,1.014,1.787,1.787,0,0,1-1.051.327,1.931,1.931,0,0,1-1.368-.546,1.641,1.641,0,0,1-.472-1.2,80.97,80.97,0,0,1,1.516-14.636v-.009c.216-1.307.439-2.659.639-3.98-.069,0-.143,0-.22,0a11.715,11.715,0,0,0-1.6.15,11.718,11.718,0,0,1-1.6.15,4.137,4.137,0,0,1-.913-.093c-.08-.5.476-1.066,1.652-1.688a25.032,25.032,0,0,1,2.868-1.216h0l.378-.141c.232-1.08.476-2.145.725-3.166-.736.044-1.407.067-1.993.067a10.218,10.218,0,0,1-2.408-.213c-.493-.129-.753-.313-.774-.548-.033-.384.6-.888,1.749-1.384a19.909,19.909,0,0,1,4.281-1.214c.178-.606.349-1.278.537-2.115a23.472,23.472,0,0,0,.606-4.43,22.9,22.9,0,0,1-9.439,2.309,15.23,15.23,0,0,1-3.195-.331,11.4,11.4,0,0,1-2.6-.949,11.856,11.856,0,0,1-2.248-1.5,12.834,12.834,0,0,1-1.86-1.942,13.847,13.847,0,0,1-1.437-2.286,14.391,14.391,0,0,1-1.5-5.687,13.312,13.312,0,0,1,.178-2.947,12.275,12.275,0,0,1,.857-2.841,5.344,5.344,0,0,1-.172-1.884,7.934,7.934,0,0,1,.4-1.878,18.46,18.46,0,0,1,1.7-3.47c-5.074-.018-10.1-.155-15.226-.307a14.314,14.314,0,0,0-2.071,1.757,9.853,9.853,0,0,0-1.4,1.825,8.371,8.371,0,0,0-1.141,3.851c-.151,2.657.752,5.5,1.708,8.5v0c.289.909.588,1.848.861,2.8,2.194,7.652,4.05,15.536,5.845,23.16h0c.683,2.9,1.389,5.9,2.1,8.847A29.808,29.808,0,0,0,150.105,294.5a36.318,36.318,0,0,0,6.077,2.519,37.054,37.054,0,0,0,6.43,1.393c.291.029.592.049.883.067h0a9.782,9.782,0,0,1,2.077.281,3.145,3.145,0,0,1,1.711,1.148,1.929,1.929,0,0,1,.506,1.257,1.655,1.655,0,0,1-.506,1.247,3.178,3.178,0,0,1-1.472.9,6.75,6.75,0,0,1-1.983.259,28.291,28.291,0,0,1-6.448-1.11c-.665-.168-1.293-.327-1.807-.435a46.954,46.954,0,0,1-7.489-2.949,35.275,35.275,0,0,1-5.957-3.763,32.357,32.357,0,0,1-8.239-9.72,45.35,45.35,0,0,1-2.743-5.834c-.756-1.93-1.453-4.024-2.133-6.4-1.269-4.442-2.283-9.209-3.356-14.256v0l-.026-.121c-.547-2.946-1.318-5.995-2.064-8.943v0a106.058,106.058,0,0,1-2.677-12.754,39.2,39.2,0,0,1-.309-6.38,30.165,30.165,0,0,1,.288-3.173,26.97,26.97,0,0,1,.653-3.156ZM62.321,279.434c-.293.039-.592.076-.881.112h0l-.025,0-.34.042-.029.079,0,.005c-.017.045-.034.092-.051.139C61.418,279.686,61.852,279.562,62.321,279.434Zm18.426-17.977c-3.575.363-7.223.445-10.751.523-3.784.084-7.7.172-11.531.607a26.81,26.81,0,0,1,3.358,6.563,13.058,13.058,0,0,1,2.461-1.825,14.237,14.237,0,0,1,2.738-1.2,17.449,17.449,0,0,1,2.941-.656,22.717,22.717,0,0,1,3.071-.2,34.416,34.416,0,0,1,6.15.612c1.781.327,3.681.784,5.809,1.4-.506-1.475-.961-2.939-1.353-4.351a2.409,2.409,0,0,1-.381.03,2.9,2.9,0,0,1-1.446-.408,2.8,2.8,0,0,1-1.066-1.095h0Zm-52.786-3.642a.655.655,0,0,1,.005.066c0,.01,0,.019,0,.029.16.011.324.025.469.038l.039,0c-.108-.026-.216-.056-.321-.084l-.008,0Zm120.855-35.689c-.3,0-.779.511-1.433,1.518-.529.814-1.031,1.739-1.272,2.183l-.111.2a16.4,16.4,0,0,0-1.123,4.393,13.858,13.858,0,0,0-.25,2.75,12.463,12.463,0,0,0,.295,2.58,10.977,10.977,0,0,0,.8,2.322,9.518,9.518,0,0,0,1.253,1.975A7.994,7.994,0,0,0,153.264,243a11.078,11.078,0,0,0,4.187-.887c-.114-.01-.238-.015-.38-.015-.214,0-.431.011-.641.022h0c-.211.011-.429.022-.639.022a2.391,2.391,0,0,1-1.522-.418.021.021,0,0,0,.007-.007l0,0a.564.564,0,0,1-.047-.542c.3-.61,1.857-.853,3.11-1.048a7.577,7.577,0,0,0,1.4-.289c.9-.187,1.808-.374,2.689-.554l.037-.008h0c2.454-.5,4.991-1.021,7.471-1.605.5-.118,1.014-.259,1.511-.4a18.98,18.98,0,0,1,3.518-.731c-.5-5.158-.671-8.9-.794-11.626h0c-.218-4.826-.284-6.282-1.807-6.282a12.633,12.633,0,0,0-2.925.663,61.343,61.343,0,0,1-6.926,1.677c-1.675.3-3.444.537-5.258.707-2.115.2-4.366.312-6.692.338a.481.481,0,0,1-.081.412.441.441,0,0,1-.33.151c-.069,0-.118-.019-.126-.049s.017-.057.069-.088C149.048,222.233,148.951,222.125,148.816,222.125Zm52.72,3.551a.056.056,0,0,0-.042.017.1.1,0,0,0-.02.075c0,.045.025.092.052.092s.034-.012.053-.069c.006-.018.015-.037.022-.051v0c.005-.012.011-.023.015-.035A.171.171,0,0,0,201.536,225.677Zm-4.927-38.616h0c-1.359,13.835.377,27.188,5.021,38.613a91.333,91.333,0,0,0,.488-10.4c-.009-3.541-.15-7.2-.286-10.73h0c-.19-4.947-.387-10.063-.224-14.915a1.308,1.308,0,0,1,.36-.959,1.41,1.41,0,0,1,1-.391,1.5,1.5,0,0,1,.967.339,1.355,1.355,0,0,1,.475,1.012c.019.588.037,1.185.054,1.762a117.336,117.336,0,0,0,1.235,16.145,44,44,0,0,0,2.008,7.756,33.945,33.945,0,0,0,1.593,3.68,30.612,30.612,0,0,0,2.077,3.5c.172-3.946.076-8.027-.016-11.973v0c-.109-4.675-.222-9.509.1-14.2a59.3,59.3,0,0,1,.87-6.977,42.72,42.72,0,0,1,1.852-6.808,1.031,1.031,0,0,1,.392-.476.99.99,0,0,1,.537-.159.844.844,0,0,1,.861.878,81.389,81.389,0,0,0,1.387,11.435,46.888,46.888,0,0,0,1.579,6.267,8.716,8.716,0,0,0,2.117,3.827,15.579,15.579,0,0,0,.7-4.117c.07-1.428.01-2.864-.058-4.212-.2-4.72-.636-9.612-1.326-14.955-.573-4.432-1.316-9.151-2.341-14.85a6.323,6.323,0,0,1-.064-1.522,5.407,5.407,0,0,1,.325-1.494,3.461,3.461,0,0,1,2.027-2.114,13.584,13.584,0,0,1,2.579-1.867c.921-.533,1.859-.985,2.74-1.4a40.938,40.938,0,0,1,6.008-2.328c2.086-.647,4.27-1.206,6.382-1.747,1.991-.51,4.05-1.037,6.026-1.637a44.118,44.118,0,0,0,5.723-2.126,24.79,24.79,0,0,0,5.112-3.1,20.276,20.276,0,0,0,2.231-2.069,19.956,19.956,0,0,0,1.963-2.495l.138-.208.029-.043a13.64,13.64,0,0,0,2.232-4.453c-.675-2.518-1.563-5.031-2.421-7.461v0c-.411-1.163-.836-2.366-1.232-3.554-1.357-4.024-2.592-7.532-3.776-10.724-1.36-3.708-2.78-7.27-4.221-10.587-1.557-3.586-3.2-7.037-4.895-10.258-1.8-3.433-3.722-6.735-5.707-9.813a110.115,110.115,0,0,0-6.656-9.254,39.16,39.16,0,0,0-4.421.566,36.229,36.229,0,0,0-4.074,1.012,37.7,37.7,0,0,0-7.347,3.2,54.879,54.879,0,0,0-6.677,4.494c-1.879,1.455-3.879,3.139-6.486,5.463-.708.611-1.359,1.15-1.99,1.649,2.6,4.558,5.39,9.108,8.085,13.509l0,.007c1.255,2.048,2.552,4.167,3.817,6.263l.389.648.022.036a32.12,32.12,0,0,1,3.317,6.609c1.8,5.68-2.565,14.638-6.07,21.836-1.066,2.189-2.073,4.257-2.777,5.978-1.387,2.445-2.77,4.825-4.108,7.126-12.476,21.466-22.331,38.421-10.6,65.347a11.3,11.3,0,0,0,.165-3.389h0a20.978,20.978,0,0,1,.069-3.512,3.3,3.3,0,0,1,.4-1.248,1.1,1.1,0,0,1,.832-.556c-.208-2.039-.351-4.06-.428-6-.085-2.176-.087-4.277,0-6.244A41.712,41.712,0,0,1,196.609,187.06Zm-48.883,35.006a1.573,1.573,0,0,0-.555.406l0,0c-.078.076-.159.155-.241.221.091-.071.168-.133.249-.2.15-.121.3-.247.55-.429Zm-64.9-7.36h0c.022.289.044.578.066.865.392.08.783.179,1.16.276l.1.024a8.616,8.616,0,0,1-1.322-1.165ZM213.7,191.572h0a98.19,98.19,0,0,0-.648,12.6v.026c-.006.663-.011,1.349-.019,2.022.071-1.57.139-3.166.205-4.709V201.5c.139-3.256.283-6.622.462-9.932ZM108.362,173.3h0a1.521,1.521,0,0,1,1.143.51,1.487,1.487,0,0,1,.315,1.243,53.894,53.894,0,0,1-1.481,6.033,40.625,40.625,0,0,1-2.277,5.777l-.184,1.076-.048.279,0,.016c-.4,2.323-.81,4.724-1.191,7.09a.757.757,0,0,1,.333-.076.858.858,0,0,1,.2.025,28.553,28.553,0,0,0,2.2-2.5,31.616,31.616,0,0,0,1.889-2.692,40.008,40.008,0,0,0,2.995-5.837,94,94,0,0,0,4-12.585,11.327,11.327,0,0,1-.416-3.337c.011-1.12.135-2.266.256-3.374a28.511,28.511,0,0,0,.249-4.2,17.216,17.216,0,0,0,.052-3.48,20.374,20.374,0,0,0-.588-3.372,32.7,32.7,0,0,0-2.538-6.473c-.968-9.972-8.606-15.659-15.992-21.158-2.234-1.663-4.543-3.383-6.6-5.179a61.072,61.072,0,0,1-5.176-5.9c-1.623-2.076-3.193-4.27-4.712-6.391l0,0h0c-1.439-2.01-2.927-4.088-4.451-6.054a63.282,63.282,0,0,0-4.823-5.6,36.489,36.489,0,0,0-5.576-4.713,29.68,29.68,0,0,0-3.19-1.886,28.37,28.37,0,0,0-3.521-1.5c-.183.012-.37.018-.556.018a12.112,12.112,0,0,1-3.991-.759.078.078,0,0,1-.052-.081.059.059,0,0,1,.052-.058c.83-.135,1.674-.316,2.491-.491h0c.651-.139,1.323-.284,1.987-.4a1.59,1.59,0,0,1,.709-.922,2.191,2.191,0,0,1,1.137-.289,3.239,3.239,0,0,1,1.382.325C75.28,80.735,85.935,70.915,96.239,61.418l.364-.336A66.373,66.373,0,0,0,79.5,49.719a74.761,74.761,0,0,0-9.636-3.688,78.589,78.589,0,0,0-10.046-2.359C55.717,48.315,51.742,53.2,47.9,57.934c-3.11,3.826-6.326,7.782-9.592,11.584-3.662,4.262-7,7.874-10.207,11.042-4.174,3.767-6.945,7.26-8.473,10.679a16.49,16.49,0,0,0-1.037,3.073,13.517,13.517,0,0,0-.339,3.2,12.974,12.974,0,0,0,.492,3.313,15.167,15.167,0,0,0,1.456,3.409,1.555,1.555,0,0,1,.945,1.246,1.81,1.81,0,0,1-.079.869,1.634,1.634,0,0,1-.517.735,2.711,2.711,0,0,0,.376-.126,3.61,3.61,0,0,1,.905-.262c.067,0,.111.016.129.048s.009.1-.038.182a25.187,25.187,0,0,0-7.81,5.307,24.657,24.657,0,0,1,3.535-2.168,23.89,23.89,0,0,1,3.684-1.476,24.928,24.928,0,0,1,3.8-.843,27.6,27.6,0,0,1,3.871-.268,40.227,40.227,0,0,1,15.82,3.639,63.571,63.571,0,0,1,7.384,3.805,74.575,74.575,0,0,1,6.621,4.467c2.952,2.154,5.885,4.479,8.718,6.912,2.748,2.36,5.485,4.892,8.134,7.525a20.252,20.252,0,0,1,5.161,2.009l.215.108c5.219,2.5,8.449,5.5,10.164,9.414a19.773,19.773,0,0,1,1.5,6.283,45.742,45.742,0,0,1-.082,7.629,50.878,50.878,0,0,0-2.864,6.706c-.816,2.306-1.539,4.7-2.239,7.014-.606,2.006-1.233,4.08-1.916,6.081-.588,1.3-.783,2.17-.564,2.509a.352.352,0,0,0,.317.158,3.226,3.226,0,0,0,1.736-1.1A5.615,5.615,0,0,0,88.5,178.5a19.419,19.419,0,0,0,2.653-5.209h0c.238-.612.485-1.245.742-1.84a1.793,1.793,0,0,1,.5-.694,1.188,1.188,0,0,1,.768-.284,1.319,1.319,0,0,1,.363.053,1.487,1.487,0,0,1,.877.769,1.04,1.04,0,0,1,.048.86c-.391,1.009-.788,2.026-1.173,3.009-2.11,5.4-4.292,10.987-5.99,16.593a19.438,19.438,0,0,0,3.8-2.992,27.3,27.3,0,0,0,3.074-3.719,73.524,73.524,0,0,0,4.861-8.5c.365-.71.743-1.444,1.116-2.156a1.3,1.3,0,0,1,1.161-.744,1.629,1.629,0,0,1,1.338.77,1.468,1.468,0,0,1,.061,1.468c-.631,1.288-1.472,2.982-2.379,4.66a69.655,69.655,0,0,0-2.844,7.081c-.765,2.228-1.482,4.62-2.194,7.314,7.217-4.3,9.7-13.149,11.7-20.26a1.482,1.482,0,0,1,.459-1.045A1.364,1.364,0,0,1,108.362,173.3Zm-7.194-48.734c1.912,1.4,3.888,2.839,5.721,4.4a28.67,28.67,0,0,1,6.3,7.313,27.6,27.6,0,0,1,3.455,9,24.235,24.235,0,0,1,3.685,14.346c-.006.151-.007.33-.009.519v.007a10.928,10.928,0,0,1-.186,2.266,2.8,2.8,0,0,1-.4.971,1.3,1.3,0,0,1-.757.541c.36,3.418.65,6.183.913,8.7,1.727,1.044,3.265,1.919,4.7,2.675a53.5,53.5,0,0,0,5.022,2.346,35.141,35.141,0,0,0,5.233,1.666,24.128,24.128,0,0,0,5.334.633,19.187,19.187,0,0,0,3.906-.394,18.045,18.045,0,0,0,3.858-1.273,39.947,39.947,0,0,0,8.533-6.5,48.993,48.993,0,0,0,6.738-8.429,63.429,63.429,0,0,0,8.165-19.925,2.339,2.339,0,0,1-.53-1.269,3.18,3.18,0,0,0-.3-.961l.009-.007a40.457,40.457,0,0,1,.222-5.918,43.2,43.2,0,0,1,1.027-5.677,50.133,50.133,0,0,1,1.715-5.469c.645-1.717,1.415-3.5,2.288-5.292a98.351,98.351,0,0,1,5.826-10.185c2.143-3.328,4.468-6.653,6.717-9.868,2.074-2.965,4.219-6.032,6.2-9.07a102.8,102.8,0,0,0,5.425-9.225c1.776-2.925,3.665-5.844,5.492-8.667,1.245-1.924,2.533-3.913,3.775-5.889a.181.181,0,0,1,.156-.087.2.2,0,0,1,.159.077.17.17,0,0,1,.025.153,87.341,87.341,0,0,1-4.015,11.892c-1.629,3.97-3.476,7.908-5.106,11.382.1-.195.851-.352,1.293-.352.2,0,.325.031.348.088.013.032-.005.071-.053.117a2.754,2.754,0,0,0-.49-.049.864.864,0,0,0-.818.367,1.959,1.959,0,0,0,.344,1.777,53.845,53.845,0,0,1,6.385-7.2,50.269,50.269,0,0,1,7.661-5.951,43.381,43.381,0,0,1,8.675-4.223,37.057,37.057,0,0,1,9.425-2.016c-1.334-4.32-3-8.932-4.826-13.335a140.255,140.255,0,0,0-6.829-14.257,90.251,90.251,0,0,0-8.6-12.987,55.246,55.246,0,0,0-4.892-5.331,37.417,37.417,0,0,0-5.248-4.191A91.837,91.837,0,0,1,200.171,32.5a71.4,71.4,0,0,1-3.565,9.1,50.419,50.419,0,0,1-9.285,13.629,35.487,35.487,0,0,1-11.258,7.879,30.465,30.465,0,0,1-12.154,2.537h0c-10.089,0-19.841-5.009-26.756-13.745a43.989,43.989,0,0,1-5.644-9.374,51.15,51.15,0,0,1-3.535-11.481,61.659,61.659,0,0,1-.951-13.408,72.839,72.839,0,0,1,.642-7.37c.351-2.551.845-5.17,1.467-7.784a.307.307,0,0,1-.051-.271.242.242,0,0,1,.159-.161A65.476,65.476,0,0,0,99.8,9.446a91.015,91.015,0,0,0-13.06,8.06,111.391,111.391,0,0,0-11.647,9.92c-4.5,4.341-9.2,9.313-14.358,15.2.444-.013.891-.019,1.329-.019a48.951,48.951,0,0,1,10.294,1.116,54.859,54.859,0,0,1,9.865,3.149,60.725,60.725,0,0,1,9.172,4.88,64.054,64.054,0,0,1,8.213,6.311,10.065,10.065,0,0,0,1.826-2.4,14.545,14.545,0,0,0,1.165-2.79,1.8,1.8,0,0,1,.665-.914,1.711,1.711,0,0,1,.99-.312h0a1.782,1.782,0,0,1,1.488.816,3.116,3.116,0,0,1,.629,1.28,3.9,3.9,0,0,1,.029,1.487,9.584,9.584,0,0,1-1.553,3.56,29.874,29.874,0,0,1-3.286,4.055,90.055,90.055,0,0,1-9.694,8.6c-4.884,3.837-10.88,8.067-17.341,12.232a17.661,17.661,0,0,1,.551,2.681,17.933,17.933,0,0,1,.131,2.654,21.5,21.5,0,0,1-.82,5.261A64.99,64.99,0,0,1,79.163,99.9c1.5,1.954,2.942,4,4.341,5.978,1.883,2.662,3.829,5.415,5.916,7.973,1.123,1.377,2.2,2.59,3.281,3.707a41.641,41.641,0,0,0,3.672,3.375c1.555,1.266,3.2,2.468,4.793,3.631h0Zm-22.707,12.1h0c3.458,3.61,6.889,7.531,10.2,11.655.044.058.084.113.122.168a15.453,15.453,0,0,0-1.356-4.008,14.122,14.122,0,0,0-2.244-3.211,20.808,20.808,0,0,0-6.717-4.6Zm120.57-45.22a157.751,157.751,0,0,1-8.479,13.318l0,0c-1.754,2.564-3.568,5.215-5.252,7.867a88.3,88.3,0,0,0-4.638,8.118,50.282,50.282,0,0,0-3.374,8.568,39.617,39.617,0,0,0-1.011,4.517,36.526,36.526,0,0,0-.452,4.705c3.309-1.314,6.982-2.6,11.227-3.917,3.785-1.179,7.666-2.28,11.419-3.345h0c3.256-.924,6.624-1.88,9.918-2.883.256-.065.517-.136.795-.212l.011,0a14.613,14.613,0,0,1,3.666-.67c.071,0,.142,0,.21,0a10.115,10.115,0,0,0,1.074-7.568,18.994,18.994,0,0,0-1.265-3.668c-.574-1.277-1.247-2.517-1.829-3.562a90.764,90.764,0,0,0-5.878-10.337A85.6,85.6,0,0,1,199.031,91.444ZM72.978,84.581c-1.26.706-2.39,1.292-3.453,1.791a33.184,33.184,0,0,1-3.6,1.458A27.089,27.089,0,0,1,68.97,89.64a32.181,32.181,0,0,1,2.8,2.162,19.012,19.012,0,0,0,1.207-7.221ZM130.483,3.24h0c-1.354,11.922-.821,22.092,1.632,31.092a38.17,38.17,0,0,0,1.814,5.3,40.934,40.934,0,0,0,2.593,5.071,41.409,41.409,0,0,0,3.292,4.7,39.546,39.546,0,0,0,3.911,4.173,36.052,36.052,0,0,0,4.45,3.5,31.98,31.98,0,0,0,4.908,2.685,27.1,27.1,0,0,0,10.872,2.326h0a26.147,26.147,0,0,0,4.607-.412c19.143-4,26.646-25.08,29.415-37.293A51.752,51.752,0,0,0,159.85,5c-.573-.023-1.182-.035-1.808-.035-2.44,0-4.995.179-7.466.352l-.06,0c-2.5.175-5.085.356-7.631.356a36.2,36.2,0,0,1-6.366-.5,22.088,22.088,0,0,1-6.036-1.942Z" transform="translate(-25.643 -14.129)"/>
    </g>
    <g id="Head" transform="translate(94.173)">
      <g id="HEAD-2" data-name="HEAD">
        <path id="_Skin-2" data-name="âœ‹ Skin" d="M77.322,35.528C75.808,17.057,71.2.7,49.534,0A75.6,75.6,0,0,0,20.788,6.011C-1.064,16.975-8,57.036,11.255,73.163a.2.2,0,0,0-.007.344,74.493,74.493,0,0,0,12.826,6.732c11.794,4.99,25.679,7.157,37.708,1.745,18.357-7.816,18.632-29.565,15.541-46.455Z" transform="translate(12.795 25.165)" fill="#edb98a"/>
        <path id="_Ink-2" data-name="ðŸ– Ink" d="M159.338,78.573A5.492,5.492,0,0,0,160.94,76a5.034,5.034,0,0,0,0-2.817c-.3-.976-.933-1.753-.79-2.768a2.318,2.318,0,0,1,.066-.307c.551-1.912,1.908-3.291,1.423-5.411a3.672,3.672,0,0,0-.754-1.561c.04-.459.075-.923.1-1.386a7.4,7.4,0,0,0-.082-5.918,22.377,22.377,0,0,0-.481-2.788,5.362,5.362,0,0,0-.3-2.411,34.273,34.273,0,0,0-1.636-3.684,1.358,1.358,0,0,0-.143-.99,9.206,9.206,0,0,0-1.217-1.546c-.317-.566-.635-1.127-.951-1.681-.146-.255-.308-.537-.486-.836a2.873,2.873,0,0,0,.231-2.842,1.311,1.311,0,0,0-1.161-.666c-.478.028-.96.05-1.444.068a10.33,10.33,0,0,0-3.032-2.643c-1.114-.945-2.243-1.872-3.342-2.819l-.935-.808-.007-.022c-.229-.837-.488-1.662-.746-2.492-.161-.514-.21-1.053-.71-1.333a10.264,10.264,0,0,0-3.854-.777l-.357-.316a5.617,5.617,0,0,0-.238-4.45,1.093,1.093,0,0,0-1.491-.391,4.988,4.988,0,0,1-3.455.912c-1.774-1.364-8.928-7.533-10.033-8.184-.014-.023-.025-.047-.039-.07a8.975,8.975,0,0,0-2.225-2.43l-.363-.38a4.623,4.623,0,0,1,.838-2.1c.049-.071.1-.139.159-.205a1.06,1.06,0,0,0-1.277-1.658c-.079.035-.159.071-.238.108-.848.378-1.786.79-2.763,1.137-.358-.134-.722-.255-1.054-.389L114.6,7.718c-.586-.236-1.205-.436-1.772-.713a2.73,2.73,0,0,0-2.883-2.133,2.564,2.564,0,0,1,.363-.73c.049-.068.1-.135.157-.2.7-.819-.236-2.338-1.242-1.609l-.214.152c-.279.2-.566.38-.855.559a1.945,1.945,0,0,0-1.53-.034,15.742,15.742,0,0,0-3.386,1.7c-.043.03-.088.056-.132.084a2.9,2.9,0,0,0-2.122-1.061h-.041a2.774,2.774,0,0,0-2.6-1.239,2.647,2.647,0,0,0-5.186-.581l-.329,1.072A11.615,11.615,0,0,0,89.6,1.875a16.633,16.633,0,0,0-7.535.741c-.247.071-.493.144-.739.217-.352-.408-.682-.826-1-1.216a1.043,1.043,0,0,0-1.765.731A1.418,1.418,0,0,1,78,3.679a8.458,8.458,0,0,1-1.468.069,4.822,4.822,0,0,1-2.065-.379,2.724,2.724,0,0,1-1.138-.939,2.733,2.733,0,0,0-4.27-.448,2.8,2.8,0,0,0-3.225,1.165,3.226,3.226,0,0,1-1.9,1.04c-.655.184-1.326.323-2,.444a1.04,1.04,0,0,0-1.4-.339c-.314.232-.619.47-.919.714a12.992,12.992,0,0,1-6.835-.574c-1.872-.766-3.59,1.326-3.281,3.082-.542.282-1.13.47-1.666.766a6.6,6.6,0,0,0-2.712,2.866c-.1.215-.2.433-.29.652-.437.356-.868.721-1.29,1.106l-2.1-1.079a1.042,1.042,0,0,0-1.513.616,6.342,6.342,0,0,1-1.171,2.9,47.936,47.936,0,0,0-5.519,3.393c-2.027.636-4.183,1.007-5.954,1.424a1,1,0,0,0-.6,1.464q.543.838,1.083,1.675-1.512,1.477-2.848,3.077A57.194,57.194,0,0,0,18.5,36.007l-2.21.892a1.044,1.044,0,0,0-.454,1.72,6.579,6.579,0,0,1,.728.914,12.149,12.149,0,0,1-3.991,4.338,2.7,2.7,0,0,0-1.125,1.364c-.179.119-.355.247-.529.377a1.059,1.059,0,0,0-.21,1.64A6.582,6.582,0,0,1,11.8,48.424c.068.249.139.5.21.751a18.576,18.576,0,0,0-3.922,5.095.877.877,0,0,0-.675.132C5.627,55.719,5.574,57.819,6.291,59.7a19.181,19.181,0,0,0,.679,8.466,7.953,7.953,0,0,0-2.025,4.2,85.884,85.884,0,0,0-.631,9.521,9.742,9.742,0,0,0-2.521,4.256l-1.2.6A1.173,1.173,0,0,0,0,87.768a8.4,8.4,0,0,0,1.924,4.762,10.485,10.485,0,0,0,1.628,2.943,22.321,22.321,0,0,1,1.4,1.932,1.229,1.229,0,0,1,.09.177,3.922,3.922,0,0,0-.428.7,4.511,4.511,0,0,0,.413,5.468,1.362,1.362,0,0,0-.082,1.9c3.13,3.578,5.74,7.929,10.083,9.83a1.086,1.086,0,0,1,.053.1,6.412,6.412,0,0,0-.28,5.41.568.568,0,0,0,.018.057c.384,1.148,1.09,2.987,2.363,3.344a4.279,4.279,0,0,0,1.187.161q1.516,1.46,3.027,2.925a10.173,10.173,0,0,1,.161,1.464A1.307,1.307,0,0,0,23.2,130.18c.293-.086,1.917-1.664,2.215-1.656.15.15.3.3.441.453a4.887,4.887,0,0,1,1.341,2.04,2.893,2.893,0,0,0,2.023,2.607,1.111,1.111,0,0,0,1.688,0c.035-.038.071-.075.108-.108l.17-.02q.39,1.166.783,2.329a2.764,2.764,0,0,0,3.871,1.618c.225.135.446.278.666.422.335.214.675.433,1.024.638.02.057.04.115.057.17a1.225,1.225,0,0,0,1.736.66,5.1,5.1,0,0,0,.547.141,5.505,5.505,0,0,0,2.892-.185,8.85,8.85,0,0,1,2.038-.728c.045,0,.092,0,.138,0a5.684,5.684,0,0,0,3,2.607,5.574,5.574,0,0,0,4.085-.27,9.494,9.494,0,0,0,1.285,1.932.783.783,0,0,0,1.092,0q.836-.741,1.664-1.488c.4-.154.8-.34,1.225-.512a23.473,23.473,0,0,0,3.981-1.54,6.732,6.732,0,0,0,1.571-1.387,11.315,11.315,0,0,0,2.319-1.792,2.322,2.322,0,0,0,1.065-.258,4.436,4.436,0,0,0,2.321-3.841,27.083,27.083,0,0,0,2.1-8.889,22.124,22.124,0,0,0,0-3.035,5.326,5.326,0,0,0-.5-1.828,5.659,5.659,0,0,1-.236-.614c.015-.68.024-1.36.033-2.037a3.817,3.817,0,0,1,.964-1.552,2.491,2.491,0,0,0,.386-2.989L70.036,109.4c.117-2.377.686-6.161-.576-6.558.051-.353.159-.7.221-1.053a6.4,6.4,0,0,0-.776-4.669c-.188-.307-.346-.578-.476-.843l-.245-1.457c-.126-.748-.249-1.5-.355-2.263-.055-.967-.106-1.934-.161-2.9q-.076-1.338-.168-2.678c.024-.4.06-.8.11-1.2.3-2.382,1.275-3.263,2.96-4.918.265-.042.527-.088.785-.141a11.975,11.975,0,0,1,3.7-.5c1.343.15,2.546.731,3.852-.011.384-.221,1.229-.83,1.3-1.313a.3.3,0,0,1,.02-.077c.09-.013.207-.024.28-.026,1.037-.035,2.027.373,3.073.26a4.808,4.808,0,0,0,3.073-1.5,7.668,7.668,0,0,0,2.855.205A6.343,6.343,0,0,0,91.765,77c.523-.283.357-.364.926-.135,1.295.525,2.466,1.219,3.924.859a4.17,4.17,0,0,0,1.959-1.143,6.68,6.68,0,0,0,.5-.5c.693.351,2.435,1.143,2.722,1.214a4.447,4.447,0,0,0,2.462-.1c.58-.194,1.29-.724,1.8-.832.66-.141,2.124.777,2.912,1.093a5.543,5.543,0,0,0,4.242.119c.481-.2,1.416-.98,1.776-.973a39.281,39.281,0,0,1,2.707,6.112c1.983,5.828,2.5,24.024,1.582,28.666-.035.137-.073.272-.11.408a66.04,66.04,0,0,1-4.178,11.9,19.441,19.441,0,0,1-7.754,8.673,21.985,21.985,0,0,1-12.049,2.265,41.8,41.8,0,0,1-7.8-1.371c-1.337-.347-2.663-.733-3.982-1.135-.576-.174-1.16-.338-1.725-.541a2.64,2.64,0,0,0-2.475.073,1.8,1.8,0,0,0-.64,2.437c.737,1.271,2.087,1.36,3.391,1.731,1.328.377,2.66.74,4,1.064a51.813,51.813,0,0,0,7.816,1.311,26.9,26.9,0,0,0,13.869-2.274c.485-.234.953-.483,1.405-.753-.168.234-.338.468-.51.7a1.533,1.533,0,0,0,.545,2.086c.212.11.424.216.638.32.029.068.06.137.095.205A4.674,4.674,0,0,0,113,140.749a18.919,18.919,0,0,0,4.858.062l4.379-.132c.344-.009.688-.02,1.032-.031l5.2-.157a5.187,5.187,0,0,0,2.921-.545,4.333,4.333,0,0,0,1.621-1.194,6.522,6.522,0,0,0,.805-.426,10.515,10.515,0,0,0,2.246-1.973c1.154.364,2.771.027,3-1.424.362-2.32,3.375-3.311,4.783-4.989a7.566,7.566,0,0,0,1.906-4.828c2.863-1.386,4.421-5.04,4.785-8.139.17-1.437.143-2.976.388-4.437a2.434,2.434,0,0,0,.287-.373,30.873,30.873,0,0,0,1.9-3.589,4.948,4.948,0,0,1,2.6-.929,2.058,2.058,0,0,0,.545-4.022l-.031-.011a5.793,5.793,0,0,0-.179-4.7c.031-.155.06-.307.088-.461a7.037,7.037,0,0,0,1.875-5,6.112,6.112,0,0,1,1.9-.9,1.218,1.218,0,0,0,.287-2.194,3.714,3.714,0,0,1-.805-.817,5.185,5.185,0,0,0-.79-4.916l2.138-2.742a1.582,1.582,0,0,0,0-2.205Q160.032,79.122,159.338,78.573Z" transform="translate(-33.09 -26.49)"/>
      </g>
      <g id="FACE" transform="translate(35.149 41.059)">
        <path id="_Ink-3" data-name="ðŸ– Ink" d="M27.5,36.973a6.493,6.493,0,0,1-2.007-.306,6.64,6.64,0,0,1-2.056-1.116,6.739,6.739,0,0,1-1.559-1.761,5.424,5.424,0,0,1-.727-1.924,4.578,4.578,0,0,1,.132-2.087.208.208,0,0,1,.15-.127,4.969,4.969,0,0,1,.774.94l0,.005a8.245,8.245,0,0,0,1.224,1.5A5.623,5.623,0,0,0,26.1,33.465a4.253,4.253,0,0,0,2.771-.434,6.975,6.975,0,0,0,1.349-1.016l.049-.044a4.579,4.579,0,0,1,1.466-1,1.281,1.281,0,0,1,.443-.078,1.642,1.642,0,0,1,.978.356,1.958,1.958,0,0,1,.531.612,1.513,1.513,0,0,1,.194.769,3.212,3.212,0,0,1-.921,2.1,7.422,7.422,0,0,1-2.683,1.71A7.683,7.683,0,0,1,27.5,36.973Zm1.1-12.1h0a7.667,7.667,0,0,1-2.734-.551,13.808,13.808,0,0,1-3.215-1.824,1.236,1.236,0,0,1-.449-.714,1.479,1.479,0,0,1,.064-.8A1.823,1.823,0,0,1,22.8,20.2a1.318,1.318,0,0,1,.844-.329,1.2,1.2,0,0,1,.653.2l.219.169c1.118.864,2.806,2.17,4.426,2.17a2.642,2.642,0,0,0,1.969-.873,2.911,2.911,0,0,0,.552-2.344c-.374-1.822-2.355-3.151-2.954-3.515a.551.551,0,0,1-.149-.634.82.82,0,0,1,.8-.568,1.119,1.119,0,0,1,.189.017,5.964,5.964,0,0,1,2.1.758,4.758,4.758,0,0,1,1.411,1.3,5.168,5.168,0,0,1,.9,3.452,5.513,5.513,0,0,1-1.5,3.369A4.969,4.969,0,0,1,28.6,24.87Zm8.492-8.279a1.508,1.508,0,0,1-1.129-.507,4.226,4.226,0,0,1-.874-1.991,8.49,8.49,0,0,1-.154-2.037l.011-.168a8.864,8.864,0,0,1,.672-2.945c.393-.855.9-1.307,1.473-1.307a2.613,2.613,0,0,1,2.173,1.774,7.376,7.376,0,0,1,.663,2.824v.049a6.528,6.528,0,0,1-.728,2.686,3.759,3.759,0,0,1-.883,1.148A1.884,1.884,0,0,1,37.088,16.59Zm-24.015,0a1.884,1.884,0,0,1-1.223-.473,3.759,3.759,0,0,1-.883-1.148,6.528,6.528,0,0,1-.728-2.686v-.049A7.376,7.376,0,0,1,10.9,9.409a2.613,2.613,0,0,1,2.172-1.774c.585,0,1.1.473,1.5,1.369a9.134,9.134,0,0,1,.656,3.051l0,.091c.04.948-.128,2.994-1.045,3.95A1.5,1.5,0,0,1,13.073,16.59Zm7.439-8.427a18.446,18.446,0,0,1-2.759-.216,16.227,16.227,0,0,1-3.554-1.1c-.706-.281-1.435-.571-2.189-.795A8.421,8.421,0,0,0,9.6,5.743a23.34,23.34,0,0,0-3.029.25l-.69.093-.017,0c-1.006.135-2.046.276-3.056.475-.3.058-.6.135-.888.208a8.8,8.8,0,0,1-1.772.322h0a.146.146,0,0,1-.125-.084.125.125,0,0,1,.006-.133A8.3,8.3,0,0,1,2.143,4.961,19.909,19.909,0,0,1,4.682,3.555L4.791,3.5a17.084,17.084,0,0,1,6.276-1.8c.111-.005.224-.008.337-.008a13.485,13.485,0,0,1,3.951.792c.688.212,1.4.431,2.118.584a9.873,9.873,0,0,0,2.065.214A14.143,14.143,0,0,0,23.361,2.7a2.765,2.765,0,0,1,.744-.107,2.195,2.195,0,0,1,1.595.668,2.76,2.76,0,0,1,.744,1.53,2.609,2.609,0,0,1-.28,1.651A2.427,2.427,0,0,1,24.7,7.57,14.472,14.472,0,0,1,20.513,8.163Zm11.25-1.122a6.173,6.173,0,0,1-1.843-.274,2.685,2.685,0,0,1-1.526-1.209,2.488,2.488,0,0,1-.255-1.927,2.708,2.708,0,0,1,2.451-1.906,1.916,1.916,0,0,1,.627.1l.058.021a2.66,2.66,0,0,0,.952.163,7.29,7.29,0,0,0,2.422-.563l.878-.33.36-.137A11.169,11.169,0,0,1,39.838,0h.054l.144,0a6.528,6.528,0,0,1,3.352,1.063,4.819,4.819,0,0,1,2.057,2.76.117.117,0,0,1-.02.1.13.13,0,0,1-.1.05.122.122,0,0,1-.084-.034,2.816,2.816,0,0,0-2.008-.8,8.863,8.863,0,0,0-3.671,1.228c-.281.141-.546.274-.8.395l-.713.329-.149.069A31.687,31.687,0,0,1,34.906,6.44,9.629,9.629,0,0,1,31.763,7.041Z" transform="translate(9.005 14.277)"/>
      </g>
    </g>
  </g>
</svg>
