<svg xmlns="http://www.w3.org/2000/svg" width="446.892" height="581.711" viewBox="0 0 446.892 581.711">
  <g id="sit-mask-4" transform="matrix(0.996, 0.087, -0.087, 0.996, 83.281, 0)">
    <g id="BODY" transform="translate(-17.951 140.65)">
      <path id="_Skin" data-name="âœ‹ Skin" d="M78.13,327.358h-.074c-2.939,0-5.768-.073-8.409-.217A94.4,94.4,0,0,1,59.5,326.095a35.346,35.346,0,0,1-8.892-2.469,11.608,11.608,0,0,1-3.04-1.954,5.4,5.4,0,0,1-1.6-2.532,12.83,12.83,0,0,1-1.662-6.6,10.285,10.285,0,0,1,.622-3.371,7.6,7.6,0,0,1,1.808-2.815,24.352,24.352,0,0,1,.717-10.538,25.652,25.652,0,0,1,2.045-5.016,24.2,24.2,0,0,1,3.09-4.471l.011.017a56.109,56.109,0,0,0,4.111-6.921,17.108,17.108,0,0,0,1.722-5.756,16.781,16.781,0,0,0-.585-5.991,52.1,52.1,0,0,0-2.811-7.626c-1.037-.04-2.126-.078-3.088-.111-4.1-.144-8.343-.293-12.5-.644-2.242-.189-4.273-.42-6.21-.705-2.177-.321-4.177-.7-6.113-1.164l.339-2.022c-.322-.085-2.042-.536-2.418-.633.01.076.028.2.051.367l0,.012v0c.094.666.25,1.782.245,2.054a1.6,1.6,0,0,1-1.044.517.578.578,0,0,1-.593-.535c-3.362-14.34-6.571-28.762-9.675-42.709-2.164-9.727-4.4-19.783-6.679-29.756-.37-1.562-.755-3.149-1.163-4.829C4.71,173.825,3.041,166.949,1.82,160A100.766,100.766,0,0,1,.041,139.223c.059-1.713.185-3.384.375-4.967a47.646,47.646,0,0,1,.814-4.779,39.116,39.116,0,0,1,1.309-4.542A33.208,33.208,0,0,1,4.4,120.679a29.706,29.706,0,0,1,2.464-3.923,28.562,28.562,0,0,1,3.125-3.54,29.9,29.9,0,0,1,3.842-3.109,34.015,34.015,0,0,1,4.614-2.629l-.59-2.512c-1.578,0-2.212-1.716-2.935-4.14-1.453-3.909-1.1-8.118,1.046-12.511A29.245,29.245,0,0,1,19.5,82.851a41.947,41.947,0,0,1,4.318-4.566C31.8,70.311,39.171,61.46,46.3,52.9l.085-.1C51.4,46.71,56.346,40.76,61.7,34.9A171.879,171.879,0,0,1,79.4,17.825a105.237,105.237,0,0,1,9.751-7.148c1.7-1.093,3.416-2.115,5.1-3.037C96,6.685,97.765,5.808,99.5,5.034c1.8-.8,3.616-1.514,5.406-2.121a57.275,57.275,0,0,1,5.559-1.582,53,53,0,0,1,5.712-.989A50.6,50.6,0,0,1,130.015.63L129.9,2.088c1.27.159,2.579.363,3.844.56h0a59.019,59.019,0,0,0,8.972.931,23,23,0,0,0,4.145-.35,53.54,53.54,0,0,1,9.1-.773,56.36,56.36,0,0,1,23.8,5.311,53.387,53.387,0,0,1,10.389,6.392,49.03,49.03,0,0,1,8.574,8.665l.434-2.872c.041-.271.138-.521.567-.521h.035c.536,0,.823.436,1.032.863a35.038,35.038,0,0,1,6.748,3.571,40.921,40.921,0,0,1,5.844,4.832,52.5,52.5,0,0,1,5.04,5.831,70.745,70.745,0,0,1,4.336,6.567,114.928,114.928,0,0,1,6.957,14.3c2,4.849,3.773,9.762,5.334,14.1l.012.035c.36,1,.7,1.943,1.041,2.883a16.041,16.041,0,0,1,.6,3.121,2.419,2.419,0,0,1-.077.983l-1.182.7A124.194,124.194,0,0,1,250.282,103.6a296.893,296.893,0,0,1,9.97,28.1,24.488,24.488,0,0,1,1.087,3.448,10.715,10.715,0,0,1,.287,2.979,6.756,6.756,0,0,1-.671,2.612,8.064,8.064,0,0,1-1.785,2.347,92.11,92.11,0,0,1,14.612,10.729,58.733,58.733,0,0,1,10.912,12.971,40.4,40.4,0,0,1,3.443,7.2,33.406,33.406,0,0,1,1.768,7.61,31.349,31.349,0,0,1-.158,7.969,33.31,33.31,0,0,1-.879,4.1,36.668,36.668,0,0,1-1.454,4.175,49.514,49.514,0,0,1-4.65,6.842,65.7,65.7,0,0,1-5.856,6.328c-2.05,1.954-4.353,3.928-6.846,5.866-2.317,1.8-4.88,3.637-7.62,5.455-4.733,3.141-10.194,6.373-16.7,9.881-5.745,3.1-11.565,6.023-17.194,8.851l0,0c-3.447,1.732-6.7,3.368-9.88,5.01a102.439,102.439,0,0,1-11.242,4.9h0c-3.75,1.466-7.627,2.982-11.281,4.823a49.645,49.645,0,0,0-5.276,3.043,33.631,33.631,0,0,0-4.7,3.747,6.686,6.686,0,0,1-.967,1.144,1.6,1.6,0,0,1-.929.514.465.465,0,0,1-.061,0,1,1,0,0,1-.145.011h0c-.637,0-1.353-.606-2.128-1.8a31.087,31.087,0,0,1-2.789-6.154c-.84-2.355-1.677-5.131-2.421-8.027-1.415-5.506-2.2-10.285-1.821-11.117a25,25,0,0,1-4.337,1.076c-1.477.245-3,.407-4.479.564h-.006c-1.616.172-3.287.349-4.893.635a5.764,5.764,0,0,0,.422.711c.5.766,1.071,1.635.32,2.382a40.74,40.74,0,0,1-1.061,9.337,12.38,12.38,0,0,1,1.934-.169c1.262,0,1.961.274,2.094.545a.2.2,0,0,1-.01.21c-.132.21-.6.336-1.254.336a10.124,10.124,0,0,1-2.681-.449l-.055.516c-.163,1.517-.466,4.342-.59,5.491a9.776,9.776,0,0,1,3.573-.725,3.142,3.142,0,0,1,2.2.63c-.144.463-.652.678-1.6.678a16.766,16.766,0,0,1-1.719-.128h0l-.026,0a16.241,16.241,0,0,0-1.652-.125,2.954,2.954,0,0,0-.8.087c-.56,4.146-.883,8.319-1.195,12.354-.173,2.236-.352,4.548-.569,6.834a19.132,19.132,0,0,0,3.626,2.642c1.3.756,2.7,1.429,4.044,2.079,1.518.732,3.087,1.49,4.516,2.363a19.337,19.337,0,0,1,2.046,1.424,13.749,13.749,0,0,1,1.8,1.718,8.42,8.42,0,0,1,2.3,6.65,8.614,8.614,0,0,1-.337,1.713,8.378,8.378,0,0,1-.684,1.614,8.022,8.022,0,0,1-2.39,2.672,4.613,4.613,0,0,1,1.069,2.368,5.5,5.5,0,0,1-.251,2.54,6,6,0,0,1-1.5,2.386,5.188,5.188,0,0,1-2.491,1.357,16,16,0,0,1-3.67.4,40.727,40.727,0,0,1-10.628-1.957l-.084-.023-.821-.226a120.584,120.584,0,0,1-26.317-12.875,18.515,18.515,0,0,1-7.877-10.327c-9.623-29.6-12.2-49.73-7.655-59.829a7.651,7.651,0,0,1,4.659-1.272,8.625,8.625,0,0,0,3.218-.544,4.7,4.7,0,0,0,1.616-1.091,6.919,6.919,0,0,0,1.383-2.529c-3.74-.367-7.939-.419-12.385-.474a152.332,152.332,0,0,1-15.382-.7,46.286,46.286,0,0,1-7-1.3,28.417,28.417,0,0,1-3.13-1.055,20.849,20.849,0,0,1-2.809-1.387l.352-.748a21.289,21.289,0,0,1-2.792-2.816c-.382-.429-.711-.8-.936-1.029.732,8.782,1.353,17.292,1.848,25.292.544,8.8.954,17.3,1.219,25.248,1.819,3.054,3.389,6.26,5.107,9.833l.057.056c1.2,1.171,3.2,3.132,1.994,4.435l0,.006c.421.985,10.338,24.258,13.417,36.159,1.694.072,2.68,1.7,3.209,3.058a13.153,13.153,0,0,1,.71,2.749,15.093,15.093,0,0,1,.17,2.734c-.452,6.078-8.227,6.753-15.087,7.349l-.116.01a138.08,138.08,0,0,1-14.336.749H78.13Zm122.5-104.278a1.381,1.381,0,0,0-.983.405,1.4,1.4,0,0,0-.41,1.005l1.392,0ZM77.808,134.168l-1.519,2.117c3.717,3.885,7.169,7.833,10.262,11.733l2.348-1.076c-1.135-5.761-4.659-9.82-11.091-12.774ZM198.261,87.154l-1.3,2.344c-2.453,4.415-5.412,8.759-8.274,12.96-6.318,9.274-12.851,18.863-14.863,30.331-.232,1.41-.334,6.4-.335,6.446l1.873-.761a188.572,188.572,0,0,1,19.3-6.257l.016,0c2.472-.7,5.029-1.432,7.542-2.192,1.023-.273,2.04-.592,3.024-.9h0a28.389,28.389,0,0,1,7.018-1.577l.722-.037.362-.624c3.277-5.661.814-11.039-1.99-16.063a92.176,92.176,0,0,0-5.951-10.442l0,0a84.542,84.542,0,0,1-6.067-10.764ZM73.056,81.029h0L71.1,82.12a39.95,39.95,0,0,1-6.843,3.149l-3.013,1.005,2.834,1.433a27.786,27.786,0,0,1,5.6,3.794l1.42,1.22.686-1.739a20.294,20.294,0,0,0,1.3-7.724l-.029-2.23Z" transform="translate(-24.599 -12.365)" fill="#ae5d29"/>
      <path id="_Shoes" data-name="ðŸ‘Ÿ Shoes" d="M30.746,108.7a93.194,93.194,0,0,1-13.207-.816,30.774,30.774,0,0,1-8.922-2.618,18.892,18.892,0,0,1-5.171-3.612A11.326,11.326,0,0,1,.475,97.061C.437,96.873.4,96.7.365,96.527l0-.022c-.641-3.088-.641-3.088,1.817-8.99l.071-.17A10.825,10.825,0,0,0,2.8,83.868a29.336,29.336,0,0,1,.5-4.343,24.166,24.166,0,0,1,2.047-5.868c2.025-4.128,8.835-15.789,8.9-15.907a10.233,10.233,0,0,0,1.105-5.723,21.071,21.071,0,0,1,7.419-3.372,36.2,36.2,0,0,1,4.6-.914,35.708,35.708,0,0,1,4.685-.318,25.576,25.576,0,0,1,5.066.465,12.758,12.758,0,0,1,4.028,1.46,2.37,2.37,0,0,0,.7,1.126,1.854,1.854,0,0,0,1.047.464,6.065,6.065,0,0,1,.717,1.048,3.714,3.714,0,0,0,1.28,1.5c1.537,5.069,3.99,10.973,6.586,17.224,3.615,8.7,7.353,17.7,8.817,25.031-.034.011-.052.026-.056.048-.015.074.153.214.406.425a5.914,5.914,0,0,1,2.088,2.839,5.52,5.52,0,0,1,.171,1.687A10.217,10.217,0,0,1,62.7,102.5a4.093,4.093,0,0,1-.835,2.071,44.612,44.612,0,0,1-6.34,1.8c-2.324.5-4.931.936-7.749,1.29-2.7.339-5.552.6-8.484.775C36.426,108.609,33.552,108.7,30.746,108.7ZM122.23,90.65a30.487,30.487,0,0,1-6.333-.813c-2.084-.457-4-1.011-5.406-1.416l-.01,0-.129-.037-.255-.072a132.056,132.056,0,0,1-13.152-5.448A141.05,141.05,0,0,1,84.41,76.138a10.1,10.1,0,0,1-2.452-2.049,17.617,17.617,0,0,1-2.019-2.811,28.943,28.943,0,0,1-2.675-6.244c-.58-2.06-1.192-4.175-1.783-6.22v0a248.443,248.443,0,0,1-6.38-25.4,94.105,94.105,0,0,1-1.447-12.9c-.084-2.2-.07-4.373.04-6.459a62.4,62.4,0,0,1,.673-6.45,15,15,0,0,1,3.822-1.989,62,62,0,0,1,7.349-2.559,4.252,4.252,0,0,0,1.6-1.274A3.59,3.59,0,0,1,82.694.571,47.889,47.889,0,0,1,90.687,0c2.807,0,5.425.15,7.336.26h0c1.053.06,1.884.108,2.4.11l-.213.36a26.989,26.989,0,0,0-1.873,5.7,26.417,26.417,0,0,0-.572,9.815c.967,5.744,5.622,7.981,9.357,8.845a9.208,9.208,0,0,0,1.929.23,5.248,5.248,0,0,0,2.125-.426,12.973,12.973,0,0,0,1.867-1.06,22.18,22.18,0,0,1,2.894-1.628c0,.04.148.088.373.16a5.158,5.158,0,0,1,1.623.768,1.774,1.774,0,0,1,.663,1.942c-.513,2.11-1.216,6.418-1.96,10.979-.531,3.251-1.079,6.613-1.585,9.335-.215,1.158-.428,2.187-.616,3.095-.794,3.845-1.232,5.963-.271,9.491.729,2.674,6.318,5.981,10.809,8.639a37.949,37.949,0,0,1,5.369,3.505,6.12,6.12,0,0,1,1.549,4.606,22.379,22.379,0,0,1-1.014,6.057,46.537,46.537,0,0,1-1.983,5.447,24.572,24.572,0,0,1-1.357,2.776,4.912,4.912,0,0,1-2.253,1.274A11.232,11.232,0,0,1,122.23,90.65Z" transform="translate(19.913 205.435)" fill="#fff"/>
      <path id="_Pants" data-name="ðŸ‘– Pants" d="M10.216,4.871c9.917-6.377,20.9-6.283,32.692-.945C51.684,7.9,60.132,14.252,69.928,23.38l.3.277.346.33A136.089,136.089,0,0,1,85.121,40.048l.274.361c.179.226.3.257.453.189l.024-.012,1.347-.7.822,1.274A6.771,6.771,0,0,1,89.1,44.619l.006.158a12.518,12.518,0,0,1-.116,2.038l-.042.344-.1.782a10.475,10.475,0,0,0-.117,2.95l.019.122.021.116.078.414-.5,1.529q-1.987,6.145-3.872,12.146l-.376,1.2-.695,2.224-.287.869-.149.456-.07.223c-.1.323-.174.6-.234.859l-.034.151c-.28,1.3-.114,1.8.629,2.083a1.916,1.916,0,0,0,1.7-.3l.072-.044,3.906-2.405L87.5,74.876c-.224.669-.485,1.314-.862,2.158l-.064.143-.116.256-.5,1.091-.109.241a12.988,12.988,0,0,0-1.263,3.83l-.013.116.015.108a3.2,3.2,0,0,0,.2.781l.021.046.021.043.03.056a.332.332,0,0,0,.077.1l.008,0,.005,0,.02,0a.685.685,0,0,0,.164,0,2.707,2.707,0,0,0,.775-.217,15.619,15.619,0,0,0,4.3-3.2l.1-.1.127-.129L96,74.456,93.317,81.8a13.551,13.551,0,0,0-1.123,5.222,1.884,1.884,0,0,0,.09.448.686.686,0,0,0,.037.087l.009.016.036.005c1.055.123,3.515-1.392,5.992-3.979l.173-.182.173-.186,3.893-4.222-1.034,5.64c-.271,1.478.021,2.435.872,2.925l.078.043.063.036c.847.463,1.873-.113,3.426-1.938l.14-.167.139-.169.224-.276.521-.652.123-.159c4.173-5.445,6.79-12.476,7.819-20.312L115,63.73l.031-.246.333-2.722,1.128.778-.2-1.328,3.6,3.71c8.407,8.668,17.525,10.9,26.5,7.421,8.087-3.131,15.667-10.845,20.881-20.946l.157-.307.181-.367a85.312,85.312,0,0,0,3.933-9.177l.093-.268c1.251-3.638,1.706-6.388,1.261-7.565l-.017-.042-.715-1.742,1.825-.485,17.424-4.64c6.289-1.667,11.037-2.9,15.768-4.1l.553-.14,4.9-1.232-1.254,3.039c-2.391,5.794-4.877,10.5-10.04,19.377l-.66,1.132-2.223,3.8-.692,1.191c-5.37,9.277-8.269,15.044-10.43,21.333l-.068.2-.139.411a48,48,0,0,0-1.913,25.334l.034.169.161.493a106.341,106.341,0,0,0,5.438,13.839l.09.177.174.336.087.164a18.9,18.9,0,0,0,1.568,2.538l.118.151a5.491,5.491,0,0,0,.532.585l.057.052.007-.012a7.734,7.734,0,0,0,.62-1.923l.023-.109.022-.107.893-4.4,2.224,3.986.081.147c.238.44.444.87.723,1.5l.1.216.437,1,.212.476a14.676,14.676,0,0,0,.738,1.468l.032.053.09.147.045.071.024.027c.479.521,1.324.366,1.8-.465l.03-.054.029-.055a7.178,7.178,0,0,0,.593-3.4l0-.187c0-.2-.008-.384-.016-.609l0-.1-.073-1.666-.009-.262,0-.082-.006-.325-.009-.3c-.011-.46-.016-.937-.016-1.511v-.3l.008-1.886c0-.8-.005-1.339-.024-1.885l-.006-.156-.409-9.517,3.756,8.995c.515,1.227,1.026,2.408,1.746,4.042l.152.345,1.972,4.45.556,1.265.364.836.019-.009.209-.246a5.325,5.325,0,0,0,.866-2.883l.009-.118.008-.117.006-.087.01-.188.1-2.571.1-2.545.573-15.725.629-15.984,2.8,11.643a40.635,40.635,0,0,0,4.09,9.9l.227.418.229.418.111.2.019-.037a4.9,4.9,0,0,0,.228-.545l.038-.113.021-.068.018-.062.131-.477.292-.3a2.8,2.8,0,0,0,.588-1.415l.015-.089.016-.1,0-.058c.145-4.518-1.61-23.883-2.594-30.57l-.059-.393-.023-.162-.026-.171-.033-.2c-.011-.065-.022-.131-.035-.2l-.028-.155-.259-1.353c-.046-.245-.083-.45-.117-.65l-.013-.075-.046-.288a9.817,9.817,0,0,1,0-3.694,5.528,5.528,0,0,1,2.477-3.547l.094-.06.159-.1.745-.257.563-.191c1.274-.43,2.611-.86,4.324-1.4l.585-.183,5.456-1.689,1.232-.388.773-.247a98.352,98.352,0,0,0,12.233-4.638,42.8,42.8,0,0,0,11.39-7.52l.173-.165.929-.891,1.1.675q1.69,1.04,3.322,2.131l.465.313.139.094.332.339,4.432,4.5.741.76c5.77,5.945,9.34,10.148,12.3,14.82l.093.148.2.312c4.16,6.7,6.237,13.427,5.992,20.666l-.008.22,0,.149c-.152,5.548-2.255,10.607-6.043,15.34a57.751,57.751,0,0,1-12.051,10.8l-.508.358-.512.357a314.827,314.827,0,0,1-49.9,28.975c-5.6,2.631-11.478,5.211-17.815,7.84l-.6.247-1.164.48-.649.262-.661.27-.418.173c-6,2.493-9.8,4.636-12.9,7.624l-.107.1-1.486,1.45-1.092-1.765c-4.449-7.192-7.015-15.461-8.978-26.915l-.107-.631-.106-.634-.248-2.85c-.147-1.666-.264-2.924-.383-4.1l-.084-.824-.12-1.121-.1-.565-.263-1.522-.177-1.006-.1-.537-.1-.575c-.122-.662-.241-1.295-.361-1.9l-.051-.26c-.163-.819-.322-1.573-.476-2.256l-.1-.441-.122.043a73.649,73.649,0,0,1-26.17,4.027l-.319-.01-.267-.01-.911.013c-3.5.045-7,.032-11.461-.034l-1.975-.032-3-.055-7.49-.148c-5.529-.1-8.961-.139-12.549-.119l-.4,0-1.382.012-2.035.025-.8.013-3.252.069-1.142.021a73.885,73.885,0,0,1-7.93-.177l-.478-.043-.41-.04-.188-.041-.183-.042a19.826,19.826,0,0,1-5-2.086l-1.018-.541c-.741-.391-1.21-.627-1.706-.854l-.13-.059-.892-.4-.1-1.157a36.361,36.361,0,0,0-.687-4.8l-.055-.231-.012-.048-.01.064a18.733,18.733,0,0,0-.183,3.3l.005.185.006.17.058,2.426c.079,3.034.18,6.016.34,10.033l.1,2.392.537,12.734.1,2.52c.222,5.707.359,10.251.431,14.674l.014.946.028,2.124-1.486.175c-15.712,1.852-32.163,1.262-52.223-1.345l-.609-.08-1.154-.152-1.035-4.643c-1.155-5.163-2.292-10.158-3.783-16.62l-1.285-5.558-5.669-24.4c-.6-2.581-1.121-4.844-1.609-6.969L10.519,87l-1.1-4.81-.062-.326c-.347-1.817-.79-3.838-1.378-6.315l-.214-.894L7.379,73.05,5.628,66l-.606-2.449-.367-1.51C3.319,56.511,2.372,52.13,1.619,47.809l-.094-.544C-.015,38.224-.438,30.571.483,23.921c1.1-7.942,4.122-14.26,9.4-18.786L10.044,5l.082-.069Z" transform="translate(-24.378 95.606)" fill="#8fa7df"/>
      <path id="_Ink" data-name="ðŸ– Ink" d="M79.607,330.009a139.851,139.851,0,0,1-18.088-1.183,38.915,38.915,0,0,1-4.464-.625,22.852,22.852,0,0,1-4.3-1.3A14.445,14.445,0,0,1,49,324.631a11.579,11.579,0,0,1-2.8-3.531,13.586,13.586,0,0,1-1.372-3.369,14.173,14.173,0,0,1-.471-3.713,11.671,11.671,0,0,1,.585-3.634,8.956,8.956,0,0,1,1.795-3.134,24.375,24.375,0,0,1-.134-5.277,26.314,26.314,0,0,1,.965-5.194,27.527,27.527,0,0,1,4.829-9.36l.133-.167-.011,0a.079.079,0,0,1-.053-.082c0-.032.041-.144.371-.21l.045-.008-.016.026c-.019.029-.033.047-.047.064l-.027.035a.819.819,0,0,1,.459-.161,2.662,2.662,0,0,0-.316.027l-.052.008.2-.3a66.427,66.427,0,0,0,3.768-6.343,15.764,15.764,0,0,0,1.662-5.123,14.608,14.608,0,0,0-.438-5.384,49.255,49.255,0,0,0-2.532-7.128l-4.335-.155c-8.21-.3-16.217-.732-23.923-2.7a2.48,2.48,0,0,1-1.559.565A1.95,1.95,0,0,1,24.549,260a2,2,0,0,1-.738-1.18c-3.331-14.2-6.553-28.681-9.669-42.684l-.006-.026c-2.172-9.76-4.418-19.852-6.682-29.771-.5-2.218-1.043-4.5-1.617-6.919-1.451-6.11-3.1-13.035-4.247-19.89a93.942,93.942,0,0,1-1.5-20.357c.088-1.672.243-3.3.462-4.853a45.591,45.591,0,0,1,.906-4.676,38.342,38.342,0,0,1,1.4-4.458,33.511,33.511,0,0,1,1.956-4.2,30.585,30.585,0,0,1,5.788-7.453,33,33,0,0,1,3.941-3.172,38.06,38.06,0,0,1,4.711-2.748,3.248,3.248,0,0,1-2.863-1.7,13.693,13.693,0,0,1-1.347-3.387l0-.006c-.09-.3-.175-.587-.262-.857a15.538,15.538,0,0,1-.628-3.32,15.725,15.725,0,0,1,.09-3.236,19.545,19.545,0,0,1,1.938-6.134,36.886,36.886,0,0,1,8.14-10.336c3.568-3.569,7.326-7.625,11.486-12.4,3.71-4.258,7.391-8.682,10.952-12.961h0c3.143-3.777,6.394-7.684,9.655-11.465,3.656-4.238,6.934-7.863,10.024-11.08,3.708-3.861,7.227-7.234,10.76-10.31,1.914-1.666,3.856-3.263,5.771-4.745,2.009-1.555,4.059-3.038,6.094-4.408A73.662,73.662,0,0,1,97.06,6.665a69.023,69.023,0,0,1,8.585-3.558A56.972,56.972,0,0,1,123.778,0a47.294,47.294,0,0,1,8.036.678A43.9,43.9,0,0,1,139.7,2.81a.165.165,0,0,1-.045.323h0a.2.2,0,0,1-.043,0A47.329,47.329,0,0,0,131.463,2.1c1.363.166,2.737.382,4.065.591a55.207,55.207,0,0,0,8.51.889,23.077,23.077,0,0,0,4-.329,58.045,58.045,0,0,1,21.122.43,56.73,56.73,0,0,1,11.193,3.543,53.883,53.883,0,0,1,10.184,5.823,51.146,51.146,0,0,1,8.709,8.034,1.825,1.825,0,0,1,1.883-1.65,2.3,2.3,0,0,1,1.976,1.1,28.612,28.612,0,0,1,5.9,2.9,36.328,36.328,0,0,1,5.27,4.138,49.488,49.488,0,0,1,4.69,5.112,68.848,68.848,0,0,1,4.158,5.819,111.181,111.181,0,0,1,6.911,12.689c2.034,4.308,3.831,8.613,5.355,12.31.172.632.57,1.7,1.075,3.05a76.4,76.4,0,0,1,2.48,7.41,13.778,13.778,0,0,1,.5,3.179,3.414,3.414,0,0,1-.154,1.118,1.219,1.219,0,0,1-.509.675c1.427,1.95,2.825,4.011,4.156,6.126,1.275,2.027,2.529,4.168,3.727,6.365,2.242,4.11,4.327,8.461,6.374,13.3,1.774,4.193,3.5,8.712,5.276,13.813,1.4,4.032,2.818,8.359,4.588,14.032l.167.456a19.441,19.441,0,0,1,1.315,5.688,8.448,8.448,0,0,1-.341,2.794,7.221,7.221,0,0,1-1.445,2.59,96.255,96.255,0,0,1,8.5,5.8,73.361,73.361,0,0,1,7.717,6.8,56.928,56.928,0,0,1,6.488,7.9,48.859,48.859,0,0,1,2.642,4.385,45.614,45.614,0,0,1,2.166,4.691,36.418,36.418,0,0,1,2.2,7.01,31.037,31.037,0,0,1,.621,6.7,29.741,29.741,0,0,1-.811,6.361,31.835,31.835,0,0,1-2.1,5.985,40.253,40.253,0,0,1-7.448,10.708,58.4,58.4,0,0,1-10.8,8.8c-3.907,2.822-8.016,5.613-12.212,8.3-4.052,2.59-8.3,5.155-12.641,7.625-4.173,2.376-8.546,4.734-13,7.009-4.269,2.18-8.74,4.349-13.289,6.446-5.424,2.5-11.215,5-18.223,7.885l-.609.248c-4.755,1.95-9.652,4.279-13.261,8.087a6.062,6.062,0,0,1-1.476,1.575,2.542,2.542,0,0,1-1.448.494c-1.332,0-2.706-1.228-4.085-3.649a43.005,43.005,0,0,1-3.361-8.3c-.856-2.763-1.669-5.955-2.289-8.988a40.622,40.622,0,0,1-.871-5.7,36.24,36.24,0,0,1-6.762,1.108h0c-1.161.116-2.362.236-3.515.411a2.38,2.38,0,0,1,.327,1.219,2.289,2.289,0,0,1-.387,1.256,37.948,37.948,0,0,1-.745,7.463c.217-.019.429-.029.631-.029a4.125,4.125,0,0,1,2.3.59,1.769,1.769,0,0,1,.844,1.3,1.446,1.446,0,0,1-.4,1.105,3.035,3.035,0,0,1-2.26.782,7.045,7.045,0,0,1-1.518-.181l-.27,2.528a5.813,5.813,0,0,1,1.68-.223,7.071,7.071,0,0,1,2.36.385,2.312,2.312,0,0,1,1.449,1.136,1.265,1.265,0,0,1-.011.941,3.292,3.292,0,0,1-.838,1.158,3.855,3.855,0,0,1-1.763.371,12.694,12.694,0,0,1-1.465-.115h-.01a12.875,12.875,0,0,0-1.494-.116c-.1,0-.2,0-.288.007-.471,3.7-.761,7.464-1.041,11.106v0c-.158,2.05-.321,4.17-.514,6.259a20.352,20.352,0,0,0,3.355,2.309c1.192.673,2.462,1.285,3.689,1.877a50.967,50.967,0,0,1,4.626,2.428,19.534,19.534,0,0,1,2.114,1.49,14.35,14.35,0,0,1,1.872,1.82,10.2,10.2,0,0,1,2.086,3.434,10.024,10.024,0,0,1,.485,1.9,9.75,9.75,0,0,1,.1,1.941,9.246,9.246,0,0,1-3.1,6.493,5.735,5.735,0,0,1,.8,2.76,6.557,6.557,0,0,1-.536,2.747,7.4,7.4,0,0,1-1.908,2.634,6.883,6.883,0,0,1-2.91,1.535,16.985,16.985,0,0,1-3.96.441c-3.784,0-7.569-1.051-11.23-2.067l-.012,0-.7-.194c-2.248-.738-4.554-1.6-6.855-2.558-2.179-.908-4.422-1.934-6.667-3.048-4.1-2.036-8.275-4.389-12.76-7.193l-.358-.225a19.4,19.4,0,0,1-5.224-4.767A20.152,20.152,0,0,1,121,286.174l-.3-.927c-1.631-5.052-2.993-9.594-4.164-13.884-1.629-5.97-2.908-11.542-3.8-16.562-.525-2.95-.927-5.77-1.2-8.382a74.791,74.791,0,0,1-.423-7.967,44.012,44.012,0,0,1,.577-7.191,24.159,24.159,0,0,1,1.8-6.054,4.384,4.384,0,0,1,2-1.281,7.231,7.231,0,0,1,2.2-.277c.366,0,.726.013,1.074.026h.014c.357.013.695.025,1.031.025a5.321,5.321,0,0,0,2.137-.35,3.078,3.078,0,0,0,1.557-1.654c-3.016-.235-6.5-.276-10.183-.32-2.68-.032-5.451-.064-8.228-.174-3.14-.124-5.823-.331-8.2-.634a44.613,44.613,0,0,1-7.534-1.547,26.568,26.568,0,0,1-3.316-1.258,19.056,19.056,0,0,1-2.909-1.656c.225,3.22.479,6.492.726,9.656v.007c.394,5.056.8,10.284,1.1,15.43.331,5.775.483,10.832.463,15.461a5.03,5.03,0,0,0,.288,2.186,4.266,4.266,0,0,1,.194,2.508c1.689,2.88,3.159,5.88,4.767,9.221l.095.088c1.124,1.062,2.423,2.855,2.384,4.416a2.359,2.359,0,0,1-.872,1.795c7.044,10.285,10.824,22.442,13.86,34.047a3.788,3.788,0,0,1,2.094,1.434A9.048,9.048,0,0,1,109.617,315a16.1,16.1,0,0,1,.727,3.047,13.292,13.292,0,0,1,.128,2.653c-.371,3.148-2.115,5.318-5.333,6.633-2.78,1.137-6.195,1.457-9.207,1.739h0c-.644.06-1.253.117-1.841.181-3.546.371-7.17.609-10.773.706C82.084,329.992,80.836,330.009,79.607,330.009Zm-32.5-20.065h0a19.553,19.553,0,0,0,.132,3.15,14.322,14.322,0,0,0,.6,2.692,11.605,11.605,0,0,0,1.03,2.268,10.806,10.806,0,0,0,1.415,1.877,12.252,12.252,0,0,0,3,2.3,17.881,17.881,0,0,0,3.711,1.5,35.829,35.829,0,0,0,8.826,1.2c4.489.426,9.037.641,13.517.641,1.826,0,3.673-.036,5.488-.107l2.985-.172c2.784-.163,5.121-.324,7.479-.58a61.438,61.438,0,0,0,7.379-1.211,4.012,4.012,0,0,0,2.882-1.978,4.133,4.133,0,0,0,.46-2.023,6.184,6.184,0,0,0-.5-2.283,1.839,1.839,0,0,1-.736.161,1.409,1.409,0,0,1-.813-.248,4.1,4.1,0,0,1-1.175-1.192,57.046,57.046,0,0,1-11.81,3.73,63.238,63.238,0,0,1-12.5,1.235,64.448,64.448,0,0,1-14.842-1.725,58.77,58.77,0,0,1-13.823-5.134,2.1,2.1,0,0,1-1.815-1.2,8.828,8.828,0,0,1-.742-2.275C47.207,310.355,47.159,310.144,47.107,309.943Zm4.984,1.936a2.165,2.165,0,0,1-.618,1.557c2.087.675,4.189,1.272,6.249,1.775s4.131.926,6.168,1.259,4.088.585,6.112.75,4.062.248,6.08.248c2.117,0,4.271-.092,6.4-.273s4.278-.454,6.423-.814c2.126-.357,4.3-.81,6.472-1.347,2.146-.531,4.35-1.16,6.549-1.87-.742-3.713-1.773-7.712-3.152-12.226-1.229-4.023-2.615-8.073-3.955-11.991l0-.006c-1.382-4.04-2.811-8.216-4.069-12.363a3.713,3.713,0,0,1-1.279-1.5,6.061,6.061,0,0,0-.718-1.048,1.854,1.854,0,0,1-1.047-.464,2.37,2.37,0,0,1-.7-1.126,23.35,23.35,0,0,0-6.246-2.47,31.18,31.18,0,0,0-7.493-.946,22.031,22.031,0,0,0-5.547.654,12.3,12.3,0,0,0-4.523,2.128c.388,2.233-.495,4.3-1.348,6.295l-.045.106c.749-.178,3-.529,5.7-.828a86.8,86.8,0,0,1,9.084-.573,26.758,26.758,0,0,1,4.939.369c1.441.282,2.348.729,2.7,1.328a1.551,1.551,0,0,1-.147,1.61,3.318,3.318,0,0,1-1.171.608,4.524,4.524,0,0,1-1.28.167,13.7,13.7,0,0,1-2.356-.283c-.541-.1-1.052-.188-1.554-.235-2.175-.18-4.418-.272-6.665-.272a90.829,90.829,0,0,0-10.173.588c-.2.566-.356,1.169-.5,1.753a13.435,13.435,0,0,1-.777,2.417,59.59,59.59,0,0,1,8.656-2.113,78.855,78.855,0,0,1,8.865-.956l.33-.017c.351-.019.728-.046,1.061-.071h0c.686-.05,1.395-.1,2.089-.1a7.876,7.876,0,0,1,2.378.306A4.466,4.466,0,0,1,85,283.175a2,2,0,0,1,.406.951,1.459,1.459,0,0,1-.158.837,3.184,3.184,0,0,1-1.592,1.313,5.572,5.572,0,0,1-2.165.484h0a3.266,3.266,0,0,1-.377-.021c-1.927-.058-3.972-.087-6.077-.087-6.114,0-12.228.24-17.966.487l-.352.578c-2.863,4.722-4.551,7.938-5.272,11.4a20.937,20.937,0,0,0-.359,5.605,50.829,50.829,0,0,0,1.043,7.189l-.015-.012A.225.225,0,0,1,52.091,311.879Zm69.738-87.247a9.536,9.536,0,0,1-2.414.749,12.289,12.289,0,0,0-2.047.57,3.54,3.54,0,0,0-1.61,1.218c-2.721,17.177,2.279,34.476,7.115,51.205l0,.01c.59,2.043,1.2,4.155,1.781,6.212a15.8,15.8,0,0,0,7.147,9.338,124,124,0,0,0,23.912,11.729l.255.072c.455.13.987.29,1.5.445,1.454.437,3.264.98,5.108,1.406a24.652,24.652,0,0,0,5.447.741,9.306,9.306,0,0,0,2.672-.343,4.543,4.543,0,0,0,2.014-1.179,2.434,2.434,0,0,0,.474-1.5,1.683,1.683,0,0,0-.682-1.247l-.417-.158a5.063,5.063,0,0,1-1.19-.6,1.626,1.626,0,0,1-.7-1.071l-.009-.064.031-.011a1.566,1.566,0,0,1-.038-1.422,2.739,2.739,0,0,1,.79-1,2.989,2.989,0,0,1,1.111-.582,2.751,2.751,0,0,0,1.964-.827,5.562,5.562,0,0,0,1.14-2.026,7.668,7.668,0,0,0,.034-1.808,6.823,6.823,0,0,0-.371-1.615,8.35,8.35,0,0,0-1.722-2.759,28.826,28.826,0,0,0-5.723-4.395c-1.224-.792-2.489-1.61-3.6-2.47a12.856,12.856,0,0,1-2.786-2.813,1.614,1.614,0,0,1-.624,1.015,1.794,1.794,0,0,1-1.053.327,1.939,1.939,0,0,1-1.371-.546,1.64,1.64,0,0,1-.473-1.2,80.845,80.845,0,0,1,1.52-14.641c.217-1.309.441-2.661.642-3.988-.07,0-.144,0-.22,0a11.75,11.75,0,0,0-1.6.15h0a11.76,11.76,0,0,1-1.6.15h0a4.144,4.144,0,0,1-.914-.093c-.08-.5.477-1.066,1.655-1.687a25.125,25.125,0,0,1,2.874-1.216l.018-.007.367-.137c.233-1.083.478-2.149.727-3.166-.738.044-1.41.067-2,.067a10.266,10.266,0,0,1-2.414-.213c-.494-.129-.755-.314-.776-.548-.017-.2.134-.419.449-.663a6.177,6.177,0,0,1,1.3-.721,19.993,19.993,0,0,1,4.291-1.214c.155-.528.309-1.121.47-1.814l.069-.3a23.428,23.428,0,0,0,.607-4.431,23,23,0,0,1-9.462,2.31,15.306,15.306,0,0,1-3.2-.332,11.445,11.445,0,0,1-2.607-.949,11.881,11.881,0,0,1-2.253-1.5,12.842,12.842,0,0,1-1.864-1.942,13.839,13.839,0,0,1-1.441-2.286,14.369,14.369,0,0,1-1.5-5.688,13.291,13.291,0,0,1,.178-2.948,12.258,12.258,0,0,1,.859-2.841,5.335,5.335,0,0,1-.172-1.885,7.919,7.919,0,0,1,.4-1.878,18.438,18.438,0,0,1,1.7-3.471c-5.092-.018-10.126-.155-15.265-.307a14.342,14.342,0,0,0-2.076,1.757,9.858,9.858,0,0,0-1.4,1.825,8.36,8.36,0,0,0-1.144,3.852c-.151,2.658.754,5.5,1.712,8.507.29.91.589,1.85.864,2.8,2.2,7.653,4.059,15.535,5.857,23.157v0c.685,2.9,1.394,5.908,2.111,8.855a29.821,29.821,0,0,0,16.213,21.981,36.458,36.458,0,0,0,6.093,2.52,37.21,37.21,0,0,0,6.447,1.393c.293.03.594.049.886.068a9.821,9.821,0,0,1,2.083.282,3.154,3.154,0,0,1,1.716,1.148,1.927,1.927,0,0,1,.507,1.257,1.654,1.654,0,0,1-.507,1.247,3.187,3.187,0,0,1-1.475.9,6.776,6.776,0,0,1-1.988.259,28.425,28.425,0,0,1-6.464-1.11h0c-.666-.168-1.294-.327-1.809-.434a47.123,47.123,0,0,1-7.508-2.95,35.38,35.38,0,0,1-5.972-3.764,32.385,32.385,0,0,1-8.259-9.722,45.324,45.324,0,0,1-2.75-5.835c-.757-1.93-1.457-4.025-2.138-6.4-1.273-4.444-2.289-9.212-3.365-14.261l-.026-.12c-.548-2.948-1.321-6-2.069-8.946a105.891,105.891,0,0,1-2.684-12.758,39.118,39.118,0,0,1-.309-6.381,30.083,30.083,0,0,1,.288-3.174,26.923,26.923,0,0,1,.655-3.157ZM52.781,287.068a1.646,1.646,0,0,0-.19.133l-.06.05.015,0a.143.143,0,0,0,.029,0,.255.255,0,0,0,.215-.184c-.005.005-.008.007-.01.007S52.778,287.075,52.781,287.068Zm9.7-7.567c-.285.038-.575.074-.855.108l-.028,0-.021,0-.346.043-.082.223C61.571,279.754,62.006,279.629,62.476,279.5Zm18.471-17.982c-3.584.364-7.241.445-10.778.524-3.794.084-7.716.172-11.559.607a26.816,26.816,0,0,1,3.367,6.564,13.091,13.091,0,0,1,2.468-1.826,14.291,14.291,0,0,1,2.745-1.2,17.524,17.524,0,0,1,2.949-.656,22.819,22.819,0,0,1,3.079-.2,34.578,34.578,0,0,1,6.165.612c1.785.327,3.69.784,5.823,1.4-.507-1.476-.963-2.94-1.356-4.352a2.422,2.422,0,0,1-.382.03,2.915,2.915,0,0,1-1.45-.408,2.808,2.808,0,0,1-1.069-1.095h0Zm105.806-49.49h0a73.732,73.732,0,0,1-12.049,5.626,8.56,8.56,0,0,1,1.019,4.147,19.481,19.481,0,0,0,.214,1.939c.327,2.99.588,6.007.84,8.925l.095.57a109.134,109.134,0,0,0,3.136,13.926,63.928,63.928,0,0,0,2.444,6.7,49.275,49.275,0,0,0,3.281,6.322,31.528,31.528,0,0,1,7.183-5.123A80.684,80.684,0,0,1,201,251.4c7.125-2.927,13.5-5.717,19.491-8.529,4.366-2.046,8.7-4.187,12.887-6.364,4.276-2.225,8.515-4.55,12.6-6.911,4.171-2.411,8.3-4.927,12.266-7.479,4.049-2.6,8.049-5.318,11.887-8.067l.53-.369c2.495-1.749,4.594-3.362,6.417-4.93a44.637,44.637,0,0,0,5.695-5.776,31.1,31.1,0,0,0,2.308-3.249,25.337,25.337,0,0,0,1.805-3.513,22.118,22.118,0,0,0,1.2-3.794,21.328,21.328,0,0,0,.478-4.092,31.478,31.478,0,0,0-.3-5.8,32.519,32.519,0,0,0-1.287-5.433,37.625,37.625,0,0,0-2.121-5.105,47.564,47.564,0,0,0-2.8-4.819c-4.123-6.252-9.645-11.839-14.986-17.241-1.744-1.764-3.391-3.431-5-5.129-8.028,8.151-19.279,11.621-30.161,14.976-2.808.866-5.712,1.761-8.458,2.713a4.019,4.019,0,0,0-1.411,1.442,4.426,4.426,0,0,0-.522,1.783,14.582,14.582,0,0,0,.411,3.994c.116.6.226,1.162.3,1.705.763,4.932,1.369,9.913,1.8,14.8,1.145-1.319,3.607-1.831,5.78-2.282.91-.189,1.77-.367,2.469-.591l.317-.071c.5-.114,1.01-.239,1.5-.361h0a25.555,25.555,0,0,1,5.979-.975,10.308,10.308,0,0,1,2.22.228,1.322,1.322,0,0,1,1.041,1.11,1.684,1.684,0,0,1-.1.9,1.466,1.466,0,0,1-.589.711c-2.187,1.354-4.8,1.614-7.327,1.867-.5.05-1.021.1-1.526.162l-.77.092a57.863,57.863,0,0,1-6.816.517c-.412,0-.82-.008-1.212-.025a.986.986,0,0,1-.153.012,1.022,1.022,0,0,1-.736-.314c.09,1.4.206,2.823.319,4.2v0a92.08,92.08,0,0,1,.456,11.409,4.555,4.555,0,0,1-1.077,2.605l-.022.079a6.173,6.173,0,0,1-.732,1.633c-.39.588-.814.9-1.229.9a1.356,1.356,0,0,1-1.009-.615l-.261-.468a46.994,46.994,0,0,1-4.967-11.614c-.16,4.04-.307,8.136-.45,12.1v.009c-.15,4.185-.306,8.512-.476,12.769l-.011.2a11.283,11.283,0,0,1-.327,2.213,5,5,0,0,1-.952,1.97.776.776,0,0,1-.174.622.7.7,0,0,1-.527.234.769.769,0,0,1-.314-.068l-.069.032a2.352,2.352,0,0,1-.884.22.729.729,0,0,1-.711-.4c-.746-1.738-1.525-3.494-2.279-5.191l0-.008,0,0c-1.006-2.266-2.047-4.61-3.019-6.938.048,1.113.041,2.245.035,3.341v0c-.005.963-.011,1.958.02,2.937.007.479.03.966.054,1.481v0a25,25,0,0,1,.019,3.055,7.385,7.385,0,0,1-.738,2.871,3.345,3.345,0,0,1-1.168,1.314,2.83,2.83,0,0,1-1.528.464,2.519,2.519,0,0,1-2.019-1.02,20.184,20.184,0,0,1-1.478-2.954c-.342-.788-.7-1.6-1.113-2.35a11.478,11.478,0,0,1-1.166,3.495,1.766,1.766,0,0,1-1.434,1.044c-.717,0-1.539-.632-2.446-1.88A26.542,26.542,0,0,1,190,220.531a78.693,78.693,0,0,1-3.247-8.5ZM28.162,111.077a28.36,28.36,0,0,0-3.865.263,27.292,27.292,0,0,0-3.856.821,27.97,27.97,0,0,0-3.834,1.428,30.576,30.576,0,0,0-3.8,2.084c-6.859,5.784-9.931,14.92-9.392,27.931a112.666,112.666,0,0,0,2.265,17.25c1.153,5.78,2.549,11.367,3.9,16.769v0c1.241,4.964,2.413,9.652,3.161,13.64,2.114,9.315,4.315,18.775,6.444,27.924l.012.051h0c2.868,12.325,5.833,25.069,8.625,37.631,6.055.8,11.535,1.381,16.753,1.788,5.962.465,11.466.691,16.828.691,3.207,0,6.379-.085,9.428-.252,3.193-.175,6.358-.446,9.409-.806-.108-8.439-.475-17.013-.83-25.305-.295-6.884-.6-14-.755-21.01-.078-1.961-.132-3.958-.183-5.888v0c-.079-2.95-.16-6-.333-8.994-.194-3.356-.484-6.283-.889-8.947a56.642,56.642,0,0,1-.5-6.513c-.181-4.645-.368-9.449-2.793-13.239a23,23,0,0,0-1.437-1.9h0A10.5,10.5,0,0,1,70,162.111a.1.1,0,0,1,.025-.08.135.135,0,0,1,.1-.04.134.134,0,0,1,.089.031c.462.4.891.852,1.307,1.284l0,0a17.209,17.209,0,0,0,1.695,1.609l.818.631a12.7,12.7,0,0,1,3.479,3.6,11.776,11.776,0,0,0-.329-1.917c-.311-1.481-.7-3.325-.448-3.63a.11.11,0,0,1,.088-.044.253.253,0,0,1,.137.055l.179.489c.565,1.549,1.214,3.392,1.736,5.308A31.062,31.062,0,0,1,79.9,174.9c.75,7.632,1.311,15.413,1.854,22.939v0c.366,5.076.745,10.324,1.178,15.483.859.386,1.708.839,2.53,1.277a20.87,20.87,0,0,0,5.276,2.218c1.838.181,3.813.265,6.216.265,1.561,0,3.149-.035,4.684-.07h.01c.984-.022,2-.045,3.015-.058l.436,0c1.561-.023,3.15-.035,4.858-.035,5.114,0,10.3.106,15.311.208h.025c5.015.1,10.2.207,15.309.207,1.8,0,3.468-.013,5.1-.038.89.034,1.8.052,2.692.052a71.574,71.574,0,0,0,9.719-.669,72.632,72.632,0,0,0,9.561-1.98,69.857,69.857,0,0,0,17.837-7.741,48.773,48.773,0,0,1-1.068-7.469,47.537,47.537,0,0,1,.089-7.135,51.523,51.523,0,0,1,1.081-6.851,61.585,61.585,0,0,1,1.91-6.617c.728-2.089,1.57-4.193,2.576-6.434.9-2,1.9-4.058,3.077-6.3,2.183-4.169,4.634-8.355,7-12.4,2.033-3.473,4.135-7.064,6.074-10.65a116.854,116.854,0,0,0,5.285-10.954c-9.215,2.316-18.55,4.807-27.578,7.216-2.564.684-5.214,1.391-7.845,2.09a7.65,7.65,0,0,1,.086,4.023,34.011,34.011,0,0,1-1.51,5.36,92.43,92.43,0,0,1-4.074,9.4,58.369,58.369,0,0,1-5.915,9.359,46.335,46.335,0,0,1-7.295,7.532,32.9,32.9,0,0,1-8.335,5.021,24.049,24.049,0,0,1-9.037,1.827h0a22.288,22.288,0,0,1-4.879-.544,24.281,24.281,0,0,1-4.933-1.7,29.519,29.519,0,0,1-4.936-2.949,38.93,38.93,0,0,1-4.891-4.3c.007.049.013.1.019.149v.007l0,.025a19.2,19.2,0,0,0-2.039-1.57,51.153,51.153,0,0,1-2.715,11.467,38.4,38.4,0,0,1-5.633,10.322l-.528.66a15.573,15.573,0,0,1-2.085,2.23,5.715,5.715,0,0,1-1.23.8,3.164,3.164,0,0,1-1.327.314,2.881,2.881,0,0,1-1.468-.42,3.391,3.391,0,0,1-1.681-2.007,5.571,5.571,0,0,1-.088-2.7,22.673,22.673,0,0,1-4.084,3.566,6.75,6.75,0,0,1-3.39,1.321,1.693,1.693,0,0,1-1.477-.7,3.92,3.92,0,0,1-.429-2.579,19.509,19.509,0,0,1,1.208-4.724l-.132.136a24.027,24.027,0,0,1-3.049,2.637,6.7,6.7,0,0,1-3.524,1.52c-1.24,0-1.963-.941-2.151-2.8a16.854,16.854,0,0,1,1.786-5.417,30.325,30.325,0,0,0,1.235-2.956,4.116,4.116,0,0,1-2.146.684,3.07,3.07,0,0,1-1.1-.205,2.591,2.591,0,0,1-1.812-2.624,11.355,11.355,0,0,1,.771-3.465l0-.005c.086-.259.168-.5.24-.735,1.675-5.379,3.446-10.952,5.266-16.565a12.465,12.465,0,0,1,.1-3.976,15.549,15.549,0,0,0,.205-2.782,5.78,5.78,0,0,0-.212-1.336,4.792,4.792,0,0,0-.587-1.29,2.007,2.007,0,0,1-.924.23,1.894,1.894,0,0,1-.877-.215,2.387,2.387,0,0,1-.805-.7c-2.13-2.827-4.53-5.706-7.132-8.556-2.373-2.6-5-5.272-7.817-7.944A129.489,129.489,0,0,0,51.206,118.76c-1.881-1.16-3.752-2.2-5.562-3.1a51.943,51.943,0,0,0-5.728-2.43,40.008,40.008,0,0,0-5.843-1.588,32.061,32.061,0,0,0-5.907-.569h0Zm-.132,146.8h0c0,.023,0,.043.005.065v.03c.169.011.331.026.5.041h.008c-.1-.025-.208-.054-.309-.081h-.005l-.008,0-.194-.052Zm121.157-35.7c-.7,0-2.213,2.785-2.711,3.7-.046.085-.086.158-.112.2a16.381,16.381,0,0,0-1.126,4.394,13.835,13.835,0,0,0-.25,2.751,12.441,12.441,0,0,0,.3,2.581,10.961,10.961,0,0,0,.8,2.323,9.522,9.522,0,0,0,1.257,1.975,8.02,8.02,0,0,0,6.308,2.955,11.127,11.127,0,0,0,4.2-.887c-.115-.01-.24-.015-.381-.015-.213,0-.431.011-.642.022h0c-.21.011-.428.022-.639.022a2.4,2.4,0,0,1-1.526-.418.022.022,0,0,0,.007-.007l0,0a.563.563,0,0,1-.047-.543c.3-.611,1.862-.853,3.119-1.048a7.6,7.6,0,0,0,1.406-.288c.9-.188,1.817-.375,2.7-.556l.026-.005.011,0c2.459-.5,5-1.021,7.487-1.605.5-.118,1.016-.259,1.514-.395a19.093,19.093,0,0,1,3.528-.731c-.5-5.16-.672-8.9-.8-11.63-.219-4.827-.285-6.284-1.811-6.284a12.688,12.688,0,0,0-2.931.663h0a61.606,61.606,0,0,1-6.942,1.677c-1.679.3-3.452.537-5.271.707-2.12.2-4.377.312-6.709.338a.481.481,0,0,1-.082.412.442.442,0,0,1-.331.151c-.069,0-.118-.019-.127-.049s.017-.057.069-.088C149.421,222.287,149.323,222.179,149.187,222.179Zm52.852,3.552a.055.055,0,0,0-.042.017.1.1,0,0,0-.02.075c0,.045.025.092.052.092s.034-.012.053-.069c.006-.017.013-.033.021-.049h0c.006-.014.012-.026.017-.038A.171.171,0,0,0,202.039,225.731ZM197.1,187.105h0c-1.362,13.839.378,27.194,5.034,38.623a91.169,91.169,0,0,0,.489-10.4c-.009-3.542-.15-7.2-.287-10.732v0c-.191-4.948-.388-10.065-.225-14.917a1.306,1.306,0,0,1,.361-.959,1.415,1.415,0,0,1,1-.392,1.509,1.509,0,0,1,.97.339,1.354,1.354,0,0,1,.476,1.012l.094,3.041a104.073,104.073,0,0,0,1.311,15.5,42.805,42.805,0,0,0,2.012,7.425,33.628,33.628,0,0,0,1.559,3.526,30.548,30.548,0,0,0,2.009,3.361c.172-3.947.077-8.03-.016-11.978-.109-4.677-.223-9.513.1-14.207a59.193,59.193,0,0,1,.872-6.979,42.651,42.651,0,0,1,1.857-6.81,1.032,1.032,0,0,1,.393-.476,1,1,0,0,1,.539-.159.845.845,0,0,1,.863.878,81.237,81.237,0,0,0,1.391,11.438,46.83,46.83,0,0,0,1.583,6.268,8.715,8.715,0,0,0,2.122,3.829,15.56,15.56,0,0,0,.7-4.118c.07-1.428.01-2.864-.058-4.213-.2-4.721-.637-9.614-1.33-14.959-.574-4.434-1.32-9.153-2.346-14.853a6.312,6.312,0,0,1-.065-1.523,5.4,5.4,0,0,1,.326-1.495,3.465,3.465,0,0,1,2.032-2.114,13.621,13.621,0,0,1,2.586-1.867c.923-.533,1.863-.985,2.747-1.4a41.107,41.107,0,0,1,6.023-2.328c2.09-.647,4.279-1.206,6.4-1.747h0c2-.51,4.06-1.037,6.041-1.638a44.29,44.29,0,0,0,5.737-2.126,24.868,24.868,0,0,0,5.125-3.1,20.31,20.31,0,0,0,2.237-2.069,19.977,19.977,0,0,0,1.968-2.5l.361-.542a12.725,12.725,0,0,0,2.044-4.163c-.677-2.52-1.567-5.034-2.428-7.465l-.005-.014c-.411-1.16-.835-2.359-1.23-3.541-1.215-3.594-2.324-6.753-3.391-9.659l-.394-1.067c-1.364-3.71-2.787-7.273-4.231-10.59-1.561-3.586-3.212-7.038-4.907-10.26-1.807-3.435-3.732-6.737-5.721-9.816a110.162,110.162,0,0,0-6.673-9.257,39.345,39.345,0,0,0-4.432.566,36.4,36.4,0,0,0-4.084,1.012,37.834,37.834,0,0,0-7.365,3.2,55.023,55.023,0,0,0-6.694,4.495c-1.883,1.455-3.889,3.14-6.5,5.464-.713.614-1.366,1.154-1.995,1.649,2.612,4.565,5.408,9.119,8.111,13.522l.005.008c1.256,2.047,2.556,4.163,3.82,6.254l.747,1.24a29.274,29.274,0,0,1,2.99,6.056c1.8,5.681-2.571,14.641-6.084,21.84-1.069,2.19-2.078,4.259-2.784,5.981-1.39,2.444-2.777,4.825-4.118,7.128-12.507,21.471-22.386,38.429-10.622,65.362a11.278,11.278,0,0,0,.166-3.39,20.955,20.955,0,0,1,.069-3.513,3.292,3.292,0,0,1,.4-1.248,1.1,1.1,0,0,1,.834-.556l-.046-.467a84.853,84.853,0,0,1-.375-12.037A41.284,41.284,0,0,1,197.1,187.105Zm-49,35.015a1.577,1.577,0,0,0-.556.405c-.061.059-.124.12-.187.175l-.052.043.146-.116.1-.077h0c.12-.1.243-.2.413-.325l.139-.1h0Zm-65.06-7.361h0l.066.866c.4.08.791.181,1.173.278l.086.022a8.614,8.614,0,0,1-1.325-1.166Zm131.2-23.14a98.023,98.023,0,0,0-.65,12.607q-.009,1.051-.02,2.05c.072-1.582.143-3.234.205-4.692v0C213.914,198.313,214.059,194.937,214.238,191.619ZM108.633,173.343a1.526,1.526,0,0,1,1.146.51,1.485,1.485,0,0,1,.316,1.244,53.8,53.8,0,0,1-1.485,6.035,40.607,40.607,0,0,1-2.282,5.778l-.484,2.82c-.307,1.793-.634,3.718-.945,5.643a.758.758,0,0,1,.333-.076.855.855,0,0,1,.205.026,28.576,28.576,0,0,0,2.21-2.5,31.62,31.62,0,0,0,1.894-2.692,39.984,39.984,0,0,0,3-5.839,93.851,93.851,0,0,0,4.006-12.587,11.307,11.307,0,0,1-.417-3.338c.011-1.119.136-2.266.257-3.375a28.461,28.461,0,0,0,.249-4.2,17.185,17.185,0,0,0,.053-3.48,20.333,20.333,0,0,0-.59-3.373,32.668,32.668,0,0,0-2.544-6.474c-.97-9.975-8.627-15.663-16.032-21.163-2.24-1.664-4.555-3.384-6.615-5.18a61.113,61.113,0,0,1-5.189-5.9c-1.627-2.077-3.2-4.271-4.725-6.393l0,0c-1.443-2.01-2.934-4.088-4.463-6.057a63.33,63.33,0,0,0-4.835-5.6,36.553,36.553,0,0,0-5.59-4.714,29.769,29.769,0,0,0-3.2-1.887,28.473,28.473,0,0,0-3.53-1.5c-.183.012-.371.018-.556.018a12.168,12.168,0,0,1-4-.76.078.078,0,0,1-.052-.081.059.059,0,0,1,.052-.058c.832-.135,1.678-.316,2.5-.491h.01c.651-.139,1.323-.283,1.986-.4a1.591,1.591,0,0,1,.711-.922,2.2,2.2,0,0,1,1.14-.289,3.253,3.253,0,0,1,1.385.325c12.92-5.642,23.6-15.465,33.931-24.963l.366-.337A66.553,66.553,0,0,0,79.7,49.731a75.064,75.064,0,0,0-9.66-3.689,78.952,78.952,0,0,0-10.071-2.36c-4.115,4.642-8.1,9.532-11.952,14.261v0l0,0C44.9,61.776,41.674,65.732,38.4,69.533,34.73,73.8,31.383,77.41,28.168,80.578c-4.184,3.768-6.962,7.262-8.494,10.682a16.466,16.466,0,0,0-1.04,3.073,13.492,13.492,0,0,0-.34,3.2,12.951,12.951,0,0,0,.493,3.314,15.151,15.151,0,0,0,1.459,3.409,1.556,1.556,0,0,1,.948,1.247,1.806,1.806,0,0,1-.08.869,1.634,1.634,0,0,1-.518.735,2.727,2.727,0,0,0,.377-.126h0a3.624,3.624,0,0,1,.906-.261c.067,0,.111.016.129.048s.009.1-.038.182a25.256,25.256,0,0,0-7.83,5.308,24.726,24.726,0,0,1,3.544-2.168,23.978,23.978,0,0,1,3.693-1.477,25.03,25.03,0,0,1,3.805-.843,27.735,27.735,0,0,1,3.881-.268,40.4,40.4,0,0,1,15.859,3.64,63.794,63.794,0,0,1,7.4,3.806,74.755,74.755,0,0,1,6.638,4.468c2.958,2.154,5.9,4.48,8.74,6.914,2.755,2.361,5.5,4.893,8.154,7.527a20.322,20.322,0,0,1,5.173,2.009l.217.108c5.232,2.5,8.47,5.5,10.189,9.416a19.745,19.745,0,0,1,1.5,6.285,45.663,45.663,0,0,1-.082,7.631,50.82,50.82,0,0,0-2.871,6.707c-.818,2.306-1.543,4.7-2.244,7.015l0,.005c-.607,2.006-1.235,4.08-1.919,6.078-.59,1.3-.785,2.171-.565,2.51a.354.354,0,0,0,.318.158,3.236,3.236,0,0,0,1.74-1.1,5.618,5.618,0,0,0,1.41-2.136,19.405,19.405,0,0,0,2.66-5.21c.217-.556.441-1.131.674-1.678l.07-.163a1.794,1.794,0,0,1,.5-.695,1.193,1.193,0,0,1,.77-.284,1.328,1.328,0,0,1,.364.053,1.5,1.5,0,0,1,.864.739,1.06,1.06,0,0,1,.08.848l-.49,1.256c-.224.574-.453,1.158-.674,1.723l-.027.069v0c-2.116,5.4-4.3,10.992-6.006,16.6a19.477,19.477,0,0,0,3.81-2.992,27.324,27.324,0,0,0,3.081-3.719,73.483,73.483,0,0,0,4.873-8.5c.366-.709.744-1.443,1.119-2.157a1.3,1.3,0,0,1,1.164-.744,1.634,1.634,0,0,1,1.342.77,1.466,1.466,0,0,1,.061,1.469c-.635,1.293-1.48,2.991-2.385,4.661a69.554,69.554,0,0,0-2.851,7.083c-.766,2.228-1.486,4.621-2.2,7.315,7.235-4.3,9.727-13.152,11.73-20.265a1.481,1.481,0,0,1,.46-1.045A1.37,1.37,0,0,1,108.633,173.343ZM78.657,136.7h0c3.745,3.915,7.225,7.894,10.343,11.826a15.43,15.43,0,0,0-1.359-4.009,14.122,14.122,0,0,0-2.249-3.212,20.862,20.862,0,0,0-6.734-4.6ZM199.527,91.466h0c-2.481,4.466-5.458,8.836-8.338,13.062a160.884,160.884,0,0,0-8.965,14.2,61.426,61.426,0,0,0-3.461,7.546c-.5,1.324-.931,2.656-1.294,3.959-.381,1.368-.695,2.751-.933,4.112a28,28,0,0,0-.27,3.987c0,.082,0,.163,0,.244,2.837-1.152,5.987-2.269,9.631-3.415,3.25-1.022,6.584-1.971,9.809-2.89l.006,0c2.48-.706,5.045-1.437,7.553-2.195,1-.267,2.015-.584,2.993-.891a29.82,29.82,0,0,1,7.35-1.637,10.1,10.1,0,0,0,1.077-7.57,18.974,18.974,0,0,0-1.269-3.669c-.576-1.277-1.25-2.518-1.834-3.563a90.763,90.763,0,0,0-5.893-10.34,85.587,85.587,0,0,1-6.158-10.936ZM73.161,84.6h0c-1.263.706-2.4,1.292-3.461,1.792a33.253,33.253,0,0,1-3.61,1.458,27.206,27.206,0,0,1,3.053,1.81,32.279,32.279,0,0,1,2.809,2.163,18.986,18.986,0,0,0,1.21-7.223Zm57.649-81.36h0c-1.358,11.925-.823,22.1,1.636,31.1a38.126,38.126,0,0,0,1.819,5.3,40.911,40.911,0,0,0,2.6,5.072,41.424,41.424,0,0,0,3.3,4.7,39.6,39.6,0,0,0,3.921,4.174,36.135,36.135,0,0,0,4.461,3.5,32.088,32.088,0,0,0,4.92,2.686,27.224,27.224,0,0,0,10.9,2.326h0a26.273,26.273,0,0,0,4.619-.413c19.191-4,26.713-25.086,29.488-37.3a51.92,51.92,0,0,0-38.224-19.38c-.574-.023-1.184-.035-1.812-.035-2.446,0-5.008.179-7.486.352l-.058,0c-2.507.175-5.1.356-7.65.357a36.373,36.373,0,0,1-6.382-.5,22.178,22.178,0,0,1-6.051-1.942ZM160.853,207.5a12.576,12.576,0,0,1-4.515-.911,18.112,18.112,0,0,1-4.021-2.2,16.766,16.766,0,0,1-6.431-9.177.142.142,0,0,1,.022-.128.172.172,0,0,1,.135-.065.147.147,0,0,1,.13.073,16.09,16.09,0,0,0,3.282,4.04,19.453,19.453,0,0,0,4.234,2.835,27.5,27.5,0,0,0,4.836,1.843,40.324,40.324,0,0,0,5.087,1.065,1.031,1.031,0,0,1,.6.369,1.055,1.055,0,0,1,.213.6,1.285,1.285,0,0,1-.195.734,1.153,1.153,0,0,1-.62.49A8.779,8.779,0,0,1,160.853,207.5ZM116.6,200.787a1.726,1.726,0,0,1-1.35-.648,8.98,8.98,0,0,0,2.152.464A1.855,1.855,0,0,1,116.6,200.787Zm4.119-23.544c-.2-.381-.4-.717-.6-1.026a3.512,3.512,0,0,1,.55.786.447.447,0,0,1,.039.172v0c0,.022,0,.044.007.066Z" transform="translate(-25.707 -14.132)"/>
    </g>
    <g id="Head" transform="translate(76.457 39.744)">
      <g id="HEAD-2" data-name="HEAD">
        <path id="_Skin-2" data-name="âœ‹ Skin" d="M68.867,10.978C54.322-.825,31.014-4.658,15.444,7.25,3.347,18.425-1.66,50.182.481,66.14c.6,10.235,8.427,21.836,19.924,18.6,1.952-.192,3.848-.939,5.818-1.1a27.862,27.862,0,0,1,7.084.056c5.125.724,9.669,3.441,14.643,4.711a34.713,34.713,0,0,0,27.475-4.537c26.256-17.235,14.363-56.214-6.558-72.9Z" transform="translate(7.077 21.418)" fill="#ae5d29"/>
        <path id="_Ink-2" data-name="ðŸ– Ink" d="M29.6,129.745a8.323,8.323,0,0,1-2.357-.334,8.576,8.576,0,0,1-1.336-.519,7.878,7.878,0,0,1-1.447-.911,7.263,7.263,0,0,1-1.18-1.183,9.6,9.6,0,0,1-3.834.824,8.375,8.375,0,0,1-1.8-.192,7.639,7.639,0,0,1-1.715-.6,8.342,8.342,0,0,1-1.418-.221,7.412,7.412,0,0,1-3.451-1.964,6.4,6.4,0,0,1-1.174-1.612,5.285,5.285,0,0,1-.557-1.9A7.035,7.035,0,0,1,4.5,116.289a7.305,7.305,0,0,1-.264-1.7,7.837,7.837,0,0,1,.13-1.726,8.214,8.214,0,0,1-3.07-3.123A9.808,9.808,0,0,1,.4,107.667a9.556,9.556,0,0,1-.389-2.207,9.418,9.418,0,0,1,1.094-4.809,16.521,16.521,0,0,1,3.028-4.067,5.839,5.839,0,0,1-1.143-3.164,6.82,6.82,0,0,1,.231-2.033,9.457,9.457,0,0,1,.755-1.917,17.793,17.793,0,0,1,2.371-3.38c.167-.2.327-.374.489-.546a6.088,6.088,0,0,1-.516-1.095A9.929,9.929,0,0,1,5.9,80.276,18.081,18.081,0,0,1,6.8,76.138,17.176,17.176,0,0,1,8.966,71.8a13.463,13.463,0,0,1,3.3-3.357c.154-.348.323-.694.5-1.027v0a7.725,7.725,0,0,1-.644-2.8c-.089-2.663,1.135-5.5,3.64-8.43a18.165,18.165,0,0,1,4.861-3.978A20,20,0,0,1,26.546,50a7.742,7.742,0,0,1-.125-1.868,8.505,8.505,0,0,1,.317-1.88,9.458,9.458,0,0,1,1.869-3.478,8.236,8.236,0,0,1,1.686-1.516,8.835,8.835,0,0,1,1.946-.979A12.891,12.891,0,0,1,36.6,39.6c.444,0,.908.017,1.381.05a3.48,3.48,0,0,1-.011-.463,5.055,5.055,0,0,1,1.275-2.9,12.685,12.685,0,0,1,2.381-2.181,13.313,13.313,0,0,1,4.987-2.22,7.864,7.864,0,0,1-.144-1.94,7.994,7.994,0,0,1,.345-1.955,9.825,9.825,0,0,1,1.468-2.915,10.3,10.3,0,0,1,2.281-2.265,5.347,5.347,0,0,1,.554-5.181A9.4,9.4,0,0,1,56.044,14.2a6.6,6.6,0,0,1,4.039-4.162,9.9,9.9,0,0,1,3.536-.6,13.3,13.3,0,0,1,1.489.086,11.472,11.472,0,0,1,4.308-4.176,12.556,12.556,0,0,1,5.811-1.617c.892-.333,1.853-.64,2.855-.912A6.1,6.1,0,0,1,81.01.5a7.069,7.069,0,0,1,2.7-.5,19.038,19.038,0,0,1,3.6.471c.75.147,1.526.3,2.292.389.238.026.479.046.717.06h.1c.22,0,.443.007.662.02h.011c.683,0,1.381-.04,2.055-.08S94.518.781,95.2.781a12.056,12.056,0,0,1,1.736.112,7.864,7.864,0,0,1,3.73,1.574,6.07,6.07,0,0,1,1.494,1.68A12.942,12.942,0,0,1,109.1,6.293a11.946,11.946,0,0,1,2.708,2.44,10.324,10.324,0,0,1,1.768,3.174,19.9,19.9,0,0,1,4.157-.486,11.221,11.221,0,0,1,4.047.688,6.252,6.252,0,0,1,3.357,2.789,8.3,8.3,0,0,1,.767,3.122c.058.524.118,1.067.23,1.605a1.867,1.867,0,0,0,.309.818,1.016,1.016,0,0,0,.78.328c.115.008.236.012.368.012.238,0,.477-.013.707-.026s.471-.026.708-.026a4.759,4.759,0,0,1,.561.03,6.643,6.643,0,0,1,2.441.788A7.006,7.006,0,0,1,134,23.179a7.551,7.551,0,0,1,1.286,2.157,6.333,6.333,0,0,1,.439,2.467,11.142,11.142,0,0,1-.4,2.32l0,.011c-.041.169-.084.343-.124.515l-.012.051c-.158.685-.307,1.332.288,1.821a7.169,7.169,0,0,0,1.017.657,7.5,7.5,0,0,1,1.006.645,5.433,5.433,0,0,1,1.521,1.93,7.368,7.368,0,0,1,.626,2.416,14.011,14.011,0,0,1-.009,2.508c-.029.362-.064.727-.1,1.079a23.855,23.855,0,0,0-.149,3.96,36.115,36.115,0,0,0,.776,4.734l.01.047q.06.284.119.567l.025.118a40.294,40.294,0,0,1,.836,5.113,12.5,12.5,0,0,1-.536,5.1,9.705,9.705,0,0,1-1.188,2.4,6,6,0,0,1-.425.492c-.427.466-1.011,1.1-.984,1.455a.116.116,0,0,1,0,.043c0,.008,0,.008.014.025s.043.046.1.111a2.147,2.147,0,0,0,.636.436c.125.067.243.129.341.2a6.75,6.75,0,0,1,1.736,1.6,6.1,6.1,0,0,1,1.027,2.272,8.658,8.658,0,0,1,.168,2.486,20.388,20.388,0,0,1-1.1,4.919,18.927,18.927,0,0,0-.522,1.87,38.082,38.082,0,0,1,2.824,4.4,14.084,14.084,0,0,1,1.373,4.679c.026.15.055.32.084.485.306,1.743.556,3.542.763,5.5.064.608.133,1.225.2,1.823.193,1.732.393,3.521.494,5.285a32.894,32.894,0,0,1-.076,5.3,35.4,35.4,0,0,1-3.437,12.107,9.332,9.332,0,0,1-3.835,4.35,6.679,6.679,0,0,1-3.062.766c-.072,0-.146,0-.218,0a6.746,6.746,0,0,1-5.321,2.572,10.779,10.779,0,0,1-3.029-.49,5.291,5.291,0,0,1-1.806,1,7,7,0,0,1-2.176.318c-.343,0-.719-.019-1.148-.057a4.132,4.132,0,0,1-.8.358,3.946,3.946,0,0,1-1.256.2,5.379,5.379,0,0,1-1.633-.279,13.607,13.607,0,0,1-1.578-.64l-.217-.1h0l-.015-.007c-.307-.01-.625-.015-.973-.015a1.743,1.743,0,0,1-.7,1.227,2.274,2.274,0,0,1-1.385.5,1.552,1.552,0,0,1-1.229-.559,2.49,2.49,0,0,0-.6-.5c-.052-.034-.11-.073-.168-.114a2.156,2.156,0,0,1-1.465.555,2.094,2.094,0,0,1-.445-.047,6.668,6.668,0,0,1-1.4-.47c-.217.02-.414.03-.6.03a4.27,4.27,0,0,1-1.039-.121,2.222,2.222,0,0,1-1.435-1.071,2.587,2.587,0,0,1-.288-1.7,7.752,7.752,0,0,1-1.645-.571,6.49,6.49,0,0,1-1.459-.952,7.727,7.727,0,0,1-.8.135,6.728,6.728,0,0,1-.753.042,6.818,6.818,0,0,1-1.816-.246,6.433,6.433,0,0,1-1.7-.739,5.145,5.145,0,0,1-1.371-1.221,1.646,1.646,0,0,0,.064.287.055.055,0,0,1-.009.049.073.073,0,0,1-.057.028.053.053,0,0,1-.05-.031c-.064-.135-.132-.268-.2-.409a6.874,6.874,0,0,1-.433-.967,27.759,27.759,0,0,1-5.22.5c-.5,0-1.01-.014-1.509-.041a30.719,30.719,0,0,1-8.691-1.738,24.735,24.735,0,0,1-4.427-2,10.476,10.476,0,0,1-1.731-1.274,7.462,7.462,0,0,1-1.338-1.672.9.9,0,0,1-.021-.922,1.073,1.073,0,0,1,1.12-.509,21.485,21.485,0,0,1,5.006,1.856,29.093,29.093,0,0,0,3.732,1.541,27.162,27.162,0,0,0,7.978,1.22c.308,0,.621-.006.928-.017a23.628,23.628,0,0,0,13.76-5.108,23.084,23.084,0,0,0,4.961-5.426,22.047,22.047,0,0,0,2.984-6.851,35.45,35.45,0,0,0,.776-4.537c.177-1.6.276-3.217.35-4.593.168-3.174.276-6.473.321-9.806.024-1.82.031-3.666.038-5.451v-.019c.005-1.434.011-2.916.026-4.374s.069-2.851.135-4.524a8.767,8.767,0,0,1-2-.731,7.457,7.457,0,0,1-2.882-2.488,5.967,5.967,0,0,0-.932-1.089,3.164,3.164,0,0,0-1.775-.551c-.2-.021-.405-.043-.6-.076a7.612,7.612,0,0,1-5.2-3.438,8.918,8.918,0,0,1-1.644.148,16.947,16.947,0,0,1-5.442-1.124c-1.88-.659-3.782-1.352-5.621-2.022-.858-.313-1.83-.667-2.767-1.005-.269-.1-.545-.2-.811-.3a13.905,13.905,0,0,0-3.068-.9c-.566-.074-1.14-.1-1.7-.117A13.753,13.753,0,0,1,77,52.715a14.167,14.167,0,0,1-3.282-1.171,24.4,24.4,0,0,1-3.027-1.795A7.6,7.6,0,0,1,67,50.732a7.144,7.144,0,0,1-2.182-.342,6.389,6.389,0,0,1-2.6-1.6c0,.374-.029.758-.054,1.129v0c-.027.392-.055.8-.056,1.2a.719.719,0,0,1-.016.186l.033.1a1.449,1.449,0,0,0,.149.286,1.682,1.682,0,0,1,.151.284,5.967,5.967,0,0,1,.179.642c.036.152.074.308.118.455a6.85,6.85,0,0,1,.387,2.407,7.481,7.481,0,0,1-1.933,4.341,15.169,15.169,0,0,1-1.626,1.67l-.025.061,0,.01c-.051.124-.1.253-.156.377-.127.3-.234.629-.337.95l-.081.249a12.246,12.246,0,0,1,.767,1.528,8.8,8.8,0,0,1,.66,3.087,11.156,11.156,0,0,1-.352,3.158,5.311,5.311,0,0,1,.861,1.9,6.347,6.347,0,0,1,.148,2.085,10,10,0,0,1-1.8,4.373c-.29.472-.59.96-.867,1.474-.029.053-.072.156-.118.264-.086.205-.184.438-.226.438-.009,0-.015-.01-.019-.031a6.4,6.4,0,0,0,.111.954,6.427,6.427,0,0,1,.108.9,14.756,14.756,0,0,1-.387,3.507,14.243,14.243,0,0,1-2.309,5.043,14.884,14.884,0,0,1-1.612,8.28,4.468,4.468,0,0,1,.692,2.093,6.291,6.291,0,0,1-.272,2.175c.062.041.127.086.2.137a6.4,6.4,0,0,1,2.448,1.924c.1.112.21.227.309.331a26.793,26.793,0,0,1,2.428,2.994,19.019,19.019,0,0,1,2.127,3.758,12.422,12.422,0,0,1,.647,2.048,10.151,10.151,0,0,1,.24,2.149,2.244,2.244,0,0,1-.188.91c.638,1.574.44,3.7-1,4.54-.159.093-.3.169-.44.243a3.9,3.9,0,0,0-1.095.771c-.131.133-.262.27-.388.4a13.166,13.166,0,0,1-1.145,1.1,5.517,5.517,0,0,1-3.442,1.4,4.023,4.023,0,0,1-.99-.124,7.049,7.049,0,0,1-1.216.106,7.183,7.183,0,0,1-.937-.062A6.111,6.111,0,0,1,48.61,128c-.1,0-.193,0-.29-.008a5.289,5.289,0,0,1-.622-.066,10.659,10.659,0,0,1-4.662,1.495c-.162.011-.329.016-.494.016a7.812,7.812,0,0,1-3.83-1,6.622,6.622,0,0,1-1.5-1.1c-.066.03-.136.059-.2.086s-.159.065-.211.093a23.059,23.059,0,0,1-3.479,1.551,11.562,11.562,0,0,1-3.72.67h0ZM99.14,119.1h0c-.286.106-.55.2-.807.289a3.256,3.256,0,0,0,.985.163h.019c-.04-.088-.076-.173-.117-.274A.777.777,0,0,1,99.14,119.1ZM41.45,38.359l-.06.05-.005,0c-.051.042-.1.086-.153.131a3.724,3.724,0,0,0-.937,1.377l.018,0,.028,0A11.132,11.132,0,0,1,41.45,38.359ZM97.382,4.236h0a6.353,6.353,0,0,1,.412.771c.232-.1.455-.189.681-.265a4.788,4.788,0,0,0-1.093-.506Z" transform="translate(-24.326 -9.274)"/>
      </g>
      <g id="FACE" transform="translate(35.237 41.069)">
        <path id="_Ink-3" data-name="ðŸ– Ink" d="M30.994,36.036c-.908,0-1.7-.031-2.423-.1-.923-.082-1.871-.214-2.817-.392l-.55-.107a1.808,1.808,0,0,1-1.4-.8.355.355,0,0,1-.012-.328c.131-.289.632-.585,1.49-.88.7-.243,1.494-.43,1.918-.531.145-.035.25-.059.307-.075,1.008-.287,2.05-.522,3.057-.749l.3-.067.153-.035.334-.08a7.338,7.338,0,0,1,1.714-.281,2.621,2.621,0,0,1,1.494.438,2,2,0,0,1,.918,1.4,2.046,2.046,0,0,1-.527,1.626c-.817.937-1.888.946-3.022.955h0l-.222,0h-.076C31.406,36.034,31.194,36.036,30.994,36.036Zm-3-13.759a12.667,12.667,0,0,1-4.221-.717,1.83,1.83,0,0,1-.933-.78,1.28,1.28,0,0,1-.107-1.1c.04-.111.09-.222.138-.326a1.338,1.338,0,0,1,.725-.647,1.677,1.677,0,0,1,.623-.123,1.3,1.3,0,0,1,.389.056l.125.039.032.01a14.811,14.811,0,0,0,4.17.851c.141,0,.28,0,.411-.015a2.415,2.415,0,0,0,2.2-1.258A1.417,1.417,0,0,0,31.5,16.96a4.594,4.594,0,0,0-1.414-1.525,6.544,6.544,0,0,0-2.243-.942l-.031-.009c-.294-.082-.6-.166-.905-.267a.537.537,0,0,1-.255-.182.6.6,0,0,1-.121-.287.5.5,0,0,1,.052-.3.469.469,0,0,1,.228-.207,3.948,3.948,0,0,1,1.62-.328,6.077,6.077,0,0,1,3.442,1.181,5.637,5.637,0,0,1,1.774,2.021,3.708,3.708,0,0,1,.372,2.328,4.076,4.076,0,0,1-1.082,2.18,5.134,5.134,0,0,1-2.275,1.3A9.445,9.445,0,0,1,27.991,22.277ZM11.4,12.567a3.684,3.684,0,0,1-.78-.083A4.716,4.716,0,0,1,8.4,11.293,5.313,5.313,0,0,1,7.027,9.178L7,9.094a6.63,6.63,0,0,1-.305-2.122A2.959,2.959,0,0,1,6.908,5.9a1.287,1.287,0,0,1,.657-.7.3.3,0,0,1,.122-.027c.363,0,.652.681.76.973l.185.506A5.748,5.748,0,0,0,9.916,8.9a2.1,2.1,0,0,0,1.3.631.981.981,0,0,0,.7-.287,1.466,1.466,0,0,0,.375-1.279,3.707,3.707,0,0,1,.011-.607,2.085,2.085,0,0,1,.637-1.2,1.793,1.793,0,0,1,1.2-.545,1.322,1.322,0,0,1,1.05.552,3.3,3.3,0,0,1,.732,1.857,3.7,3.7,0,0,1-.39,1.847,4.978,4.978,0,0,1-1.7,1.916A4.41,4.41,0,0,1,11.4,12.567Zm25.5-.418a3.642,3.642,0,0,1-1.566-.34,3.8,3.8,0,0,1-1.2-.906,5.833,5.833,0,0,1-1.238-2.409,7.631,7.631,0,0,1-.214-2.718.441.441,0,0,1,.431-.421.465.465,0,0,1,.426.306l.04.1c.092.235.184.507.282.794a9.972,9.972,0,0,0,.951,2.207,2.11,2.11,0,0,0,1.807,1.123h0a.967.967,0,0,0,.855-.431,2.674,2.674,0,0,0,.027-2.2l-.016-.037a1.712,1.712,0,0,1,.06-1.712,2,2,0,0,1,1.647-.847,1.543,1.543,0,0,1,.944.294,1.394,1.394,0,0,1,.52.933l.021.152a8.482,8.482,0,0,1-.051,2.573,5.016,5.016,0,0,1-.977,2.3,3.315,3.315,0,0,1-2.4,1.228C37.131,12.144,37.013,12.148,36.9,12.148ZM12.864,3.5c-3.678,0-8.04-.05-12.5-.425A.365.365,0,0,1,0,2.684a.355.355,0,0,1,.344-.363H.37C6.137,1.5,12.056,1.2,17.78.9h.014L19.96.784C25.165.5,30.465.326,35.59.153,37.035.1,38.529.053,40,0h.066a1.348,1.348,0,0,1,1.057.455,1.573,1.573,0,0,1,.361,1.013,1.662,1.662,0,0,1-.364,1.081A1.447,1.447,0,0,1,40,3.065c-1.522.036-3.071.075-4.568.112h-.006c-5,.126-10.165.256-15.247.283l-1.2.007-1.238.009C16.143,3.488,14.49,3.5,12.864,3.5Z" transform="translate(9.529 17.885)"/>
      </g>
      <g id="MASK" transform="translate(4.876 62.045)">
        <path id="_Color" data-name="ðŸŽ¨ Color" d="M79.075,11.512C78.657,6.238,71.983,4,68.659,3.342,57.59.75,48.173,7.4,34.974,7.537a36.344,36.344,0,0,1-6.913-.669C19.072,4.833,10.093,2.669,1.273,0a1.789,1.789,0,0,0-.79,2.949C8.93,5.934,21.853,8.607,28.678,8.911A29.838,29.838,0,0,1,17.466,31.384c10.222,11.262,34.06,14.966,48.09,9.054,6.9-2.064,14.184-20.536,13.519-28.926" transform="translate(8.077 4.023)" fill="#fff"/>
        <path id="_Ink-4" data-name="ðŸ– Ink" d="M54.226,46.936h0l-3.495-.252c-5.926-.435-12.19-1-17.909-2.723a37.357,37.357,0,0,1-4.172-1.52,29.819,29.819,0,0,1-3.9-2.046,25.78,25.78,0,0,1-3.546-2.668,24.79,24.79,0,0,1-3.118-3.386l-.06.051a1.9,1.9,0,0,1-.846-1.488,2.2,2.2,0,0,1,.738-1.789l.029.046c.014-.022.029-.045.044-.066l.015-.022L18,31.033a15.568,15.568,0,0,1,1.19-1.089l0,.007a26.859,26.859,0,0,0,9.747-19.516,1.431,1.431,0,0,1-.341.029c-1.806,0-8.917-1.293-15.528-2.824C9.427,6.8,6.323,5.973,4.09,5.257,1.446,4.408.07,3.731,0,3.244c-.03-.214.2-.391.681-.527C5.264,4.259,9.325,5.442,13.1,6.333a.179.179,0,0,1,.086-.022.134.134,0,0,1,.124.071A122.932,122.932,0,0,0,28.943,8.945c-.005-.237-.015-.49-.028-.75-4.221-.819-8.763-1.888-13.883-3.269-4.6-1.24-9.11-2.576-13.709-3.95C1.21.972,1.141.868,1.145.7A.723.723,0,0,1,1.859,0a.9.9,0,0,1,.162.015c2.99.7,6.135,1.552,9.465,2.458,9.007,2.45,18.321,4.983,26.573,4.983h.124c4.063-.133,7.984-1.317,11.777-2.462,2-.6,4.073-1.23,6.139-1.692a29.267,29.267,0,0,1,6.319-.781c1.64.031,3.1.116,4.45.258a31.5,31.5,0,0,1,4.583.8,19.1,19.1,0,0,1,4.265,1.627,12.487,12.487,0,0,1,3.5,2.736,29.565,29.565,0,0,1,.636,14.505A34.721,34.721,0,0,1,77.632,29.6a33.635,33.635,0,0,1-3.689,6.471,30.029,30.029,0,0,1-3.89,4.376,26.138,26.138,0,0,1-4.639,3.424,23.192,23.192,0,0,1-5.3,2.241A22.376,22.376,0,0,1,54.226,46.936ZM29.746,8.34a18.769,18.769,0,0,1,.271,6.518,23.756,23.756,0,0,1-1.78,6.364,29.1,29.1,0,0,1-3.362,5.8A30.2,30.2,0,0,1,20.4,31.865c9.465,8.162,13.617,9.384,25.915,10.7l1.618.192c2.362.279,4.874.555,7.329.6C68.058,42.422,77.5,29.169,78.918,17.422l.008-.328c.064-3.014-.063-6.187-1.417-8.975a1.071,1.071,0,0,1-.588-.458A29.408,29.408,0,0,0,63.5,4.245c-4.611,0-8.712,1.133-13.054,2.332l-.239.066c-2.01.555-4.287,1.184-6.648,1.649a36.881,36.881,0,0,1-7.18.749,31.643,31.643,0,0,1-6.631-.7Zm12.4,11.389a15.628,15.628,0,0,1-2.749-.246,16.9,16.9,0,0,1-2.7-.725.152.152,0,0,1-.091-.17.108.108,0,0,1,.109-.1h.018a17.969,17.969,0,0,0,2.108.123,19.114,19.114,0,0,0,5-.672,13.92,13.92,0,0,0,3.706-1.49,18.415,18.415,0,0,1,2.72-1.23.816.816,0,0,1,.178-.02.914.914,0,0,1,.781.466.717.717,0,0,1-.032.755,6.218,6.218,0,0,1-3.064,2.217,16.992,16.992,0,0,1-3.77.929A15.891,15.891,0,0,1,42.142,19.73Zm34.412-1.641a10.572,10.572,0,0,1-4.749-1.281A11.169,11.169,0,0,1,69.74,15.43a7.311,7.311,0,0,1-1.485-1.672.072.072,0,0,1,.018-.054.121.121,0,0,1,.089-.027,7.528,7.528,0,0,1,1.833.824c.118.065.212.116.261.141a15.607,15.607,0,0,0,5.61,1.683c.657.109,1.336.222,2,.363a.637.637,0,0,1,0,1.218A5.9,5.9,0,0,1,76.554,18.089Z" transform="translate(7.313 3.312)"/>
      </g>
    </g>
  </g>
</svg>
