<svg xmlns="http://www.w3.org/2000/svg" width="372.768" height="524.681" viewBox="0 0 372.768 524.681">
  <g id="sit-mask-1" transform="matrix(0.996, 0.087, -0.087, 0.996, 43.382, 0)">
    <g id="BODY" transform="translate(0 98.346)">
      <path id="_Skin" data-name="âœ‹ Skin" d="M155.2,343.78a54.829,54.829,0,0,1-11.251-1.167c-11.539-2.418-22.022-8.124-30.942-13.282-.427-.242-.853-.48-1.3-.731h0l-.087-.049,0,0c-3.491-1.95-7.835-4.377-10.557-7.336-2.988-3.248-3.5-6.485-1.618-10.186l.3-.585-.312-.579c-1.951-3.625-1.806-8.111.353-10.907l1.814-2.35-2.982.316c-3,.318-6.031.749-8.959,1.166h-.012c-3.25.463-6.611.942-9.927,1.263l-.921.089-.212.886c-.118.493-.263.792-1.285.792a17.862,17.862,0,0,1-3.335-.533h0a24.308,24.308,0,0,0-5.046-.725,9.113,9.113,0,0,0-2.068.219l-.372.085-.265.271a1.079,1.079,0,0,1-.753.281.937.937,0,0,1-.568-.17l-.418-.326-.53.058a101.5,101.5,0,0,0-24.343,5.431l-.032.012-.155.067h0c-2.583,1.113-5.253,2.264-7.686,2.264a6.152,6.152,0,0,1-4.545-1.9l-.374-.366-.527-.005c-5.349-.049-7.794-6.277-8.132-10.451l-.042-.526-.408-.342C8.363,286.65,2.859,275.922.86,261.664-.962,248.677.437,234.984,2.045,223.3c3.719-30.266,7.6-57.413,17.463-83.152l.461-1.2-1.228-.44a29.082,29.082,0,0,1-9.953-5.574l-.169-.154-.213-.087c-3.493-1.433-5.2-6.723-5.646-8.31l-.035-.128-.062-.118a7.882,7.882,0,0,1-.451-5.21l.046-.21-.026-.213c-.23-1.848.534-3.779,1.343-5.824.37-.934.751-1.9,1.031-2.863.949-2.718,1.9-5.481,2.811-8.153l.034-.1.009-.025v0c2.077-6.062,4.225-12.33,6.513-18.428l.313-.835L13.6,81.7c-1.179-.983-.785-2.14.914-4.906a20.478,20.478,0,0,0,1.07-1.881,127.684,127.684,0,0,1,6.941-10.725l.05-.069.04-.075C35.068,40.816,57.163,28.025,84.826,28.025h.564l.312-.187c5.185-3.113,8.886-8.454,11.315-16.328l.078-.251L97.064,11a18.007,18.007,0,0,1-.143-2.6,7.814,7.814,0,0,1,2.518-5.725C102.325.206,106.707,0,110.948,0h.609c5.422.015,9.25.955,12.047,2.958,3.25,2.327,5.045,6.084,5.49,11.484.133,1.611.128,3.28.124,4.894V19.8l.055.179a31.913,31.913,0,0,0,1.357,3.666l.525,1.182,1.194-.533a7.655,7.655,0,0,1,2.994-.542c.353-.008.7-.012,1.06-.012,2.882,0,5.964.262,8.945.516h.01c2.248.192,4.571.39,6.825.478h.047l.434,0c5.47,0,9.436.859,12.479,2.7,3.277,1.986,5.634,5.172,7.416,10.029,9.559,27.841,13.487,57.824,16.953,84.278,1.966,13.833,2.564,28.015,3.142,41.729v.015c.611,14.473,1.242,29.439,3.476,44.068l.177,1.157,1.187-.077c5.22-.336,10.86-1.061,16.832-1.827h.01c9.079-1.166,18.466-2.372,27.542-2.372,12.69,0,22.31,2.492,29.408,7.62a23.833,23.833,0,0,1,7.4,18.234c-.149,10.278-5.594,21.642-13.872,28.95l-.031.029c-10.464,9.87-29.565,18.43-56.771,25.443-25.019,6.449-50.9,9.954-64.1,11.469l-3.267.375,2.652,1.914c1.069.772,2.048,1.454,2.994,2.086l.607.405.665-.3a9.438,9.438,0,0,1,3.779-1.051c.6,0,1.325.13,1.365.751a1.05,1.05,0,0,1-.875,1.086l-3.247.4,2.651,1.888c1.768,1.259,4.4,2.776,7.457,4.532l.015.009c10.01,5.758,25.136,14.46,22.535,22.1l-.171.5.242.473a4.2,4.2,0,0,1,.182,3.882c-1.235,2.666-5.1,4.691-8.38,5.514l-.056.014-.055.019A54.081,54.081,0,0,1,155.2,343.78Zm3.279-234.108-2.573.1c-.693,12.048-1.364,24.286-2.013,36.121-.258,4.7-.558,10.167-.859,15.618-1.027,13.163-.672,23.817,1.116,33.529a23.106,23.106,0,0,1-2.855,13.886l-.765,1.321,1.455.508a27,27,0,0,0,9.006,1.375,77.454,77.454,0,0,0,10.094-.881l1.879-.251-.922-1.629a11.151,11.151,0,0,1-1.024-4.571v0l0-.032h0c-.038-.441-.078-.9-.13-1.346-2.779-24.8-6.292-49.925-9.689-74.222v-.01C160.349,123.146,159.392,116.3,158.477,109.673Z" transform="translate(23.063 -16.571)" fill="#d08b5b"/>
      <path id="_Shoes" data-name="ðŸ‘Ÿ Shoes" d="M134.8,76.837a16.519,16.519,0,0,1-3.285-.281c-1.279-.194-6.567-1.794-11.089-3.226-5.409-1.713-9.9-3.233-10.928-3.7L90.794,58.8l-.573-.251-.646-.283-.547-.217a22.189,22.189,0,0,1-3.226-1.6,15.272,15.272,0,0,1-2.948-2.266,8.494,8.494,0,0,1-1.962-2.908,6.113,6.113,0,0,1-.267-3.521,11.732,11.732,0,0,0,.369-3.661,12.776,12.776,0,0,0-.495-2.541,8.041,8.041,0,0,1-.366-3.633,26.762,26.762,0,0,1,1.094-4.5,27.553,27.553,0,0,1,1.945-4.431,15.739,15.739,0,0,0,4.365,3.527A9.624,9.624,0,0,0,92.028,33.7a8.009,8.009,0,0,0,2.6-.433,8.731,8.731,0,0,0,2.425-1.3,13.446,13.446,0,0,0,3.972-5.25l.09-.175.089-.175c.157-.313.309-.627.469-.96a20.984,20.984,0,0,1,1.959-3.476,6.352,6.352,0,0,1,3.107-2.372,5.3,5.3,0,0,1,2.909-.955,3.391,3.391,0,0,1,2.313.849,2.064,2.064,0,0,0,.241-.572,98.441,98.441,0,0,0,7.514,6.735c2.928,2.477,8.8,7.352,15.21,12.167,3.571,2.682,7.294,5.112,10.894,7.462h0c3.307,2.159,6.431,4.2,9.11,6.224a43.749,43.749,0,0,1,3.638,3.033,20.892,20.892,0,0,1,2.732,3.064,9.229,9.229,0,0,1,1.127,2.527,27.261,27.261,0,0,1,.776,3.288c.186,1.057.325,2.143.391,3.058a6.879,6.879,0,0,1-.028,1.835,30.011,30.011,0,0,1-4.72,2.924c-2.095,1.15-4.145,2.21-4.165,2.221l-.018,0c-2.64.713-5.276,1.343-7.835,1.872-2.2.454-4.251.814-6.107,1.069A44.562,44.562,0,0,1,134.8,76.837ZM13.7,41.276a3.328,3.328,0,0,1-1.69-.454,6.8,6.8,0,0,1-1.269-1l-.176-.167-.01-.01a3.4,3.4,0,0,0-2.218-1.275,1.972,1.972,0,0,0-.2.01c-.832.085-1.315.12-1.668.12a1.569,1.569,0,0,1-1.208-.383,9.219,9.219,0,0,1-2.053-2.852,29.244,29.244,0,0,1-1.733-4.254A35.655,35.655,0,0,1,.327,26.548a14.518,14.518,0,0,1-.308-3.49A14.549,14.549,0,0,1,.73,20.064a15.5,15.5,0,0,1,1.3-2.762,20.287,20.287,0,0,1,4.144-4.849A41.283,41.283,0,0,1,19.032,5.305a75.8,75.8,0,0,1,7.8-2.386c2.594-.649,5.323-1.2,8.112-1.651A98.92,98.92,0,0,1,50.276,0c2.006,0,3.888.076,5.594.227l.38.871C58.092,5.307,62,14.038,63.574,17.539a13.9,13.9,0,0,0-1.19-1.836c-.171-.222-.3-.33-.38-.33a.089.089,0,0,0-.069.033,7.26,7.26,0,0,0,.155,2.672,50.59,50.59,0,0,1,.532,6.409,33.143,33.143,0,0,1-.8,6.933,9.625,9.625,0,0,1-1.076,3.274.121.121,0,0,1-.028,0,6.248,6.248,0,0,1-1.093-.334c-.569-.2-1.347-.47-2.251-.738a28.383,28.383,0,0,0-3.055-.737,19.923,19.923,0,0,0-3.514-.335,14.474,14.474,0,0,0-2.262.171c-.893.142-1.883.288-2.931.443h0a131.893,131.893,0,0,0-15.559,3c-2.622.715-5.211,1.652-7.715,2.558a61.449,61.449,0,0,1-7.78,2.463A4.213,4.213,0,0,1,13.7,41.276Z" transform="translate(40.522 250.369)" fill="#fff"/>
      <path id="_Pants" data-name="ðŸ‘– Pants" d="M38.6,0l1.18.324L92.066,14.931c.334.218.583.377.822.522l.17.1.99.586-.23,1.125a32.108,32.108,0,0,0-.36,8.771l.013.2.029.413.042.562.015.192.284,3.466.054.7c.042.562.073,1.032.1,1.523L94,33.2l.041.8.015.341a67.011,67.011,0,0,1-.738,11.749l-.032.242-.09.679-.062.594-.262,2.43-.091.868a118.781,118.781,0,0,0-.811,14.413l0,.209c.116,5.5.961,9.223,2.366,10.5l.043.038.037.031h.009a1.754,1.754,0,0,0,.8-.345l.184-.114c.114-.072.329-.208.429-.269l.11-.067a4.815,4.815,0,0,1,.567-.3,2.8,2.8,0,0,1,.873-.229l.087-.006H97.5l.08-.07a7.268,7.268,0,0,0,.745-.776l.1-.12L98.5,73.7l.566-.744.384-.664a14.219,14.219,0,0,0,.8-1.624l.089-.216.078-.2,3.354-8.671-.23,9.292c-.078,3.155,1.1,4.791,2.559,4.807,1.532.017,3.1-1.663,3.553-4.648l.015-.1,3.207.406a11.7,11.7,0,0,0,1.532,6.494c.466.723.9,1.064,1.217,1.09.379.032.977-.322,1.778-1.352h0l-.016.021.034-.048a8.891,8.891,0,0,0,1.289-4.239l.014-.137.013-.136,1.123-11.791,2.078,11.661q.306,1.716.687,3.447l.048.215.035-.013a2.371,2.371,0,0,0,.288-.14l.05-.029.046-.028a6.417,6.417,0,0,0,1.839-1.826l.031-.054.372-.675.759-.136a.99.99,0,0,0,.375-.157l.036-.027.546-.444.7.1c10.177,1.411,17.672.222,22.442-4.766l.144-.152.743-.8,1.02.391c4.534,1.737,65.418-5.926,70.5-6.4l1.127-.1.942-.084a216.768,216.768,0,0,1,22.04-.517l.443.005.617.037.568.036a58.432,58.432,0,0,1,14.5,2.446c5.19,1.7,9.29,4.34,12.19,8.179l.129.173.141.214c3.807,5.868,4.955,12.948,3.632,20.359a41.318,41.318,0,0,1-8.873,18.772l-.143.171-.258.323c-9.469,11.661-28.968,21.036-56.052,28.492l-.823.225-.845.229c-20.07,5.405-42.619,9.374-64.7,12.034l-.69.083-1.364.161-4.556.533,2.9-2.947-.013,0c-.3-.1-4.964.869-4.964.869l-1-.828c-.572-.478-1-.846-1.409-1.212l-.192-.173-.766-.7.139-.861a.2.2,0,0,0-.034-.09l-.014-.024s-3.372-3.938-3.633-4.166L131.6,143l-.063-.053-.026-.02c-.609-.454-6.963-.235-6.963-.235s-4.382-7.43-4.959-8.214l-.139-.189-1.435-.011.544-.912a11.34,11.34,0,0,0,1.483-4.46l.02-.17.012-.111-.09.06a2.519,2.519,0,0,0-1.082,1.21l-.013.046-.009.039-.009.041-.047.17a10.1,10.1,0,0,1-4.125,5.593c-1.455,1.023-22.378,8.307-27.556,9.624l-.361.091-1.291.325-.925-1.963q-2.135-4.558-5.533-12.178l-1.116-2.508-1.145-2.585-5.453-3.2-3.745.062-2.185.04-.327.006L63,123.546l-.372.039a111.562,111.562,0,0,0-25.027,5.59l-.405.143-.422.151-.225.073-.4.132c-5.634,1.868-9.4,3.773-12.1,6.3-3.135,2.939-4.805,6.781-5.028,12.117l-.007.171-.132,3.675-2.62-2.584c-7.8-7.695-12.91-18.138-15.088-30.035A74.935,74.935,0,0,1,2.72,86.112l.044-.157.008-.106a53.332,53.332,0,0,1,1.6-9.274l.08-.31.082-.312c.606-2.292,1.209-4.259,2.291-7.533l.12-.362,1.436-4.3A332.972,332.972,0,0,1,37.6,1.649l.363-.6Z" transform="translate(22.093 128.101)" fill="#78e185"/>
      <path id="_Ink" data-name="ðŸ– Ink" d="M156.487,340.013h0a56.164,56.164,0,0,1-11.523-1.2,77.943,77.943,0,0,1-16.193-5.466c-2.424-1.1-4.934-2.339-7.674-3.8-2.223-1.183-4.594-2.506-7.46-4.163-.435-.246-.879-.494-1.349-.756l-.026-.015h0c-1.794-1-3.827-2.137-5.733-3.391a27.347,27.347,0,0,1-5.148-4.2,13.613,13.613,0,0,1-1.829-2.464,9.394,9.394,0,0,1-1.052-2.739,8.526,8.526,0,0,1-.065-3.04,11.291,11.291,0,0,1,1.131-3.364,12.948,12.948,0,0,1-1.519-6.239,10.018,10.018,0,0,1,1.985-6.031c-2.984.316-6,.746-8.92,1.162h0c-3.267.465-6.646.946-9.987,1.27a2.128,2.128,0,0,1-.911,1.392,3.008,3.008,0,0,1-1.633.381,18.6,18.6,0,0,1-3.615-.563l-.307-.067a21.53,21.53,0,0,0-4.462-.629,7.834,7.834,0,0,0-1.774.186,2.357,2.357,0,0,1-1.684.67,2.231,2.231,0,0,1-1.372-.446,100.217,100.217,0,0,0-24.031,5.357l-.124.053c-1.335.575-2.716,1.17-4.094,1.618A13.376,13.376,0,0,1,33,304.29a7.476,7.476,0,0,1-5.458-2.271,7.537,7.537,0,0,1-3.933-1.124,9.623,9.623,0,0,1-2.858-2.8,14.7,14.7,0,0,1-1.814-3.743,17.365,17.365,0,0,1-.8-3.954,46.787,46.787,0,0,1-3.715-3.471,45.64,45.64,0,0,1-3.207-3.73,46.2,46.2,0,0,1-2.732-3.963c-.819-1.332-1.589-2.735-2.287-4.171A54.782,54.782,0,0,1,2.828,266.2a69.153,69.153,0,0,1-1.962-9.387,91.464,91.464,0,0,1-.809-9.707c-.1-3.083-.068-6.388.094-9.822.145-3.072.39-6.255.748-9.733.3-2.877.673-5.965,1.151-9.438.829-6.744,1.737-13.974,2.763-21.152,1.119-7.825,2.255-14.734,3.475-21.12,1.436-7.515,2.986-14.331,4.74-20.838.944-3.5,1.959-6.947,3.016-10.235,1.107-3.443,2.3-6.831,3.54-10.071A30.326,30.326,0,0,1,9.2,128.861,7.385,7.385,0,0,1,6.884,127.3,12.062,12.062,0,0,1,5.061,125a18.521,18.521,0,0,1-1.355-2.661,22.666,22.666,0,0,1-.906-2.625,7.589,7.589,0,0,1-.8-3,10.927,10.927,0,0,1,.239-3.057c-.27-2.165.589-4.338,1.421-6.44.363-.918.738-1.866,1-2.781.96-2.75,1.92-5.551,2.849-8.26l0-.013c2.083-6.079,4.237-12.364,6.536-18.489-2.229-1.858-.7-4.342.644-6.533a19,19,0,0,0,1.026-1.806,129.012,129.012,0,0,1,7.038-10.877,75.311,75.311,0,0,1,5.31-8.5,69.3,69.3,0,0,1,6.179-7.408,66.054,66.054,0,0,1,6.987-6.3,65.359,65.359,0,0,1,7.733-5.181,67.084,67.084,0,0,1,8.417-4.049,71.121,71.121,0,0,1,9.038-2.907,77.4,77.4,0,0,1,9.6-1.752,85.875,85.875,0,0,1,10.1-.587h.2a19.167,19.167,0,0,0,2.638-1.909,20.8,20.8,0,0,0,2.249-2.27,24.116,24.116,0,0,0,1.9-2.566,29.209,29.209,0,0,0,1.584-2.8A40.449,40.449,0,0,0,97.056,6.19C97.633,4.322,98.144,2.3,98.616,0a19.6,19.6,0,0,1,.593,4.046,22.654,22.654,0,0,1-.216,4.192,24.964,24.964,0,0,1-.977,4.176,25.747,25.747,0,0,1-1.69,4,24.86,24.86,0,0,1-2.354,3.662A22.817,22.817,0,0,1,91,23.239a20.541,20.541,0,0,1-3.539,2.5,18.976,18.976,0,0,1-4.059,1.681c1.044,1.493,1.956,3.114,2.838,4.681v0c.508.9,1.034,1.837,1.577,2.734A29.134,29.134,0,0,0,99.633,45.225a35.432,35.432,0,0,0,7.652,2.765,35.067,35.067,0,0,0,8.067.954,31.694,31.694,0,0,0,6.071-.576,27.748,27.748,0,0,0,5.739-1.772,15.81,15.81,0,0,0,7.47-9.114,27.465,27.465,0,0,0,1.336-5.921,39.2,39.2,0,0,0,.226-5.988,2.278,2.278,0,0,1-1.625.847,2.689,2.689,0,0,1-1.932-1.122,11.515,11.515,0,0,1-1.608-2.62,27.372,27.372,0,0,1-1.8-5.254,19.119,19.119,0,0,1-.38-5.076,16.107,16.107,0,0,1,1.1-4.963.215.215,0,0,1,.2-.146.212.212,0,0,1,.21.2,42.649,42.649,0,0,0,.96,5.462,31.863,31.863,0,0,0,1.781,5.254,8.908,8.908,0,0,1,3.507-.655c.349-.008.711-.012,1.079-.012,2.94,0,6.054.265,9.065.522h0c2.234.19,4.545.387,6.767.474l.43,0a35.358,35.358,0,0,1,7.3.66,18.481,18.481,0,0,1,5.861,2.231,15.576,15.576,0,0,1,2.435,1.823,17.033,17.033,0,0,1,2.127,2.358,21.576,21.576,0,0,1,1.835,2.94,30.212,30.212,0,0,1,1.561,3.569c1.139,3.316,2.237,6.777,3.265,10.288.981,3.35,1.929,6.854,2.818,10.414,1.646,6.592,3.13,13.5,4.537,21.112,2.541,13.753,4.4,27.478,6.4,42.708.474,3.335.88,6.746,1.242,10.427.322,3.279.6,6.7.853,10.455.468,6.979.767,14.083,1.057,20.954v.007c.3,7.218.619,14.682,1.13,22.007.275,3.944.583,7.535.941,10.978.4,3.865.858,7.444,1.392,10.943,5.18-.334,10.8-1.056,16.755-1.82h0c4.494-.577,9.14-1.174,13.8-1.625,5.263-.51,9.813-.757,13.912-.757,2.928,0,5.716.129,8.287.383a59.437,59.437,0,0,1,7.909,1.3,43.934,43.934,0,0,1,7.372,2.436,37.05,37.05,0,0,1,3.434,1.715,34.52,34.52,0,0,1,3.24,2.083,24.2,24.2,0,0,1,6.1,8.943,27.1,27.1,0,0,1,1.768,10.274,39.057,39.057,0,0,1-4.165,16.406,45.565,45.565,0,0,1-4.5,7.34,41.279,41.279,0,0,1-5.638,6.135,54.182,54.182,0,0,1-4.99,4.141c-1.77,1.306-3.728,2.605-5.818,3.861-2.022,1.215-4.224,2.423-6.542,3.59-2.24,1.127-4.651,2.246-7.165,3.326-4.758,2.044-10.069,4.028-15.784,5.895-5.268,1.721-11,3.383-17.04,4.939-10.5,2.707-22.129,5.153-34.558,7.271-5.182.883-10.523,1.711-15.874,2.462-4.63.649-9.287,1.244-13.841,1.766,1.056.762,2.022,1.435,2.955,2.058a10.876,10.876,0,0,1,4.324-1.17,3.89,3.89,0,0,1,1.166.162,2.371,2.371,0,0,1,.814.433,1.87,1.87,0,0,1,.676,1.351,2.35,2.35,0,0,1-.494,1.561,2.252,2.252,0,0,1-1.51.863c1.72,1.225,4.337,2.73,7.368,4.473,5.269,3.031,11.827,6.8,16.642,10.861a33.423,33.423,0,0,1,3.248,3.1,17.84,17.84,0,0,1,2.341,3.179,9.541,9.541,0,0,1,1.163,3.226,6.824,6.824,0,0,1-.286,3.238,5.454,5.454,0,0,1,.221,4.942,7.623,7.623,0,0,1-1.573,2.2,12.818,12.818,0,0,1-2.308,1.8,19.384,19.384,0,0,1-5.373,2.259,55.251,55.251,0,0,1-9,2.3A56.137,56.137,0,0,1,156.487,340.013Zm-55.944-32.941a7.621,7.621,0,0,0-.037,2.106,7.382,7.382,0,0,0,.506,1.9,8.85,8.85,0,0,0,.953,1.712,12.072,12.072,0,0,0,1.3,1.537,30.6,30.6,0,0,0,6.781,4.71c3.972,2.48,7.592,4.586,11.066,6.439,1.975,1.053,3.931,2.038,5.815,2.927,2.021.954,4.028,1.831,5.967,2.607,2.059.824,4.108,1.562,6.091,2.192,2.091.664,4.173,1.231,6.188,1.683a62.279,62.279,0,0,0,6.258,1.079,53.724,53.724,0,0,0,6.3.381h0c1.59,0,3.18-.077,4.726-.229a45.974,45.974,0,0,0,4.725-.712,44.953,44.953,0,0,0,4.711-1.236,45.6,45.6,0,0,0,4.686-1.8l.048-.02a14.163,14.163,0,0,0,2.373-1.186,3.9,3.9,0,0,0,1.64-1.975,54.886,54.886,0,0,1-10.48,3.1,58.244,58.244,0,0,1-10.939,1.035,57.651,57.651,0,0,1-10.935-1.041c-.478-.122-1.015-.223-1.583-.329a16.313,16.313,0,0,1-3.43-.906,3.612,3.612,0,0,1-2.218-2.245c-3.377-1.5-6.808-3.013-10.126-4.475h0c-5.373-2.367-10.93-4.815-16.372-7.272C109.278,314.649,103.845,311.9,100.543,307.072Zm2.117-14.258a13.533,13.533,0,0,0-1.013,2.317,10.4,10.4,0,0,0-.464,2.189,9.1,9.1,0,0,0,.507,4.005,11.173,11.173,0,0,0,1.265,2.449,15.693,15.693,0,0,0,1.856,2.232,27.309,27.309,0,0,0,4.954,3.839,52.712,52.712,0,0,0,5.723,3.047c2.037.945,3.971,1.728,5.428,2.3,4.716,2.064,9.8,4.3,14.718,6.462l.007,0,.019.008,7.254,3.188.346.157c1.024.464,2.081.943,3.146,1.34a16.569,16.569,0,0,0,3.3.892,46.8,46.8,0,0,0,9.481.94,58.738,58.738,0,0,0,10.455-.98c1.952-.354,3.927-.8,6.039-1.374.227-.062.48-.119.748-.18h0a13.01,13.01,0,0,0,1.656-.457,2.916,2.916,0,0,0,1.306-.849,3.685,3.685,0,0,0-.112-2.172,8.358,8.358,0,0,0-1.33-2.364,20.34,20.34,0,0,0-2.326-2.5c-.874-.81-1.917-1.678-3.1-2.58-2.028-1.546-4.525-3.24-7.634-5.178-2.715-1.693-5.557-3.361-8.064-4.832a89.845,89.845,0,0,1-9.408-5.941c-.432.1-.788.189-1.121.278a47.7,47.7,0,0,0-7.051,2.556.217.217,0,0,1-.089.02.174.174,0,0,1-.158-.1.183.183,0,0,1,.03-.2,24.4,24.4,0,0,1,5.333-4.767,57.067,57.067,0,0,1-5.955-5.151,28.713,28.713,0,0,0-3.681,1.224c-1.1.447-2.26.984-3.54,1.642-.235,0-.355-.072-.359-.213-.006-.218.262-.6.8-1.13a21.286,21.286,0,0,1,1.816-1.569,14.675,14.675,0,0,1,3.047-2.014,39.035,39.035,0,0,1-3.418-4.629l0-.005c-.443-.667-.9-1.357-1.372-2.026a2.063,2.063,0,0,1-.241.572,3.391,3.391,0,0,0-2.313-.849,5.305,5.305,0,0,0-2.91.955,6.352,6.352,0,0,0-3.107,2.372,20.982,20.982,0,0,0-1.959,3.476c-.221.458-.43.89-.648,1.31A16.167,16.167,0,0,1,118.7,293.6a11.321,11.321,0,0,1-2.16,2.182,8.733,8.733,0,0,1-2.425,1.3,8.01,8.01,0,0,1-2.6.433,9.62,9.62,0,0,1-4.489-1.183,15.741,15.741,0,0,1-4.365-3.527ZM67.643,268.727c-7.032,0-17.233.758-25.9,4.367-8.913,3.712-14.147,9.58-15.557,17.442a14.772,14.772,0,0,0,.039,2.683,13.512,13.512,0,0,0,.559,2.691,10.812,10.812,0,0,0,1.14,2.478,8.579,8.579,0,0,0,1.784,2.045,5.165,5.165,0,0,0,3.435,1.245,15.244,15.244,0,0,0,5.648-1.616,28.511,28.511,0,0,1,2.831-1.094c2.636-.917,5.371-1.733,8.128-2.427,2.7-.679,5.494-1.258,8.3-1.72-.047-1.948-.1-4.156-.264-6.316a41.371,41.371,0,0,0-.9-6.227c.2-.4.438-.607.7-.607a.942.942,0,0,1,.636.354c1.064,1.107,2.178,4.53,2.747,6.471.362,1.233.7,2.544.962,3.692a12.673,12.673,0,0,1,.356,2.03c.779-.1,1.556-.184,2.309-.261-.086-2.572-.1-4.543-.061-6.39a55.4,55.4,0,0,1,.487-6.365.164.164,0,0,1,.163-.15.154.154,0,0,1,.147.11,56.162,56.162,0,0,1,2.071,6.51,9.334,9.334,0,0,1,.482,2.041,8.906,8.906,0,0,0,.511,2.109,2.986,2.986,0,0,0,.552.864,2.706,2.706,0,0,0,.908.636,21.581,21.581,0,0,0,4.362,1.135h0c.9.167,1.823.341,2.718.582a7.221,7.221,0,0,0,1.353-.184.59.59,0,0,0,.478-.616.689.689,0,0,0-.549-.667,3.932,3.932,0,0,0,.14-.458l.169-.011h.027l.176-.011a5.392,5.392,0,0,1-.071-1.993,17.687,17.687,0,0,1,.426-2.015h0a9.394,9.394,0,0,0,.425-3.853,10.588,10.588,0,0,0-1-4.14,11.745,11.745,0,0,0-2.432-3.409,13.241,13.241,0,0,0-3.475-2.448,13.521,13.521,0,0,0-4.129-1.258.265.265,0,0,1-.209-.272.277.277,0,0,1,.209-.286,8.43,8.43,0,0,1,1.748-.181,11.221,11.221,0,0,1,5.446,1.545,14.451,14.451,0,0,1,2.353,1.659,13.747,13.747,0,0,1,1.905,2.009,13.906,13.906,0,0,1,1.19,1.836c-1.79-3.974-3.41-7.632-4.951-11.184C73.384,268.852,70.516,268.727,67.643,268.727Zm5.493-6.7a2.946,2.946,0,0,1-1.705.929,10.814,10.814,0,0,1-2.065.149c-.417,0-.81.007-1.189.037a108.473,108.473,0,0,0-13.989,1.815c-1.011.247-2.044.494-3.043.732a128.513,128.513,0,0,0-13.679,3.8,48.107,48.107,0,0,0-6.438,2.816c-1.049.56-2.055,1.16-2.989,1.783a30.912,30.912,0,0,0-2.786,2.089c-4.122,4.14-4.126,11.14-3.936,13.957A14.566,14.566,0,0,0,22.65,295.3a17.049,17.049,0,0,0,2.975,4.377c-2.918-6.831-2.645-12.942.81-18.165a24.874,24.874,0,0,1,7.481-7.048,47.06,47.06,0,0,1,10.5-4.856A72.458,72.458,0,0,1,56.293,266.8c1.968-.3,3.966-.529,5.937-.681,1.923-.148,3.827-.223,5.662-.223a55.028,55.028,0,0,1,7.079.424l-.073-.17C74.353,264.884,73.735,263.445,73.136,262.029ZM119.3,274.7a19.931,19.931,0,0,1-3.377,2.609,32.165,32.165,0,0,1-3.958,2.072,91.986,91.986,0,0,1-8.654,3.173c-1.813.6-3.525,1.16-5.141,1.769.519.547,1.037,1.1,1.538,1.636l.019.021a67.728,67.728,0,0,0,5.92,5.86,14.445,14.445,0,0,0,2.766,1.852,6.014,6.014,0,0,0,2.657.691,4.471,4.471,0,0,0,2-.478,6.783,6.783,0,0,0,1.956-1.54,14.7,14.7,0,0,0,1.914-2.759,32.88,32.88,0,0,0,1.88-4.135,13.636,13.636,0,0,1,1.709-2.428,11.145,11.145,0,0,1,2.234-1.952A28.568,28.568,0,0,1,119.3,274.7ZM82.864,286.118h0a15.586,15.586,0,0,1-.271,4.82,1.59,1.59,0,0,1,.852.669,1.731,1.731,0,0,1,.265,1.055c.421-.048,1.056-.12,1.694-.2,1.906-.237,3.836-.516,5.7-.786h0c3.126-.451,6.357-.918,9.555-1.2a41.761,41.761,0,0,1-3.623-5.779c-2.755.868-5.53,1.682-8.247,2.419a9.593,9.593,0,0,1-3.2.682A2.635,2.635,0,0,1,82.864,286.118Zm60.8,1.117h0a2.667,2.667,0,0,1,2.254.96,1.176,1.176,0,0,1-.192,1.543c4.6-.538,9.286-1.146,13.933-1.806,5.552-.789,11.074-1.659,16.411-2.584,13.145-2.279,25.315-4.918,36.173-7.842,29.022-7.816,48.254-17.489,57.162-28.749a40,40,0,0,0,2.981-4.037,41.1,41.1,0,0,0,2.5-4.453,39.546,39.546,0,0,0,1.925-4.755,36.057,36.057,0,0,0,1.257-4.943c1.292-7.241.08-13.937-3.506-19.364-5.9-7.95-16.829-9.609-26.738-10.184-.766-.01-1.548-.015-2.323-.015-3.7,0-7.478.111-11.545.341-3.621.2-7.391.5-11.525.9-7.678.743-15.463,1.748-22.992,2.72-4.986.644-10.142,1.309-15.207,1.891-2.037.308-4.157.7-6.206,1.078a84.983,84.983,0,0,1-15.2,1.875,29.106,29.106,0,0,1-10.572-1.794,16.7,16.7,0,0,1-3.534,2.878,19.1,19.1,0,0,1-4.054,1.84,25.089,25.089,0,0,1-4.4.976,34.862,34.862,0,0,1-4.577.286,53.894,53.894,0,0,1-7.426-.562,2.6,2.6,0,0,1-1.147.521c-.553,1-2.415,2.959-3.856,2.959a1.47,1.47,0,0,1-1.364-1.011c-.3-1.344-.577-2.695-.813-4.015a10.912,10.912,0,0,1-1.666,5.376c-1.021,1.312-2.034,1.978-3.012,1.978a2.765,2.765,0,0,1-2.045-1.07c-1.721-1.921-2.621-5.921-2.353-8.31a8.514,8.514,0,0,1-1.962,4.593A4.367,4.367,0,0,1,106.854,216a3.429,3.429,0,0,1-1.358-.278,3.751,3.751,0,0,1-1.206-.837,5.341,5.341,0,0,1-1.222-2.116,9.722,9.722,0,0,1-.411-3.23,16.262,16.262,0,0,1-1.075,2.262c2.338,5.694,4.977,11.379,7.529,16.877,2.237,4.82,4.551,9.8,6.653,14.775,1.131,2.676,2.113,5.134,3,7.516,1,2.674,1.85,5.183,2.609,7.671a41.708,41.708,0,0,0,9.43-3.222c5.231-2.83,10.48-5.85,15.556-8.77,4.334-2.494,8.816-5.072,13.272-7.524,5-2.75,9.43-5.044,13.552-7.015,1.149-.6,3.558-1.69,6.286-2.856,2.394-1.023,6.151-2.58,10.453-4.186,6.634-2.477,15.545-5.429,20.326-5.429a6.231,6.231,0,0,1,2.113.3,1.8,1.8,0,0,1,1.112.955,2.229,2.229,0,0,1-.3,1.739,1.769,1.769,0,0,1-1.19.834c-2.483.381-5.021.873-7.541,1.463-2.4.562-4.87,1.232-7.334,1.991a140.1,140.1,0,0,0-14.167,5.267c-4.155,1.786-8.635,3.905-13.7,6.477-4.513,2.293-9.061,4.727-13.461,7.082h0c-5.414,2.9-11.012,5.893-16.595,8.654-3,1.486-5.765,2.787-8.438,3.977-3,1.336-5.815,2.5-8.606,3.556a20.022,20.022,0,0,1,.259,5.622,14.17,14.17,0,0,1-.566,2.739,12.338,12.338,0,0,1-1.16,2.6c1.207,1.665,2.506,3.285,3.762,4.851l0,0c.539.672,1.1,1.367,1.639,2.057.075,0,.155,0,.236,0a18.8,18.8,0,0,0,1.965-.144l.015,0a19.006,19.006,0,0,1,2.015-.145,6.015,6.015,0,0,1,1.553.179,3.858,3.858,0,0,1,1.409.691,12.1,12.1,0,0,1,1.647,1.77h0c.173.213.353.434.531.642a6.93,6.93,0,0,0,.906,1.045c.711.723,1.446,1.47,1.29,2.435.678.623,1.383,1.214,2.048,1.766.3-.069.632-.159.981-.255A11.84,11.84,0,0,1,143.66,287.235ZM40.081,140.577a331.993,331.993,0,0,0-29.441,62.4c-.253.763-.514,1.541-.744,2.229-1.063,3.172-2.163,6.452-3.035,9.73-.47,1.766-.837,3.386-1.123,4.953a45.047,45.047,0,0,0-.643,5.039,70.42,70.42,0,0,0-1.765,7.884A74.273,74.273,0,0,0,2.484,249.4a70.561,70.561,0,0,0,1.01,8.327c2.155,11.771,7.215,21.86,14.634,29.177a25.263,25.263,0,0,1,.493-4.236,18.919,18.919,0,0,1,1.12-3.595,16.413,16.413,0,0,1,1.7-3.031,17.036,17.036,0,0,1,2.232-2.544,24.053,24.053,0,0,1,5.871-3.938,54.223,54.223,0,0,1,7.434-2.921,113.072,113.072,0,0,1,26.643-6.008c.936-.023,1.926-.143,2.883-.259a27.95,27.95,0,0,1,3.315-.27,8.683,8.683,0,0,1,2.657.366c-5.166-12.373-9.251-22.648-12.856-32.336-4.383-11.779-8-22.561-11.061-32.962-.709-.173-1.429-.36-2.124-.54-1.5-.388-3.048-.789-4.586-1.086a24.487,24.487,0,0,0-4.645-.495,16.416,16.416,0,0,0-2.83.236l-.035,0a.225.225,0,0,1-.213-.165.167.167,0,0,1,.1-.194,16.543,16.543,0,0,1,7.964-1.757,38.936,38.936,0,0,1,5.417.436c-1.726-6.529-3.313-13.016-5.164-20.749.025-.117.063-.177.113-.177.108,0,.249.3.275.456.048-.231.124-.348.225-.348.369,0,1.027,1.547,1.514,2.844.553,1.474,1.033,3.015,1.106,3.276,2.461,7.421,5,14.845,7.561,22.065,2.61,7.37,5.308,14.742,8.021,21.911,2.767,7.312,5.628,14.624,8.5,21.734,2.931,7.245,5.963,14.49,9.012,21.534,3.159,7.231,5.811,13.1,8.346,18.472,2.835-.714,5.712-1.522,8.795-2.469,2.737-.841,5.575-1.773,8.675-2.85.841-.322,1.721-.619,2.653-.934h0a32.34,32.34,0,0,0,6.591-2.778,10.489,10.489,0,0,0,2.593-2.181,7.984,7.984,0,0,0,1.605-3.082,13.69,13.69,0,0,0,.288-2.564,20.652,20.652,0,0,0-.141-2.806,37.8,37.8,0,0,0-1.3-6.146,136.463,136.463,0,0,0-4.812-13.081,111.931,111.931,0,0,1-3.963-10.694c-1.044-3.342-2.432-6.616-3.774-9.782a105.893,105.893,0,0,1-3.8-9.885,8.668,8.668,0,0,1-1.91,1.844.468.468,0,0,0-.329-.126,2.581,2.581,0,0,0-1.127.519l-.224.141a3.5,3.5,0,0,1-1.771.659,1.813,1.813,0,0,1-.793-.184,5.123,5.123,0,0,1-1.564-1.943,13.015,13.015,0,0,1-1.007-3.011,39.7,39.7,0,0,1-.721-8.059A147.448,147.448,0,0,1,92.15,187.1v0c.065-.6.122-1.122.169-1.578.26-1.936.548-4.224.719-6.515a50.475,50.475,0,0,0,.1-6.55c-.07-1.47-.2-2.972-.317-4.424-.171-2.038-.348-4.145-.374-6.215a28.9,28.9,0,0,1,.515-6.18c-.5-.294-.986-.617-1.461-.929-.27-.178-.548-.361-.822-.535a18.3,18.3,0,0,1-3.97-.852h0c-.727-.213-1.478-.433-2.215-.593-10.266-2.717-20.672-5.6-30.736-8.38h0C49.273,143.109,44.64,141.827,40.081,140.577ZM82,282.256h0a15.286,15.286,0,0,1,.817,3.476,1.77,1.77,0,0,1,.251-.766l0,0c.028-.056.055-.109.081-.163l-.436-.964-.1-.228Zm32.056-91.392h0a1.627,1.627,0,0,1,1.156.465,1.187,1.187,0,0,1,.337.888c-.119,3.193-.252,6.421-.382,9.542l0,.074c-.065,1.577-.133,3.208-.2,4.812-.019.464-.055.964-.093,1.493h0c-.2,2.816-.457,6.321,1.63,8.246,1.741-1.653,1.839-4.148,1.935-6.561a23.306,23.306,0,0,1,.216-2.772l.454-5.181.115-1.312.666-7.591a1.378,1.378,0,0,1,.519-.988,1.588,1.588,0,0,1,.983-.332,1.351,1.351,0,0,1,.982.387,1.222,1.222,0,0,1,.311.932c-.124,3.514-.1,6.637.061,9.548a57.164,57.164,0,0,0,1.215,9.265c.085.449.175.894.244,1.232.054-.065.112-.136.168-.21a2.262,2.262,0,0,1-.352-1,1.441,1.441,0,0,0,1.084-.577,4.377,4.377,0,0,0,.782-1.97,6.75,6.75,0,0,0,.046-2.076c.108-1.348.145-2.729.181-4.064.018-.655.036-1.332.062-1.992.119-2.992.18-5.449.192-7.733.014-2.8-.046-5.336-.186-7.738a72.055,72.055,0,0,0-2.388-15.26,45.572,45.572,0,0,0-9.736-18.554c-1.049-1.223-2.171-2.422-3.429-3.666-1.144-1.131-2.378-2.276-3.772-3.5-2.693-2.363-5.659-4.728-8.467-6.947-3.111-2.6-6.341-5.2-9.876-7.934-3.147-2.439-6.464-4.934-10.138-7.63-6.825-5.007-13.859-9.943-20.661-14.717-3.271-2.3-6.653-4.669-9.963-7.016a1.6,1.6,0,0,1-.32.033,1.279,1.279,0,0,1-.982-.443,1.605,1.605,0,0,1-.347-1.288c.436-2.046,2.259-3.953,4.022-5.8a27.384,27.384,0,0,0,2.543-2.908,2.809,2.809,0,0,1-.633.072,6.434,6.434,0,0,1-3.25-1.333h0c-.329-.209-.641-.407-.952-.581-1.392-.78-2.825-1.546-4.259-2.277-1.9-.989-3.894-1.957-5.935-2.876-1.943-.875-3.988-1.734-6.08-2.555-3.856-1.512-7.935-2.924-12.469-4.316-2.736,7.034-5.235,14.278-7.651,21.284-1.074,3.113-2.184,6.332-3.3,9.5-.263.694-.5,1.427-.725,2.136A17.309,17.309,0,0,1,5.087,114.3c-.442,4.239,2.115,7.979,4.339,10.37a23.975,23.975,0,0,0,7.661,5.058,65.728,65.728,0,0,0,8.8,2.944c13.4,3.647,28.983,7.891,44.23,12.119,1.959.556,3.959,1.091,5.893,1.609l.01,0c3.546.949,7.213,1.93,10.765,3.078.526.168,1.095.311,1.644.45,2.076.525,4.222,1.069,5.232,3.054.013-.035.037-.1.07-.2l0-.008v0c.148-.421.494-1.407.868-2.27.466-1.074.827-1.618,1.072-1.618.124,0,.219.142.283.421-1.61,4.318-1.163,9.225-.513,13.454.083.544.17,1.1.254,1.632l.009.059a101.646,101.646,0,0,1,1.255,10.322c-.119,4.189-.49,8.444-.848,12.558v0c-.353,4.056-.719,8.25-.843,12.379-.067,2.223-.06,4.251.019,6.2.09,2.187.269,4.218.549,6.211a8.065,8.065,0,0,0,2.011-2.07A10.968,10.968,0,0,0,99.11,207.5a32.2,32.2,0,0,0,1.245-5.823,41.127,41.127,0,0,1,.75-4.077c.5-2.551,1.089-5.258,1.839-8.522a1.385,1.385,0,0,1,.579-.859,1.7,1.7,0,0,1,.958-.276,1.8,1.8,0,0,1,1.306.528,1.328,1.328,0,0,1,.348,1.03c-.282,3.825-.369,7.718-.453,11.484-.013.58-.028,1.238-.043,1.867a23.592,23.592,0,0,1-.081,3.124c-.174,2.8-.391,6.287.779,7.085a1.511,1.511,0,0,0,.633.153,1.406,1.406,0,0,0,1.1-.617,5.3,5.3,0,0,0,.775-1.546,27.428,27.428,0,0,0,.913-4.046,16.545,16.545,0,0,1,.4-1.939c.943-4.376,1.831-8.822,2.638-13.215A1.206,1.206,0,0,1,114.06,190.864ZM158.7,106.115h0c-.691,12.018-1.361,24.241-2.01,36.061l0,.029c-.267,4.864-.569,10.378-.861,15.652a163.746,163.746,0,0,0-.534,16.678c.068,2.854.232,5.651.489,8.313.273,2.829.661,5.613,1.153,8.275a25.9,25.9,0,0,1-.345,7.575,23.141,23.141,0,0,1-2.668,7.113,25.72,25.72,0,0,0,8.573,1.3c1.5,0,3.129-.089,4.991-.272,1.621-.159,3.191-.365,4.93-.6a12.247,12.247,0,0,1-1.184-5.086v0c-.038-.442-.078-.9-.129-1.342-1.246-11.119-2.747-23.262-4.589-37.124-1.642-12.361-3.4-24.917-5.1-37.06-.894-6.39-1.818-13-2.717-19.516Zm23.257-28.1a65.884,65.884,0,0,0-11.55,3.114A58.611,58.611,0,0,0,159.7,86.384c-.106,3.308-.27,6.879-.513,11.239,1.39,6.215,2.584,12.344,3.785,18.6,2.279,12.165,4.41,24.96,6.514,39.118,1.734,11.665,3.436,24.149,5.358,39.289.077,1.287.287,2.609.489,3.887h0c.188,1.187.383,2.415.473,3.619a14.017,14.017,0,0,1-.141,3.588c5.038-.927,11.69-2.088,18.466-2.847-.531-3.518-.976-7.116-1.359-11-.341-3.46-.626-7.07-.87-11.037-.453-7.367-.693-14.877-.925-22.139h0c-.237-7.4-.481-15.06-.952-22.575-.254-4.046-.55-7.728-.908-11.258-.4-3.963-.868-7.634-1.426-11.222-.662-5.362-1.52-11.2-2.622-17.857C184.084,89.855,183,83.835,181.956,78.013Zm-48.31-58.731c.257.5.516.971.772,1.408.2.348.454.7.7,1.041h0a9.517,9.517,0,0,1,1.046,1.718c-.005-.461-.018-.928-.03-1.379-.023-.851-.046-1.731-.022-2.591a19.12,19.12,0,0,0-2.427-.2Z" transform="translate(21.555 -11.62)"/>
    </g>
    <g id="Head" transform="translate(91.821)">
      <g id="HEAD-2" data-name="HEAD">
        <path id="_Skin-2" data-name="âœ‹ Skin" d="M32.688.08C65.289-1.524,80,21.442,80.952,31.7c.661,7.12-3.544,15.328-3.544,21.69,0,3.248,3.974,10.22,2.124,14.954C75.414,78.879,66.694,90.572,55.583,90.572S30.01,93.647,17.733,76.058C16.581,74.408,2.01,65.028.594,56.115-2.932,33.914,9.426,1.224,32.688.08Z" transform="translate(9.339 17.711)" fill="#d08b5b"/>
        <path id="_Ink-2" data-name="ðŸ– Ink" d="M71.194,108.089a34.383,34.383,0,0,1-3.434-.192,52.086,52.086,0,0,1-8.259-1.407l-.434-.115a12.119,12.119,0,0,1-3.266-1.249,3.883,3.883,0,0,1-1.261-1.265,5.132,5.132,0,0,1-.635-1.679,1.269,1.269,0,0,1,.24-1.038,1.033,1.033,0,0,1,.8-.393h.138c.12,0,.247,0,.4-.014l.124-.008h.006a.069.069,0,0,1,.021,0c.038-.006.075-.014.112-.022s.068-.015.1-.021a3.933,3.933,0,0,1,.651-.055,5.148,5.148,0,0,1,1.662.311l.1.033a38.371,38.371,0,0,0,3.93,1.171c1.333.3,2.747.562,4.2.766l.14.017.043.006.021,0a.026.026,0,0,1,.013,0l.415.052c.328.039.659.074.979.107h0c.6.06,1.206.108,1.807.142.348.02.7.03,1.049.03,9.287,0,18-7.339,20.712-17.45A30.826,30.826,0,0,0,92.3,75.173a2.544,2.544,0,0,1-.142-.859c0-.168.009-.334.019-.488-.185-1.816-.448-3.663-.7-5.45-.226-1.591-.459-3.235-.639-4.856a91.161,91.161,0,0,1-.6-12.116,50.438,50.438,0,0,1,.538-5.959l.1-.711A6.9,6.9,0,0,1,87.5,43.02a6.892,6.892,0,0,1-3.443.924,6.107,6.107,0,0,1-3.218-.886,7.657,7.657,0,0,1-4.024,1.127,6.944,6.944,0,0,1-3.62-.968,6.291,6.291,0,0,1-1.684.857,5.934,5.934,0,0,1-1.864.3,5.762,5.762,0,0,1-1.232-.133,5.513,5.513,0,0,1-2.164-1.026,6.286,6.286,0,0,1-1.088.1c-.1,0-.206,0-.308-.008l-.1.054a7.1,7.1,0,0,1-3.3.9c-.062,0-.125,0-.187,0a8.262,8.262,0,0,1-2.7-.548,7.674,7.674,0,0,1-3.014,1.074,6.966,6.966,0,0,1-.869.054,6.657,6.657,0,0,1-3.725-1.1,9.452,9.452,0,0,1-4.676,1.217,9.725,9.725,0,0,1-3.261-.559,7.333,7.333,0,0,1-2.123,2.27,4.76,4.76,0,0,1,.15,1.7,6.938,6.938,0,0,1-.7,2.514,4.5,4.5,0,0,1,.3,2.9,7.135,7.135,0,0,1-2.283,3.746,7.036,7.036,0,0,1-3.478,5.77,2.87,2.87,0,0,1-.317.157,1.562,1.562,0,0,1-.329.332,3.846,3.846,0,0,1-2.671.947,6.413,6.413,0,0,1-2.437-.509l-.036,0h0l-.059,0h-.055a1.381,1.381,0,0,1-1.189-.56,5.577,5.577,0,0,0-.727.084,10.108,10.108,0,0,0-2.661.9,6.367,6.367,0,0,0-3.334,5.242A7.455,7.455,0,0,0,23.4,76.589a6.348,6.348,0,0,0,1.565,1,7.44,7.44,0,0,0,1.775.547,5.1,5.1,0,0,0,.887.065c.139,0,.28,0,.416-.006h.007c.135,0,.274-.006.409-.006a3.79,3.79,0,0,1,1.093.126,1.976,1.976,0,0,1,.95.623.9.9,0,0,1,.226.855,1.963,1.963,0,0,1-1.753,1.461A48.72,48.72,0,0,0,32.924,85.5c.3.28.6.564.9.838l.011.01a47.966,47.966,0,0,1,3.6,3.587,29.617,29.617,0,0,1,2.058,2.623,18.267,18.267,0,0,1,1.648,2.893c.4.9.749,1.837,1.085,2.743v0c.1.277.209.563.315.845l.081.21c.056.141.115.284.172.422a7.572,7.572,0,0,1,.549,1.69,2.71,2.71,0,0,1,0,.856,2.529,2.529,0,0,1-.322.877,2.144,2.144,0,0,1-.638.661,1.6,1.6,0,0,1-.875.3,1.11,1.11,0,0,1-.143-.009c-1.854-.237-2.449-1.527-2.985-3.062-.182-.521-.348-1.057-.508-1.575-.212-.685-.432-1.394-.69-2.077-.079-.205-.168-.421-.275-.66a3.481,3.481,0,0,1-.935.126,4.148,4.148,0,0,1-2.2-.663,7.581,7.581,0,0,1-3.049.646H30.6a7.31,7.31,0,0,1-3.864-1.141l-.053-.014-.012,0h0c-.066-.017-.134-.035-.2-.054a6.065,6.065,0,0,1-2.177.4,5.421,5.421,0,0,1-3.086-.929,5.67,5.67,0,0,1-1.269-1.189,5.562,5.562,0,0,1-.809-1.44,5.484,5.484,0,0,1-1.891-.366,4.7,4.7,0,0,1-1.615-1.038A5.123,5.123,0,0,1,14.6,89.583a5.393,5.393,0,0,1-.485-1.641,5.577,5.577,0,0,1-1.6-.577,5.268,5.268,0,0,1-1.38-1.093,5.1,5.1,0,0,1-1.242-2.729A5.335,5.335,0,0,1,6.64,81.031a4.749,4.749,0,0,1-.552-1.775,4.852,4.852,0,0,1,.144-1.763l-.079-.114a5.2,5.2,0,0,1-1.772-1.455,4.009,4.009,0,0,1-.8-2.191A4.231,4.231,0,0,1,3.73,72.3a4.32,4.32,0,0,1,.118-1.532,6.562,6.562,0,0,1-1.179-1.556,6.844,6.844,0,0,1-.681-1.821,6.624,6.624,0,0,1-.137-1.933,6.1,6.1,0,0,1,.455-1.894A6.65,6.65,0,0,1,.622,59.967a6.408,6.408,0,0,1,.032-1.99A5.772,5.772,0,0,1,1.329,56.1,5.747,5.747,0,0,1,.292,54.215a6,6,0,0,1-.284-2.186,7.809,7.809,0,0,1,.653-2.687,14.262,14.262,0,0,1,1.361-2.415,4.486,4.486,0,0,1-.88-1.491,4.777,4.777,0,0,1-.277-1.714,5.42,5.42,0,0,1,.621-2.332,8.816,8.816,0,0,1,1.423-1.972A7.091,7.091,0,0,1,2.9,35.012a7.461,7.461,0,0,1,2.5-3.6,4.111,4.111,0,0,1-.5-2.774,4.463,4.463,0,0,1,1.07-2.234,9,9,0,0,1,1.92-1.632,4.085,4.085,0,0,1,.252-2.987,5.127,5.127,0,0,1,1.292-1.666,10.533,10.533,0,0,1,1.747-1.206,4.743,4.743,0,0,1,.51-1.666,5.31,5.31,0,0,1,1.045-1.4,4.946,4.946,0,0,1,1.416-.962,3.987,3.987,0,0,1,1.625-.358,3.587,3.587,0,0,1,1.749.456A3.344,3.344,0,0,1,18,12.138a4.484,4.484,0,0,1,1.32-1.305,4.081,4.081,0,0,1,1.744-.635A6.572,6.572,0,0,1,22.112,8.24a7.26,7.26,0,0,1,1.6-1.521,7.369,7.369,0,0,1,4.164-1.336,6.506,6.506,0,0,1,1.534.182,6.559,6.559,0,0,1,2.416-2.008,6.963,6.963,0,0,1,3.036-.7,6.686,6.686,0,0,1,2.335.416,10.389,10.389,0,0,1,3.083-1.634,10.692,10.692,0,0,1,3.343-.525,12.551,12.551,0,0,1,3.963.664A4.929,4.929,0,0,1,49.607.428,7.024,7.024,0,0,1,52.047,0c.142,0,.285,0,.424.012A13.091,13.091,0,0,1,56.08.931a12.716,12.716,0,0,0,3.668.917c.163.008.332.011.5.011a23.283,23.283,0,0,0,2.929-.248h.006A23.239,23.239,0,0,1,66.1,1.364a9.448,9.448,0,0,1,1.51.114,7.969,7.969,0,0,1,2.362.767A6.038,6.038,0,0,1,71.9,3.77a8.876,8.876,0,0,1,2.445-.342,9.137,9.137,0,0,1,2.1.247A9.433,9.433,0,0,1,81.734,7.1a5.49,5.49,0,0,1,.84-.064A6.429,6.429,0,0,1,86.227,8.23a6.022,6.022,0,0,1,2.3,3.046,7.471,7.471,0,0,1,2.624.577,8.177,8.177,0,0,1,2.285,1.428,7.312,7.312,0,0,1,2.505,4.642,5.782,5.782,0,0,1,3.461,2.69,8.105,8.105,0,0,1,.88,4.988,4.64,4.64,0,0,1,1.944,1.937,7.5,7.5,0,0,1,.841,2.765,4.869,4.869,0,0,1,1.654,2.3,5.909,5.909,0,0,1,.254,2.9,3.339,3.339,0,0,1,1.345,1.538,4.974,4.974,0,0,1,.449,2.079c0,.382-.033.755-.064,1.115a5.492,5.492,0,0,0,.2,2.584,6.556,6.556,0,0,1,.425,1.587,5.02,5.02,0,0,1-.076,1.626l-.024.114c-.04.18-.075.361-.109.553a3.383,3.383,0,0,1,.8,1.046,5.188,5.188,0,0,1,.525,2.361,6.956,6.956,0,0,1-.459,2.377,4.737,4.737,0,0,1-.15,2.927,5.4,5.4,0,0,1,.769,1.632,5.192,5.192,0,0,1,.174,1.835,5.66,5.66,0,0,1-1.741,3.611,6.114,6.114,0,0,1-.341,2.9,6.545,6.545,0,0,1-1.6,2.471,5.09,5.09,0,0,1-.6,3.459,4.76,4.76,0,0,1-1.754,1.766,5.683,5.683,0,0,1-.278,1.963,6.288,6.288,0,0,1-1.464,2.439,5.4,5.4,0,0,1-.05,1.913,5.691,5.691,0,0,1-.695,1.794,5.076,5.076,0,0,1-3.04,2.341,2.723,2.723,0,0,1-.642.091,27.635,27.635,0,0,1-1.738,7.113,29.335,29.335,0,0,1-2.047,4.2A28.971,28.971,0,0,1,90.1,98.757a27.013,27.013,0,0,1-7.076,6.033A24.623,24.623,0,0,1,78.8,106.75a23.892,23.892,0,0,1-4.511,1.123A21.163,21.163,0,0,1,71.194,108.089ZM29.4,72.974a1.161,1.161,0,0,1-1.087-.7,8.305,8.305,0,0,0-1.039-1.73c-.069.1-.13.2-.2.315l-.064.109L27,70.985c-.043.073-.088.148-.125.225a1.555,1.555,0,0,1-.055.2l-.008.024A1.649,1.649,0,0,1,25.727,72.5a1.039,1.039,0,0,1-.344.059,1.152,1.152,0,0,1-.732-.28,1.531,1.531,0,0,1-.461-.651,1.377,1.377,0,0,1,.2-1.3,2.723,2.723,0,0,1,1.091-.867,2.458,2.458,0,0,0-2.224.779.117.117,0,0,1-.088.04.14.14,0,0,1-.136-.132,1.971,1.971,0,0,1,.226-1.019,2.467,2.467,0,0,1,.667-.784,3.587,3.587,0,0,1,1.961-.733c.067,0,.135-.006.2-.006a3.8,3.8,0,0,1,1.437.288,5.181,5.181,0,0,1,1.254.749,10.441,10.441,0,0,1,1.979,2.2,1.159,1.159,0,0,1,.105,1.25A1.733,1.733,0,0,1,29.4,72.974Z" transform="translate(-7.098 1.721)"/>
      </g>
      <g id="FACE" transform="translate(34.271 40.027)">
        <path id="_Ink-3" data-name="ðŸ– Ink" d="M22.055,38.624a7.87,7.87,0,0,1-2.949-.581,8.361,8.361,0,0,1-1.925-1.091,8.143,8.143,0,0,1-1.567-1.559,1.581,1.581,0,0,1-.327-1.236,1.779,1.779,0,0,1,.7-1.117,1.748,1.748,0,0,1,1.031-.354,1.516,1.516,0,0,1,.23.018,1.594,1.594,0,0,1,1.066.7l.063.086A5.485,5.485,0,0,0,20.4,35.153a4.629,4.629,0,0,0,2,.46,4.492,4.492,0,0,0,.5-.028,6.669,6.669,0,0,0,4.066-2.3c.134-.134.275-.28.458-.473a.724.724,0,0,1,.38-.289.789.789,0,0,1,.247-.039.85.85,0,0,1,.277.047.831.831,0,0,1,.413.309.751.751,0,0,1,.13.5,5.116,5.116,0,0,1-1.73,3.268,7.58,7.58,0,0,1-1.785,1.227,7.5,7.5,0,0,1-1.981.67A7.4,7.4,0,0,1,22.055,38.624Zm2.076-11.6h0a7.213,7.213,0,0,1-2.541-.505A12.885,12.885,0,0,1,18.6,24.851a1.131,1.131,0,0,1-.417-.654,1.338,1.338,0,0,1,.059-.735,1.671,1.671,0,0,1,.5-.717,1.235,1.235,0,0,1,.784-.3,1.124,1.124,0,0,1,.607.184l.2.154,0,0c1.039.792,2.608,1.989,4.113,1.989a2.471,2.471,0,0,0,1.83-.8,2.641,2.641,0,0,0,.513-2.149c-.347-1.671-2.189-2.889-2.745-3.222a.5.5,0,0,1-.139-.581.761.761,0,0,1,.743-.521,1.054,1.054,0,0,1,.175.015,5.593,5.593,0,0,1,1.95.695A4.4,4.4,0,0,1,28.093,19.4a4.689,4.689,0,0,1,.837,3.165,5.023,5.023,0,0,1-1.4,3.089A4.652,4.652,0,0,1,24.131,27.029ZM7.595,15.706a1.68,1.68,0,0,1-1.082-.418,1.654,1.654,0,0,1-.567-1.075,11.938,11.938,0,0,1,.065-3.152c.039-.306.078-.623.106-.964a1.88,1.88,0,0,1,.725-1.348,2.253,2.253,0,0,1,1.374-.476A1.709,1.709,0,0,1,9.254,8.6,1.514,1.514,0,0,1,9.828,9.6a8.354,8.354,0,0,1-.895,5.211A1.478,1.478,0,0,1,7.595,15.706Zm24.273-.715a1.467,1.467,0,0,1-1.143-.483,4.819,4.819,0,0,1-1.053-2.575,2.957,2.957,0,0,1,.825-2.56,1.686,1.686,0,0,1,.132-.2,1.873,1.873,0,0,1,1.437-.816,1.577,1.577,0,0,1,.436.063,2.093,2.093,0,0,1,1.4,1.209,4.218,4.218,0,0,1,.174,2.337,7.748,7.748,0,0,1-.719,2.2,1.441,1.441,0,0,1-.621.605A1.9,1.9,0,0,1,31.868,14.991ZM.269,7.483a.265.265,0,0,1-.221-.134A.288.288,0,0,1,.03,7.063,9.955,9.955,0,0,1,2.288,4.244,13.97,13.97,0,0,1,5.31,2.208,13.117,13.117,0,0,1,8.9.973L9.282.907A9.462,9.462,0,0,1,10.848.739a2.438,2.438,0,0,1,1.933.711,1.605,1.605,0,0,1,.388,1.15,1.049,1.049,0,0,1-.388.752,3.006,3.006,0,0,1-2.041.59c-.161,0-.327,0-.488-.008h-.006c-.155,0-.33-.008-.5-.008s-.3,0-.437.011a13.972,13.972,0,0,0-3.038.511A20.745,20.745,0,0,0,.41,7.437.254.254,0,0,1,.269,7.483ZM37.227,5.958h0l-.162-.04a9.218,9.218,0,0,1-1.772-.682l-.575-.28a16.1,16.1,0,0,0-2.055-.864,24.54,24.54,0,0,0-4.681-1.02,1.928,1.928,0,0,1-.939-.352,1.387,1.387,0,0,1-.525-.789A1.4,1.4,0,0,1,26.679.749a1.522,1.522,0,0,1,.741-.63A1.687,1.687,0,0,1,28.052,0a1.886,1.886,0,0,1,.365.036L28.71.1a21.155,21.155,0,0,1,5.056,1.62A10.237,10.237,0,0,1,35.99,3.157a6.414,6.414,0,0,1,1.572,2c.055.418,0,.522-.053.592l-.016.02-.014.019a.406.406,0,0,1-.251.165Z" transform="translate(10.82 10.471)"/>
      </g>
      <g id="MASK" transform="translate(4.742 60.471)">
        <path id="_Color" data-name="ðŸŽ¨ Color" d="M76.909,11.22C76.5,6.08,70.011,3.9,66.778,3.257,56.012.731,46.853,7.214,34.015,7.346a35.277,35.277,0,0,1-6.724-.652C18.549,4.711,9.816,2.6,1.238,0A1.745,1.745,0,0,0,.47,2.875c8.216,2.909,20.785,5.514,27.422,5.81a29.1,29.1,0,0,1-10.9,21.9c9.942,10.976,33.127,14.586,46.772,8.824C70.472,37.4,77.555,19.4,76.909,11.22" transform="translate(7.855 3.921)" fill="#fff"/>
        <path id="_Ink-4" data-name="ðŸ– Ink" d="M52.741,45.745h0l-3.4-.246c-5.764-.424-11.856-.978-17.418-2.654a36.284,36.284,0,0,1-4.057-1.481,28.981,28.981,0,0,1-3.79-1.994,25.078,25.078,0,0,1-3.449-2.6,24.142,24.142,0,0,1-3.033-3.3l-.058.05a1.848,1.848,0,0,1-.823-1.45,2.145,2.145,0,0,1,.718-1.744l.028.044c.014-.022.028-.043.043-.064l.015-.022-.012-.038a15.154,15.154,0,0,1,1.158-1.061l0,.006a26.2,26.2,0,0,0,9.48-19.021,1.389,1.389,0,0,1-.332.029c-1.756,0-8.672-1.26-15.1-2.752-3.54-.821-6.559-1.625-8.73-2.323C1.406,4.3.069,3.636,0,3.162-.027,2.953.2,2.78.665,2.648c4.455,1.5,8.4,2.656,12.075,3.524a.174.174,0,0,1,.084-.022.13.13,0,0,1,.121.07,119.335,119.335,0,0,0,15.206,2.5c-.005-.231-.014-.477-.027-.731-4.106-.8-8.523-1.84-13.5-3.186C10.146,3.593,5.76,2.291,1.287.952c-.11,0-.177-.106-.174-.266A.7.7,0,0,1,1.808,0a.874.874,0,0,1,.158.015c2.908.679,5.967,1.513,9.206,2.4C19.932,4.8,28.991,7.267,37.017,7.267h.121a44.962,44.962,0,0,0,11.454-2.4c1.947-.589,3.961-1.2,5.971-1.65a28.409,28.409,0,0,1,6.146-.761c1.6.03,3.011.113,4.329.251a30.577,30.577,0,0,1,4.457.78,18.553,18.553,0,0,1,4.148,1.585,12.148,12.148,0,0,1,3.4,2.667,28.873,28.873,0,0,1,.619,14.137,33.892,33.892,0,0,1-2.157,6.966,32.8,32.8,0,0,1-3.588,6.307,29.248,29.248,0,0,1-3.784,4.265,25.425,25.425,0,0,1-4.512,3.337,22.532,22.532,0,0,1-5.158,2.185A21.721,21.721,0,0,1,52.741,45.745ZM28.931,8.129a18.33,18.33,0,0,1,.264,6.352,23.191,23.191,0,0,1-1.731,6.2,28.376,28.376,0,0,1-3.27,5.657,29.413,29.413,0,0,1-4.352,4.716c9.206,7.955,13.244,9.146,25.2,10.425l1.574.187c2.3.272,4.741.541,7.128.582,12.444-.9,21.631-13.821,23.007-25.271l.008-.32c.062-2.937-.062-6.03-1.378-8.748a1.042,1.042,0,0,1-.571-.447A28.555,28.555,0,0,0,61.759,4.138c-4.485,0-8.473,1.1-12.7,2.273l-.233.064c-1.955.541-4.17,1.154-6.466,1.607a35.8,35.8,0,0,1-6.984.73,30.714,30.714,0,0,1-6.449-.683Zm12.056,11.1a15.169,15.169,0,0,1-2.674-.239,16.413,16.413,0,0,1-2.628-.707.148.148,0,0,1-.088-.166.1.1,0,0,1,.106-.093h.017a17.441,17.441,0,0,0,2.05.12,18.554,18.554,0,0,0,4.866-.655,13.523,13.523,0,0,0,3.6-1.452,17.892,17.892,0,0,1,2.645-1.2.792.792,0,0,1,.173-.019.889.889,0,0,1,.76.454.7.7,0,0,1-.032.735,6.049,6.049,0,0,1-2.98,2.161,16.5,16.5,0,0,1-3.667.906A15.424,15.424,0,0,1,40.987,19.229Zm33.47-1.6a10.266,10.266,0,0,1-4.619-1.248,10.862,10.862,0,0,1-2.008-1.343,7.12,7.12,0,0,1-1.445-1.629.07.07,0,0,1,.018-.053.118.118,0,0,1,.086-.026,7.314,7.314,0,0,1,1.783.8c.115.063.206.113.254.137a15.156,15.156,0,0,0,5.456,1.64c.639.107,1.3.217,1.941.354a.621.621,0,0,1,0,1.187A5.727,5.727,0,0,1,74.457,17.63Z" transform="translate(7.113 3.228)"/>
      </g>
    </g>
  </g>
</svg>
