<svg xmlns="http://www.w3.org/2000/svg" width="429.469" height="581.711" viewBox="0 0 429.469 581.711">
  <g id="sit-mask-5" transform="matrix(0.996, 0.087, -0.087, 0.996, 65.858, 0)">
    <g id="BODY" transform="translate(-17.951 140.65)">
      <path id="_Skin" data-name="âœ‹ Skin" d="M116.48,325.982a33.2,33.2,0,0,1-7.016-.738,32.382,32.382,0,0,1-6.325-2.078,36.544,36.544,0,0,1-5.71-3.212,46.038,46.038,0,0,1-5.17-4.142,73.179,73.179,0,0,1-9.023-10.251c-2.83-3.8-5.407-7.779-7.77-11.507l-.267.177c-1.018.672-2.069,1.367-3.055,1.95a6.266,6.266,0,0,1-1.529,1.663,8.452,8.452,0,0,1-1.968,1.1,16.244,16.244,0,0,1-4.438.99c-.281.014-.561.022-.833.022a13.04,13.04,0,0,1-3.092-.352,10.183,10.183,0,0,1-4.642-2.522,13.07,13.07,0,0,1-1.7-1.974c-2.041-2.884-3.246-6.691-4.411-10.372-.159-.5-.324-1.023-.489-1.535a4.166,4.166,0,0,0-.545.551c-.481.539-1.081,1.209-1.618,1.209a.588.588,0,0,1-.249-.055c-.576-.127-1.157-.259-1.719-.387-1.751-.4-3.562-.808-5.36-1.11a33.052,33.052,0,0,0-5.488-.5c-.525,0-1.05.016-1.561.048a4.5,4.5,0,0,0-.918-.081,22.71,22.71,0,0,0-4.5.659c-1.831.4-3.926.942-6.145,1.515l-.051.013-1.523.392c-2.468.633-5.091,1.286-7.553,1.773a35.332,35.332,0,0,1-6.632.806,10,10,0,0,1-2.788-.332A3.5,3.5,0,0,1,.58,286.584a2.7,2.7,0,0,1-.547-1.333,5.09,5.09,0,0,1,.143-1.858c.872-3.221,4.326-5.32,7.667-7.351a31.965,31.965,0,0,0,4.695-3.226,15.918,15.918,0,0,0,2.133-3.079,19.05,19.05,0,0,0,1.361-3.292,48,48,0,0,0,1.444-6.991,44.725,44.725,0,0,1,1.8-8.147,96.822,96.822,0,0,1,3.748-10.795,57.564,57.564,0,0,1,5.637-10.347c.217-13.044.57-26.988,1.672-40.573.288-3.557.622-7,.992-10.23.4-3.463.847-6.8,1.341-9.932.524-3.32,1.113-6.505,1.75-9.468.672-3.124,1.419-6.1,2.219-8.838.444-1.672.907-3.382,1.356-5.034,3.859-14.232,7.849-28.948,6.058-43.821l-1.137-.03a3.38,3.38,0,0,0-1.564-.422,2.055,2.055,0,0,0-.309.022,2.052,2.052,0,0,0-1.364-.481,4.1,4.1,0,0,1-.806-.143c-.722-6.721-1.076-11.851-1.147-16.634-.041-2.763.014-5.348.17-7.9.165-2.705.436-5.294.83-7.914.708-8.374,3.621-14.743,8.906-19.47a29.714,29.714,0,0,1,4.092-3.049,38.494,38.494,0,0,1,4.732-2.486,63.169,63.169,0,0,1,11.173-3.614C72.6,38.519,76.531,37.078,80,35.608A73.285,73.285,0,0,0,90.5,30.236,51.121,51.121,0,0,0,106.907,13.81c.615-1.036,1.155-2.156,1.676-3.24h0c.482-1,.98-2.036,1.537-3a14.35,14.35,0,0,1,1.939-2.685,10.562,10.562,0,0,1,2.359-2.162A14.093,14.093,0,0,1,117.413,1.2,20.533,20.533,0,0,1,124.5,0a23.329,23.329,0,0,1,4.418.42,20.1,20.1,0,0,1,4.1,1.24,11.776,11.776,0,0,1,5.824,4.814,39.939,39.939,0,0,1,2.106,8.259,54.559,54.559,0,0,0,1.366,6.184,22.9,22.9,0,0,0,1.678,4.28,21.006,21.006,0,0,0,2.33,3.564,22.629,22.629,0,0,0,2.888,2.951,27.994,27.994,0,0,0,3.353,2.439,38,38,0,0,0,3.724,2.03c1.218.584,2.527,1.147,4,1.722,2.74,1.069,5.649,2.016,8.463,2.932,3.353,1.091,6.819,2.22,10.014,3.559a46.2,46.2,0,0,1,4.606,2.211,29.971,29.971,0,0,1,4.128,2.729,18.625,18.625,0,0,1,3.8,3.759,20.989,20.989,0,0,1,2.543,4.452,28.893,28.893,0,0,1,1.559,4.929,46.649,46.649,0,0,1,.849,5.191c.3,2.673.686,5.354,1.061,7.947v0h0c.427,2.955.868,6.01,1.171,9.014a70.732,70.732,0,0,1,.392,9.062,1.653,1.653,0,0,0,.3.022c.125,0,.261-.007.405-.015h.017c.133-.007.3-.015.454-.015a1.884,1.884,0,0,1,.714.106.68.68,0,0,1,.425.473,1.646,1.646,0,0,1-.984.891,8.909,8.909,0,0,1-1.961.569,45.564,45.564,0,0,1-4.838.548c-.91.07-1.7.13-2.18.209.341,1.8.609,3.64.82,5.621.187,1.766.324,3.606.418,5.627.175,3.752.171,7.57.167,11.262v0c0,3.315-.007,6.742.119,10.113a89.355,89.355,0,0,0,.892,10.114c.554,2.661,1.207,5.348,2,8.212.7,2.553,1.5,5.19,2.431,8.061,1.734,5.337,3.7,10.7,5.592,15.886,1.7,4.637,3.45,9.433,5.042,14.21.577,1.488,1.108,3.033,1.622,4.527.626,1.823,1.274,3.709,2.015,5.515a33.158,33.158,0,0,0,2.63,5.212l-.053.041c.434.718.942,1.474,1.51,2.248.277.1.565.233.843.362h0c.269.125.547.254.813.351l.12-.2.292.39.857-.361c1.3.646,2.669,1.378,3.968,2.116,4.01,2.425,7.749,4.893,11.429,7.545,3.375,2.432,6.654,4.988,10.025,7.813,6.49,5.438,12.587,11.276,18.781,17.278l-1.716,1.387c.569.789,1.234,1.791,1.821,2.674l.078.118.089.135a10.62,10.62,0,0,1,2.211-1.454,38.966,38.966,0,0,1,6.5,11.307,51.487,51.487,0,0,1,1.977,6.46,58.237,58.237,0,0,1,1.174,6.709c1.034,8.927.069,18.04-2.648,25a25.8,25.8,0,0,1-3.255,5.66,31.514,31.514,0,0,1-4.422,4.706,20.465,20.465,0,0,1-2.779,3.329,14,14,0,0,1-4.09,2.819l-.144.2-.26.366c-.165.022-1.179.252-1.239.489-3.127.525-6.319,1.388-9.406,2.223h0c-2.536.686-5.159,1.395-7.763,1.923-1.4.285-2.686.5-3.922.645a34.626,34.626,0,0,1-3.956.26,27.273,27.273,0,0,1-4.095-.351,31.281,31.281,0,0,1-3.985-.923,42.779,42.779,0,0,1-7.67-3.21,121.607,121.607,0,0,1-14.331-9.409h0c-2.416-1.754-4.7-3.41-6.992-4.938a78.119,78.119,0,0,0-10.366-6.1c-3.588-1.795-7.261-3.4-10.814-4.961l-1.757-.771c.292,1.485.382,2.429.022,3.166s-1.16,1.257-2.774,1.816a7.749,7.749,0,0,1-2.866.514,14.638,14.638,0,0,1-5.95-1.5c.025,1.791.1,3.619.165,5.387v.009c.117,3,.237,6.107.154,9.311q0,.269,0,.542v0c0,1.533,0,3.118-.1,4.7a22.6,22.6,0,0,1-.708,4.607,13.059,13.059,0,0,1-.773,2.1,10.013,10.013,0,0,1-1.155,1.882,8.994,8.994,0,0,1-1.613,1.594,9.972,9.972,0,0,1-2.147,1.24c-2.893,1.135-5.849,2.176-8.785,3.093-3.042.95-6.087,1.774-9.048,2.449a85.094,85.094,0,0,1-17.717,2.285C117.826,325.963,117.146,325.982,116.48,325.982ZM61.19,197.944,60.378,200c-4.643,11.554-9.93,23.959-14.507,34.035.112.979.318,1.982.517,2.952a28.37,28.37,0,0,1,.584,3.64,10.726,10.726,0,0,1-.014,1.817,8.057,8.057,0,0,1-.382,1.808,42.754,42.754,0,0,1,3.874-2.224c1.274-.647,2.64-1.265,4.061-1.837A73.8,73.8,0,0,1,63,237.41l.324,2.162c.517-.017,1.344-.027,2.009-.035h.1l.342,0c-.1-.866-.238-2.385-.3-3.26h0a72.563,72.563,0,0,1,.277-14.06c.553-5.145,1.5-10.132,2.254-13.9.3-2.189-.086-5.2-1.617-6.979a4.146,4.146,0,0,0-3.183-1.495.345.345,0,0,1-.051,0c-.433,0-1.041-.775-1.485-1.34A4.964,4.964,0,0,0,61.19,197.944Z" transform="translate(18.173 -17.222)" fill="#d08b5b"/>
      <path id="_Top" data-name="ðŸ‘• Top" d="M64.2,173.4c-3.093,0-5.9-.1-8.576-.3a78.982,78.982,0,0,1-8.495-1.076,54.8,54.8,0,0,1-15.141-5.008,8.93,8.93,0,0,0-.855-1.072c-.17-.192-.346-.391-.508-.593a2.3,2.3,0,0,0-1.314-2.219,12.094,12.094,0,0,1-.747-2.2c.212-2.039.484-3.856.831-5.555.685-3.333,1.585-6.7,2.375-9.6l.326-1.193c1.18-4.31,2.018-7.876,2.639-11.223a77.2,77.2,0,0,0,1.311-11.445,104.88,104.88,0,0,0-.29-11.767c-.266-3.482-.683-7.2-1.312-11.7-.944-6.767-2.1-13.892-3.633-22.423L30.6,74.845a17.306,17.306,0,0,0-.662-2.469,24.271,24.271,0,0,0-.947-2.359c-.686-1.474-1.346-2.464-1.642-2.464a.117.117,0,0,0-.09.041c-.083.092-.1.337-.062.727a3.719,3.719,0,0,0-.839-.08c-.2,0-.407.009-.623.018h0c-.165.007-.335.014-.507.018-.685.014-1.374.015-2.021.015h-.254c-.4,0-.81,0-1.215,0l-3.488.015-3.49.016c-3.841.017-7.954.073-12.009.364l-.023-.006c-.236-.057-.479-.116-.722-.189A1.822,1.822,0,0,1,.68,66.576a35.254,35.254,0,0,1,.093-4.561c.057-.891.115-1.81.131-2.7C.944,57,.935,54.69.875,52.433l-.022-.764c-.008-.268-.011-.54-.014-.829v0A7.974,7.974,0,0,0,0,46.509c.1-1.4.212-2.7.346-3.957A71.6,71.6,0,0,1,3.3,27.911a23.373,23.373,0,0,1,2.21-4.876,20.187,20.187,0,0,1,3.342-4.181A23.681,23.681,0,0,1,12.863,15.8a33.445,33.445,0,0,1,4.494-2.277,87.771,87.771,0,0,1,9.614-3.207l.764-.223C32.23,8.78,36.13,7.463,39.659,6.068c2.017-.8,3.96-1.64,5.774-2.505,1.942-.926,3.812-1.913,5.558-2.934a.383.383,0,0,0,0,.331.318.318,0,0,0,.232.165,1.558,1.558,0,0,1,.962.625,8.28,8.28,0,0,0,.457,1.526,1.243,1.243,0,0,0,.155.272c.064.464.092.937.117,1.354.015.251.029.487.049.688a29.9,29.9,0,0,0,1.008,5.355A34.638,34.638,0,0,0,55.9,16.116a33.577,33.577,0,0,0,2.743,4.793,32.684,32.684,0,0,0,3.515,4.27,32.193,32.193,0,0,0,4.183,3.607,29.852,29.852,0,0,0,9.947,4.724A30.594,30.594,0,0,0,84,34.5a28.126,28.126,0,0,0,14.126-3.676,24.59,24.59,0,0,0,12.085-16.2,29.1,29.1,0,0,0-.075-11.058c-.124-.657-.245-1.245-.37-1.8,4.891,4.188,11.228,6.6,16.2,8.225l.609.2c.876.283,1.763.564,2.621.835h0c2.476.782,5.037,1.591,7.5,2.528a45.489,45.489,0,0,1,7.147,3.377,27.862,27.862,0,0,1,3.67,2.579,19.044,19.044,0,0,1,3.085,3.245,17.786,17.786,0,0,1,2.477,4.808,31.619,31.619,0,0,1,1.272,5.278c.831,5.048,1.433,10.209,1.932,14.65.277,2.482.534,4.967.763,7.388.139,1.492.25,2.737.348,3.917l.023.259a6.716,6.716,0,0,0,.447,2.1c-1.915.51-3.829.87-5.283,1.126a55.65,55.65,0,0,1-6.363.72c-1.112.067-2.238.089-3.3.106-.129,0-.268,0-.426,0l-.485,0h-.061l-.424,0h-.246a2.79,2.79,0,0,0-.632.1c-.068.016-.137.032-.208.046a16.866,16.866,0,0,0-.132-3.069,2.887,2.887,0,0,0-.531-1.465.471.471,0,0,0-.339-.162c-.223,0-.47.19-.714.549A6.6,6.6,0,0,0,138,60.7a25.474,25.474,0,0,0-1.043,6.107l-.048.692c-.141,2.054-.287,4.144-.428,6.164l0,.058v.005c-.477,6.852-.971,13.938-1.394,20.911l-.046.78c-.277,4.773-.373,8.623-.3,12.116a79.684,79.684,0,0,0,1.083,12.059,51.181,51.181,0,0,0,3.473,11.671,64.718,64.718,0,0,0,3.43,6.5c.771,1.334,1.568,2.714,2.288,4.107a22.654,22.654,0,0,1,1.983,5.08,13.421,13.421,0,0,1,.372,2.62,10.582,10.582,0,0,1-.223,2.627,10.4,10.4,0,0,1-1.31,3.367.788.788,0,0,1-.075.333,6.339,6.339,0,0,1-3.289,2.661c-.866.41-1.763.794-2.631,1.165h0c-.468.2-.951.407-1.424.615l-.506.226a38.943,38.943,0,0,1-6.968,2.385l-.051.021,0,0-.08.032a114.354,114.354,0,0,1-11.87,3.974,159.087,159.087,0,0,1-24.934,4.654c-3.942.442-8.064.81-12.252,1.092-3.943.266-8.077.465-12.287.592C67.576,173.372,65.859,173.4,64.2,173.4ZM52.037.479h0A2.337,2.337,0,0,0,51.411.4h-.023c.127-.074.254-.153.377-.228h0c.084-.052.179-.11.271-.166,0,.157,0,.318,0,.479Z" transform="translate(56.6 15.147)" fill="#8fa7df"/>
      <path id="_Shoes" data-name="ðŸ‘Ÿ Shoes" d="M21.52,61.142a9.947,9.947,0,0,1-3.237-.537,9.346,9.346,0,0,1-3.34-1.885,11.307,11.307,0,0,1-2.283-2.908,25.642,25.642,0,0,1-1.779-4.224l-.056-.163-.329-.986-.318-.966a29.894,29.894,0,0,0-2.337-5.751A12.182,12.182,0,0,0,5.491,40.7l-.069-.061a8.412,8.412,0,0,0-.766-.561l-.383-.256a6.823,6.823,0,0,1-2.467-2.343,8.358,8.358,0,0,1-.921-3.016l-.061-.43C.811,33.926.8,33.805.773,33.62L.7,32.993c-.016-.129-.029-.233-.042-.326l-.019-.137-.018-.12c-.193-1.29-.345-2.624-.451-3.964L.136,28l-.023-.343-.026-.421a37.177,37.177,0,0,1,.477-9.251,23.257,23.257,0,0,1,1.125-3.958,19.61,19.61,0,0,1,1.795-3.538A17.192,17.192,0,0,1,5.07,8.4,17.588,17.588,0,0,1,6.948,6.579,21.661,21.661,0,0,1,11.593,3.66l.216-.1.226-.1A49.684,49.684,0,0,1,20.688.611l.568-.148L23.045,0,23.2,1.04l.8-.014.16,1.509c.08.755.172,1.506.272,2.233.146,1.061.324,2.151.529,3.241l.09.468.192.984-.786.626a18.27,18.27,0,0,0-2.7,2.777,21.567,21.567,0,0,0-3.7,6.684,20.911,20.911,0,0,0-.9,3.6,19.982,19.982,0,0,0-.234,3.662,13.747,13.747,0,0,0,.551,3.468c.093.313.186.592.283.852l.05.132L18.1,32l-.4.686a.9.9,0,0,0-.1.832l.017.027L32.674,55.46l1.013,1.483-1.452.915c-.126.08-.257.166-.411.273l-.159.111-.825.582-.9-.462a.788.788,0,0,0-.344-.083.492.492,0,0,0-.1.009,3.516,3.516,0,0,0-1.44.671l-.6.423a10,10,0,0,1-1.215.734,11.123,11.123,0,0,1-3.766.994C22.124,61.132,21.812,61.142,21.52,61.142Zm98.9-9.939c-.319,0-.647-.014-.973-.043l-.16-.015-1.374-.139-.114-1.371c-.168-2.023-.37-4.036-.6-5.983l-.089-.736-.377-3.074,2.959,1.487.4.2c1.761.863,3.473,1.6,6.787,2.94l1.273.511,3.1,1.242-2.865,1.714a6.077,6.077,0,0,0-.521.357l-.517.392-.154.115c-.148.11-.275.2-.412.292a13.086,13.086,0,0,1-3,1.545A10.153,10.153,0,0,1,120.42,51.2Z" transform="translate(59.723 219.621)" fill="#fff"/>
      <path id="_Ink" data-name="ðŸ– Ink" d="M119.916,320.544a48.36,48.36,0,0,1-7.755-.6,37.6,37.6,0,0,1-7.486-2,35.1,35.1,0,0,1-4.9-2.35,37.891,37.891,0,0,1-4.429-3.009,43.509,43.509,0,0,1-4-3.578,52.205,52.205,0,0,1-3.6-4.057C84,300.271,80.578,295.2,77.274,290.3l-.759-1.126c-.647.428-1.3.842-1.941,1.23a3.536,3.536,0,0,1-.977,1.172,12.249,12.249,0,0,1-2.331,1.521,14.627,14.627,0,0,1-2.71,1,14.947,14.947,0,0,1-2.855.444c-.256.015-.516.022-.773.022a13.924,13.924,0,0,1-4.962-.922,13.447,13.447,0,0,1-2.268-1.123,12.5,12.5,0,0,1-2-1.537,12.648,12.648,0,0,1-1.771-2.091,16.451,16.451,0,0,1-1.309-2.329,42.383,42.383,0,0,1-1.847-5.046c-.272-.852-.552-1.733-.855-2.585a1.95,1.95,0,0,1-.721.461,2.494,2.494,0,0,1-.868.148,3.083,3.083,0,0,1-.5-.041c-1.163-.186-2.324-.477-3.447-.758-1.149-.288-2.337-.586-3.532-.772a36.774,36.774,0,0,0-5.69-.421c-.4,0-.8.006-1.209.016a54.179,54.179,0,0,0-13.341,2.5c-2.149.608-4.088,1.146-6.05,1.576a36.775,36.775,0,0,1-6.181.874c-.566.026-1.175.05-1.794.05a15.374,15.374,0,0,1-2.37-.159,7.018,7.018,0,0,1-2.157-.657A3.727,3.727,0,0,1,.807,280.73a3.746,3.746,0,0,1-.66-1.356,5.475,5.475,0,0,1,.185-3.115,9.851,9.851,0,0,1,.985-2.059,11.543,11.543,0,0,1,1.373-1.76A18.817,18.817,0,0,1,6.218,269.6c.724-.467,1.5-.917,2.257-1.352a24.555,24.555,0,0,0,4.564-3.1,10.525,10.525,0,0,0,2.639-4.294,33.538,33.538,0,0,0,1.2-4.958c.695-3.739,1.462-7.717,2.524-11.639a82.68,82.68,0,0,1,3.967-11.234c.911-2.1,1.713-3.8,2.526-5.332a39.641,39.641,0,0,1,3.1-5.014.1.1,0,0,1,.006-.014v0a3.111,3.111,0,0,1-.053-.4c-.026-.4-.015-.808,0-1.206,0-.169.01-.344.012-.514l.016-1.7q.009-.98.018-1.959c.028-2.752.058-5.01.093-7.105.072-4.385.177-9.552.41-14.632.2-4.437.488-8.778.846-12.9.381-4.39.859-8.705,1.422-12.826.593-4.344,1.3-8.626,2.1-12.727.84-4.293,1.812-8.534,2.889-12.606.454-1.718.926-3.465,1.382-5.154l.009-.033c1.693-6.274,3.444-12.761,4.715-19.236.432-2.2.792-4.439,1.069-6.652s.477-4.442.6-6.662a83.571,83.571,0,0,0-.295-9.488,1.154,1.154,0,0,1-.505-.135,3.647,3.647,0,0,0-.725-.278l-.309.008h-.005l-.342.009h-.039a.975.975,0,0,1-.8-.369c-.128-.036-.233-.068-.33-.1a7,7,0,0,1-1.895-.4.381.381,0,0,1-.266-.349c-.075-.679-.149-1.367-.219-2.045a8.121,8.121,0,0,1-.193-1.916c-.326-3.383-.547-6.43-.676-9.317-.149-3.318-.176-6.372-.081-9.337a.94.94,0,0,1,.031-.868,87.146,87.146,0,0,1,.935-9.9c.338-2.189.71-4.1,1.136-5.832a39.406,39.406,0,0,1,1.809-5.647,26.758,26.758,0,0,1,2.78-5.155,21.923,21.923,0,0,1,1.848-2.3,20.669,20.669,0,0,1,2.2-2.06,29.175,29.175,0,0,1,4.1-2.751A40.362,40.362,0,0,1,57.119,36c3.034-1.246,6.246-2.221,9.352-3.163h0c.675-.2,1.44-.437,2.167-.661a116.3,116.3,0,0,0,13.272-4.9c2.223-1,4.348-2.062,6.315-3.169a63.52,63.52,0,0,0,5.967-3.8,50.565,50.565,0,0,0,9.31-8.651,38.763,38.763,0,0,0,3.668-5.217c.649-1.106,1.21-2.269,1.752-3.394l0,0c.351-.729.714-1.483,1.1-2.216a1.524,1.524,0,0,1,.587-.629A1.505,1.505,0,0,1,111.364,0a1.914,1.914,0,0,1,1.49.743,1.521,1.521,0,0,1,.247,1.372,21.658,21.658,0,0,1-1.324,3.376,30.928,30.928,0,0,1-1.841,3.235,52.091,52.091,0,0,1-4.487,5.851,54.847,54.847,0,0,1-10.715,9.349,6.211,6.211,0,0,0,.246,4.281.922.922,0,0,1,.031.708.911.911,0,0,1-.426.458c.186.688.341,1.4.491,2.087.168.772.342,1.571.56,2.336a35.481,35.481,0,0,0,5.053,10.6,31.6,31.6,0,0,0,7.288,7.485,26.98,26.98,0,0,0,9.453,4.421,27.411,27.411,0,0,0,6.52.787,26.361,26.361,0,0,0,7.137-.971,23.844,23.844,0,0,0,6.568-2.956,20.879,20.879,0,0,0,9.758-15.3,26.983,26.983,0,0,0-.674-8.878,37.825,37.825,0,0,0-1.4-4.538c-.213-.564-.456-1.127-.691-1.672v0a22.343,22.343,0,0,1-1.121-2.984,1.307,1.307,0,0,1-.04-.442,5.964,5.964,0,0,1-.829-2.294,5.558,5.558,0,0,1,.2-2.458,1.094,1.094,0,0,1,.093-.219c-.034-.282-.067-.557-.093-.826-.069-.683-.081-1.369-.093-2.032-.007-.4-.015-.82-.035-1.232-.019-.372-.055-.731-.091-1.079a11.31,11.31,0,0,1-.084-1.942.134.134,0,0,1,.134-.13.144.144,0,0,1,.118.064,6.692,6.692,0,0,1,.939,2.234v0c.079.283.16.576.261.884.333,1.019.6,2.013.877,3.065l.131.492a18.326,18.326,0,0,0,2.236,5.242,23.846,23.846,0,0,0,7.169,6.988,37.656,37.656,0,0,0,3.912,2.22c1.261.624,2.6,1.213,4.1,1.8,2.782,1.092,5.7,2.013,8.512,2.9h0c3.254,1.029,6.618,2.092,9.793,3.424a44.933,44.933,0,0,1,4.648,2.248,33.24,33.24,0,0,1,4.352,2.892,24.249,24.249,0,0,1,3.448,3.3,20.833,20.833,0,0,1,2.67,3.952c1.932,3.746,2.538,7.9,3.125,11.923.669,4.6,1.261,9.152,1.757,13.542.248,2.181.486,4.448.707,6.739.04.417.1.836.157,1.28a13.6,13.6,0,0,1,.18,3.348,2.233,2.233,0,0,1,.592.079,2.321,2.321,0,0,1,1.082.627,1.707,1.707,0,0,1,.476,1.13c.065,2.114-2.661,2.522-4.465,2.792h-.006c-.229.034-.446.067-.637.1-1.659.286-3.166.476-4.607.581a68.143,68.143,0,0,1,.9,8.954c.177,3.422.22,6.911.26,10.285q.009.768.019,1.536c.018,1.367.022,2.763.026,4.113v.005c.008,2.7.016,5.5.136,8.239a66.771,66.771,0,0,0,.806,8.175,76.023,76.023,0,0,0,2.233,9.278c.916,3.049,1.977,6.11,3,9.07l.065.189.173.5c.41,1.184.835,2.413,1.209,3.5,1.862,5.387,3.788,10.958,5.745,16.415.873,2.432,1.757,4.907,2.612,7.3l.019.053.922,2.582c.2.555.4,1.119.593,1.665l.005.015.007.021c.381,1.071.775,2.179,1.169,3.266.113.309.234.621.352.923s.229.589.338.885a1.124,1.124,0,0,1,.248.408,25.8,25.8,0,0,0,2.19,4.767,39.477,39.477,0,0,1,3.083,2.546.06.06,0,0,1,.013.016l.007.01a1.069,1.069,0,0,1,.417-.086,1.147,1.147,0,0,1,.511.125c1.3.648,2.632,1.354,4.058,2.157l.016.006.027.011a.046.046,0,0,1,.008.013,112.479,112.479,0,0,1,11.782,7.74c3.362,2.5,6.853,5.31,10.987,8.852,3.71,3.178,7.328,6.359,10.755,9.452a90.013,90.013,0,0,1,9.5,9.68,47.421,47.421,0,0,1,3.881,5.48,37.47,37.47,0,0,1,2.945,6.026,44.65,44.65,0,0,1,1.985,7.06c.429,2.132.772,4.44,1.08,7.262.241,2.21.39,4.344.445,6.345a58.6,58.6,0,0,1-.159,6.394,44.853,44.853,0,0,1-.957,6.3,36.013,36.013,0,0,1-1.948,6.057,28.884,28.884,0,0,1-3.112,5.537,27.869,27.869,0,0,1-4.274,4.7c-.085.075-.176.151-.256.218l-.006,0-.15.126a18.622,18.622,0,0,1-7.087,6.456l-.148.208-.026.037,0,0c-.1.143-.205.29-.309.433l-.49.125-.052.013-.581.149-.106.106a1.045,1.045,0,0,1-.736.318,1.072,1.072,0,0,1-.436-.1c-3.1.8-5.582,1.432-7.819,2-.564.145-1.139.295-1.7.439l-.033.009c-2.3.6-4.669,1.216-7.032,1.7a43.977,43.977,0,0,1-7.156.92c-.315.012-.635.018-.952.018a27.133,27.133,0,0,1-3.515-.233,30.415,30.415,0,0,1-3.439-.66,38.769,38.769,0,0,1-6.625-2.366,58.692,58.692,0,0,1-6.463-3.508c-1.985-1.227-3.887-2.513-6.134-4.066-2.3-1.591-4.62-3.242-6.862-4.838l-.005,0,0,0c-1.569-1.117-3.191-2.273-4.8-3.4-1.446-1.015-2.808-1.946-4.162-2.846l-.007,0h0c-.372-.193-.757-.392-1.131-.568-.879-.413-1.754-.879-2.6-1.329-.506-.269-1.028-.547-1.546-.811-3.021-1.541-6.073-2.97-8.395-4.043-.813-.377-1.706-.77-2.73-1.2a2.879,2.879,0,0,1-.011.808c-.266,1.727-2.205,2.671-3.865,3.3a9.767,9.767,0,0,1-3.441.6c-.189,0-.381,0-.57-.014a13.174,13.174,0,0,1-2.009-.257,11.471,11.471,0,0,1-1.941-.583.149.149,0,0,0,0,.031c.246,3.623.352,7.345.324,11.38,0,.451,0,.92-.006,1.335a47.327,47.327,0,0,1-.712,9.815,11.261,11.261,0,0,1-2.3,4.808,11.976,11.976,0,0,1-4.248,3.242,60.972,60.972,0,0,1-8.483,2.973l-.021.006c-.5.148-1.014.3-1.517.452-3.723,1.123-7.133,2.006-10.424,2.7-1.8.379-3.58.7-5.3.965-1.81.276-3.609.49-5.348.638C123.232,320.47,121.542,320.544,119.916,320.544ZM65.744,231.875l-.271.07a56.379,56.379,0,0,0-9.619,3.108,20.516,20.516,0,0,0-4.236,2.572,16.214,16.214,0,0,0-1.83,1.708,15.466,15.466,0,0,0-1.582,2.052,18.009,18.009,0,0,0-1.851,3.832,23.379,23.379,0,0,0-1.008,4.141,38.305,38.305,0,0,0-.228,8.529c.1,1.447.261,2.887.47,4.279.046.308.085.631.126.973a9.728,9.728,0,0,0,.863,3.525,6.27,6.27,0,0,0,2.085,1.876,11.047,11.047,0,0,1,1.271.935,12.252,12.252,0,0,1,1.477,1.611,15.485,15.485,0,0,1,1.2,1.825,35.958,35.958,0,0,1,2.623,6.518v0c.159.483.323.983.488,1.471a26.822,26.822,0,0,0,1.433,3.566,10.525,10.525,0,0,0,2.234,3.036,7.72,7.72,0,0,0,2.719,1.525,8.3,8.3,0,0,0,2.732.459c.256,0,.536-.009.856-.028a9,9,0,0,0,1.572-.272,7.964,7.964,0,0,0,1.542-.545,10.241,10.241,0,0,0,1.33-.836,5.747,5.747,0,0,1,2.358-1.141,2.145,2.145,0,0,1,.42-.041,2.466,2.466,0,0,1,1.107.268c.249-.176.453-.313.643-.433l-.074-.108-.005-.008c-.192-.281-.391-.572-.586-.856l-4.278-6.225-1.562-2.273-8.594-12.5a2.18,2.18,0,0,1-.37-1.3,2.8,2.8,0,0,1,.381-1.317c-.132-.341-.256-.7-.377-1.113a15.412,15.412,0,0,1-.618-3.888,21.656,21.656,0,0,1,.256-3.983,22.56,22.56,0,0,1,.969-3.873,23.215,23.215,0,0,1,3.983-7.194,20.716,20.716,0,0,1,2.945-3.021c-.25-1.281-.463-2.56-.634-3.8-.139-1-.261-2.048-.364-3.12Zm96.341,40.841c.271,2.207.5,4.49.7,6.783a9.568,9.568,0,0,0,.963.05,8.492,8.492,0,0,0,2.818-.474,11.637,11.637,0,0,0,2.619-1.356c.246-.166.482-.346.709-.52h0a10.369,10.369,0,0,1,.967-.683l-.114-.046C167.865,275.317,164.887,274.125,162.085,272.716ZM30.281,224.9c-.221.4-.444.794-.66,1.179-.826,1.472-1.679,2.994-2.454,4.531a53.738,53.738,0,0,0-3.255,7.819c-.668,2.78-1.274,5.8-1.853,9.229-.3,1.758-.554,3.553-.8,5.289v0c-.279,1.957-.568,3.981-.918,5.961a22.752,22.752,0,0,1-1.441,5.045,15.771,15.771,0,0,1-1.214,2.3,13.765,13.765,0,0,1-1.636,2.081,27.886,27.886,0,0,1-5.539,4.133c-.4.247-.8.5-1.209.76a15.03,15.03,0,0,0-2.9,2.21A5.435,5.435,0,0,0,4.99,277.6l.051.013.008,0a2.9,2.9,0,0,0,.351.076,19.5,19.5,0,0,0,2.2.114c.188,0,.382,0,.577-.006a29.155,29.155,0,0,0,5.691-.749c1.934-.431,3.87-.98,5.742-1.511,1.849-.524,3.761-1.066,5.669-1.494a44.746,44.746,0,0,1,9.781-1.112c.786,0,1.577.023,2.353.068a53.1,53.1,0,0,1,5.423.555,23.536,23.536,0,0,1,5.295,1.439c-.143-.242-.293-.482-.448-.711a11.671,11.671,0,0,0-2.617-2.438l-.009-.006c-.221-.168-.449-.342-.667-.514a7.921,7.921,0,0,1-2.943-5.111,62.556,62.556,0,0,1-.962-10.3,41.34,41.34,0,0,1,.257-4.981,30.136,30.136,0,0,1,.965-4.9,22.3,22.3,0,0,1,1.875-4.58,18.16,18.16,0,0,1,2.988-4.008c.014-.011.027-.025.04-.038.011-.228.018-.45.02-.68a2.519,2.519,0,0,1-1.148-.86,2.3,2.3,0,0,1-.452-1.395,33.175,33.175,0,0,1,.414-5.262,2.027,2.027,0,0,1-.88-.691,1.981,1.981,0,0,1-.359-1.148,8.14,8.14,0,0,1,1.027-3.441c.111-.237.226-.482.334-.726.556-1.254,1.115-2.517,1.589-3.588.389-.878.782-1.767,1.161-2.626l.013-.029c.655-1.482,1.332-3.014,2-4.519,2.27-5.089,4.657-10.227,6.966-15.195,1.443-3.106,2.936-6.318,4.388-9.493,1.765-3.858,3.124-7,4.279-9.885.633-2.612,1.379-5.241,2.1-7.784.28-.988.57-2.01.85-3.02a107.357,107.357,0,0,0,2.54-10.872A74.644,74.644,0,0,0,72.4,144.67c.042-3.6-.112-7.437-.47-11.732-.349-4.184-.844-8.251-1.283-11.677-.9-7.012-1.935-15.324-2.85-23.809a183.319,183.319,0,0,0-19.807-1.078c-.522,0-1.053,0-1.579.007a84.109,84.109,0,0,1-.457,19.614c-.153,1.948-.366,4.006-.652,6.29-.457,3.667-1.09,7.653-1.935,12.186-.753,4.043-1.6,8.137-2.423,12.1-.874,4.217-1.778,8.578-2.569,12.886-.887,4.83-1.534,9.08-1.978,12.991-.462,4.064-.832,8.3-1.13,12.944-.25,3.9-.452,8.145-.616,12.978-.131,3.861-.227,8.086-.295,12.917-.029,2.069-.054,4.251-.075,6.673l-.011,1.341q-.008.944-.016,1.887c0,.12,0,.24,0,.368a5.105,5.105,0,0,1-.111,1.408,4.026,4.026,0,0,1-.721,1.278c-.062.084-.132.178-.2.27a2.035,2.035,0,0,1-1.653.909A1.909,1.909,0,0,1,30.281,224.9Zm119.882-1.487a.7.7,0,0,0-.563.409c-.438.72-.037,1.835.285,2.731v0c.094.262.183.509.239.717.42,1.544.842,3.231,1.328,5.309.824,3.524,1.54,7.088,2.128,10.593.6,3.55,1.079,7.153,1.436,10.708.17,1.692.313,3.418.452,5.086v.007c.193,2.327.392,4.732.669,7.087a.771.771,0,0,0,.255.508.712.712,0,0,0,.464.171.692.692,0,0,0,.693-.678c.687-7.416-.447-14.986-1.647-21.413-.611-3.274-1.422-6.685-2.478-10.428-.453-1.605-.994-3.313-1.654-5.22-.269-.776-.555-1.578-.851-2.384-.081-.221-.167-.449-.242-.651l0-.008c-.065-.173-.132-.352-.2-.527-.029-.079-.067-.159-.106-.245a.947.947,0,0,1-.147-.678.451.451,0,0,1,.276-.238.075.075,0,0,0-.039.081.047.047,0,0,0,.049.041h.009a.284.284,0,0,0,.269-.328A.719.719,0,0,0,150.163,223.409Zm7.586,29.051a.074.074,0,0,0-.066.051.064.064,0,0,0,.016.074,26.484,26.484,0,0,0,4.133,2.854c1.49.855,3.074,1.639,4.472,2.33a56.4,56.4,0,0,0,9.468,3.835.6.6,0,0,0,.167.024.715.715,0,0,0,.655-.589.525.525,0,0,0-.318-.627c-1.432-.611-2.9-1.2-4.322-1.772-1.7-.681-3.447-1.386-5.15-2.129-1.11-.485-2.228-1.022-3.31-1.541h0a59.491,59.491,0,0,0-5.723-2.506A.061.061,0,0,0,157.75,252.46ZM63.029,193.778c-1.163,2.942-2.39,5.913-3.576,8.786l-.085.205c-1.844,4.46-3.787,8.964-5.611,13.166-.962,2.215-1.939,4.467-2.779,6.4-.371.85-.755,1.734-1.094,2.515l-.066.152-.318.733c-.065.15-.129.3-.191.45a14.052,14.052,0,0,1-.638,1.378c.037.226.066.439.09.611s.042.3.059.394c.085.459.17.925.251,1.375.23,1.272.467,2.587.755,3.871a2.647,2.647,0,0,1,.02,1.089c.462-.273.953-.533,1.458-.773a28.89,28.89,0,0,1,4.693-2.1l.015-.006.661-.25c2.882-1.1,5.828-1.929,8.845-2.751a84.128,84.128,0,0,1,.6-16.324c.278-2.059.577-3.919.913-5.688.119-.625.258-1.259.392-1.872a36.6,36.6,0,0,0,.674-3.686c.206-1.828,0-4.479-1.258-5.933a3.027,3.027,0,0,0-2.268-1.069A2.057,2.057,0,0,1,63.029,193.778Zm201.3,38.556h0c.406.567.816,1.163,1.219,1.768a1.46,1.46,0,0,1,.231-.148C265.336,233.436,264.848,232.891,264.333,232.335ZM65.689,231.27l-.45.124-.534.147h.047c.315-.008.64-.017.959-.021C65.7,231.436,65.7,231.354,65.689,231.27ZM65.577,73.352a.125.125,0,0,1,.127.094c.791,3.13,1.371,6.379,1.931,9.521v0c.235,1.319.479,2.683.734,4.016.615,3.21,1.2,6.477,1.766,9.636.219,1.221.445,2.484.672,3.74,1.64,9.049,2.861,16.548,3.845,23.6.629,4.5,1.046,8.22,1.312,11.7a104.87,104.87,0,0,1,.29,11.767,77.2,77.2,0,0,1-1.311,11.445c-.62,3.347-1.459,6.913-2.639,11.223-.907,3.313-1.936,7.068-2.7,10.8-.347,1.7-.619,3.516-.831,5.555a12.1,12.1,0,0,0,.747,2.2,2.013,2.013,0,0,1,.987.892,2.4,2.4,0,0,1,.327,1.327c.162.2.338.4.508.593a8.916,8.916,0,0,1,.855,1.072,54.788,54.788,0,0,0,15.141,5.008,79,79,0,0,0,8.494,1.076c2.678.2,5.483.3,8.575.3,1.659,0,3.376-.028,5.249-.085,4.209-.127,8.343-.326,12.287-.592,4.188-.282,8.31-.65,12.252-1.092,4.388-.493,8.615-1.11,12.562-1.833,4.3-.788,8.467-1.738,12.372-2.822A114.309,114.309,0,0,0,171,188.519l.079-.032.056-.023a38.918,38.918,0,0,0,6.968-2.384c.641-.29,1.3-.571,1.933-.842h0c.867-.371,1.763-.754,2.629-1.164a11.844,11.844,0,0,0,1.885-1.06,4.138,4.138,0,0,0,1.4-1.6.788.788,0,0,0,.075-.333,10.4,10.4,0,0,0,1.31-3.367,10.583,10.583,0,0,0,.223-2.627,13.43,13.43,0,0,0-.372-2.62,22.657,22.657,0,0,0-1.983-5.08c-.72-1.393-1.517-2.773-2.288-4.107h0a64.712,64.712,0,0,1-3.429-6.5,50.376,50.376,0,0,1-2.086-5.732,52.29,52.29,0,0,1-1.387-5.939,80.342,80.342,0,0,1-1.09-12.45c-.059-3.6.051-7.459.356-12.5.423-6.969.916-14.05,1.393-20.9l0-.022V99.23c.142-2.037.288-4.143.431-6.214.371-5.394.74-9.791,1.162-13.837.522-5.01,1.13-9.511,1.856-13.759a.15.15,0,0,1,.156-.135.206.206,0,0,1,.21.183c.221,3.635.333,7.443.343,11.642.008,3.483-.054,7.185-.194,11.65.071-.014.141-.031.209-.047a2.778,2.778,0,0,1,.631-.095h.247l.428,0h.052l.489,0c.156,0,.3,0,.426,0,1.107-.018,2.192-.039,3.3-.106a55.743,55.743,0,0,0,6.363-.72c1.453-.256,3.367-.616,5.283-1.126a7.4,7.4,0,0,1-.47-2.358c-.1-1.177-.208-2.422-.348-3.917-.229-2.42-.485-4.906-.763-7.388-.5-4.441-1.1-9.6-1.933-14.65a31.6,31.6,0,0,0-1.272-5.278,17.783,17.783,0,0,0-2.477-4.808,19.041,19.041,0,0,0-3.085-3.245,27.857,27.857,0,0,0-3.67-2.579,45.487,45.487,0,0,0-7.147-3.377c-2.46-.937-5.021-1.746-7.5-2.528l-.011,0c-1.057-.334-2.15-.679-3.221-1.03a68.568,68.568,0,0,1-8.511-3.334,41.156,41.156,0,0,1-4.019-2.205,31.062,31.062,0,0,1-3.673-2.685c.126.556.247,1.144.37,1.8a32.383,32.383,0,0,1,.569,5.527,26.632,26.632,0,0,1-.493,5.53,22.026,22.026,0,0,1-1.617,4.949,23.832,23.832,0,0,1-2.675,4.425,25.891,25.891,0,0,1-3.55,3.789,27.221,27.221,0,0,1-4.242,3.04,28.131,28.131,0,0,1-14.126,3.676,30.593,30.593,0,0,1-7.712-.987,29.253,29.253,0,0,1-5.2-1.906,30.868,30.868,0,0,1-4.746-2.818,32.189,32.189,0,0,1-4.183-3.607,32.68,32.68,0,0,1-3.515-4.27,33.568,33.568,0,0,1-2.743-4.794,34.644,34.644,0,0,1-1.933-5.171,29.9,29.9,0,0,1-1.008-5.355c-.02-.2-.034-.439-.049-.69h0c-.025-.416-.053-.888-.117-1.352a1.244,1.244,0,0,1-.155-.271,8.28,8.28,0,0,1-.457-1.526,1.559,1.559,0,0,0-.962-.625.318.318,0,0,1-.232-.165.384.384,0,0,1,0-.332c-1.747,1.021-3.617,2.008-5.558,2.934-1.815.865-3.757,1.708-5.774,2.505-3.529,1.4-7.43,2.712-11.924,4.025l-.764.223a87.775,87.775,0,0,0-9.613,3.207,33.443,33.443,0,0,0-4.494,2.277,23.68,23.68,0,0,0-4.014,3.055,20.186,20.186,0,0,0-3.342,4.181,23.374,23.374,0,0,0-2.21,4.876A71.589,71.589,0,0,0,40.551,68.07c-.134,1.258-.247,2.553-.346,3.957a7.973,7.973,0,0,1,.84,4.327v0c0,.289.005.563.014.831.078,2.5.1,5.073.051,7.642-.016.892-.074,1.811-.13,2.7v0a35.253,35.253,0,0,0-.093,4.562,2.533,2.533,0,0,0,.327,1.209,1.68,1.68,0,0,0,1,.71c.242.073.486.132.721.189l.024.006c4.055-.291,8.168-.347,12.009-.364,2.343-.011,4.64-.022,6.979-.031.345,0,.7,0,1.029,0h.43c.651,0,1.344,0,2.032-.016.172,0,.342-.01.506-.018h0c.216-.009.42-.018.622-.018a3.722,3.722,0,0,1,.839.08c-.287-2.672-.59-5.535-.867-8.37-.113-1.159-.242-2.341-.367-3.483v0h0c-.3-2.785-.62-5.664-.729-8.5a.119.119,0,0,1,.032-.09A.144.144,0,0,1,65.577,73.352ZM217.464,193.489h0c.384.632.8,1.255,1.23,1.852l.354.148.337.141a1.16,1.16,0,0,1,.264.148c.078.03.158.06.236.088h0l.014.005.057.021C219,195.062,218.12,194.172,217.464,193.489Zm-17.175-6.871a1.146,1.146,0,0,1,.516.128c4.108,2.06,7.8,3.961,11.289,5.811l.281.122.022.01.294.127c-.03-.059-.058-.117-.085-.172l-.028-.057a2.091,2.091,0,0,1-.612-.351c-1.312-1.091-1.794-2.773-2.26-4.4v0c-.122-.425-.248-.865-.386-1.28l-.725-2.186q-.55-1.656-1.072-3.23c-1.318-3.968-2.538-7.649-3.728-11.252-1.456-4.409-3-8.873-4.484-13.191h0l-.005-.015c-.754-2.188-1.534-4.451-2.294-6.678-.976-2.862-2.1-6.256-3.023-9.723a67.962,67.962,0,0,1-1.946-9.981,86.959,86.959,0,0,1-.487-8.794c-.03-2.94.039-5.929.106-8.82v-.013c.025-1.087.051-2.212.072-3.315.014-.791.026-1.626.036-2.362a89.1,89.1,0,0,1,1.176-15.931c-.257.009-.509.016-.749.02-.19,0-.381,0-.567,0a40.532,40.532,0,0,1-5.508-.379c-.881-.121-2.041-.3-3.2-.568-.592-.138-1.085-.256-1.587-.4a2.19,2.19,0,0,1-.59-.282l-.119-.073c-.089,2.762-.2,5.468-.308,8.229-.12,2.971-.258,5.987-.392,8.9v0c-.282,6.128-.573,12.465-.7,18.7-.072,3.448-.11,7.978.24,12.444a58.307,58.307,0,0,0,2.163,12.235,40.506,40.506,0,0,0,2.223,5.739c.784,1.661,1.707,3.388,2.9,5.434l.07.119c2.031,3.469,4.131,7.056,4.99,11a16.656,16.656,0,0,1,.233,5.383.985.985,0,0,1,.069.81l-.075.243-.007.022a12.315,12.315,0,0,0-.493,1.951,3.379,3.379,0,0,0,.216,1.936,2.68,2.68,0,0,0,.208.362l.524.234.009,0c.818.365,1.664.742,2.492,1.131,1.8.852,3.571,1.748,4.909,2.433A1.049,1.049,0,0,1,200.289,186.618ZM91.617,25.913a2.339,2.339,0,0,1,.626.084c0-.16,0-.321,0-.479-.091.054-.182.111-.271.165l0,0c-.121.075-.247.152-.374.227Z" transform="translate(16.4 -10.377)"/>
    </g>
    <g id="Head" transform="translate(76.457 39.744)">
      <g id="HEAD-2" data-name="HEAD">
        <path id="_Skin-2" data-name="âœ‹ Skin" d="M76.257,10.283C69.611,1.15,57.373-1.477,46.76.745,26.012,4.521,6.189,20.325,2.523,41.818-3.2,54.822.456,75.3,17.09,76.833c2.368.133,4.714-.411,7.086-.117,14.479,2.309,31.588,12.194,44.4.537a2.411,2.411,0,0,0,2.209.4c5.455-2.1,5.712-8.194,6.177-13.2q.9-9.7,1.69-19.412c.188-11.164,4.62-25.115-2.4-34.762Z" transform="translate(10.394 26.717)" fill="#d08b5b"/>
        <path id="_Ink-2" data-name="ðŸ– Ink" d="M34.233,105.207a8.3,8.3,0,0,1-.868-.046,9.357,9.357,0,0,1-3.478-1.083,7.738,7.738,0,0,1-2.665-2.348,25.407,25.407,0,0,1-5.65,2.34l-.209.057a19.525,19.525,0,0,1-4.969.807,8.771,8.771,0,0,1-1.931-.2,6.13,6.13,0,0,1-1.77-.69,5.655,5.655,0,0,1-2.45-3.145,7.693,7.693,0,0,1-.208-4.029,7.335,7.335,0,0,1,.261-.907c-.32.017-.639.026-.95.026a14.97,14.97,0,0,1-4.422-.637,8.5,8.5,0,0,1-2.495-1.214,5.737,5.737,0,0,1-1.8-2.08A6.261,6.261,0,0,1,0,89.037,9.908,9.908,0,0,1,.635,85.99a24.487,24.487,0,0,1,5.25-8.373,35.323,35.323,0,0,1,7.586-5.99l.463-.277a34.427,34.427,0,0,1,3.888-2.081,10.657,10.657,0,0,1,4.217-1.011c.092,0,.185,0,.276.005a1.032,1.032,0,0,1-.02-.11,65.794,65.794,0,0,1-.438-7.488V60.66c-.016-.773-.032-1.571-.057-2.354s-.051-1.586-.076-2.356c-.072-2.193-.146-4.461-.2-6.694a101.446,101.446,0,0,1,.593-15.381,51.491,51.491,0,0,1,1.3-6.679A38.242,38.242,0,0,1,25.737,20.8a29.1,29.1,0,0,1,3.814-6.027,31.005,31.005,0,0,1,5.136-4.954A42.324,42.324,0,0,1,41.12,5.783a50.059,50.059,0,0,1,7.1-2.952,56.56,56.56,0,0,1,7.47-1.9A59.162,59.162,0,0,1,63.233.037C63.692.012,64.181,0,64.687,0A68.043,68.043,0,0,1,80.843,2.463a78.491,78.491,0,0,1,8.215,2.628,41.117,41.117,0,0,1,6.626,3.16,25.319,25.319,0,0,1,7.321,6.831,29.615,29.615,0,0,1,3.962,7.786,32.884,32.884,0,0,1,1.539,6.848,15.711,15.711,0,0,1,.052,4.019,2.872,2.872,0,0,1-.482,1.169,1.154,1.154,0,0,1-.922.516,1.2,1.2,0,0,1-.365-.06,128.864,128.864,0,0,1,.836,14.786v0c.016.962.032,1.958.053,3.033l.094,4.643c.058,2.936.113,6.093.127,9.289a.626.626,0,0,1,.219-.041.551.551,0,0,1,.52.368.058.058,0,0,1,0,.056.081.081,0,0,1-.066.032.075.075,0,0,1-.049-.017.4.4,0,0,0-.211-.121.061.061,0,0,0-.059.039,1.61,1.61,0,0,0,.3.921,4.706,4.706,0,0,0,.675.592h0c.119.092.231.179.332.265l.835.722.835.72c.875.754,2.021,1.76,3.128,2.861l.273.275c.416.422.866.85,1.3,1.264l0,0a17.284,17.284,0,0,1,3.969,4.8,6.131,6.131,0,0,1,.56,3.54,5.719,5.719,0,0,1-1.617,3.19,7.685,7.685,0,0,1-2.265,1.557,8.373,8.373,0,0,1,1.217,4.073,7.37,7.37,0,0,1-1.064,4.126,7.551,7.551,0,0,1-2.956,2.717,8.445,8.445,0,0,1-3.888.949c-.193,0-.388-.007-.58-.02a4.366,4.366,0,0,1-.407,1.044,4.041,4.041,0,0,1-.905,1.134,4.14,4.14,0,0,1-1.154.7,7.241,7.241,0,0,1-2.734.446c-.245,0-.5-.007-.774-.021l-.084,0A31.857,31.857,0,0,1,89.492,99.43c-.056,0-.114.006-.17.006a2.874,2.874,0,0,1-1.874-.742,3.227,3.227,0,0,1-1.03-1.7c-.733-.027-1.5-.087-2.346-.183a24.479,24.479,0,0,1-3.528-.64,13.635,13.635,0,0,1-3.319-1.332.341.341,0,0,1-.163-.392.369.369,0,0,1,.347-.284c.37-.008.772-.013,1.229-.013s.9,0,1.338.008H80c.444,0,.9.008,1.356.008A33.913,33.913,0,0,0,85,94.009a26.947,26.947,0,0,0,6.948-1.755A16.778,16.778,0,0,0,101,84.364c2-4,2.165-8.651,2.322-13.146v0c.029-.82.058-1.668.1-2.485.248-4.951.571-10.4,1.017-17.146l.183-2.739a119.277,119.277,0,0,1,1.6-13.734c-.08.007-.167.011-.259.011a13.677,13.677,0,0,1-3.629-.749,33.7,33.7,0,0,1-5.137-2.146,28.567,28.567,0,0,1-5.2-3.39,15.337,15.337,0,0,1-3.81-4.483,11.7,11.7,0,0,1-1.338,2.173,13.647,13.647,0,0,1-1.764,1.863,21.026,21.026,0,0,1-4.579,2.98,77.465,77.465,0,0,1-11.77,4.247c-5.545,1.686-11.278,3.429-15.7,6.334a16.535,16.535,0,0,0-8,13.36.124.124,0,0,1-.133.119.188.188,0,0,1-.192-.164l-.029-.51c-.013-.239-.026-.494-.035-.746l-.007-.246-.546.007a.064.064,0,0,1-.064.064.06.06,0,0,1-.057-.044A1.334,1.334,0,0,0,43.223,53a2.9,2.9,0,0,0-1.186-.213,7.419,7.419,0,0,0-2.107.358,9.6,9.6,0,0,0-2.682,1.389,8.058,8.058,0,0,0-3.322,4.8c-.831,3.966,1.815,7.8,4.859,9.532.852.486,1.754.906,2.625,1.313A26.09,26.09,0,0,1,45,72.095a25.523,25.523,0,0,1,4.719,4.06,28.218,28.218,0,0,1,3.652,5.11,27.746,27.746,0,0,1,2.465,5.886,23.673,23.673,0,0,1,.943,6.252,19.455,19.455,0,0,1-.915,6.21,2.017,2.017,0,0,1-1.422,1.42,5.09,5.09,0,0,1-.719.055,2.947,2.947,0,0,1-1.259-.251,2.211,2.211,0,0,1-.972-.9,2.482,2.482,0,0,1-.345-1.4,5.729,5.729,0,0,1-1.282,2.169,5.879,5.879,0,0,1-1.949,1.447,5.764,5.764,0,0,1-2.276.464,6.036,6.036,0,0,1-3.2-.921l-.2.15a22.983,22.983,0,0,1-3.777,2.337A9.887,9.887,0,0,1,34.233,105.207ZM44.889,65.468a1.2,1.2,0,0,1-1.141-.779l-.19-.439a9.449,9.449,0,0,0-2.72-3.99,4.029,4.029,0,0,0-2.345-.8,2.974,2.974,0,0,0-2.259.984.1.1,0,0,1-.074.036.12.12,0,0,1-.1-.061.11.11,0,0,1,0-.112A3.415,3.415,0,0,1,37.6,58.831a4.8,4.8,0,0,1,2.112-.463,5.593,5.593,0,0,1,.935.079A6.226,6.226,0,0,1,43.793,60.1a21.2,21.2,0,0,1,2.38,2.718,1.536,1.536,0,0,1,.253,1.676,1.762,1.762,0,0,1-.647.7A1.713,1.713,0,0,1,44.889,65.468Z" transform="translate(-16.807 13.69)"/>
      </g>
      <g id="FACE" transform="translate(35.237 41.069)">
        <path id="_Ink-3" data-name="ðŸ– Ink" d="M30.994,36.036c-.908,0-1.7-.031-2.423-.1-.923-.082-1.871-.214-2.817-.392l-.55-.107a1.808,1.808,0,0,1-1.4-.8.355.355,0,0,1-.012-.328c.131-.289.632-.585,1.49-.88.7-.243,1.494-.43,1.918-.531.145-.035.25-.059.307-.075,1.008-.287,2.05-.522,3.057-.749l.3-.067.153-.035.334-.08a7.338,7.338,0,0,1,1.714-.281,2.621,2.621,0,0,1,1.494.438,2,2,0,0,1,.918,1.4,2.046,2.046,0,0,1-.527,1.626c-.817.937-1.888.946-3.022.955h0l-.222,0h-.076C31.406,36.034,31.194,36.036,30.994,36.036Zm-3-13.759a12.667,12.667,0,0,1-4.221-.717,1.83,1.83,0,0,1-.933-.78,1.28,1.28,0,0,1-.107-1.1c.04-.111.09-.222.138-.326a1.338,1.338,0,0,1,.725-.647,1.677,1.677,0,0,1,.623-.123,1.3,1.3,0,0,1,.389.056l.125.039.032.01a14.811,14.811,0,0,0,4.17.851c.141,0,.28,0,.411-.015a2.415,2.415,0,0,0,2.2-1.258A1.417,1.417,0,0,0,31.5,16.96a4.594,4.594,0,0,0-1.414-1.525,6.544,6.544,0,0,0-2.243-.942l-.031-.009c-.294-.082-.6-.166-.905-.267a.537.537,0,0,1-.255-.182.6.6,0,0,1-.121-.287.5.5,0,0,1,.052-.3.469.469,0,0,1,.228-.207,3.948,3.948,0,0,1,1.62-.328,6.077,6.077,0,0,1,3.442,1.181,5.637,5.637,0,0,1,1.774,2.021,3.708,3.708,0,0,1,.372,2.328,4.076,4.076,0,0,1-1.082,2.18,5.134,5.134,0,0,1-2.275,1.3A9.445,9.445,0,0,1,27.991,22.277ZM11.4,12.567a3.684,3.684,0,0,1-.78-.083A4.716,4.716,0,0,1,8.4,11.293,5.313,5.313,0,0,1,7.027,9.178L7,9.094a6.63,6.63,0,0,1-.305-2.122A2.959,2.959,0,0,1,6.908,5.9a1.287,1.287,0,0,1,.657-.7.3.3,0,0,1,.122-.027c.363,0,.652.681.76.973l.185.506A5.748,5.748,0,0,0,9.916,8.9a2.1,2.1,0,0,0,1.3.631.981.981,0,0,0,.7-.287,1.466,1.466,0,0,0,.375-1.279,3.707,3.707,0,0,1,.011-.607,2.085,2.085,0,0,1,.637-1.2,1.793,1.793,0,0,1,1.2-.545,1.322,1.322,0,0,1,1.05.552,3.3,3.3,0,0,1,.732,1.857,3.7,3.7,0,0,1-.39,1.847,4.978,4.978,0,0,1-1.7,1.916A4.41,4.41,0,0,1,11.4,12.567Zm25.5-.418a3.642,3.642,0,0,1-1.566-.34,3.8,3.8,0,0,1-1.2-.906,5.833,5.833,0,0,1-1.238-2.409,7.631,7.631,0,0,1-.214-2.718.441.441,0,0,1,.431-.421.465.465,0,0,1,.426.306l.04.1c.092.235.184.507.282.794a9.972,9.972,0,0,0,.951,2.207,2.11,2.11,0,0,0,1.807,1.123h0a.967.967,0,0,0,.855-.431,2.674,2.674,0,0,0,.027-2.2l-.016-.037a1.712,1.712,0,0,1,.06-1.712,2,2,0,0,1,1.647-.847,1.543,1.543,0,0,1,.944.294,1.394,1.394,0,0,1,.52.933l.021.152a8.482,8.482,0,0,1-.051,2.573,5.016,5.016,0,0,1-.977,2.3,3.315,3.315,0,0,1-2.4,1.228C37.131,12.144,37.013,12.148,36.9,12.148ZM12.864,3.5c-3.678,0-8.04-.05-12.5-.425A.365.365,0,0,1,0,2.684a.355.355,0,0,1,.344-.363H.37C6.137,1.5,12.056,1.2,17.78.9h.014L19.96.784C25.165.5,30.465.326,35.59.153,37.035.1,38.529.053,40,0h.066a1.348,1.348,0,0,1,1.057.455,1.573,1.573,0,0,1,.361,1.013,1.662,1.662,0,0,1-.364,1.081A1.447,1.447,0,0,1,40,3.065c-1.522.036-3.071.075-4.568.112h-.006c-5,.126-10.165.256-15.247.283l-1.2.007-1.238.009C16.143,3.488,14.49,3.5,12.864,3.5Z" transform="translate(9.529 17.885)"/>
      </g>
      <g id="MASK" transform="translate(4.876 62.045)">
        <path id="_Color" data-name="ðŸŽ¨ Color" d="M79.075,11.512C78.657,6.238,71.983,4,68.659,3.342,57.59.75,48.173,7.4,34.974,7.537a36.344,36.344,0,0,1-6.913-.669C19.072,4.833,10.093,2.669,1.273,0a1.789,1.789,0,0,0-.79,2.949C8.93,5.934,21.853,8.607,28.678,8.911A29.838,29.838,0,0,1,17.466,31.384c10.222,11.262,34.06,14.966,48.09,9.054,6.9-2.064,14.184-20.536,13.519-28.926" transform="translate(8.077 4.023)" fill="#fff"/>
        <path id="_Ink-4" data-name="ðŸ– Ink" d="M54.226,46.936h0l-3.495-.252c-5.926-.435-12.19-1-17.909-2.723a37.357,37.357,0,0,1-4.172-1.52,29.819,29.819,0,0,1-3.9-2.046,25.78,25.78,0,0,1-3.546-2.668,24.79,24.79,0,0,1-3.118-3.386l-.06.051a1.9,1.9,0,0,1-.846-1.488,2.2,2.2,0,0,1,.738-1.789l.029.046c.014-.022.029-.045.044-.066l.015-.022L18,31.033a15.568,15.568,0,0,1,1.19-1.089l0,.007a26.859,26.859,0,0,0,9.747-19.516,1.431,1.431,0,0,1-.341.029c-1.806,0-8.917-1.293-15.528-2.824C9.427,6.8,6.323,5.973,4.09,5.257,1.446,4.408.07,3.731,0,3.244c-.03-.214.2-.391.681-.527C5.264,4.259,9.325,5.442,13.1,6.333a.179.179,0,0,1,.086-.022.134.134,0,0,1,.124.071A122.932,122.932,0,0,0,28.943,8.945c-.005-.237-.015-.49-.028-.75-4.221-.819-8.763-1.888-13.883-3.269-4.6-1.24-9.11-2.576-13.709-3.95C1.21.972,1.141.868,1.145.7A.723.723,0,0,1,1.859,0a.9.9,0,0,1,.162.015c2.99.7,6.135,1.552,9.465,2.458,9.007,2.45,18.321,4.983,26.573,4.983h.124c4.063-.133,7.984-1.317,11.777-2.462,2-.6,4.073-1.23,6.139-1.692a29.267,29.267,0,0,1,6.319-.781c1.64.031,3.1.116,4.45.258a31.5,31.5,0,0,1,4.583.8,19.1,19.1,0,0,1,4.265,1.627,12.487,12.487,0,0,1,3.5,2.736,29.565,29.565,0,0,1,.636,14.505A34.721,34.721,0,0,1,77.632,29.6a33.635,33.635,0,0,1-3.689,6.471,30.029,30.029,0,0,1-3.89,4.376,26.138,26.138,0,0,1-4.639,3.424,23.192,23.192,0,0,1-5.3,2.241A22.376,22.376,0,0,1,54.226,46.936ZM29.746,8.34a18.769,18.769,0,0,1,.271,6.518,23.756,23.756,0,0,1-1.78,6.364,29.1,29.1,0,0,1-3.362,5.8A30.2,30.2,0,0,1,20.4,31.865c9.465,8.162,13.617,9.384,25.915,10.7l1.618.192c2.362.279,4.874.555,7.329.6C68.058,42.422,77.5,29.169,78.918,17.422l.008-.328c.064-3.014-.063-6.187-1.417-8.975a1.071,1.071,0,0,1-.588-.458A29.408,29.408,0,0,0,63.5,4.245c-4.611,0-8.712,1.133-13.054,2.332l-.239.066c-2.01.555-4.287,1.184-6.648,1.649a36.881,36.881,0,0,1-7.18.749,31.643,31.643,0,0,1-6.631-.7Zm12.4,11.389a15.628,15.628,0,0,1-2.749-.246,16.9,16.9,0,0,1-2.7-.725.152.152,0,0,1-.091-.17.108.108,0,0,1,.109-.1h.018a17.969,17.969,0,0,0,2.108.123,19.114,19.114,0,0,0,5-.672,13.92,13.92,0,0,0,3.706-1.49,18.415,18.415,0,0,1,2.72-1.23.816.816,0,0,1,.178-.02.914.914,0,0,1,.781.466.717.717,0,0,1-.032.755,6.218,6.218,0,0,1-3.064,2.217,16.992,16.992,0,0,1-3.77.929A15.891,15.891,0,0,1,42.142,19.73Zm34.412-1.641a10.572,10.572,0,0,1-4.749-1.281A11.169,11.169,0,0,1,69.74,15.43a7.311,7.311,0,0,1-1.485-1.672.072.072,0,0,1,.018-.054.121.121,0,0,1,.089-.027,7.528,7.528,0,0,1,1.833.824c.118.065.212.116.261.141a15.607,15.607,0,0,0,5.61,1.683c.657.109,1.336.222,2,.363a.637.637,0,0,1,0,1.218A5.9,5.9,0,0,1,76.554,18.089Z" transform="translate(7.313 3.312)"/>
      </g>
    </g>
  </g>
</svg>
