<svg xmlns="http://www.w3.org/2000/svg" width="420.064" height="569.06" viewBox="0 0 420.064 569.06">
  <g id="sit-mask-2" transform="matrix(0.996, 0.087, -0.087, 0.996, 64.423, 0)">
    <g id="BODY" transform="translate(-17.557 137.592)">
      <path id="_Skin" data-name="âœ‹ Skin" d="M288.149,322.909c-6.433-9.124-19.994-10.635-28.706-17.029-4.589-3.507-9.446-5.828-13.012-10.55,5.679-6.65-1.344-22.237-2.789-31.239-5.727-23.568-11.023-47.513-17.834-71.053,11.8,3.662,8.728-18.266,7.042-23.336-.117-.7-.983-.836-1.514-1.056.148-1,.557-1.214-.683-1.489-.415-5.966,1.279-12.647-1.782-17.917-3.45-5.753-11.7-10.567-18.51-10.646-4.786-18.945-5.663-27.881-28.34-19.85a7.35,7.35,0,0,0-.216-5.4c-3.41-10.27-7.7-21.505-11.422-31.913-4.295-11.977-8.736-24.362-14.48-35.87-4-7.308-16.516-9.261-25-8.052-2.024-3.559-7.125-13.4-13.578-11.126q-.073-4.453-.133-8.906c-.033-2.581.239-5.227-.756-7.677-1.055-2.6-3.2-3.966-5.724-4.959-7.634-2.513-16.4-6.551-24.461-4.053-7.039,3.2-6.219,15.241-9.625,21.786-4.773-7.054-12.914-2.324-14.636,5.241-19.609,7.79-36.463-1.06-37.718,29.522,1.081,5.575,2,10.8,1.488,16.433l-.593.06a389.53,389.53,0,0,0-5.736,86.34c-.243,11.889-4.59,22.986-8.794,33.716-3.092,7.889-6.285,16.047-7.8,24.417-1.678,6.971-7.848,40.493,5.871,29.364.526,38.137,34.623,43.02,65.328,34.6,32.6-6.754,69.291-4.812,89.635-37.487,6.9,11.771,9.282,19.039,11.015,31.348,1.9,9.017,4.662,19.258,9.736,25.222-4.369,7.839-6.509,17.389-6.3,23.612.083,2.445-1.039,3.577.573,5.1,7.734,7.29,24.991,7.372,38.112,10.618,9,1.141,41.531,5.508,46.5,2.661,3.467.966-.565-8.028,2.9-8.22,1.186.009,1.345-1.5,2.563-1.442,7.777.353,24.543,2.632,20.49-3.618Z" transform="translate(38.8 -11.664)" fill="#d08b5b"/>
      <path id="_Shoes" data-name="ðŸ‘Ÿ Shoes" d="M76.1,51.332C56.408,50.588,29.14,45.068,9.962,40.921,4.982,39.988,1.44,37.395.4,35.193c-.47-1-.32-2.8.134-4.9C.9,28.6-.174,26.723.025,24.907a27.713,27.713,0,0,1,2.952-8.319C4.785,13.532,6.023,5.735,6.158,5.817,8.564,7.28,11.292,7.915,14.1,8.7c.036.01.723,1.748.759,1.758l.037.1a8.807,8.807,0,0,0,2.971,4.03c1.32,1.175,2.866,1.157,4.528,1.368,4.128.525,6.794-1.508,10.71-4.21l.29-.008c.435-.01.884-.009,1.34-.008,2.3,0,4.785.028,6.561-1.41q.072-.058.14-.118.064.061.134.119a2.333,2.333,0,0,0,.269.19c.394-.233.782-.468,1.166-.7,1.3-.791,4.873-2.783,4.9-2.729C48.987,8.9,66.555-1.3,68.079.14,70.03,1.987,74.456,9.017,81,12.05c11.577,5.37,19.6,9.258,25.666,13.794s2.87,7.3,3.468,7.56c1.517.648.942,5.352.867,6.048-.066.616-8.451,1.659-13.656,1.512-5.9-.166-8.727-1.529-9.259-.735-2.124,2.888-.712,9.159-.712,9.159A15.908,15.908,0,0,1,76.1,51.332Z" transform="translate(216.958 281.956)" fill="#fff"/>
      <path id="_Jacket" data-name="ðŸ§¥ Jacket" d="M2.025,226.964c-.45-.884-4.2-7.171-.2-26.084,4.021-19.022,15.526-45.043,16.04-49.248-.018-4.691.179-15.022.107-19.717l.476-9.773.433-8.834c2.685-54.553,5.986-84.174,6.434-85.838,1.63-6.051,5.316-11.143,12.081-13.648l.206-.075a48.577,48.577,0,0,1,6.635-1.81l1.4-.3L46,11.557l.485-.112.225-.053c3.249-.78,9.41-1.039,13.57-3.7,3.273-2.093,4.168-5.4,5.995-6.547A8.594,8.594,0,0,1,70.378,0h.114a7.254,7.254,0,0,1,1.9.259,8.034,8.034,0,0,1,1.893,1.57q.138.155.265.311c-.051.121-.1.242-.149.362l-.1.243a7.686,7.686,0,0,0-.613,2.24l-.076,1.152-.633-.445a67.45,67.45,0,0,0,3.973,8.67l1.368,2.6L83,25.875c1.067,2.028,2.057,3.9,2.7,5.094l.134.263.275.549a4.018,4.018,0,0,0,1.533,1.873c.073.041.147.077.222.11q.044.134.084.27c.4,1.321,20.951,75.779,20.983,75.808.371.335,30.127,8.069,37.253,9.542.556.115,1.113.238,1.671.362a10.077,10.077,0,0,0,2,.148h.135c1.858-.009,4.2-.209,5.682-.23q.184-.468.361-.94l.137-.368a4.062,4.062,0,0,1,.431-.051c.061,0,.123-.006.186-.007h.095c2.636.025,6.41,2.566,8.85,4.314l.938.676.185.132.543.381-.248.5c-3.721,7.48-7.037,15.148-10.094,22.919h0q-.873,2.2-1.712,4.421l-.418,1.108-1.019-.176-.392-.069c-1.435-.258-70.621-.222-70.621-.222L2.63,227.929A6.647,6.647,0,0,1,2.025,226.964ZM178.7,113.4c-2.582-.028-10.3-14.043-13.006-14.04-5.783.006-21.026,0-21.026,0S129.839,62.8,125.947,50.266C119.805,30.479,120.1,20.225,119.9,19.5a1.991,1.991,0,0,0-.18-.776l-.088-.181q-.569-2.024-1.149-4.046l-.389-1.347-.827.145c-.04-.108-.079-.216-.117-.326a38.848,38.848,0,0,1-1.537-5.951q-.054-.3-.1-.609c.2-.055.408-.1.629-.141a6.547,6.547,0,0,1,1-.1l.118,0c.157,0,.311,0,.465.016l.138.012.12.062c3.193,1.69,6.087,6.352,8.493,11.731l3.124-.371,1.219-.138c.661-.073,1.221-.129,1.539-.15l.143-.008.487.05c7.438.779,17.031,2.19,20.968,9.077,3.94,9.513,26.266,70.828,27.118,71.678a.673.673,0,0,0,.1.083l1.008.669-2.851.467c-.3.124,2.143,14.053-.612,14.053Z" transform="translate(40.875 7.344)" fill="#e86bbb"/>
      <path id="_Top" data-name="ðŸ‘• Top" d="M27.147,64.268a101.57,101.57,0,0,1-10.271-2.08C16.437,61.314,13.1,48.41,13.1,48.41q-2.764-9.79-5.466-19.6C5.159,19.885.043.666,0,.514A52.986,52.986,0,0,0,15.556,3.527C23.054,3.612,33.641.03,33.681,0c.028.1,19.02,52.076,18.927,52.1a88.152,88.152,0,0,0-13.487,5.274A106.436,106.436,0,0,0,27.147,64.268Z" transform="translate(132.923 54.577)" fill="#fff"/>
      <path id="_Ink" data-name="ðŸ– Ink" d="M254.257,341.643h0c-3.19,0-6.93-.211-11.115-.627-3.589-.356-7.616-.875-11.97-1.54-7.968-1.219-15.6-2.7-21.175-3.789h-.006c-1.825-.355-3.4-.662-4.706-.9-6.2-1.378-12.8-2.894-19.231-4.945a12.427,12.427,0,0,1-4.007-1.765,8.633,8.633,0,0,1-2.942-3.153,5.241,5.241,0,0,1-.575-2.137,5.305,5.305,0,0,1,.464-2.361,11.7,11.7,0,0,1-.792-2.03,11.135,11.135,0,0,1-.374-2.008,13.209,13.209,0,0,1,.265-3.962A38.241,38.241,0,0,1,181,304.637c.657-1.436,1.335-2.92,1.885-4.381a20.313,20.313,0,0,0,1.183-4.4,19.071,19.071,0,0,1-2.715-2.356c-.039.171-.076.341-.11.506l-.023.109c-.064-.04-.13-.08-.194-.119h0a3.249,3.249,0,0,1-.63-.452c.126-.258.238-.483.344-.689l.007-.015,0-.008a13.05,13.05,0,0,1-1.882-2.733,19.217,19.217,0,0,1-1.272-3.12,52.911,52.911,0,0,1-1.495-6.7h0c-.1-.544-.2-1.106-.3-1.651-.392-2.227-.783-4.594-1.161-6.884v0c-.613-3.714-1.192-7.221-1.637-9.256-.335-1.518-.758-3.078-1.255-4.636-.472-1.477-1.027-3-1.651-4.536a.621.621,0,0,0-.042-.247c-3.6-9.527-6.9-19.34-10.091-28.829-1.977-5.881-4.021-11.962-6.117-17.914-1.664-4.726-3.223-8.971-4.767-12.976a.668.668,0,0,0-.647-.436.687.687,0,0,0-.567.27.526.526,0,0,0-.04.511c3.925,10.187,7.459,20.705,10.877,30.877,1.728,5.142,3.514,10.459,5.331,15.674.306.879.61,1.741.921,2.62l-.1-.181-.008-.014c-.057-.1-.115-.205-.175-.309a66.437,66.437,0,0,1-12.215,14.73,64.959,64.959,0,0,1-7.636,5.964,53.747,53.747,0,0,1-8.215,4.514,66.923,66.923,0,0,1-8.55,3.068c-2.721.782-5.587,1.444-8.759,2.026-5.9,1.081-12.01,1.711-17.921,2.32-4.981.513-10.132,1.044-15.181,1.844,4.308-3.207,8.5-6.724,12.549-10.124,1.585-1.331,3.225-2.706,4.848-4.044a.54.54,0,0,0,.161-.631.719.719,0,0,0-.634-.488.55.55,0,0,0-.315.1C97.9,265,92.778,268.2,87.821,271.284c-3.77,2.349-7.669,4.778-11.441,7.264l-.307.06c-.246.048-.5.1-.75.149-.419.1-.871.215-1.422.346-.619.2-1.255.4-1.89.592a13.4,13.4,0,0,1-3.627.63h-.134a98.375,98.375,0,0,1-18.494,1.925c-11.836,0-21.3-2.8-28.125-8.314a30.492,30.492,0,0,1-4.937-5.043,33.269,33.269,0,0,1-3.864-6.4,41.656,41.656,0,0,1-2.675-7.854,57.34,57.34,0,0,1-1.368-9.391,5.966,5.966,0,0,1-1.706.976,5.907,5.907,0,0,1-1.7.271A4.2,4.2,0,0,1,2.218,245.1,8.189,8.189,0,0,1,.409,241.5a13.639,13.639,0,0,1-.383-4.14c-.034-1.957.008-3.981.123-6.016.111-1.948.293-3.964.541-5.992A115.335,115.335,0,0,1,2.8,213.507c.368-2.032.836-4.085,1.429-6.274.529-1.951,1.145-3.967,1.886-6.163C7.5,196.99,9.1,192.9,10.65,188.938c2.084-5.319,4.239-10.82,5.858-16.334a76.844,76.844,0,0,0,1.991-8.366,55.991,55.991,0,0,0,.87-8.613c-.3-7.591-.413-15.2-.324-22.608.092-7.6.395-15.2.9-22.59.518-7.574,1.263-15.142,2.215-22.493.974-7.525,2.192-15.034,3.62-22.317a65.27,65.27,0,0,1-1.245-7.241,50.381,50.381,0,0,1-.308-7.03,40.246,40.246,0,0,1,.755-6.75,34.465,34.465,0,0,1,1.944-6.4,24.675,24.675,0,0,1,2-3.437,19.374,19.374,0,0,1,2.255-2.68,17.638,17.638,0,0,1,5.16-3.525,22.655,22.655,0,0,1,2.843-1.063c.916-.278,1.89-.521,2.977-.742,2.022-.412,4.067-.676,6.231-.955,4.576-.591,9.308-1.2,13.73-3.306a16.034,16.034,0,0,1,2.764-5.441,9.915,9.915,0,0,1,2.2-2,9.655,9.655,0,0,1,2.895-1.275,9.32,9.32,0,0,1,2.008-.221,7.758,7.758,0,0,1,2.945.547,5.8,5.8,0,0,1,2.385,1.758c.035-.093.074-.2.117-.317.257-.724.517-1.461.767-2.175l.008-.022A109.729,109.729,0,0,1,83.5.143.257.257,0,0,1,83.741,0a.334.334,0,0,1,.239.1.248.248,0,0,1,.069.19A109.778,109.778,0,0,1,82,14.347l0,.018c-.157.826-.32,1.68-.476,2.52-.062.327-.111.679-.163,1.053h0a12.162,12.162,0,0,1-.516,2.465,3.024,3.024,0,0,1-1.465,1.8,2.334,2.334,0,0,1-.989.255c1.575,2.4,3.406,5.73,4.743,8.159.864,1.57,1.488,2.7,1.684,2.936,2.358,4.132,4.3,7.572,6.095,10.826.079.137.164.279.239.405l.006.011c.066.111.133.225.2.338,1.928,2.644,2.516,5.675,3.139,8.885.182.937.369,1.9.594,2.874.415,1.423.8,2.743,1.173,4.037,2.28.673,4.186,1.223,6.23,1.652a43.681,43.681,0,0,0,8.744.889,42.029,42.029,0,0,0,7.08-.6,39.6,39.6,0,0,0,6.87-1.819,2.591,2.591,0,0,1,.941-.205c-1.245-4.471-2.223-8.5-2.992-12.315a112.6,112.6,0,0,1-1.844-12.512,1.859,1.859,0,0,1-1.274-.924A30.286,30.286,0,0,1,116.1,21.84a29.125,29.125,0,0,1,2.38-13.593.248.248,0,0,1,.239-.142.346.346,0,0,1,.253.108.228.228,0,0,1,.058.183,44.746,44.746,0,0,0,.115,12.135,5.71,5.71,0,0,1,1.311-.154,6.179,6.179,0,0,1,1.892.308,8.455,8.455,0,0,1,1.805.845,15.41,15.41,0,0,1,3.285,2.827,31.633,31.633,0,0,1,2.742,3.557c.865,1.285,1.6,2.522,2.07,3.342.108.194.2.371.293.54a34.168,34.168,0,0,1,3.935-.215,51.279,51.279,0,0,1,5.139.277,28.639,28.639,0,0,1,4.717.781,23.508,23.508,0,0,1,4.5,1.631,18.378,18.378,0,0,1,3.955,2.581,15.409,15.409,0,0,1,3.094,3.632c1.39,2.783,2.73,5.66,4.1,8.8,1.218,2.794,2.43,5.731,3.7,8.98,2.367,6.032,4.594,12.243,6.748,18.25l0,.005c1.825,5.088,3.711,10.35,5.671,15.469,1.944,5.4,3.7,10.425,5.376,15.347.115.368.247.739.375,1.1a15.364,15.364,0,0,1,.617,2.013,5.048,5.048,0,0,1,.033,2.089,36.9,36.9,0,0,1,11.8-2.287,16.119,16.119,0,0,1,4.305.524,8.337,8.337,0,0,1,3.33,1.722,11.766,11.766,0,0,1,2.014,2.086,15.935,15.935,0,0,1,1.522,2.476,29.916,29.916,0,0,1,2.006,5.465c.395,1.477.78,2.984,1.153,4.441v0c.508,1.984,1.033,4.036,1.589,6.044a19.826,19.826,0,0,1,5.254,1.054,27.363,27.363,0,0,1,5.258,2.427,23.162,23.162,0,0,1,8.094,7.653,13.516,13.516,0,0,1,1.283,3.027,17.834,17.834,0,0,1,.6,3.165,47.354,47.354,0,0,1,.064,6.544h0c-.059,1.626-.12,3.307-.049,4.925a1.165,1.165,0,0,1,.611.432,1.494,1.494,0,0,1,.264,1.171,2.1,2.1,0,0,1,1.3,1.417,34.37,34.37,0,0,1,1.076,4.646,47.261,47.261,0,0,1,.609,5.963c.123,3.4-.12,8.118-1.975,11.337a7.549,7.549,0,0,1-1.8,2.152,6.106,6.106,0,0,1-2.518,1.2,4.294,4.294,0,0,1-.547.034,5.68,5.68,0,0,1-1.322-.168c.214.692.394,1.327.525,1.791.043.152.084.3.116.408,2.293,8.391,4.674,17.6,7.281,28.157,2.326,9.42,4.61,19.005,6.819,28.275l.007.03c.834,3.5,1.7,7.123,2.55,10.683.306,1.873.97,4.351,1.739,7.221v0a116.449,116.449,0,0,1,2.778,12.083l.018.137c.493,3.844,1.051,8.2-1.155,11.6a12.032,12.032,0,0,1,3.284,1.945,38.475,38.475,0,0,1,2.867,2.642,30.167,30.167,0,0,0,3.662,3.241,16.264,16.264,0,0,0,2.495,1.988,34.8,34.8,0,0,0,3.186,1.855c2.309,1.2,4.893,2.335,7.628,3.533,4.5,1.969,9.151,4.005,12.67,6.457a21.852,21.852,0,0,1,2.408,1.922,13.574,13.574,0,0,1,1.864,2.112,9.247,9.247,0,0,1,1.2,2.334,7.952,7.952,0,0,1,.418,2.589,1.537,1.537,0,0,1,.811,1.107c.67,3.217.47,5.507-.592,6.808a3.211,3.211,0,0,1-1.251.93,4.9,4.9,0,0,1-1.912.343l-.156,0a81.481,81.481,0,0,1-9.48.716,28.381,28.381,0,0,1-8.828-1.234,12.022,12.022,0,0,1-2.31,3.179.918.918,0,0,1,.719.331,2.474,2.474,0,0,1,.311,1.673,19.5,19.5,0,0,1-.324,2.245,9.145,9.145,0,0,0-.246,2.007,9.645,9.645,0,0,1-2.337,1.176,19.2,19.2,0,0,1-3.063.79A45.524,45.524,0,0,1,254.257,341.643Zm-74.475-19.969a4.938,4.938,0,0,0,.4,1.638,5.393,5.393,0,0,0,.889,1.373,7.583,7.583,0,0,0,1.276,1.139,11.748,11.748,0,0,0,1.566.937,34.938,34.938,0,0,0,7.239,2.344c.6.145,1.161.282,1.669.417,4.5,1.192,9.1,2.3,13.68,3.3,4.548.991,9.2,1.9,13.813,2.7,4.59.793,9.272,1.5,13.918,2.1,4.619.6,9.328,1.1,13.994,1.506,2.294.187,4.762.359,7.256.359a41.409,41.409,0,0,0,4.941-.272,28.708,28.708,0,0,0,4.847-.984c.086-1.231.19-2.686.305-4.144a15.539,15.539,0,0,1-3.955,1.848,14.839,14.839,0,0,1-4.338.659,13.409,13.409,0,0,1-3.661-.5c-1.6.076-3.26.115-4.923.115-3.554,0-7.182-.168-11.091-.515-3.479-.309-7.1-.752-11.068-1.356-7.367-1.121-14.8-2.63-21.983-4.09l-.015,0c-2.743-.557-5.579-1.133-8.355-1.676-.888-.2-1.782-.379-2.728-.568h0a45.617,45.617,0,0,1-7.52-1.952,16.325,16.325,0,0,1-3.364-1.737A11.96,11.96,0,0,1,179.782,321.674ZM249.867,331.8a18.65,18.65,0,0,1,4.06.577c.8.176,1.636.357,2.492.473.332.027.67.041,1.006.041a11.768,11.768,0,0,0,4.564-.9,9.387,9.387,0,0,0,2.006-1.153,8.107,8.107,0,0,0,1.635-1.652,9.556,9.556,0,0,0,1.586-3.786,6.434,6.434,0,0,0-.328-3.312,7.52,7.52,0,0,0-1.286-2.161,10.639,10.639,0,0,0-1.984-1.811,16.763,16.763,0,0,0-5.348-2.44c-2.08-.794-4.212-1.509-6.469-2.266h0a85.615,85.615,0,0,1-13.4-5.343,30.569,30.569,0,0,1-5.79-3.96,23.7,23.7,0,0,1-2.461-2.512,22.16,22.16,0,0,1-2.093-2.947A32.223,32.223,0,0,0,224.1,300.8c-.415.252-.844.512-1.279.767a2.614,2.614,0,0,1-.408-.273,6.317,6.317,0,0,1-2.957,1.25,19.475,19.475,0,0,1-3.349.21h-.783c-.353,0-.768,0-1.168.015a30.627,30.627,0,0,1-2.764,1.693,25.991,25.991,0,0,1-2.928,1.363,16.5,16.5,0,0,1-5.917,1.239,8.94,8.94,0,0,1-5.272-1.565,9.064,9.064,0,0,1-2.127-2.142,13.193,13.193,0,0,1-1.643-3.213,37.479,37.479,0,0,1-4.151-1.412,27.671,27.671,0,0,1-3.847-1.925,15.615,15.615,0,0,1-.3,5.289c-.367,1.794-.934,3.608-1.482,5.362-1.324,4.235-2.574,8.236-.788,11.193,1.246,2.063,3.878,3.445,8.047,4.225,9.8,2.118,19.376,4.152,28.89,5.749,5.2.873,9.965,1.55,14.575,2.07,5.148.581,9.951.95,14.682,1.129C249.374,331.808,249.621,331.8,249.867,331.8Zm38.484-7.754c-4.6,1.591-9.62,2.129-14.471,2.649-1.168.125-2.375.255-3.55.4a12.024,12.024,0,0,1-.468,1.485c2-.166,4.038-.235,6.012-.3,1.884-.064,3.832-.13,5.74-.28a42.956,42.956,0,0,0,5.688-.79c.063-.012.172-.024.3-.037.409-.044,1.028-.111,1.161-.282a.045.045,0,0,1-.032.022c-.089,0-.1-.6-.1-.82,0-.048,0-.078,0-.091A13.423,13.423,0,0,0,288.351,324.045ZM232.28,297.072a8.05,8.05,0,0,0-2.477.56h0c-.318.107-.647.218-.963.307-.018.054-.033.1-.047.132,7.214,7.12,16.917,10.237,26.3,13.25l.008,0c1.063.341,2.162.694,3.235,1.046a40.337,40.337,0,0,1,4.176,1.556,20.144,20.144,0,0,1,3.9,2.223,12.885,12.885,0,0,1,1.63,1.436,10.047,10.047,0,0,1,1.3,1.692,8.836,8.836,0,0,1,.892,1.978,9.3,9.3,0,0,1,.4,2.294c4.2-.322,8.349-.79,12.329-1.392,3.013-.044,4.7-.654,5-1.812.328-1.247-1.021-2.876-2.211-4.022a24.405,24.405,0,0,0-2.434-2.029,27.582,27.582,0,0,0-2.44-1.609,56.174,56.174,0,0,0-5.533-3.015c-1.916-.925-3.918-1.8-5.855-2.654a85.849,85.849,0,0,1-11.734-5.877,31.671,31.671,0,0,1-5.057-3.945,25.364,25.364,0,0,1-2.18-2.4,23.992,23.992,0,0,1-1.892-2.749,4.539,4.539,0,0,0-.71-.215,16.308,16.308,0,0,1-2.978,2.46,19.076,19.076,0,0,1-3.451,1.751,22.2,22.2,0,0,1-3.737,1.077,24.244,24.244,0,0,1-3.838.439A2.8,2.8,0,0,0,232.28,297.072Zm-37.264,3.468h0a11.054,11.054,0,0,0,3.247,2.086,9.246,9.246,0,0,0,3.489.677,12.148,12.148,0,0,0,4.658-1.013c-2.09-.221-4.184-.477-6.223-.762C198.354,301.26,196.615,300.928,195.016,300.54ZM26.531,68.617h0c-.982,9.746-1.674,19.586-2.3,28.829-.319,3.771-.556,7.623-.725,11.776-.151,3.7-.243,7.555-.283,11.785-.074,7.857.05,15.847.17,23.574v.008c.082,5.291.167,10.761.188,16.137a74.991,74.991,0,0,1-1.355,7.671c-.542,2.379-1.2,4.831-2.024,7.5-1.523,4.953-3.375,9.912-5.166,14.708h0c-1.632,4.371-3.32,8.891-4.757,13.4-.774,2.428-1.415,4.658-1.961,6.819-.613,2.426-1.09,4.7-1.459,6.959-.506,2.518-.915,5.008-1.215,7.4-.318,2.534-.525,5.05-.617,7.476.012.8-.03,1.638-.07,2.45-.109,2.188-.222,4.451.673,6.315.006-.008.023-.03.043-.063a15.016,15.016,0,0,1,1.252-1.506v0c.288-.318.585-.648.838-.959s.532-.65.791-.97c3.072-3.784,6.053-7.749,8.936-11.584l0,0c2.547-3.388,5.181-6.892,7.868-10.257,3.014-3.775,5.777-6.974,8.448-9.778,5.117-4.787,10.686-9.283,16.071-13.631h0c5.492-4.434,11.171-9.019,16.371-13.914,2.8-2.634,5.24-5.146,7.462-7.678,1.2-1.371,2.356-2.766,3.424-4.146,1.121-1.447,2.188-2.927,3.172-4.4a24.635,24.635,0,0,1,3-3.711,32.033,32.033,0,0,1-4.793-3.11,34.665,34.665,0,0,1-3.566-3.277,48.191,48.191,0,0,1-3.139-3.666c-1.981-2.543-3.794-5.293-5.548-7.953v0c-.813-1.233-1.654-2.508-2.5-3.739-1.662-2.564-3.518-5.35-5.484-8.3-2.724-4.089-5.811-8.723-8.868-13.506-3.5-5.474-6.462-10.371-9.063-14.972-1.517-2.682-2.937-5.316-4.223-7.828-1.392-2.719-2.675-5.392-3.814-7.945-1.218-2.731-2.312-5.416-3.251-7.979-1-2.719-1.849-5.387-2.536-7.93ZM200.97,172.728a.759.759,0,0,0-.569.265.642.642,0,0,0-.137.547c1.507,8.1,3.562,16.22,5.549,24.071v0c1.436,5.674,2.922,11.541,4.188,17.356a.554.554,0,0,0,.567.465.744.744,0,0,0,.567-.266.623.623,0,0,0,.12-.544c-1.267-5.816-2.752-11.682-4.188-17.356v0c-1.987-7.851-4.043-15.968-5.549-24.071A.532.532,0,0,0,200.97,172.728ZM172.091,140.37c-.888,2.225-1.8,4.482-2.682,6.665l-.013.033c-2.022,5-4.112,10.177-6.053,15.312,8.752.222,18.091,1.547,27.123,2.828,1.468.208,2.986.424,4.461.628a30.592,30.592,0,0,1,6.834,1.458,36.6,36.6,0,0,1,6.281,2.815,57.55,57.55,0,0,1,11.069,8.365,81.037,81.037,0,0,0,6.817,5.508c.175.124.36.262.555.408l0,0a5.468,5.468,0,0,0,2.73,1.392,1.29,1.29,0,0,0,.825-.288,2.421,2.421,0,0,0,.674-.994c1.659-4.112,1.245-8.586.844-12.913l0-.017q-.033-.353-.065-.7c-.119-.85-.283-1.7-.442-2.529-.058-.3-.117-.608-.173-.914a6.741,6.741,0,0,1-1.035-2.062c-.109-.3-.222-.605-.352-.906a26.644,26.644,0,0,0-2.645-4.779,27.321,27.321,0,0,0-3.555-4.15,26.591,26.591,0,0,0-3.8-3.192,28,28,0,0,0-4.124-2.346,33.948,33.948,0,0,0-4.842-1.795,48.988,48.988,0,0,0-5.083-1.17c-3.453-.618-7.076-.965-10.58-1.3-1.22-.117-2.481-.237-3.718-.368a1.066,1.066,0,0,1-.444.09,1.525,1.525,0,0,1-.3-.032,3.058,3.058,0,0,1-.472-.19,70.194,70.194,0,0,1-9.228-1.555A34.483,34.483,0,0,1,172.091,140.37Zm-25.3,23.559h0a24.435,24.435,0,0,0,5.258,1.681c2.048.479,4.132.862,5.519,1.1.559-1.482,1.118-2.933,1.66-4.314l-.09-.018-.074-.015c.059,0,.119,0,.178,0,3.42-8.744,6.818-16.483,10.387-23.658-.235-.166-.5-.359-.786-.564-2.329-1.684-6.228-4.5-8.913-4.5-.077,0-.153,0-.227.007-1.062,2.824-2.342,5.622-3.579,8.327l0,.005c-.831,1.818-1.691,3.7-2.477,5.569a83.518,83.518,0,0,0-3.738,10.761l0,.007c-.286.962-.581,1.957-.881,2.931-.043.162-.091.322-.138.477-.078.26-.159.53-.217.806a1.712,1.712,0,0,1-.674,1.064,1.927,1.927,0,0,1-1.127.34ZM61.8,23.579a17.378,17.378,0,0,1-2.969,1.867A24.151,24.151,0,0,1,55.6,26.769a64.735,64.735,0,0,1-6.913,1.738,55.91,55.91,0,0,0-7.792,2.052,19.168,19.168,0,0,0-5.026,2.671,17.4,17.4,0,0,0-3.654,3.717,22.368,22.368,0,0,0-3.787,9.635,34.587,34.587,0,0,0-.43,5.449,44.25,44.25,0,0,0,.348,5.557,53.151,53.151,0,0,0,2.435,10.5c.794,2.839,1.726,5.736,2.768,8.611.993,2.739,2.12,5.549,3.349,8.352a177.59,177.59,0,0,0,8.1,16.058c2.649,4.692,5.723,9.736,9.4,15.421,3.271,5.061,6.7,10.136,10.007,15.044l0,.007.017.026c1.79,2.652,3.64,5.4,5.437,8.092a49.542,49.542,0,0,0,7.4,9.8,38.114,38.114,0,0,0,4.569,3.967,32.892,32.892,0,0,0,5.166,3.116,30.2,30.2,0,0,0,8.1,2.583c2.4.43,4.865.778,7.527,1.065,2.371.256,4.849.457,7.574.614,5.062.292,10.228.385,15.224.475h0c5.274.1,10.728.193,16.067.526a5.015,5.015,0,0,1,1.358-2.28,3.252,3.252,0,0,1,2.182-1.017,2.1,2.1,0,0,1,.579.081c.537-2.046,1.163-4.072,1.862-6.022.742-2.07,1.572-4.075,2.469-5.959a46.744,46.744,0,0,1,6.834-10.677,1.8,1.8,0,0,1-.244.016l-.109,0a33.648,33.648,0,0,1-5.633-.919c-.544-.121-1.107-.246-1.661-.36-7.776-1.607-14.767-3.061-21.375-4.443-1.262-.263-2.577-.515-3.848-.758h0c-2.909-.556-5.918-1.13-8.812-1.94a1.79,1.79,0,0,1-.578.091,3.2,3.2,0,0,1-2.075-.918,28.881,28.881,0,0,1-6.548-3.147,22.211,22.211,0,0,1-3.493-3.223,41.277,41.277,0,0,1-3.367-4.39c-1.059-1.571-2.149-3.367-3.24-5.339-1.011-1.828-2.058-3.871-3.112-6.07C88.6,96.089,84.845,86.121,81.528,77.328v0c-2.66-7.052-5.173-13.713-7.405-18.442,7.084,12.276,13.757,26.4,20.21,40.05l0,.008c1.14,2.413,2.32,4.908,3.467,7.319a53.281,53.281,0,0,0,4.826,8.72,23.5,23.5,0,0,0,3.229,3.667,19.562,19.562,0,0,0,1.931,1.551,18.791,18.791,0,0,0,2.185,1.322c-1.809-6.423-3.626-12.944-5.384-19.249l0-.006c-3.335-11.968-6.784-24.343-10.3-36.477-.5-1.6-.933-3.028-1.316-4.363-.488-1.717-.888-3.255-1.223-4.7-.256-1.114-.4-2.274-.546-3.4a26.6,26.6,0,0,0-.808-4.385l0-.012,0-.02a3.565,3.565,0,0,1-1.185-1.107,11.3,11.3,0,0,1-.814-1.444l0,0c-.065-.131-.133-.266-.2-.4-2.09-3.878-4.109-7.733-5.809-10.992-.667-1.332-1.379-2.678-2.068-3.979l0,0a76.115,76.115,0,0,1-5.041-10.877c.051-.429.192-.647.42-.647a.792.792,0,0,1,.426.174,10.307,10.307,0,0,1,.9-3.035l.083-.2a6.389,6.389,0,0,0-1.736-.8,6.629,6.629,0,0,0-1.842-.257,7.86,7.86,0,0,0-3.837,1.047,9.178,9.178,0,0,0-1.456,1.128,9.342,9.342,0,0,0-1.153,1.331,12.015,12.015,0,0,0-1.567,3.133,35.555,35.555,0,0,0-1.373,7.181c-.14,1.15-.272,2.237-.45,3.284-.2,1.449-.407,2.993-.508,4.532a22.716,22.716,0,0,0,.1,4.549,2.259,2.259,0,0,1-.046.9,2.207,2.207,0,0,0,.533.065,4.947,4.947,0,0,0,2.694-1.182,29.313,29.313,0,0,1,4.9-3.486,13.836,13.836,0,0,1,2.515-1.082,8.546,8.546,0,0,1,2.5-.4,6.592,6.592,0,0,1,1.788.243,6.688,6.688,0,0,1,1.734.775,8.627,8.627,0,0,1,1.66,1.379A13.131,13.131,0,0,1,83.12,40.79l.189.258c1.1,1.5,2.244,3.053,3.287,4.626a38.693,38.693,0,0,1,2.814,4.914.269.269,0,0,1-.007.267.265.265,0,0,1-.222.12A.3.3,0,0,1,89,50.907a39.048,39.048,0,0,1-4.182-3.869c-1.307-1.377-2.569-2.843-3.789-4.261h0l-.048-.056-.644-.747a9.219,9.219,0,0,0-1.7-1.635,3.768,3.768,0,0,0-2.19-.69l-.159,0a6.389,6.389,0,0,0-1.767.317,8.2,8.2,0,0,0-1.587.723,22.258,22.258,0,0,0-2.874,2.12,21.966,21.966,0,0,1-2.892,2.129,8.038,8.038,0,0,1-1.6.716,6.281,6.281,0,0,1-1.776.3c-.113.01-.229.015-.343.015a4.351,4.351,0,0,1-1.928-.46,3.788,3.788,0,0,1-1.424-1.188,2.582,2.582,0,0,1-.447-1.058,2.265,2.265,0,0,1,.115-1.169c-.007-.031-.011-.065-.015-.1a26.929,26.929,0,0,1-.054-5.611c.151-1.823.42-3.606.73-5.58l.043-.286A61.625,61.625,0,0,1,61.8,23.579ZM212.323,133.369a88.171,88.171,0,0,0,2.867,8.765A18.607,18.607,0,0,0,216.2,144.6v0a12.964,12.964,0,0,1,1.239,3.49,32.409,32.409,0,0,1,6.5,4.394,37.37,37.37,0,0,1,5.357,5.75c.034-.608.077-1.227.119-1.825a29.677,29.677,0,0,0-.18-8.181,18.278,18.278,0,0,0-6.275-9.735,23.937,23.937,0,0,0-5.027-3.22A24.568,24.568,0,0,0,212.323,133.369Zm-53.552.495a2.219,2.219,0,0,0-.663.449l-.01.006c0,.07,0,.139,0,.218C158.323,134.3,158.551,134.072,158.771,133.864Zm-13.253-21.218c-.442,0-.9.012-1.362.022-1.431.052-2.886.151-4.293.247-.963.065-1.96.133-2.937.185-1.844.1-3.719.2-5.532.3l-.055,0-.911.05c-.688.05-1.5.11-2.295.166l-3.182.226-.052,0c-2.076.148-4.222.3-6.333.446-1.062.074-2.139.143-3.181.21l-.086.006-1.411.091c-.325.021-.665.056-.993.091h0c-.507.053-1.029.107-1.54.116l.618,2.211.062.223.434,1.554a18.581,18.581,0,0,1,.516,1.9,15.806,15.806,0,0,0,.682,2.354,61.056,61.056,0,0,0,6.594,1.706c.782.166,1.594.336,2.413.505a51.7,51.7,0,0,1,7-5.152,62.058,62.058,0,0,1,7.713-4.018,63.045,63.045,0,0,1,8.412-2.916C145.712,113.026,145.622,112.858,145.518,112.646Zm17.616-2.077a25.78,25.78,0,0,1,8.655,1.254,9.992,9.992,0,0,1,3.487,3.148,55.152,55.152,0,0,0,2.954,8.335.519.519,0,0,0,.483.337.735.735,0,0,0,.593-.341.66.66,0,0,0,.047-.65,51.577,51.577,0,0,1-2.411-6.538,33.814,33.814,0,0,1,5.195-2.673,1.331,1.331,0,0,1-.2-.164,5.915,5.915,0,0,1-1.2-1.81,17.952,17.952,0,0,1-.726-2.061c-.158-.516-.322-1.049-.517-1.557-2.022-6.055-4.119-11.919-5.9-16.857-2.215-5.787-4.406-11.7-6.524-17.423-3.92-10.586-7.973-21.532-12.347-32.108-4.186-7.324-12.968-8.189-20.716-8.952l-1.142-.113a61.827,61.827,0,0,1,3.086,7.124c.894,2.427,1.7,4.936,2.48,7.362v0c.471,1.466.958,2.982,1.46,4.464.065.171.128.359.193.575a2.065,2.065,0,0,1-.166,1.648,2.433,2.433,0,0,1-1.46,1.206,2.349,2.349,0,0,1-.618.086,2.163,2.163,0,0,1-1.358-.489,3.035,3.035,0,0,1-.887-1.216,5.315,5.315,0,0,0-2.644-2.777,7.588,7.588,0,0,0-2.873-.453,5.038,5.038,0,0,1-2.2-.353c1.24,4.5,2.727,9.823,4.359,15.241,1.675,5.562,3.286,10.494,4.923,15.076,1.388,3.951,2.891,7.953,4.6,12.234,1.518,3.813,3.161,7.76,5.023,12.066.562,1.294,1.173,2.684,1.923,4.374.131.295.28.594.437.912.215.434.436.882.623,1.337a1.416,1.416,0,0,1,.247.68,5.646,5.646,0,0,1,.15.613,71.424,71.424,0,0,1,7.739-1.253,24.856,24.856,0,0,0-1.724-4.993,30.466,30.466,0,0,1-1.528-4.122c-.829-2.623-1.514-4.933-2.094-7.062-.7-2.578-1.265-4.937-1.72-7.212a64.079,64.079,0,0,1-1.384-14.639h.011a.206.206,0,0,1,.115.035c-.012-.085-.025-.177-.041-.27a.215.215,0,0,1,.061-.009c.137,0,.284.134.439.4a5.758,5.758,0,0,1,.421.978c.269.775.51,1.725.685,2.418.092.364.165.652.217.818.673,2.477,1.212,5.03,1.733,7.5v0c.473,2.241.963,4.558,1.55,6.812a129.193,129.193,0,0,0,4.58,14.107c.119.3.231.615.35.943h0a9.462,9.462,0,0,0,2,3.724,1.419,1.419,0,0,1,.238.309C162.252,110.576,162.7,110.569,163.134,110.569Zm-22.5-9.46c-3.372.047-7,.205-11.412.5-1.641.153-3.285.334-4.886.538-.727.092-1.481.19-2.145.276-2.02.261-4.109.532-6.172.756-1.521.166-2.884.29-4.166.381-.716.051-1.418.092-2.086.123-.339.016-.69.03-1.044.041h-.011l-.018,0h-.005l-.062.007a1.6,1.6,0,0,1-.318.2l.283,1.014.02.071.006.021c.461,1.648.937,3.353,1.41,5.027l.661,2.366a14.179,14.179,0,0,1,2.182-.177h0c.336-.01.683-.02,1.015-.042l1.323-.087c1.1-.072,2.234-.147,3.355-.216,2.054-.126,4.142-.249,6.162-.369h.02l.253-.015,2.919-.173c1.3-.077,2.621-.167,3.9-.254h.008c3.723-.252,7.573-.513,11.356-.513.5,0,1,0,1.487.014-.1-.267-.223-.579-.347-.861C142.969,106.614,141.761,103.793,140.631,101.11Zm-5.455-13.426c-2.537.233-5.118.456-7.613.672h-.014c-2.766.239-5.627.486-8.438.748-1.547.144-3.2.3-5.053.481-1.529.185-3.083.382-4.585.571l-.023,0c-1.47.186-2.991.378-4.5.561-.034.3-.058.6-.071.9,1.079,3.891,1.909,6.878,2.692,9.685a8.036,8.036,0,0,1,1.574-.129c.138,0,.281,0,.409-.009,3.316-.123,6.56-.449,10.413-.9,1.114-.131,2.253-.273,3.355-.412a107.72,107.72,0,0,1,13.285-1.111c1.057,0,2.091.033,3.072.1C138.006,94.828,136.532,91.177,135.176,87.684Zm-30.656.134a.957.957,0,0,1,.546.157c.071.049.133.095.19.14a5.72,5.72,0,0,0,.879-.1c.193-.032.374-.063.537-.078l2.144-.193c1.317-.117,2.616-.231,3.86-.338,2.649-.228,5.32-.45,7.937-.659l.217-.017h.006c4.451-.356,9.054-.725,13.586-1-1.319-3.45-2.488-6.655-3.576-9.8-5.438.031-10.793.394-16.257.8-1.111.082-2.282.175-3.581.284-.98.127-2.12.274-3.241.423-1.374.181-2.78.37-4.18.56l-1.9.259-.507.07c.947,3.39,1.885,6.772,2.69,9.676A1.266,1.266,0,0,1,104.52,87.817Zm-7.462-24.11c1.1,3.828,2.247,7.893,3.618,12.792,3.482-.462,6.862-.9,10.046-1.292,4.017-.5,7.609-.92,10.982-1.287l.313-.034.072-.008h0a40.3,40.3,0,0,1,4.358-.319,13.179,13.179,0,0,1,3.753.482c-1.194-3.527-2.233-6.809-3.177-10.034a9.687,9.687,0,0,1-2.665,1.1c-1,.281-2.043.489-2.961.672h0c-.633.126-1.179.236-1.6.347a46.373,46.373,0,0,1-7.669.649,40.279,40.279,0,0,1-7.733-.727A32.366,32.366,0,0,1,97.057,63.707Zm24.213-37a.3.3,0,0,1,.3.223c.564,1.935,1.148,3.98,1.738,6.078l.033.068.03.061a2.125,2.125,0,0,1,.221.884c.927,3.311,1.846,6.67,2.734,9.919l.048.175.693,2.532c.615-1.307,2.145-1.581,3.321-1.581a10.959,10.959,0,0,1,3.14.516c-.828-2.768-1.7-5.383-2.586-7.771a73.911,73.911,0,0,0-3.319-7.706c-2.8-5.5-5.63-8.573-8.414-9.145a38.5,38.5,0,0,0,1.619,6.491c.033.093.072.2.113.313v-.112c0-.209,0-.425.008-.638a.283.283,0,0,1,.079-.211A.336.336,0,0,1,121.27,26.708Z" transform="translate(37.716 -7.128)"/>
    </g>
    <g id="Head" transform="translate(74.781 38.88)">
      <g id="HEAD-2" data-name="HEAD">
        <path id="_Skin-2" data-name="âœ‹ Skin" d="M74.378,12.351C72.15,4.318,63.633.814,55.963.257,35.2-1.9,14.056,9.663,4.849,28.41c-7.37,14.235-7.6,29.189,8.241,37.317.865.476,1.769.985,2.691,1.448a20.364,20.364,0,0,0,2.528,2.06,49.388,49.388,0,0,0,29.476,7.584c15.15-.3,20.558-10.571,23.868-23.736,3.491-13.107,5.443-27.329,2.725-40.731Z" transform="translate(13.411 31.536)" fill="#d08b5b"/>
        <path id="_Ink-2" data-name="ðŸ– Ink" d="M113.74,109.444c-.707-2.136-1.594-4.208-2.423-6.3A22.978,22.978,0,0,1,111,99.987a47.336,47.336,0,0,1,1.391-11.3,228.064,228.064,0,0,0,4.194-22.553c1.538-13.658.623-27.86-5.6-40.327-5.39-10.8-14.525-19.632-26.324-22.941A50.708,50.708,0,0,0,73.966,1.133q-.671-.107-1.339-.208a71.4,71.4,0,0,0-15.2-.808A47.535,47.535,0,0,0,33.634,7.861,35.375,35.375,0,0,0,19.211,27.667c-2.43,8.569-2.224,17.849-6.421,25.882-1.24,2.373-2.687,4.63-4.067,6.924C5.06,64.553,1.084,69.089.213,74.7c-1.075,6.934,2.92,12.794,6.7,18.2,3.418,4.886,8.055,11.634,4.538,17.649-1.659,2.838-4.317,4.962-6.314,7.549a25.107,25.107,0,0,0-4.521,9.068,19.252,19.252,0,0,0,4.069,17.481,21.439,21.439,0,0,0,8.027,5.482c3.108,1.326,6.145,2.586,8.715,4.843a33.127,33.127,0,0,1,3.266,3.344,25.539,25.539,0,0,0,3.294,4.128c1.369,1.393,4.051-.514,2.795-2.154l-.277-.361c-.919-1.2-1.843-2.393-2.81-3.551a19.529,19.529,0,0,1-2.559-15.476,19.129,19.129,0,0,1,1.547-3.938c.138.361.29.717.45,1.069a21.046,21.046,0,0,0,2.609,4.365,11.541,11.541,0,0,0,.463,2.808c1.713,5.7,7.441,8.519,12.606,10.709.506.216,1.006.423,1.5.629,1.35.564,2.777-1.356,1.936-2.514-.221-.3-.435-.615-.638-.931a18.484,18.484,0,0,1-2.922-12.688c.688-4.72,3.474-8.625,6.24-12.372,2.717-3.685,5.635-7.446,6.85-11.94,1.345-4.966.121-9.917-1.955-14.487-1.9-4.182-4.434-8.037-6.558-12.1q1.091,1.086,2.251,2.1A15.144,15.144,0,0,0,52.3,93.777a.763.763,0,0,0,.922-1.193,32.563,32.563,0,0,0-2.688-2.244c-.845-.721-1.666-1.471-2.467-2.242-.986-.948-1.923-1.942-2.827-2.965a46.841,46.841,0,0,1-1.805-5.649,31.106,31.106,0,0,1-1.222-8.05c.048-2.76,1.484-4.694,3.4-6.547.81-.785,1.627-1.56,2.444-2.337,1.738-1.274,3.378-2.7,4.97-4.117,2.838-2.53,5.583-5.2,8.2-7.955q1.055-1.107,2.089-2.24,3.61-3.7,6.865-7.7A32.442,32.442,0,0,0,76.338,37.5c-.844.853-1.7,1.7-2.544,2.544a46.974,46.974,0,0,1-6.039,5.335.245.245,0,0,0,.188.445,23.866,23.866,0,0,0,7.819-2.953,36.265,36.265,0,0,0,6.684-5.579,25.146,25.146,0,0,0,3.275-1.842l.162-.106c-1,3.162-2.466,6.744-5.591,7.871-.1.037-.1.205.026.2a9.548,9.548,0,0,0,6.42-3.062,42.725,42.725,0,0,0,3.85-3.1,45.919,45.919,0,0,0,3.375-3.435c-1.49,2.948-3.16,5.831-4.806,8.681-.087.151.1.356.251.251a27.78,27.78,0,0,0,8.269-8.969c.318-.528.622-1.064.919-1.605q-.335,1.269-.729,2.523c-.473,1.514-.94,3.031-1.414,4.544a23.8,23.8,0,0,1-.909,2.4,5.632,5.632,0,0,0-.615,1.735A.061.061,0,0,0,95,43.43c1.386-.346,2.677-1.925,3.664-2.9a16.175,16.175,0,0,0,1.539-1.772c.088,3.63.149,7.261.069,10.9-.149,6.687-.582,13.373-1.136,20.038-.489,5.893-.85,12.077-4.142,17.2A19.9,19.9,0,0,1,83.83,94.929q-.594.178-1.194.32c-6.5,1.54-12.969-.205-18.714-3.29a1.52,1.52,0,0,0-1.536,2.622,28.161,28.161,0,0,0,21.191,3.458c-.223,8.322,3.885,16.217,7.971,23.276a83.067,83.067,0,0,1,6.191,12.159,41.473,41.473,0,0,1,2.617,11.292,62.188,62.188,0,0,1-.634,13.712c-.035.246-.069.495-.106.741a1.162,1.162,0,0,0,1.683,1.292c4.2-2.2,6.009-6.9,7.11-11.241a81.231,81.231,0,0,0,2.118-12.39,37.808,37.808,0,0,1,1.393,4.834c.05.236.1.471.145.707a1.407,1.407,0,0,0,2.691,0c.061-.231.119-.462.173-.7a58.437,58.437,0,0,0-1.187-32.281" transform="translate(-16.006 10.152)"/>
      </g>
      <g id="FACE" transform="translate(34.464 40.176)">
        <path id="_Ink-3" data-name="ðŸ– Ink" d="M24.707,36.081a6.619,6.619,0,0,1-2.357-.409l-.113-.045a4.376,4.376,0,0,1-2.291-2.091,1.353,1.353,0,0,1,.544-1.8.442.442,0,0,1,.25-.066.873.873,0,0,1,.581.23,3.332,3.332,0,0,0,2.326,1.17h.024a4.038,4.038,0,0,0,1.949-.634l.416-.237a4.481,4.481,0,0,1,1.268-.54,2.3,2.3,0,0,1,.477-.048,3.107,3.107,0,0,1,1.956.722,1.432,1.432,0,0,1,.511.793.934.934,0,0,1-.21.752,6.147,6.147,0,0,1-3.461,1.987A8.183,8.183,0,0,1,24.707,36.081Zm1.131-9.463h0a7.59,7.59,0,0,1-2.7-.542,13.641,13.641,0,0,1-3.173-1.794,1.214,1.214,0,0,1-.443-.7,1.449,1.449,0,0,1,.063-.788,1.792,1.792,0,0,1,.534-.769,1.3,1.3,0,0,1,.833-.324,1.184,1.184,0,0,1,.644.2l.217.167c1.1.849,2.769,2.133,4.367,2.133a2.612,2.612,0,0,0,1.943-.859,2.855,2.855,0,0,0,.545-2.3c-.369-1.792-2.325-3.1-2.915-3.456a.541.541,0,0,1-.147-.624.81.81,0,0,1,.789-.559,1.108,1.108,0,0,1,.186.016,5.9,5.9,0,0,1,2.07.745,4.69,4.69,0,0,1,1.392,1.279,5.068,5.068,0,0,1,.889,3.4,5.413,5.413,0,0,1-1.481,3.313A4.913,4.913,0,0,1,25.838,26.617ZM9.57,18.342h0a4.928,4.928,0,0,1-1.307-.178A7.7,7.7,0,0,1,4.775,15.4a5.185,5.185,0,0,1-1.1-3.632A.615.615,0,0,1,4,11.335a1.039,1.039,0,0,1,.4-.13c.027,0,.055,0,.082,0a.684.684,0,0,1,.342.086.561.561,0,0,1,.284.419,4.145,4.145,0,0,0,1.239,2.252,5.988,5.988,0,0,0,2.554,1.585,2.11,2.11,0,0,0,.417.043A1.828,1.828,0,0,0,10.647,15l.065-.069A5.064,5.064,0,0,0,11.8,12.414a1.684,1.684,0,0,1,.66-1.119,1.651,1.651,0,0,1,.973-.3,1.846,1.846,0,0,1,.314.027,1.664,1.664,0,0,1,1.14.735,1.376,1.376,0,0,1,.063,1.3c-.108.256-.212.519-.312.774h0l-.088.223a7.789,7.789,0,0,1-1.91,3.123,4.55,4.55,0,0,1-1.44.872A4.632,4.632,0,0,1,9.57,18.342Zm23.806-3.075h0a4.074,4.074,0,0,1-.851-.09,5.338,5.338,0,0,1-2.861-2.028,2.657,2.657,0,0,1-.492-1.35,1.789,1.789,0,0,1,.671-1.452.586.586,0,0,1,.174-.027.614.614,0,0,1,.39.146,3.374,3.374,0,0,1,.63.823l.05.083a2.914,2.914,0,0,0,.277.4,2.706,2.706,0,0,0,1.516.906,1.819,1.819,0,0,0,.3.025,1.8,1.8,0,0,0,1.111-.394,2.5,2.5,0,0,0,.883-1.464,1.207,1.207,0,0,1,.339-.612,1.483,1.483,0,0,1,.61-.364,1.237,1.237,0,0,1,1.042.124,1.227,1.227,0,0,1,.574.636,1.571,1.571,0,0,1,.079.874,4.726,4.726,0,0,1-1.94,2.959A4.355,4.355,0,0,1,33.376,15.267ZM1.37,6.287h0c-.192-.019-.387-.029-.579-.029-.134,0-.269,0-.4.014l-.14.011-.035,0a.206.206,0,0,1-.2-.142A.186.186,0,0,1,.094,5.93c.336-.227.662-.463.978-.691A14.423,14.423,0,0,1,3.68,3.626,25.5,25.5,0,0,1,7.288,2.337l.47-.129.479-.129.324-.085a23.185,23.185,0,0,1,5.689-.907,10.773,10.773,0,0,1,1.2.065,1.984,1.984,0,0,1,1.046.411,1.474,1.474,0,0,1,.527.973A1.579,1.579,0,0,1,15.88,4.287a37.366,37.366,0,0,1-3.88.35A36.8,36.8,0,0,0,8.025,5c-.86.142-1.729.31-2.569.472h0c-.428.083-.871.168-1.307.249-.576.107-1.173.175-1.751.24-.408.046-.829.094-1.24.155l.228.031a.06.06,0,0,1,.051.069A.069.069,0,0,1,1.37,6.287Zm37.642-.73a4.454,4.454,0,0,1-1.556-.395c-.157-.061-.32-.123-.478-.177l-.5-.17A22.964,22.964,0,0,0,34.2,4.141a12.7,12.7,0,0,0-2.793-.332h-.134c-.281,0-.574.029-.857.054-.312.027-.634.055-.948.055a3.085,3.085,0,0,1-1.213-.21A1.853,1.853,0,0,1,27.13,2.416a1.448,1.448,0,0,1,.434-1.331A3.433,3.433,0,0,1,29.017.243,6.2,6.2,0,0,1,30.828,0a12.1,12.1,0,0,1,4.127.812,9.713,9.713,0,0,1,3.189,1.872l.09.084.138.133a5.5,5.5,0,0,1,.878,1.057,2,2,0,0,1,.338,1.258.333.333,0,0,1-.239.312A1.945,1.945,0,0,1,39.012,5.557Z" transform="translate(11.271 13.608)"/>
      </g>
      <g id="MASK" transform="translate(4.769 60.696)">
        <path id="_Color" data-name="ðŸŽ¨ Color" d="M77.342,11.262C76.933,6.1,70.406,3.918,67.154,3.27,56.328.733,47.117,7.241,34.207,7.374a35.541,35.541,0,0,1-6.762-.655C18.654,4.728,9.872,2.611,1.245,0A1.75,1.75,0,0,0,.473,2.885c8.262,2.92,20.9,5.534,27.577,5.832A29.191,29.191,0,0,1,17.083,30.7c10,11.017,33.314,14.64,47.036,8.857,6.75-2.019,13.873-20.089,13.223-28.3" transform="translate(7.9 3.935)" fill="#fff"/>
        <path id="_Ink-4" data-name="ðŸ– Ink" d="M53.038,45.915h0l-3.418-.247C43.823,45.243,37.7,44.687,32.1,43a36.535,36.535,0,0,1-4.08-1.487,29.164,29.164,0,0,1-3.812-2,25.215,25.215,0,0,1-3.468-2.61,24.249,24.249,0,0,1-3.05-3.312l-.059.05a1.854,1.854,0,0,1-.828-1.456,2.151,2.151,0,0,1,.722-1.751l.028.045c.014-.022.029-.044.043-.064l.015-.022-.012-.038a15.228,15.228,0,0,1,1.164-1.065l0,.006A26.277,26.277,0,0,0,28.3,10.208a1.4,1.4,0,0,1-.334.029c-1.766,0-8.721-1.265-15.188-2.762C9.22,6.65,6.184,5.844,4,5.142,1.414,4.312.069,3.649,0,3.173c-.029-.209.195-.383.666-.516C5.148,4.167,9.12,5.324,12.811,6.195a.175.175,0,0,1,.084-.022.131.131,0,0,1,.121.07A120.218,120.218,0,0,0,28.309,8.751c-.005-.232-.014-.479-.027-.734-4.129-.8-8.571-1.847-13.579-3.2C10.2,3.606,5.793,2.3,1.295.956c-.111,0-.178-.106-.175-.267A.708.708,0,0,1,1.818,0a.881.881,0,0,1,.159.015c2.925.682,6,1.518,9.258,2.4,8.81,2.4,17.919,4.875,25.99,4.875h.122A45.29,45.29,0,0,0,48.865,4.886c1.958-.591,3.983-1.2,6-1.656a28.621,28.621,0,0,1,6.181-.764c1.6.031,3.028.113,4.353.252a30.8,30.8,0,0,1,4.482.783,18.679,18.679,0,0,1,4.172,1.591,12.213,12.213,0,0,1,3.421,2.677,28.927,28.927,0,0,1,.622,14.19,33.971,33.971,0,0,1-2.169,6.992,32.9,32.9,0,0,1-3.608,6.331,29.375,29.375,0,0,1-3.8,4.281,25.566,25.566,0,0,1-4.537,3.35,22.682,22.682,0,0,1-5.187,2.193A21.882,21.882,0,0,1,53.038,45.915ZM29.094,8.159a18.364,18.364,0,0,1,.265,6.376,23.242,23.242,0,0,1-1.741,6.226,28.468,28.468,0,0,1-3.288,5.678,29.543,29.543,0,0,1-4.376,4.733c9.258,7.985,13.319,9.18,25.347,10.464l1.583.188c2.311.273,4.767.543,7.168.584C66.566,41.5,75.805,28.535,77.188,17.043l.008-.321c.063-2.948-.062-6.053-1.386-8.78a1.047,1.047,0,0,1-.575-.448,28.76,28.76,0,0,0-13.129-3.34c-4.51,0-8.521,1.108-12.768,2.281L49.1,6.5c-1.966.543-4.193,1.158-6.5,1.613a36.067,36.067,0,0,1-7.023.733,30.944,30.944,0,0,1-6.485-.686ZM41.218,19.3a15.283,15.283,0,0,1-2.689-.24,16.53,16.53,0,0,1-2.643-.709.149.149,0,0,1-.089-.166.105.105,0,0,1,.106-.093h.017a17.572,17.572,0,0,0,2.061.121,18.692,18.692,0,0,0,4.893-.658A13.614,13.614,0,0,0,46.5,16.1a18.009,18.009,0,0,1,2.66-1.2.8.8,0,0,1,.174-.019.894.894,0,0,1,.764.456.7.7,0,0,1-.032.738,6.082,6.082,0,0,1-3,2.169,16.617,16.617,0,0,1-3.688.909A15.54,15.54,0,0,1,41.218,19.3ZM74.876,17.7a10.339,10.339,0,0,1-4.645-1.253,10.924,10.924,0,0,1-2.02-1.348,7.151,7.151,0,0,1-1.453-1.635.07.07,0,0,1,.018-.053.119.119,0,0,1,.087-.026,7.362,7.362,0,0,1,1.793.806c.116.063.207.113.255.138A15.263,15.263,0,0,0,74.4,15.97c.643.107,1.307.217,1.952.355a.623.623,0,0,1,0,1.191A5.77,5.77,0,0,1,74.876,17.7Z" transform="translate(7.153 3.24)"/>
      </g>
    </g>
  </g>
</svg>
